<svg xmlns="http://www.w3.org/2000/svg" xmlns:xlink="http://www.w3.org/1999/xlink" width="437.39" height="284.02" viewBox="0 0 437.39 284.02">
  <defs>
    <style>
      .cls-1, .cls-13 {
        fill: none;
      }

      .cls-2 {
        isolation: isolate;
      }

      .cls-15, .cls-3 {
        opacity: 0.19;
      }

      .cls-33, .cls-4 {
        fill: #ffc329;
      }

      .cls-5 {
        fill: #00a09d;
      }

      .cls-12, .cls-18, .cls-34, .cls-6, .cls-8 {
        fill: #0e2433;
      }

      .cls-7 {
        fill: #00c5ba;
      }

      .cls-29, .cls-8 {
        opacity: 0.25;
      }

      .cls-14, .cls-15, .cls-23, .cls-29, .cls-9 {
        fill: #017ce6;
      }

      .cls-9 {
        opacity: 0.52;
      }

      .cls-10 {
        fill: #bfdff6;
      }

      .cls-11, .cls-26 {
        opacity: 0.5;
      }

      .cls-12 {
        opacity: 0.47;
      }

      .cls-13 {
        stroke: #0e2433;
        stroke-miterlimit: 10;
      }

      .cls-13, .cls-34 {
        opacity: 0.31;
      }

      .cls-16 {
        opacity: 0.33;
      }

      .cls-17 {
        clip-path: url(#clip-path);
      }

      .cls-18 {
        opacity: 0.85;
      }

      .cls-19, .cls-20, .cls-26 {
        fill: #f9b191;
      }

      .cls-20 {
        opacity: 0.51;
      }

      .cls-20, .cls-26, .cls-33 {
        mix-blend-mode: multiply;
      }

      .cls-21 {
        fill: #f4501e;
      }

      .cls-22 {
        fill: #fff;
      }

      .cls-23 {
        opacity: 0.13;
      }

      .cls-24 {
        opacity: 0.32;
      }

      .cls-25 {
        opacity: 0.42;
      }

      .cls-27 {
        clip-path: url(#clip-path-2);
      }

      .cls-28 {
        clip-path: url(#clip-path-3);
      }

      .cls-30 {
        fill: #6a3bc4;
      }

      .cls-31 {
        fill: #ab79f2;
      }

      .cls-32 {
        clip-path: url(#clip-path-4);
      }

      .cls-33 {
        opacity: 0.4;
      }
    </style>
    <clipPath id="clip-path">
      <polygon class="cls-1" points="209.05 36.37 199.38 172.69 343.71 181.69 362.71 181.36 364.04 28.04 209.72 29.04 209.05 36.37"/>
    </clipPath>
    <clipPath id="clip-path-2">
      <path class="cls-1" d="M277.45,70.23"/>
    </clipPath>
    <clipPath id="clip-path-3">
      <path class="cls-1" d="M263.1,70.28"/>
    </clipPath>
    <clipPath id="clip-path-4">
      <path class="cls-1" d="M98.23,120.83a6,6,0,0,0,.91,0,9.15,9.15,0,0,1,3.41-3.69c0-.21-.06-.43-.12-.68"/>
    </clipPath>
  </defs>
  <g class="cls-2">
    <g id="OBJECTS">
      <g class="cls-3">
        <path class="cls-4" d="M34.52,226.85C26,197.08,17.33,167,16,136s5.4-63.29,24.68-87.54S93.4,10,123.07,18.92c26.35,7.9,45.28,31.5,70.87,41.61C247.8,81.81,309.33,37.39,365.1,53c27.47,7.7,49.84,30.11,59.64,56.9s-2.19,54.71-13.7,80.82l-60.67,65.18L37.59,242.51Z"/>
      </g>
      <g>
        <g>
          <path class="cls-5" d="M120.07,56s12-5.38,9.22,13.63C129.29,69.66,117,67.72,120.07,56Z"/>
          <path class="cls-5" d="M123.16,40.77s12-5.27,9.1,13.71C132.26,54.48,120,52.43,123.16,40.77Z"/>
          <path class="cls-5" d="M128.29,27.71s12-5.28,9.1,13.7C137.39,41.41,125.11,39.37,128.29,27.71Z"/>
          <path class="cls-5" d="M153.38,38.42s-.29,13.1-16.27,2.45C137.11,40.87,144.16,30.61,153.38,38.42Z"/>
          <path class="cls-5" d="M148.25,51.48S148,64.59,132,53.93C132,53.93,139,43.67,148.25,51.48Z"/>
          <path class="cls-5" d="M144.85,66.89s-.29,13.11-16.27,2.45C128.58,69.34,135.63,59.08,144.85,66.89Z"/>
          <path class="cls-6" d="M131.09,103.49c-3.79-25.62-2.47-53.15,14-74.43.42-.54-.5-1.11-.92-.57C127.53,50,126.21,77.85,130,103.74c.1.69,1.15.43,1.05-.25Z"/>
          <path class="cls-5" d="M149.71,19.27s10.26,8.16-7.88,14.45C141.83,33.72,137.91,21.9,149.71,19.27Z"/>
        </g>
        <g>
          <path class="cls-7" d="M141.49,167.2c-7.05.89-13.84-5-16.56-11.54a19.18,19.18,0,0,1,3.52-19.87,23.8,23.8,0,0,1-11-11.49,17,17,0,0,1,1-15.58c.84-1.31,1.92-2.55,2.19-4.08a8.62,8.62,0,0,0-.91-4.58c-1.44-3.66-2.8-7.47-2.77-11.41s1.72-8.09,5.13-10.06c3.7-2.14,8.63-1.19,12,1.45s5.37,6.65,6.64,10.73a7.18,7.18,0,0,0,1.39,3,8,8,0,0,0,3.17,1.65c10.78,4.08,15.59,19.08,9.2,28.66a32.7,32.7,0,0,1,14.33,18.56c2.27,7.74.67,17.63-6.5,21.32C162.26,163.91,150.92,166,141.49,167.2Z"/>
          <path class="cls-8" d="M143.54,130.15a.81.81,0,0,0,.1-.09L150,119.5a.5.5,0,0,0-.86-.51l-6,10C135.31,105.7,125.71,79.71,125,77.88a.5.5,0,0,0-.64-.29.49.49,0,0,0-.29.64c.13.35,6.2,16.78,12.67,35.32l-8-3.73a.49.49,0,1,0-.42.89l8.88,4.15c4.05,11.61,8.2,23.9,11.11,33.5l-9.21-3.7a.5.5,0,0,0-.65.27.49.49,0,0,0,.28.64l9.85,4a.15.15,0,0,0,.09,0c2.19,7.27,3.6,12.84,3.6,15.1a.5.5,0,0,0,.5.5.5.5,0,0,0,.5-.5C153.3,160.51,148.88,146.09,143.54,130.15Z"/>
        </g>
        <g>
          <path class="cls-5" d="M57.73,119.58s-12.7,2.2,0,16.18C57.72,135.76,66.67,127.41,57.73,119.58Z"/>
          <path class="cls-5" d="M46.81,108.85S34.13,111.16,47,125C47,125,55.82,116.6,46.81,108.85Z"/>
          <path class="cls-5" d="M35.43,101s-12.67,2.31.14,16.18C35.57,117.21,44.45,108.78,35.43,101Z"/>
          <path class="cls-5" d="M20.89,123.58s7.46,10.51,14.61-7C35.5,116.61,24.11,112.13,20.89,123.58Z"/>
          <path class="cls-5" d="M32.27,131.39s7.45,10.52,14.6-7C46.87,124.43,35.48,120,32.27,131.39Z"/>
          <path class="cls-5" d="M43.52,142.08s7.46,10.51,14.61-7C58.13,135.11,46.74,130.63,43.52,142.08Z"/>
          <path class="cls-6" d="M74.89,164.31c-11-23-27.26-44.66-52.36-52.94-.65-.21-.22-1.18.42-1,25.38,8.37,41.79,30.34,52.93,53.54.3.61-.7,1-1,.37Z"/>
          <path class="cls-5" d="M13.34,106s-3.87,12.29,14.38,7.42C27.72,113.38,24.4,101.6,13.34,106Z"/>
        </g>
        <g>
          <path class="cls-7" d="M89.22,224.23c-5.45,4.55-14.33,3.27-20.17-.78a19.19,19.19,0,0,1-7.77-18.62,23.83,23.83,0,0,1-15.48-3.71,17.08,17.08,0,0,1-7.59-13.65c0-1.55.24-3.18-.36-4.62a8.7,8.7,0,0,0-3.24-3.36c-3.19-2.3-6.39-4.77-8.49-8.11S23.2,163.65,25,160.15c1.95-3.8,6.61-5.66,10.86-5.26s8.12,2.7,11.39,5.45A7.24,7.24,0,0,0,50,162.07a8.07,8.07,0,0,0,3.57-.32C64.86,159.36,77,169.38,76.8,180.9a32.68,32.68,0,0,1,22.08,7.89c6.09,5.28,10.09,14.47,6.05,21.45C104.93,210.24,96.52,218.13,89.22,224.23Z"/>
          <path class="cls-8" d="M70.94,191.94a.7.7,0,0,0,0-.14l-.32-12.34a.5.5,0,0,0-.51-.48.51.51,0,0,0-.49.52L70,191.15c-19.15-15.35-41.26-32-42.82-33.21a.5.5,0,0,0-.7.1.49.49,0,0,0,.1.69c.3.23,14.28,10.78,29.74,22.88l-8.75,1.18a.5.5,0,0,0-.43.56.49.49,0,0,0,.56.43l9.71-1.31c9.68,7.59,19.81,15.69,27.45,22.19l-9.75,1.86a.5.5,0,1,0,.18,1l10.43-2,.09,0c5.76,4.94,10,8.87,11.17,10.77a.5.5,0,1,0,.84-.54C95.55,212.22,84,202.46,70.94,191.94Z"/>
        </g>
      </g>
      <g>
        <g>
          <path class="cls-9" d="M412.26,196.84l-1.22-3.1-9.39,10.45h0l-236-2.46c-5.88-.06-14.21,1.38-18.64,3.25L58.7,242.17H25.83l.76,15.1a1.07,1.07,0,0,0,.05.91l.05,1,1.37-.05a13.57,13.57,0,0,0,3.67.6L340.5,275.26c10.73.54,22.33-2.54,25.56-6.71l46.2-56.35Z"/>
          <g>
            <path class="cls-10" d="M399.62,192.25l-236-5.69c-6.3-.15-10.9-5.92-10.26-12.81L167.17,25.8c.61-6.52,6.11-12,12.24-12.1L408.8,8.29a11.66,11.66,0,0,1,12.05,12.36l-7.54,158.46A13.71,13.71,0,0,1,399.62,192.25Z"/>
            <g class="cls-11">
              <path class="cls-6" d="M388.56,181.93l-213.82-4.6c-6.6-.14-11.42-6.12-10.76-13.31L175.32,40.16c.63-6.86,6.37-12.53,12.82-12.66l208.65-4.12a12.15,12.15,0,0,1,12.49,13l-6.53,131.94A14.24,14.24,0,0,1,388.56,181.93ZM188.05,28.5c-5.93.11-11.22,5.33-11.79,11.65L164.93,164c-.6,6.61,3.83,12.11,9.9,12.24l213.79,4.53a13.08,13.08,0,0,0,13-12.54l6.57-131.91a11.18,11.18,0,0,0-11.49-11.92Z"/>
            </g>
          </g>
          <g>
            <path class="cls-10" d="M338.85,260.68,30.08,245.19c-7.29-.37-6.87-3.33.65-6.51l114.55-48.29c4.42-1.87,12.75-3.31,18.63-3.25l236,2.47c7.77.08,12.8,1.91,11.09,4.13L364.41,254C361.18,258.14,349.58,261.22,338.85,260.68Z"/>
            <path class="cls-12" d="M383.36,192.6l-215-2.62c-6.3-.08-15.13,1.48-19.82,3.51L100.9,214.11c-6,2.62-5.35,5,1.75,5.2l248.21,7.79c9.61.3,19.8-2.13,22.54-5.33l21.11-24.72C396.54,194.67,391.49,192.7,383.36,192.6ZM190.28,205.93l16.67.36-8.34,4.56-17-.42Zm-9.72,4.48L163.93,210l9-4.44,16.31.35ZM208,206.32l17,.37-8,4.61-17.36-.43Zm18.12.39,17.4.38-7.61,4.67-17.75-.43Zm18.51.4,17.78.38-7.2,4.74-18.16-.44Zm18.92.41,18.18.39L275,212.72l-18.57-.46Zm19.35.42,18.58.4-6.34,4.87-19-.46Zm19.78.42,19,.42-5.89,4.94-19.44-.48Zm.49-.38,5-3.88,18.63.35-4.69,3.94ZM302,208l-18.55-.4,5.38-3.83,18.23.34Zm-19.72-.43-18.14-.38,5.72-3.79,17.83.34ZM263,207.12l-17.75-.38,6-3.73,17.45.33Zm-18.87-.4-17.36-.37,6.35-3.69,17.08.33Zm-18.45-.4-17-.36,6.64-3.64,16.73.32Zm-18.07-.38L191,205.58l6.92-3.6,16.38.32Zm-17.68-.38-16.29-.35,7.19-3.55,16,.3Zm-17.31-.37-16-.35,7.44-3.5,15.72.3Zm-17-.37L140,204.49l7.69-3.47,15.4.3Zm-.74.35-9.32,4.38-15.93-.39,9.61-4.33Zm1,0,16,.35-9,4.43-16.27-.39Zm6.21,5.15L152.65,215l-16.6-.46,9.8-4.62Zm1.05,0,16.65.41-9.16,4.74-17-.47Zm17.71.44,17,.42-8.8,4.8-17.34-.48Zm18.11.44,17.39.43L208,216.55l-17.74-.49Zm18.5.46,17.78.44-8,4.94-18.15-.5Zm18.92.47,18.19.45-7.61,5-18.58-.52Zm19.36.48,18.6.46-7.18,5.08-19-.53Zm19.79.49,19,.47-6.72,5.15-19.47-.54Zm20.26.5,19.49.48-6.24,5.23-19.94-.55Zm20.74.51,19.94.49L330.8,220l-20.43-.56Zm.48-.41,5.86-4.95,19.45.42-5.4,5Zm6.32-5.34,4.66-3.93,19,.36-4.29,4Zm5.1-4.3,4.45-3.76,18.67.31-4.1,3.81Zm-1.19,0-18.6-.35L313.5,200l18.26.31Zm-19.77-.37-18.19-.35,5.15-3.66,17.87.3Zm-19.33-.37-17.8-.33,5.47-3.62,17.5.29ZM269.27,203l-17.42-.33,5.79-3.57,17.13.29Zm-18.51-.35-17-.32,6.08-3.53,16.77.28Zm-18.12-.34-16.7-.32,6.36-3.48,16.43.27ZM214.89,202l-16.35-.31,6.64-3.44,16.09.27Zm-17.37-.32-16-.31,6.89-3.4,15.78.26Zm-17-.33L164.8,201l7.14-3.37,15.46.26ZM163.82,201l-15.38-.29,7.37-3.33,15.16.26Zm-16.34-.31-13.95-.27,7.58-3.29,13.75.23Zm-.73.32-7.7,3.47-14.16-.31,7.9-3.42Zm-8.46,3.81-9.61,4.33-14.44-.36,9.87-4.28Zm-10.41,4.69-10.13,4.55-14.7-.41,10.38-4.5Zm1,0,16,.39L135,214.53l-16.24-.45Zm5.32,5.39-9.89,4.65-16.55-.51,10.17-4.59Zm1,0,16.62.47-9.57,4.71-16.92-.52Zm17.69.5,17,.47-9.24,4.78-17.31-.53Zm18.08.5,137.56,3.86-6.31,5.3L161.8,220.73Zm138.85,3.89,20.46.58-5.8,5.38-20.95-.65Zm21.78.61,21,.59-5.27,5.47-21.48-.67Zm.47-.44,5.69-5.32,20.43.51-5.18,5.39Zm6.14-5.73,5.37-5,19.91.43-4.89,5.09Zm5.79-5.41,4.28-4,19.48.37-3.88,4Zm4.68-4.37,4.08-3.81,19.08.32-3.71,3.86Zm4.46-4.17,3.9-3.63,18.69.27-3.54,3.68Zm-1.19,0L333.35,200l4.26-3.59,18.29.27ZM332.18,200l-18.23-.3,4.6-3.55,17.91.27Zm-19.37-.32L295,199.36l4.92-3.51,17.54.26Zm-19-.31-17.47-.29,5.24-3.46,17.17.25ZM275.28,199l-17.1-.28,5.54-3.43,16.82.25Zm-18.17-.3-16.75-.28,5.83-3.38,16.47.24Zm-17.8-.3-16.41-.27,6.1-3.34,16.15.23Zm-17.44-.29-16.07-.26,6.36-3.31,15.83.23Zm-17.08-.28L189,197.6l6.61-3.27,15.52.23Zm-16.74-.28-15.44-.26,6.85-3.22,15.22.22Zm-16.41-.27-15.13-.25,7.08-3.2,14.92.22ZM155.56,197l-13.73-.23,7.28-3.16,13.54.2Zm-53.66,17.1.29-.12,14.72.41L106.72,219l-3.19-.1C97,218.71,96.36,216.55,101.9,214.14ZM372,221.73c-2.53,2.94-11.89,5.17-20.71,4.89l-2.58-.08,5.23-5.47,18.07.5.39-.45-18-.5,5.16-5.4,17.58.44.37-.43L360,214.8l4.86-5.09,17.13.37.34-.4-17.09-.37,3.87-4.05,16.75.32.33-.38-16.72-.32L373.1,201l16.4.28.32-.37-16.37-.27L377,197l16.06.23.3-.35-16-.23,3.48-3.64H379.6l-3.5,3.63-18.66-.27,3.85-3.59h-1.15l-3.87,3.59L338,196.06l4.2-3.55h-1.12l-4.23,3.55L319,195.79l4.55-3.51h-1.1l-4.57,3.5-17.5-.25,4.87-3.47h-1.08l-4.89,3.47-17.15-.25,5.19-3.43h-1.06l-5.2,3.42-16.8-.24,5.49-3.39h-1l-5.5,3.39-16.46-.24,5.78-3.35h-1l-5.79,3.35-16.12-.24,6-3.31h-1l-6.06,3.31-15.8-.23,6.31-3.27-1,0-6.32,3.28-15.5-.23,6.56-3.23-1,0L195.3,194l-15.19-.22,6.79-3.2H186l-6.81,3.2-14.9-.22,7-3.17h-.92l-7,3.17-13.5-.19a53.66,53.66,0,0,1,17.88-3.09l215.35,2.66c7.49.09,12.13,1.91,10.24,4.11Z"/>
            <path class="cls-13" d="M216.2,250.45,134,246.52c-8.17-.39-9.46-3.52-3.11-6.86l20.43-10.75c5.57-2.93,16.13-5.06,23.68-4.81l75.49,2.48c8.33.27,11.78,3,7.46,6.21L242,244.51C237.06,248.16,225.33,250.88,216.2,250.45Z"/>
          </g>
          <path class="cls-14" d="M367.45,261.34a1.47,1.47,0,0,1-.93-.33,1.51,1.51,0,0,1-.21-2.12l33.82-41.32a1.5,1.5,0,0,1,2.32,1.9L368.63,260.8A1.5,1.5,0,0,1,367.45,261.34Z"/>
          <path class="cls-14" d="M404.83,214.18a1.51,1.51,0,0,1-.72-.18,1.14,1.14,0,0,1-.43-1.68l3.86-5.55a1.45,1.45,0,0,1,1.87-.38,1.15,1.15,0,0,1,.44,1.68L406,213.61A1.4,1.4,0,0,1,404.83,214.18Z"/>
          <path class="cls-14" d="M336.29,271.16h-.09l-17.87-1a1.51,1.51,0,0,1-1.42-1.58,1.54,1.54,0,0,1,1.58-1.42l17.88,1a1.5,1.5,0,0,1-.08,3Z"/>
        </g>
        <circle class="cls-6" cx="289.36" cy="19.62" r="2.02"/>
        <circle class="cls-7" cx="296.64" cy="19.62" r="2.02"/>
        <path class="cls-15" d="M176.26,40.15,164.93,164s-3.59,8.5,9.1,9.84,219.86,6.68,219.86,6.68S352.46,134.45,293,135.12s-64.82-34.75-70.16-44.77S208.55,34.05,176.26,40.15Z"/>
        <g class="cls-16">
          <path class="cls-14" d="M403.7,131.16l-2.95-.09-.58-51.61-.65.22c-3.26,1.08-11.1-.58-11.18-.59l-.61-.13V89.38h-15V79.86l-.75.43c-3.76,2.14-8.7.55-8.75.53l-.64-.21-1.17,48.75,1,0L363,103h8.68v27.18l-150.38-4.76.29-17.28-6.45.09c3.11-3.7,6.54-8.7,5.86-12.12-.29-1.42-.88-2.24-1.77-2.43a3.28,3.28,0,0,0-2.37.74c1.91-3.31,3.8-7.55,2.32-9.4a1.44,1.44,0,0,0-1.51-.66c-1.07.25-2,2-2.69,3.93.23-6.05.05-16-3.41-17.72a1.43,1.43,0,0,0-1.61.07c-1.79,1.36-1.15,8.71-.3,14.59a7.83,7.83,0,0,0-3.86-3.8,1.28,1.28,0,0,0-1.45.22c-1.64,1.63.89,10.52,2.91,16.69a7.9,7.9,0,0,0-3.82-2c-1-.21-1.43.13-1.65.46-1.07,1.61,2.06,7.21,4.85,11.61l-6.15.09v16.31l-32.05-1,0,1,32.08,1V126l20.79.61v-.21l182.36,5.77Zm-201-33.88c0-.07.14-.09.26-.09a1.53,1.53,0,0,1,.34,0,7.63,7.63,0,0,1,5.17,4.43c.32.92.59,1.65.76,2.12l1-.27a10.79,10.79,0,0,0-.83-2.36c-2.7-7.76-5.47-17.61-4.24-18.83,0,0,.1-.11.4,0,3.12,1.17,4.56,5.93,5.12,8.4.12.65.22,1.17.29,1.53l1-.16c0-.09-.1-.76-.32-1.72-1.32-7.32-2.58-17.74-1-19,.05,0,.19-.14.55,0,3.51,1.75,3.06,15.94,2.59,21.26l1,.15c.76-3.45,2.2-7.32,3.19-7.54.05,0,.22-.06.51.3,1.48,1.86-2.33,8.61-5.12,12.49l-.05.07.81.59.06-.09c1.26-1.74,3.66-4.31,4.92-4,.58.13.86,1,1,1.64.65,3.23-3.09,8.35-6.21,12l-6,.09C204.57,103.15,202,98.22,202.66,97.28Zm-1.14,12.12,19.08-.27-.27,16.23-18.81-.59ZM371.71,102h-8.65l.47-20a13.19,13.19,0,0,0,8.18-.41Zm17-21.78c1.83.35,7.29,1.29,10.46.61l.45,40.63-10.29.57,0,1,10.25-.57,0,3.58H389.24l-.51-36.15Zm-16,22.78h.07v-1h-.07V90.38h15v11h.16l.19,13.26-15.37.53Zm0,27.21V116.12l15.38-.53.21,14.93h1l0-3.5H399.7l.05,4Z"/>
          <rect class="cls-14" x="363.05" y="108.27" width="8.58" height="1"/>
        </g>
      </g>
      <path class="cls-4" d="M226.07,172.47a261.73,261.73,0,0,1,1.35-35.85c1.17-11.06,3.43-22.82,11.31-30.67,6.63-6.61,16.18-9.33,25.43-10.69C277,93.37,290,93.58,303,94.47c8.35.58,16.77,1.45,24.69,4.14s15.4,7.37,20.12,14.27c7.91,11.56,6.84,26.82,5.45,40.76q-1.28,12.74-2.54,25.47Z"/>
      <g class="cls-17">
        <g>
          <path class="cls-18" d="M262.14,95.06l17.62.82.68-55.7s-15.88.85-20.22,20.37S257.13,89.85,262.14,95.06Z"/>
          <path class="cls-19" d="M286.17,82.63s-6.5,26.62-9.79,29.75,20,18.32,28.62,3.17c0,0-2.82-12.52.5-31.37S290.74,69.56,286.17,82.63Z"/>
          <path class="cls-20" d="M276.48,113.28c6.64,1.79,14.16-9.35,17.11-14.31,4.9-8.23,6.54-17.7,8.63-26.92-4.87-2.41-13.16,2.31-16.05,10.58,0,0-6.5,26.62-9.79,29.75a1,1,0,0,0-.3.83A2.79,2.79,0,0,1,276.48,113.28Z"/>
          <path class="cls-21" d="M271.73,111.29l-20,3.5-2.95,69.54,57.44,10.28,16.49-71.68-17.82-6.88S277.58,111.25,271.73,111.29Z"/>
          <path class="cls-19" d="M263.63,66.62c0,.29,0,.59.06.89a69.66,69.66,0,0,0,.45,13.93c.16.87.33,1.74.55,2.6.94,3.78,2.16,8.14,4.31,11.45,3.26,5,8.83,2.7,13.54,1.12C291.86,93.49,300.78,88.86,307,81a58.6,58.6,0,0,0,8.06-14.74c1.78-14.2-6.76-27.41-19.95-30.16-12.45-2.6-24.83,5-29.59,17.4C264.73,57.86,264,62.23,263.63,66.62Z"/>
          <path class="cls-22" d="M271.73,111.29s-9.47,69.53-9.31,76.06-18.66-2.41-18.66-2.41l1.68-71.26S264.6,109.09,271.73,111.29Z"/>
          <path class="cls-22" d="M316.49,172.13c2.25-9.38,5.42-18.51,7.56-27.92,1.51-6.64,3.23-14.6,2.27-21.81-6.07-3-18.11-8.51-22.05-7.92,0,0-13.9,71.71-13.32,78.32S312,196.5,312,196.5l5.26-21.31A3,3,0,0,1,316.49,172.13Z"/>
          <path class="cls-23" d="M308.31,177.29c2.36,1.89,4.8,3.66,7.09,5.57l1.9-7.67a3,3,0,0,1-.81-3.06c1.55-6.47,3.54-12.83,5.33-19.24-7.27-3.53-15.05-6.19-23.13-6.67a2.32,2.32,0,0,1-.38-.06c-.88,4.77-1.77,9.69-2.62,14.48C299.81,166.54,302.5,172.63,308.31,177.29Z"/>
          <path class="cls-22" d="M245.44,113.68s-45.77,38.36-42,44.22,9,8.09,18.29,4.52,34.54-23.86,34.54-23.86S256.25,113.85,245.44,113.68Z"/>
          <path class="cls-22" d="M325.16,121.62s29.95,51.66,24.44,55.9-11.21,4.53-18.73-2-24.35-34.2-24.35-34.2S314.94,118.09,325.16,121.62Z"/>
          <g class="cls-24">
            <path class="cls-14" d="M294.71,169.77l-1.09-.52,14.17-29.81c-1.75-.66-5.1-2.15-4.79-3.93.12-.66,1.17-2.08,3.94-5.68,2.6-3.39,8.69-11.33,7.94-12.46-2.68-1.3-10.6-2.28-10.68-2.29l.15-1.2c.33,0,8.19,1,11,2.4a1.23,1.23,0,0,1,.66.84c.47,2-3.25,7-8.17,13.44a45.85,45.85,0,0,0-3.7,5.16c-.11.61,2.09,1.95,4.62,2.8l.64.22Z"/>
          </g>
          <g class="cls-24">
            <path class="cls-14" d="M264.1,165c-.78-1.76-6.43-30.59-4.84-32.61a.73.73,0,0,1,.72-.28c.8.14,3.43-1.91,5.55-4-2-3.11-9-14.09-8.36-16.44a1,1,0,0,1,.51-.66c2-1,12.85-.4,14.09-.32l-.08,1.2c-4.43-.26-11.86-.45-13.37.15-.24,1.39,4.17,9.22,8.49,15.82l.27.41-.35.34c-1.08,1.1-4.59,4.5-6.55,4.69-.57,3.15,3.75,28.32,5,31.22Z"/>
          </g>
          <path class="cls-22" d="M349.61,168.84C347,164.39,343,161,339.49,157.19l-35-14.91-9.82,11.81c20,20.83,33.06,29.36,41.53,32.14C346,188,355.46,178.72,349.61,168.84Z"/>
          <g>
            <rect class="cls-14" x="304.24" y="117.23" width="3.78" height="42.39" rx="1.57" transform="matrix(0.69, 0.73, -0.73, 0.69, 196.29, -179.09)"/>
            <rect class="cls-4" x="313.89" y="128.41" width="5" height="0.96" rx="0.4" transform="translate(192.57 -189.52) rotate(46.59)"/>
            <rect class="cls-4" x="311.69" y="124.87" width="0.85" height="13.44" rx="0.35" transform="translate(193.37 -185.63) rotate(46.62)"/>
          </g>
          <path class="cls-22" d="M205.12,163s-1,19.63,49.87-5.7l-4.13-11.58-36.12,2.06S197.47,154.69,205.12,163Z"/>
          <g>
            <rect class="cls-6" x="259.77" y="132.26" width="39.79" height="54.24" transform="translate(31.8 -45.99) rotate(9.96)"/>
            <rect class="cls-4" x="276.99" y="130.09" width="14.52" height="6.41" transform="translate(27.35 -47.18) rotate(9.96)"/>
          </g>
          <path class="cls-19" d="M251.47,147.84l.61-.45.64-.23c0-.7.46-3.22,5.91-7.06,6.48-4.55,6.52-4.85,7.36-3.81s-4.53,5.52-4.65,7.13c.67-.25,1.3-.46,1.85-.62,3-1.06,14.87-5.17,15.1-4,.27,1.31-.73,2.54-12.12,5.7l.35.73c5-1.74,14.23-4.8,14.43-3.79.27,1.39-.85,2.72-13.3,6.28l.3.74c4.6-1.56,12.06-4,12.25-3,.26,1.27-.68,2.47-11.34,5.47.08.27.17.54.24.79,4.28-1.43,10.25-3.28,10.41-2.5.24,1.18-.62,2.29-10.35,5-1,.73-8.63,2-13,2.61C252,155,251.3,151.63,251.47,147.84Z"/>
          <g class="cls-25">
            <path class="cls-14" d="M252.81,146.57a66,66,0,0,0-8.68-.53.63.63,0,0,0-.18-.22,1.63,1.63,0,0,1-.72-1.26c-.37-3.26,5.12-10,7.27-12.31a.6.6,0,0,0,0-.85.59.59,0,0,0-.85,0c-.33.36-8.08,8.79-7.58,13.27a3,3,0,0,0,.49,1.35,80.92,80.92,0,0,0-23.22,3.7.6.6,0,0,0,.08,1.16.57.57,0,0,0,.29,0,80.28,80.28,0,0,1,33-3.13.61.61,0,0,0,.69-.5A.58.58,0,0,0,252.81,146.57Z"/>
            <path class="cls-14" d="M323.07,178.77c-6.6-3.26-22.28-21.42-22.44-21.61a.6.6,0,0,0-.91.79c.65.76,16,18.53,22.82,21.9a.44.44,0,0,0,.16.06.61.61,0,0,0,.37-1.14Z"/>
            <path class="cls-14" d="M343.14,164.15c-7.12-6.46-39.48-17.63-40.85-18.1a.6.6,0,1,0-.39,1.14c.33.12,33.49,11.56,40.43,17.86a.49.49,0,0,0,.3.14.59.59,0,0,0,.55-.18A.62.62,0,0,0,343.14,164.15Z"/>
          </g>
          <path class="cls-22" d="M276.53,110.69a2.35,2.35,0,1,1-1.9-2.72A2.35,2.35,0,0,1,276.53,110.69Z"/>
          <path class="cls-22" d="M279.34,116.56a2.35,2.35,0,1,1-1.91-2.72A2.35,2.35,0,0,1,279.34,116.56Z"/>
          <path class="cls-22" d="M284.81,120.87a2.35,2.35,0,1,1-1.9-2.72A2.34,2.34,0,0,1,284.81,120.87Z"/>
          <path class="cls-22" d="M291.4,122.31a2.35,2.35,0,1,1-1.9-2.72A2.34,2.34,0,0,1,291.4,122.31Z"/>
          <path class="cls-22" d="M298.87,121.08a2.35,2.35,0,1,1-1.91-2.72A2.35,2.35,0,0,1,298.87,121.08Z"/>
          <path class="cls-22" d="M305.58,116.82a2.35,2.35,0,1,1-1.9-2.72A2.35,2.35,0,0,1,305.58,116.82Z"/>
          <path class="cls-6" d="M291.31,53.48c-.65.14-14.6-25.81-26.38,4.93s-2.9,36-2.79,36.65-15-12-2.21-39.35,32.42-27.57,48.53-14.26C308.46,41.45,306,50.36,291.31,53.48Z"/>
          <path class="cls-6" d="M291.31,53.48s3.95,8.67,3.06,13.75-5.64,11.31-4.31,15.42a49.12,49.12,0,0,1,4-4.54c2.49-2.52,4.6-6.71,4.54-9s2.3-5.29,4-2.25,3.5,10-4.54,12.87c0,0,.19,17.12-1.61,19.54s21.19-5.16,21.19-5.16,17-28-10.78-54.07C306.89,40,290.58,48.57,291.31,53.48Z"/>
          <path class="cls-6" d="M292,54.52S287.6,26.63,273,33.4s-21.66,33.79-19.92,42.06c0,0,8.51-32.9,21.79-31.94S291,51.15,292,54.52Z"/>
          <path class="cls-26" d="M298.38,70.83s1.92-3.84,3.52-1.6-1,7.35-4.16,7.35S298.38,70.83,298.38,70.83Z"/>
          <path class="cls-22" d="M301,80.82a2.35,2.35,0,1,1-1.91-2.72A2.35,2.35,0,0,1,301,80.82Z"/>
          <g class="cls-27">
            <ellipse class="cls-6" cx="278.88" cy="70.55" rx="2.52" ry="3.62"/>
          </g>
          <g class="cls-28">
            <path class="cls-6" d="M260.23,68.05c.24,2,1.56,3.45,2.94,3.28s2.31-1.91,2.06-3.89-1.56-3.45-2.94-3.28S260,66.07,260.23,68.05Z"/>
          </g>
        </g>
      </g>
      <g>
        <g>
          <g>
            <circle class="cls-22" cx="100.72" cy="86.72" r="13.53"/>
            <path class="cls-22" d="M103.25,98.56s1.41,5.08.85,6.77,4.51-5.64,4.23-9.31S103.54,95.18,103.25,98.56Z"/>
          </g>
          <path class="cls-6" d="M101.84,94.09a3.14,3.14,0,0,1-.91-.14,3.2,3.2,0,0,1-.93-.53,7.18,7.18,0,0,1-3.18-.3,5.82,5.82,0,0,1-3.88-4.27,4.7,4.7,0,0,1,2.56-5.07,4.32,4.32,0,0,1,.77-.25,5.11,5.11,0,0,1,.5-.88A6.47,6.47,0,0,1,98.84,81a4.16,4.16,0,0,1,3-.63,4.26,4.26,0,0,1,2,1.46,20.65,20.65,0,0,1,2.26,3.16A21.52,21.52,0,0,0,108,80l.58.16a22.05,22.05,0,0,1-2.17,5.38l.07.15c.06.13.13.25.19.38a5.41,5.41,0,0,1,.75,2.76,5.51,5.51,0,0,1-1.89,3.3A5.57,5.57,0,0,1,101.84,94.09Zm-1-.82.26.11c1.45.48,3-.64,4-1.67a5.06,5.06,0,0,0,1.71-2.92,3.42,3.42,0,0,0-.13-1.1,5.94,5.94,0,0,1-.64,1.82,6.67,6.67,0,0,1-4.31,3.56l-.37.06Zm-4.84-9-.28.1a4.06,4.06,0,0,0-2.21,4.41A5.2,5.2,0,0,0,97,92.55a6.53,6.53,0,0,0,2.17.33,4.11,4.11,0,0,1-2.29-1.95,3.08,3.08,0,0,1-.82-.88,5.18,5.18,0,0,1-.44-3.12A13.23,13.23,0,0,1,96,84.23Zm3.91,8.25a4.3,4.3,0,0,0,1.34.06,7.64,7.64,0,0,0,1.09-.42,5.1,5.1,0,0,0,3.14-3.76,3.33,3.33,0,0,0-.14-1.29,10,10,0,0,1-.89.94,3.81,3.81,0,0,1-.56,2.45A4.18,4.18,0,0,1,99.66,92,3.23,3.23,0,0,0,99.93,92.48Zm-1.7-.81a3.7,3.7,0,0,0,.83.51,2.55,2.55,0,0,1-.13-.29C98.69,91.83,98.46,91.75,98.23,91.67Zm1.16-.29a3.8,3.8,0,0,0,4-1.24,3.15,3.15,0,0,0,.48-1.62l-.07.06a2.63,2.63,0,0,1-1.06,1.2q-.21.18-.42.33a7,7,0,0,1-3,1.22v0ZM97.8,90.8a4.93,4.93,0,0,0,.86,0c0-.13,0-.26,0-.39a4.14,4.14,0,0,1-1.37-.2l.12.31h0A3.65,3.65,0,0,0,97.8,90.8Zm1.41-.41c0,.12,0,.24,0,.35a6.28,6.28,0,0,0,1.91-.61l-.19,0A8.18,8.18,0,0,1,99.21,90.39Zm-2.13-.9a2.74,2.74,0,0,0,1.32.32A1.76,1.76,0,0,1,98,89.1a2.08,2.08,0,0,1-.1-.7.36.36,0,0,1,0-.09,2.34,2.34,0,0,1,0-1.25,4.71,4.71,0,0,1,1.08-2.19,4.38,4.38,0,0,0-.68.62A5.16,5.16,0,0,0,97,88.9C97.05,89.11,97.06,89.3,97.08,89.49Zm2.12.12.14,0h0l-.12,0Zm0-.67.32.15a5,5,0,0,0,1.24.39,7.13,7.13,0,0,0,1.36-.54,3.59,3.59,0,0,0,.82-.78,2.57,2.57,0,0,1-2.84-1.42,1.63,1.63,0,0,1-.11-.31,3.37,3.37,0,0,0-.32.19,7.92,7.92,0,0,0-.41,1.81ZM97.3,85.68a3.73,3.73,0,0,0-.91,1.76,2.6,2.6,0,0,0,0,1.22A5.78,5.78,0,0,1,97.3,85.68Zm1.18,2.59a1.56,1.56,0,0,0,.2.27l0-.18a9.38,9.38,0,0,1,.17-1,2.33,2.33,0,0,0-.23.35A1.43,1.43,0,0,0,98.48,88.27Zm7.32-1.76a4.54,4.54,0,0,1,.3,1.26,3.62,3.62,0,0,0,.05-1.08,2.38,2.38,0,0,0-.11-.53,2.14,2.14,0,0,1-.13.19Zm-5.22-.34a2.13,2.13,0,0,0,.11.33,2,2,0,0,0,2.33,1,1.35,1.35,0,0,0,.39-.21l.06-.25a3.58,3.58,0,0,0-.09-.45,3,3,0,0,0-.28-.63A3.1,3.1,0,0,0,100.58,86.17Zm3.72.8.06.31a10,10,0,0,0,.74-.85,3.94,3.94,0,0,0-1-1.23,4.46,4.46,0,0,0-.63-.44,3.17,3.17,0,0,1,.79,1.73A3.85,3.85,0,0,1,104.3,87Zm-3.94-2.58a4.34,4.34,0,0,0-1.93,2.54,3.63,3.63,0,0,1,.8-.72,3.66,3.66,0,0,1,.37-.67,3.5,3.5,0,0,1,.47-.54A2.84,2.84,0,0,1,100.36,84.39Zm-3.65-.33a8.32,8.32,0,0,0-.41,2A5.25,5.25,0,0,1,98.74,84c-.28,0-.53,0-.76,0A8.08,8.08,0,0,0,96.71,84.06Zm6.17-.24a5,5,0,0,1,1.63.92,4.32,4.32,0,0,1,1,1.16c.09-.12.17-.24.25-.37l-.11-.18a3.82,3.82,0,0,0-2.82-1.6Zm-2.28,1.52,0,.19a4.33,4.33,0,0,1,1.88-.33,2.69,2.69,0,0,0-.41-.33A2,2,0,0,0,100.6,85.34Zm2-2.2h.23a4.62,4.62,0,0,1,1.73.46c-.36-.49-.74-1-1.14-1.43a3.73,3.73,0,0,0-1.65-1.27,3.41,3.41,0,0,0-2.59.58A5.65,5.65,0,0,0,97.26,83a3.54,3.54,0,0,0-.26.41c.33,0,.66,0,1-.06a10.09,10.09,0,0,1,2.4.18l.34,0h0A4.64,4.64,0,0,1,102.55,83.14Z"/>
        </g>
        <g>
          <g>
            <polygon class="cls-29" points="69.8 218.91 261.62 226.05 308.78 187.76 132.28 192.03 69.8 218.91"/>
            <path class="cls-4" d="M105.35,198.69S109,220,110.92,221.35s2.37-22.52,2.37-22.52S107.22,193.8,105.35,198.69Z"/>
            <path class="cls-4" d="M253.49,202.58s3.62,21.34,5.57,22.65,2.37-22.51,2.37-22.51S255.36,197.69,253.49,202.58Z"/>
            <path class="cls-4" d="M296.77,173.41s3.1,18.55,4.92,19.67,2.54-19.65,2.54-19.65S298.6,169.13,296.77,173.41Z"/>
            <g>
              <path class="cls-30" d="M306.1,170.9l-5.2,3.95c-30.08,0-161-.7-174.66-12.15C110.86,149.75,106,129.51,106,129.51L58.22,147.05a10.26,10.26,0,0,0-3-3.52c-3-2-2.57,5.57-2.57,5.57a1,1,0,0,0,.23.34c11.4,17.08,22,35.61,40.33,45.44a110.64,110.64,0,0,0,13.26,6c54.26,4.56,158.2,8,158.2,8l42.38-34Z"/>
              <path class="cls-31" d="M128.67,157.07c-15.38-12.95-20.24-33.19-20.24-33.19L55.07,143.47c11.48,17.17,22.12,35.89,40.56,45.79a110.5,110.5,0,0,0,13.25,6c54.27,4.56,154.17,9.58,154.17,9.58l42.9-34S144.05,170,128.67,157.07Z"/>
            </g>
          </g>
          <g>
            <g>
              <path class="cls-6" d="M188.75,184.72c-5.5-2.84-51.7-12.34-51.7-12.34s-1.65.3-3.85.9a44.11,44.11,0,0,1-10.28,9c2.24,5.26,13.06,17.25,65.26,9.07C188.18,191.31,194.25,187.56,188.75,184.72Z"/>
              <path class="cls-6" d="M193.13,171.9c-5.44-2.11-48.92-6.45-53.83-6.93a61.84,61.84,0,0,1-10.77,13.08c4.41,5.26,18.72,12.81,64.74.46C193.27,178.51,198.91,174.13,193.13,171.9Z"/>
              <path class="cls-6" d="M239.65,189.26c-13.86-2.15-66.9-9-66.9-9s3.61,10.3,12.65,10.29c0,0,9.67,7.27,53.89,2.65A35.27,35.27,0,0,1,239.65,189.26Z"/>
              <g>
                <path class="cls-19" d="M238.8,189.53a6.29,6.29,0,0,0,4.2-5.89c.13-4.66-.55-8.75,3.31-8s1.85,15.28.27,17.25-8,0-8,0S236.9,190.13,238.8,189.53Z"/>
                <path class="cls-6" d="M242.82,193.85s4.93-12.12.41-14.17c0,0-1.23-4.52,2.05-4.52s4.73,5.75,3.49,10.27S249.6,194.05,242.82,193.85Z"/>
              </g>
              <g>
                <path class="cls-19" d="M246.2,170.84a6.27,6.27,0,0,0,4.19-5.89c.13-4.66-.55-8.75,3.31-8s1.85,15.29.27,17.25-7.94,0-7.94,0S244.3,171.45,246.2,170.84Z"/>
                <path class="cls-6" d="M250.21,175.16s4.93-12.11.41-14.17c0,0-1.23-4.52,2.06-4.52s4.72,5.75,3.49,10.27S257,175.37,250.21,175.16Z"/>
              </g>
              <path class="cls-6" d="M245.62,171.07c-11.35-.66-68.87-1.87-68.87-1.87s4.69,9.85,13.68,8.88c0,0,10.68,6.38,55.74-3.51C246,173.41,245.78,172.24,245.62,171.07Z"/>
            </g>
            <g>
              <path class="cls-19" d="M93.75,138.06s5.11,6.71,6.41,9.08,8.52-1.34,7.55-6.13l-6.55-9.84S90.24,132.71,93.75,138.06Z"/>
              <path class="cls-26" d="M107,144.5a4.76,4.76,0,0,0,.7-3.49l-6.55-9.84a19.06,19.06,0,0,0-6,2A78.76,78.76,0,0,0,107,144.5Z"/>
              <path class="cls-19" d="M102.79,112A14.41,14.41,0,1,0,78,126.76a15.2,15.2,0,0,0,4.7,5.19c2.92,2.46,9.52,7.52,13.24,6.38,4.87-1.49,15-4.2,15.63-8.38C112.13,126.5,106.82,117.22,102.79,112Z"/>
              <path class="cls-26" d="M100.51,136.38a16.68,16.68,0,0,1-8.66,1.48,6.54,6.54,0,0,0,4.12.47c4.87-1.49,15-4.2,15.63-8.38v0C108.62,132.92,103.67,135,100.51,136.38Z"/>
              <path class="cls-6" d="M93.75,138.06s.88-3.81-4.43-6.93c0,0-6.26-1.26-4.7-6.89s5.64.94,6.89,2.82,4.38,3.44,5.63,2.81-9.07-8.76-9.07-11.26,5.94-4.69,3.75-12.82c0,0,1.56,8.44,1.56,9.38s8.45-2.5,7.2-7.51c0,0-13.45-11.26-24.09,3.76S84.42,141.25,93.75,138.06Z"/>
              <path class="cls-6" d="M76.66,116.7c-1.8-1.5-2.72-3.83-4.38-5.5A8.62,8.62,0,0,0,69,108.88a3.58,3.58,0,0,0-3.78.83,3.7,3.7,0,0,0,.11,4.41A10.84,10.84,0,0,0,69,117a8.49,8.49,0,0,0-4.75.54c-1.49.62-2.91,2-2.79,3.55a3.1,3.1,0,0,0,2.67,2.61,5.1,5.1,0,0,0,3.74-1.14,7.5,7.5,0,0,0-1.43,2.81,2.57,2.57,0,0,0,1.1,2.76,3.35,3.35,0,0,0,2.49,0,13.65,13.65,0,0,0,6.47-4.32S79.9,119.4,76.66,116.7Z"/>
              <path class="cls-19" d="M103.59,114.71s3.67,2.37,4.75,2.37,0,2.38-1.19,3"/>
              <g class="cls-32">
                <path class="cls-6" d="M102.94,117.57a1.33,1.33,0,0,1-1.3,1.35"/>
              </g>
              <path class="cls-6" d="M92.68,139.45a5.22,5.22,0,0,0,3-4.15c.12-1.08,0-3.63-1.12-4.25s-3.59.42-4.89,0a4.88,4.88,0,0,1-3.36-3.91,2.87,2.87,0,0,1,.46-2.37,2.14,2.14,0,0,1,.88-.82,3.46,3.46,0,0,1,1.61-.53c-.89-1.4-2.4-5.61-6.22-.53-4.21,5.61,5.4,13.71,7.56,14.47A3,3,0,0,1,92.68,139.45Z"/>
              <path class="cls-26" d="M89.88,126.26s-2.06-.76-2.16.75,2.8,4.21,4.64,2Z"/>
              <path class="cls-22" d="M95.38,131.06a1,1,0,1,1-1-1A1,1,0,0,1,95.38,131.06Z"/>
            </g>
            <g>
              <path class="cls-19" d="M131.81,109l-.13-.39c0-.18,0-.34,0-.36-.37-.13-1.59-.8-2.67-4.24-1.27-4.09-1.42-4.16-.74-4.41s2.09,3.27,2.91,3.61c0-.38,0-.74,0-1-.05-1.71-.2-8.46.43-8.38s1.18.81.92,7.16l.44,0c-.07-2.86-.12-8.08.44-8,.76.1,1.26.9,1,7.86l.43,0c0-2.61,0-6.82.46-6.76.7.09,1.17.78.95,6.72l.45,0c0-2.43,0-5.79.43-5.73.65.08,1.08.71.89,6.14.2.66-.43,4.73-.81,7.07C135.59,109.94,133.74,109.73,131.81,109Z"/>
              <path class="cls-4" d="M142.84,135.47c-.37-6.87-5.66-28.75-5.66-28.75l-5.63,1.88c-1.31,14.33-.29,20.11,1,24.28C122,134,106.39,138.8,106.41,143.19c0,1,6,11.52,33.83-2.35C140.24,140.84,144,138.54,142.84,135.47Z"/>
              <path class="cls-33" d="M107,144.28c2,2.68,10,8.18,33.29-3.44a6.66,6.66,0,0,0,2.7-3.37C131.3,141.22,119,142.29,107,144.28Z"/>
              <path class="cls-4" d="M145.05,165.74c-.32-2-9.14-5.12-15.52-12.48,2-4.8-1.46-10.43-3.42-10.12a35.49,35.49,0,0,1-6.41-.64,27.1,27.1,0,0,0-8.34-3.76l-.63.36c-1-1.64-2.74-4.67-3.76-3.32-1.24,1.67-11,4.79-12.48,5.41-1.15.5,2.13,3.33,3.54,4.5l-2.23,2.18a15.48,15.48,0,0,0-.71,11.26c7.28,6.46,18.36,20.48,31,27.63C126.12,186.76,145.74,170.1,145.05,165.74Z"/>
              <path class="cls-33" d="M145.05,165.74c-.2-1.23-3.48-2.85-7.45-5.53-4.23,5.59-10.54,9.17-18.42,8.49-10.45-.9-19.87-9.48-24-19.19a15.37,15.37,0,0,0-.08,9.62c7.28,6.46,18.36,20.48,31,27.63C126.12,186.76,145.74,170.1,145.05,165.74Z"/>
              <path class="cls-34" d="M114.88,139.73c1.27.58,2.54,1.09,3.81,1.58a27.25,27.25,0,0,0,3.88,1.14,12,12,0,0,0,2,.27,6.44,6.44,0,0,0,1,0l.5,0a2.83,2.83,0,0,1,.6,0,3.18,3.18,0,0,1,2,1.06,3.67,3.67,0,0,1,.84,2,3.36,3.36,0,0,0-2.89-2.24,1.89,1.89,0,0,0-.43,0l-.54.06a7.81,7.81,0,0,1-1.08,0,12.63,12.63,0,0,1-2.13-.24A17.54,17.54,0,0,1,114.88,139.73Z"/>
              <path class="cls-34" d="M101.56,143.9c1.56-.77,3.09-1.4,4.51-2.21a8.83,8.83,0,0,0,3.61-3.2,4,4,0,0,1-1,2.41,7.36,7.36,0,0,1-2.08,1.66,10.78,10.78,0,0,1-2.42,1A9.74,9.74,0,0,1,101.56,143.9Z"/>
              <g>
                <path class="cls-19" d="M129.35,161.46l.26-.32.29-.21c-.09-.37-.2-1.76,2.08-4.55,2.72-3.31,2.69-3.47,3.27-3s-1.58,3.54-1.41,4.41a10.36,10.36,0,0,1,.87-.59c1.4-1,6.95-4.82,7.23-4.25s0,1.44-5.47,4.71l.29.33c2.34-1.62,6.68-4.53,6.92-4,.33.69-.06,1.55-6,5.18l.26.34c2.16-1.47,5.68-3.77,5.9-3.32.31.63,0,1.4-5.1,4.48.09.13.16.26.23.38,2-1.36,4.84-3.17,5-2.78.28.58,0,1.29-4.65,4.11-.44.53-4.19,2.24-6.35,3.21C130.62,165.15,129.79,163.49,129.35,161.46Z"/>
                <path class="cls-4" d="M129.35,161.46c-11.76,3.17-15.92,6.45-19.83,8.91-1.75-10.47-7.08-25-11.34-24.83-1,.05-11.24,6.5,3.86,33.69a7.67,7.67,0,0,0,2.21,2.07,4.73,4.73,0,0,0,3,1.38c3.36.16,27.21-17.4,27.21-17.4Z"/>
                <path class="cls-34" d="M104.48,148.68c.78,1.7,1.43,3.45,2.09,5.2s1.19,3.55,1.7,5.35a53.89,53.89,0,0,1,1.26,5.49,31.35,31.35,0,0,1,.49,5.66l-.75-.45c3.19-1.84,6.41-3.62,9.73-5.24,1.65-.81,3.32-1.59,5-2.32a38.44,38.44,0,0,1,5.22-1.83,47.25,47.25,0,0,0-5,2.27q-2.46,1.23-4.87,2.56c-3.21,1.77-6.42,3.57-9.58,5.43l-.77.45,0-.9a31.69,31.69,0,0,0-.42-5.48c-.26-1.83-.68-3.63-1.08-5.45s-.9-3.6-1.42-5.39S105,150.46,104.48,148.68Z"/>
              </g>
            </g>
          </g>
        </g>
      </g>
    </g>
  </g>
</svg>
