<svg id="Capa_1" data-name="Capa 1" xmlns="http://www.w3.org/2000/svg" viewBox="0 0 793 2436"><defs><style>.cls-1{fill:#f47a4a;}.cls-2{fill:#7befc5;}.cls-3{fill:#f2e199;}.cls-4{fill:#ab79f2;}</style></defs><path class="cls-1" d="M696.77,1490.47c72.08,141.84,19.19,317.58-16.43,508.61s41.82,336,125.91,225.67c13.09-17.16,24.6-25.42,34.72-27.14L896.72,894.74l-422.94-18.1c-3.45,51.06-8.3,106.18-15,165.92C401.75,1552.6,624.7,1348.61,696.77,1490.47Z"/><path class="cls-1" d="M430.68,2435.8l-.41-401.9c-116.69,125.66-67.91-419.8-69.45-646.24-1.29-190.33-40.89-357.54-89-264.84s-35.27,302.09-133.1,122.12C47.8,1077.71-20.41,1295.5-20.41,1295.5l1.15,1140.75Z"/><path class="cls-2" d="M1106.18,1004.65a31.84,31.84,0,0,0-11.48-5.92L461.77,818c-30.21-8.58-52.37,9.82-49.48,41.1s29.75,63.6,60,72.21L663.41,985.6c30.22,8.6,57.07,40.93,60,72.19s-19.24,49.66-49.44,41.1l-8.35-2.37c-30.22-8.59-52.37,9.81-49.46,41.1s29.75,63.61,60,72.18l80.17,22.8c30.22,8.58-63.27,48.65-60.38,79.92S681.23,1440.7,651,1432.11l9.38,2.33c20,5,29.46,25.59,20.63,46.26-2.26,5.3-3.81,12-8.49,20.19-213.29,373.1-94.33,418.57-28.22,332.23a52.78,52.78,0,0,1,23-17.33l573.27-216a41.72,41.72,0,0,1,26-1.57l24.69,7h0c22.76,6.47,50-10.08,56.73-34.46l77-279.18c3.77-13.68.08-27-9.74-35Z"/><path class="cls-3" d="M60.21,469.18C-3.49,588.4,33.49,741.33,55.87,906.77S10.05,1193.87-54.65,1096c-10.07-15.23-19.16-22.75-27.35-24.6V-50H263.41c1,44,3.06,91.54,6.43,143.11C298.55,533.41,123.91,350,60.21,469.18Z"/><path class="cls-3" d="M75.52,2305.43C192.68,2459,350.94,2376.3,521,2328.4s289.36,116.3,185.34,265.89c-16.19,23.27-24.46,44.49-26.9,63.72L-462.9,2625.37l23.25-813.78c44.89-1.16,93.45-4.55,146.21-11C157,1745.78-41.64,2151.88,75.52,2305.43Z"/><path class="cls-4" d="M673.74-.2l-.44,200.06c50.44-62.38,28.6,209.07,28.92,321.8.26,94.75,17.06,178,37.91,132s15.65-150.33,57.5-60.6c38.88,83.38,68.59-24.94,68.59-24.94L867.46.22Z"/><path class="cls-4" d="M1156.08-116.24l-225.93,8.95c76,133.57-232.9,88.13-360.14,94.7C463.07-7.07,370.87,42.68,425.18,96.89s171.45,34.79,74.74,152.79c-89.86,109.65,35.7,184.68,35.7,184.68L1176.9,409Z"/><path class="cls-4" d="M-69.58,2684.34l252-259.22c11.93-12.27,18.18-35.66,14-52.25s-17.3-20.08-29.24-7.81l-75.44,77.6c-11.93,12.25-25,8.76-29.23-7.82s2-40,13.94-52.23l3.3-3.4c11.93-12.26,18.18-35.65,14-52.24s-17.31-20.08-29.24-7.81L32.79,2351.7c-11.93,12.28-25,8.78-29.24-7.8s2-40,14-52.25l-3.16,3.24c11.92-12.27,18.16-35.65,13.94-52.23S11,2222.58-.95,2234.85l-185,190.33-14.65,15.08L-217.92,2458-362,2606.22Z"/><path class="cls-2" d="M845.27,968.42a14.17,14.17,0,0,0-.09-5.31L791.42,702.93c-2.59-12.41-12.71-16.06-22.62-8.15S753,719.17,755.54,731.6l16.32,78.51c2.58,12.42-3.36,28.9-13.26,36.8s-20,4.27-22.61-8.13l-.71-3.43c-2.58-12.41-12.7-16.06-22.61-8.14s-15.85,24.4-13.26,36.8L706.25,897c2.58,12.41-27.61-11.28-37.52-3.38s-45.36,23.2-47.94,10.79l.91,3.78A14.19,14.19,0,0,1,610,925.53c-2.18.38-4.69,1.33-8.26,1.5C439,935.16,445.22,986.6,485.91,990.55a17.73,17.73,0,0,1,9.92,4.17l175.25,151.85a15.86,15.86,0,0,1,5.21,8.7l2.11,10.14h0c1.94,9.35,12.37,15.18,21.7,12.14L807,1142.71a14.33,14.33,0,0,0,9.9-11.11Z"/></svg>