<?xml version="1.0" encoding="utf-8"?>
<!-- Generator: Adobe Illustrator 24.1.0, SVG Export Plug-In . SVG Version: 6.00 Build 0)  -->
<svg version="1.0" id="Capa_1" xmlns="http://www.w3.org/2000/svg" xmlns:xlink="http://www.w3.org/1999/xlink" x="0px" y="0px"
	 viewBox="0 0 266.45 266.89" style="enable-background:new 0 0 266.45 266.89;" xml:space="preserve">
<style type="text/css">
	.st0{fill:#3B3B3B;}
	.st1{fill:#FFFFFF;}
</style>
<g>
	<path class="st0" d="M213.98,152.91c0,19.33,0.02,38.67-0.01,58c-0.02,8.13-1.58,9.67-9.64,9.68c-13.33,0.01-26.68,0.38-40-0.11
		c-36.94-1.36-67.33-16.27-90.1-45.53c-14.29-18.35-20.89-39.63-21.12-62.84c-0.07-6.82,0.13-13.64,0.46-20.47
		c1.32-27.37,26.16-53.4,56.22-55.97c17.2-1.47,34.74-2.24,51.87,0.67c31.32,5.32,52.3,30.94,52.32,62.58
		C213.99,116.91,213.98,134.91,213.98,152.91z M64.91,94.76c-0.01,9.5,1.76,16.13,6.63,24.8c25.25,44.92,92.43,47.66,121.51,4.96
		c14.05-20.63,12.06-46.7-4.83-63.18c-1.66-1.62-3.28-3.63-5.86-3.42c-13.22,1.05-25.17,4.82-33.63,15.99
		c-6.72,8.88-9.14,19.1-9.63,29.96c-0.15,3.28-1.62,5.48-5.07,5.63c-3.58,0.16-5.56-1.8-6.01-5.32c-0.1-0.82-0.09-1.66-0.13-2.5
		c-1.11-24.99-15.59-40.52-40.3-43.54c-3.17-0.39-5.5,0.35-7.68,2.41C70.09,69.86,65.06,81.24,64.91,94.76z M67.71,134.03
		c9.04,47.14,60.19,81.87,112.04,75.56c-0.35-0.63-0.56-1.26-0.96-1.69c-11.13-11.63-14.92-26.1-15.71-41.56
		c-0.23-4.59-1.16-5.65-5.81-4.35c-23.25,6.46-45.44,3.7-66.41-8.44C81.98,148.41,74.7,141.42,67.71,134.03z M202.82,131.19
		c-1.3,0.59-1.87,0.66-2.11,0.99c-6.57,8.77-14.72,15.78-24,21.53c-2.11,1.31-2.58,3.24-2.68,5.53c-0.32,7.72,0.76,15.26,2.69,22.7
		c2.84,10.93,8.84,19.63,18.35,25.79c1.9,1.23,3.86,3.31,6.29,2.03c2.33-1.23,1.33-3.9,1.35-5.94c0.09-16.97,0.09-33.93,0.1-50.9
		C202.83,145.83,202.82,138.76,202.82,131.19z M99.21,47.91c0.84,2.12,1.75,2.16,2.51,2.39c12.87,3.82,22.81,11.47,29.71,22.95
		c1.89,3.14,2.84,2.19,4.35-0.26c6.82-11.09,16.51-18.55,28.92-22.5c0.95-0.3,2.43-0.07,2.73-2.98
		C144.71,44.48,122.19,43.9,99.21,47.91z"/>
	<path class="st0" d="M96,216.57c-4.65,0-9.3-0.09-13.95,0.03c-3.29,0.08-5-1.22-4.98-4.62c0.03-5.81-0.04-11.62,0.03-17.44
		c0.05-3.78,1.58-4.77,4.95-2.58c3.44,2.24,6.66,4.39,6.11,9.3c-0.43,3.82,2.28,4.55,5.17,4.1c7.59-1.2,12.91,3.17,18.43,7.14
		c0.92,0.66,2.15,1.35,1.67,2.73c-0.46,1.33-1.82,1.29-2.98,1.3c-4.82,0.03-9.63,0.01-14.45,0.01C96,216.56,96,216.57,96,216.57z"/>
	<path class="st0" d="M217.94,56.67c0,4.83,0.02,9.67-0.02,14.5c-0.01,1.14,0.08,2.59-1.16,3.09c-1.7,0.68-2.19-1.01-2.98-1.99
		c-4.44-5.56-8.2-11.32-6.92-19.01c0.57-3.43-1.25-5.05-4.65-4.57c-5.85,0.84-7.71-3.67-9.98-7.44c-1.34-2.21,0.26-3.03,2.24-3.04
		c6.67-0.04,13.33-0.02,20,0.01c2.99,0.01,3.45,2.12,3.47,4.45C217.96,47.33,217.94,52,217.94,56.67z"/>
	<path class="st0" d="M50.77,56.54c0-4.66,0.05-9.31-0.02-13.97c-0.04-2.94,1-4.62,4.52-4.39c5.42,0.36,10.86,0.6,16.27,0.08
		c5.18-0.5,5.78,1.17,3.82,4.29c-2.29,3.64-4.67,6.92-9.78,6.15c-3.66-0.55-4.82,1.63-4.36,4.81c1.05,7.17-1.63,12.99-6.25,18.16
		c-0.93,1.04-1.39,3.11-3.26,2.43c-1.49-0.55-0.92-2.32-0.94-3.58c-0.06-4.66-0.02-9.31-0.02-13.97
		C50.75,56.54,50.76,56.54,50.77,56.54z"/>
	<path class="st0" d="M173.2,100.51c-5.69,0.01-10.14-4.04-10.29-9.36c-0.15-5.53,4.38-9.89,10.26-9.89c5.97,0,10.7,4.25,10.72,9.61
		C183.91,96.22,179.16,100.5,173.2,100.51z"/>
	<path class="st0" d="M93.97,100.51c-5.67,0.03-10.66-4.47-10.65-9.62c0-5.33,4.75-9.63,10.61-9.63c5.67,0.01,10.06,4.03,10.2,9.35
		C104.27,96.18,99.85,100.49,93.97,100.51z"/>
</g>
<path class="st1" d="M0,390.4"/>
</svg>
