<svg xmlns="http://www.w3.org/2000/svg" xmlns:xlink="http://www.w3.org/1999/xlink" viewBox="0 0 1713.17 1528.91"><defs><style>.cls-1{fill:#b6e4f8;}.cls-2{fill:#9b87ff;}.cls-10,.cls-22,.cls-3,.cls-7{fill:none;}.cls-4{fill:#f5f5fe;}.cls-5{fill:#dbcdfe;}.cls-6{fill:#fff;}.cls-7{stroke:#fff;}.cls-10,.cls-22,.cls-7{stroke-miterlimit:10;}.cls-10,.cls-7{stroke-width:4px;}.cls-8{fill:#ffc73c;}.cls-9{fill:#8070f2;}.cls-10{stroke:#381f7a;}.cls-11{fill:#f4a49b;}.cls-12{fill:#f2907d;}.cls-13{fill:#381f7a;}.cls-14{fill:#6dc9f0;}.cls-15{clip-path:url(#clip-path);}.cls-16{fill:#f8a17a;}.cls-17{clip-path:url(#clip-path-2);}.cls-18{fill:#0b2d4e;}.cls-19{fill:#e5785c;}.cls-20{fill:#061f33;}.cls-21{fill:#73b8d4;}.cls-22{stroke:#0b2d4e;stroke-width:2px;}.cls-23{fill:#fbcbc4;}.cls-24{fill:#ab79f2;}</style><clipPath id="clip-path"><circle class="cls-1" cx="802.86" cy="753.11" r="167.77" transform="translate(-297.38 788.29) rotate(-45)"/></clipPath><clipPath id="clip-path-2"><path class="cls-2" d="M878.84,815.55c4.13-15.1,6.28-30.54-3.09-40.83-4.23-4.64-11.77-7.88-17.94-10.18-12-4.48-24.33-10.51-37.22-12.46-13.58-2.06-28.68-3.33-42.21-.39-8.6,1.87-16.64,5.34-24.33,9.08-10.32,5-17.67,8.39-21,18.71a173.72,173.72,0,0,0-7.14,35c-2.14,20.31-.51,40.58-.33,60.92.27,30.81-3.6,61.63-7.35,92.11a6.6,6.6,0,0,0,.16,3.28c1.25,3.07,6.51,5.14,9.22,6.54,13.37,6.9,27.63,8.76,42.43,9.66,15.43.94,31.35,1.19,47,.7,14.37-.45,28.84-2,42.15-7.75a7.47,7.47,0,0,0,3.72-2.73c2.15-3.77.55-11.58.42-15.74-.2-6.34-.54-12.68-.92-19-.75-12.44-1.69-24.88-2.12-37.34-.72-21.22,5.27-44.24,10.85-64.58l.18-.64C873.14,833.3,876.35,824.65,878.84,815.55Z"/></clipPath></defs><g id="Layer_1" data-name="Layer 1"><rect class="cls-3" x="-201.16" y="-179.05" width="2005" height="2005" transform="translate(1624.78 22.11) rotate(90)"/><circle class="cls-4" cx="801.34" cy="823.45" r="705.46"/><path class="cls-5" d="M172.14,1302c8.93,4.16,18,7.42,27.29,7.79,37,1.5,63.42-43.17,100.48-42.89,28.56.22,51.86,27.51,80.41,26.87,37.14-.84,48.27-38.29,71.9-59,24-21.11,59.85-50.77,93.9-46.35,35.28,4.59,60.36,41.9,95.86,44.36,25.33,1.76,48.15-15,65.94-33.19s33.88-39.24,56.73-50.37a81.51,81.51,0,0,1,71.14.42c21.16,10.62,36.46,29.87,54.48,45.25s42.49,27.5,64.84,19.7c16.06-5.6,27-20.06,39.14-32,22.26-22,52.32-37.41,83.54-36.74,47.42,1,80.23,35.18,113,64.82,24.29,22,49.67,66.46,86.36,66.55,41.77.09,67.46-58.07,109.13-55.13,38.58,2.72,57.76,56.13,96.19,60.45,44.69,5,85.57-59.61,123.88-36,20.83,12.86,25.5,47,49.42,52.13,24.2,5.17,42.27-24.8,66.77-28.27,19.62-2.78,38,13.07,45.07,31.66,53.72,141.7-225.26,155.47-300.88,155.47s-144.78-9.85-197.71-26.12c-82,55.28-245.92,93-434.76,93-189.71,0-354.25-38.06-435.89-93.76-53.24,16.72-123.32,26.88-200.13,26.88-62.51,0-126.14-5.9-186.51-22.84C-23,1424.88-96.9,1408-95.51,1360.08c.79-27.45,24.79-49.93,51.15-57.25a92.73,92.73,0,0,1,42.61-1.62c28.17,5.58,59.18,23.63,82.9,7.38,9.21-6.31,15-16.91,24.77-22.41C126.86,1274.33,149,1291.17,172.14,1302Z"/><rect class="cls-6" x="-201.16" y="1364.08" width="2005" height="461.87"/><path class="cls-5" d="M1243.84,208.53h-69.43a53.83,53.83,0,0,0-53.67,53.67h0A53.71,53.71,0,0,0,1144,306.35v37.77l38.63-28.25h61.2a53.83,53.83,0,0,0,53.67-53.67h0A53.83,53.83,0,0,0,1243.84,208.53Z"/><circle class="cls-6" cx="1170.24" cy="262.2" r="8.14" transform="translate(646.19 1340.89) rotate(-76.72)"/><circle class="cls-6" cx="1209.13" cy="262.2" r="8.14" transform="translate(133.69 873.89) rotate(-41.87)"/><circle class="cls-6" cx="1248.01" cy="262.2" r="8.14" transform="translate(-15.95 431.55) rotate(-19.5)"/><path class="cls-5" d="M339.54,792.82c-10.71-18.32-37.73-27.52-63.85,3-26.12-30.53-53.14-21.33-63.84-3-26.38,45.14,63.84,98.25,63.84,98.25S365.91,838,339.54,792.82Z"/><rect class="cls-5" x="808.14" y="112.76" width="160.02" height="106.77" rx="12"/><path class="cls-7" d="M810.72,116.19l70.06,67.93a10.75,10.75,0,0,0,14.73,0l70.07-67.93"/><line class="cls-7" x1="810.72" y1="216.09" x2="868.21" y2="171.93"/><line class="cls-7" x1="965.58" y1="216.09" x2="908.09" y2="171.93"/><rect class="cls-5" x="288.64" y="439.84" width="184.85" height="128.39" rx="12"/><polygon class="cls-5" points="381.07 608.81 413.48 565.09 348.66 565.09 381.07 608.81"/><path class="cls-6" d="M389.7,484.55c-5.25-9-18.5-13.49-31.3,1.47-12.81-15-26-10.45-31.3-1.47-12.93,22.13,31.3,48.17,31.3,48.17S402.63,506.68,389.7,484.55Z"/><path class="cls-6" d="M429.7,520.55h-8V498.66l.08-3.6.13-3.93c-1.33,1.32-2.25,2.2-2.77,2.61l-4.34,3.49-3.86-4.81,12.19-9.71h6.57Z"/><rect class="cls-5" x="1231.97" y="788.48" width="184.85" height="128.39" rx="12"/><polygon class="cls-5" points="1324.4 957.44 1356.81 913.73 1291.99 913.73 1324.4 957.44"/><path class="cls-6" d="M1373,869.18h-8V847.29l.08-3.6.13-3.93c-1.33,1.33-2.25,2.2-2.77,2.61l-4.35,3.5-3.85-4.82,12.19-9.7H1373Z"/><path class="cls-6" d="M1313.75,830.08h-26.23a20.33,20.33,0,0,0-20.28,20.28h0A20.3,20.3,0,0,0,1276,867v14.27l14.59-10.68h23.13A20.34,20.34,0,0,0,1334,850.36h0A20.34,20.34,0,0,0,1313.75,830.08Z"/><circle class="cls-8" cx="455.94" cy="228.7" r="72.19"/><path class="cls-6" d="M506.25,230.64a50.31,50.31,0,0,1-100.61,0"/><path class="cls-9" d="M443.65,182.87c-3.78-6.48-13.35-9.74-22.59,1.07-9.24-10.81-18.8-7.55-22.59-1.07-9.34,16,22.59,34.77,22.59,34.77S453,198.84,443.65,182.87Z"/><path class="cls-9" d="M513.42,182.87c-3.79-6.48-13.35-9.74-22.59,1.07-9.25-10.81-18.81-7.55-22.6-1.07-9.33,16,22.6,34.77,22.6,34.77S522.75,198.84,513.42,182.87Z"/><circle class="cls-8" cx="1251.02" cy="557.84" r="72.19"/><path class="cls-9" d="M1335.58,579.4c-1.67-9.31-11.59-17.31-27.21-8.52-6.27-16.79-19-17.08-26.29-11-18,14.87,11.7,50.95,11.7,50.95S1339.72,602.36,1335.58,579.4Z"/><path class="cls-10" d="M1256.58,577.3a50.86,50.86,0,0,1,7.15,4.82c4.23,3.74,1.91,9.91-1.84,11.53,3.5,1.5,4.54,4.11,4.87,7,.71,6-7.19,9.17-11.44,11.32"/><path class="cls-10" d="M1266.81,549.22c4.38-10.67,18.86-9.35,22.65,0"/><path class="cls-10" d="M1275.64,518.9c7.4,2.44,14.6,7.56,17.44,15"/><path class="cls-10" d="M1235.4,549.22c-4.38-10.67-18.86-9.35-22.66,0"/><path class="cls-10" d="M1226.56,518.9c-7.39,2.44-14.6,7.56-17.43,15"/><polygon class="cls-11" points="463.05 1307.19 701.43 1427.93 533.81 1825.95 156.99 1805.95 463.05 1307.19"/><path class="cls-12" d="M1063.2,971.27c-21.07.29-41.74,14.69-56.55,33.85-18.59,24-46.76,76.18-36.06,107.34,12.08,35.16,43.93,26.21,66.79,8.18,23.73-18.72,58.49-51.63,67.37-84.5C1114.22,1001.13,1093.46,970.84,1063.2,971.27Z"/><path class="cls-11" d="M1075.32,680.89c6.29-7.6,11.08-16,12.65-25.07a38,38,0,0,0-11.16-33.57c-32.49-31.56-82.55,3.45-113.45,22.61-25,15.48-46.09,43.65-32.52,70.28,8.61,16.88,30.36,27.29,51.56,24.66,15.49-1.92,29.42-9.87,42.32-18.11a312.46,312.46,0,0,0,36.35-26.52A124.77,124.77,0,0,0,1075.32,680.89Z"/><path class="cls-12" d="M521.7,1025.94a706.22,706.22,0,0,0-21.48,72.1c-5.15,21.19-13.57,46-11.75,67.86,3.68,44.39,21.7,77.18,46.93,112.55,26.75,37.49,57.58,71.9,85.17,108.77,7.06,9.44,14,19.14,23,26.75,26.77,22.65,69.33,20.15,99.29,5.63,33-16,59.78-43,84.42-69.5,64.49-69.39,130.87-137.65,194.12-208.08,7.94-8.84,16-18,19.86-29.28,5.5-16,1.61-33.81-5.24-49.27-5.46-12.32-13.49-21.88-20.75-33-6.38-9.75-10.3-21-16.15-31.33C986,976,969.61,954.91,951.31,935.66c-36.71-38.59-80.55-69.6-124.93-98.67-21.26-13.91-43.3-28.34-67.61-36.36s-67.27,4.21-85.56,21.43c-23.22,21.86-44.38,47-66.53,70.08-15.41,16.06-30.88,32.19-43.78,50.33C544.86,967.84,532.22,996.64,521.7,1025.94Z"/><path class="cls-13" d="M623.13,351.47H984a38,38,0,0,1,38,38V1188.6a38,38,0,0,1-38,38H623.13a38,38,0,0,1-38-38V389.47A38,38,0,0,1,623.13,351.47Z"/><rect class="cls-6" x="606.62" y="435.9" width="395.25" height="726.05" transform="translate(1608.49 1597.85) rotate(180)"/><path class="cls-14" d="M745.8,401.25H861.31a4.61,4.61,0,0,0,4.6-4.6h0a4.62,4.62,0,0,0-4.6-4.61H745.8a4.62,4.62,0,0,0-4.61,4.61h0A4.62,4.62,0,0,0,745.8,401.25Z"/><rect class="cls-1" x="635.1" y="514.69" width="335.53" height="42.03" transform="translate(1605.72 1071.41) rotate(180)"/><rect class="cls-2" x="606.62" y="435.08" width="395.77" height="46.04" transform="translate(1609.01 916.19) rotate(180)"/><circle class="cls-6" cx="977.97" cy="457.06" r="10.23"/><circle class="cls-6" cx="941.13" cy="457.06" r="10.23"/><circle class="cls-6" cx="904.29" cy="457.06" r="10.23"/><rect class="cls-8" x="680.69" y="1069.33" width="244.35" height="58.72" rx="23.01" transform="translate(1605.72 2197.38) rotate(180)"/><circle class="cls-1" cx="802.86" cy="753.11" r="167.77" transform="translate(-297.38 788.29) rotate(-45)"/><g class="cls-15"><path class="cls-16" d="M767.54,837.46c7.44-23.07,8.87-49.3-8.18-68.48-1.73-1.94-3.74-4-6.34-4.18-5.58-.32-12,3.39-15.79,7.2-13,13.24-17.86,32.86-22.45,50.39-4.77,18.21-8.17,36.75-13,55-1.95,7.37-3.91,14.83-4,22.46-.05,6.68,1.68,13.84,5.67,19.29,17.27,23.53,36.57-16.21,42.47-28.24A402.45,402.45,0,0,0,767.54,837.46Z"/><path class="cls-9" d="M721.23,789.59q-11.65,16.6-23.32,33.22a2.73,2.73,0,0,0-.7,1.72,2.77,2.77,0,0,0,.84,1.5c11.63,13.1,25.41,24.08,39.11,35a222.89,222.89,0,0,0,2.53-33.24c0-10.23-.69-20.48,0-30.69a79.37,79.37,0,0,1,3-17.79c.93-3.12,13-15.18,7.78-15.42-4.42-.21-16.46,8.73-19.21,11.61C727.33,779.59,724.47,785,721.23,789.59Z"/><path class="cls-2" d="M878.84,815.55c4.13-15.1,6.28-30.54-3.09-40.83-4.23-4.64-11.77-7.88-17.94-10.18-12-4.48-24.33-10.51-37.22-12.46-13.58-2.06-28.68-3.33-42.21-.39-8.6,1.87-16.64,5.34-24.33,9.08-10.32,5-17.67,8.39-21,18.71a173.72,173.72,0,0,0-7.14,35c-2.14,20.31-.51,40.58-.33,60.92.27,30.81-3.6,61.63-7.35,92.11a6.6,6.6,0,0,0,.16,3.28c1.25,3.07,6.51,5.14,9.22,6.54,13.37,6.9,27.63,8.76,42.43,9.66,15.43.94,31.35,1.19,47,.7,14.37-.45,28.84-2,42.15-7.75a7.47,7.47,0,0,0,3.72-2.73c2.15-3.77.55-11.58.42-15.74-.2-6.34-.54-12.68-.92-19-.75-12.44-1.69-24.88-2.12-37.34-.72-21.22,5.27-44.24,10.85-64.58l.18-.64C873.14,833.3,876.35,824.65,878.84,815.55Z"/><g class="cls-17"><path class="cls-9" d="M825.66,771.63c4.65-7.5,5.71-16.88-.39-24.11-2.79-3.31-7.71-3.68-11.93-3.76a104.47,104.47,0,0,0-24.69,2.51c-7.7,1.73-15.55,4.66-18.89,12.11a18,18,0,0,0,1.65,17,21.85,21.85,0,0,0,13.38,9.26c8.86,2,19.23,1.75,27.69-1.65A28.53,28.53,0,0,0,825.66,771.63Z"/></g><path class="cls-18" d="M826.61,725a31.15,31.15,0,0,1-15.41,7c-11.06,1.43-20.77-4.32-29.27-10.68-9.08-6.8-18.12-13.67-26.58-21.24-6-5.42-12.21-11.15-15.57-18.69-3.9-8.75-3.21-18.75-1.36-27.91,1.27-6.26-1.13-12.22-1.85-18.37-1.39-12,2.53-25.58,14.13-31.25,5.92-2.9,11.71-1.83,17.35,1.27,4.31,2.37,8.25,5.47,12.84,7.26,9.77,3.83,21,1,31.07-.12,7.26-.78,15.12-.79,21.92,2.24,7.56,3.37,10.73,9.45,14.36,16.48,3.1,6,8.22,10.82,12.14,16.28,5.26,7.31,6.23,16,3.4,24.51-4.15,12.47-12.54,22.73-20,33.3C839,711.76,833.47,719.48,826.61,725Z"/><path class="cls-16" d="M808.33,776.59c6-1.92,10.9-5.63,12.75-11.54,1.67-5.37-1-11.4-1.44-16.81a102.84,102.84,0,0,1-.17-15.6c.32-4.8.78-9.8,0-14.58-.42-2.74-1.92-2.27-4.69-3.36s-5.87-1.1-8.88-1.09c-6.15,0-22.2-.43-26,5-1.74,2.48-1.88,5.6-2,8.55-.1,3.57-.73,8.19-1.32,13.16-.26,2.21-.1,4.42-.44,6.62a41.61,41.61,0,0,1-2.13,7.18c-3.1,8.92-.2,17.4,9.45,21.49A38.09,38.09,0,0,0,808.33,776.59Z"/><path class="cls-19" d="M819.48,718.06c-.42-2.74-1.92-2.27-4.69-3.36s-5.87-1.1-8.88-1.09c-6.15,0-22.2-.43-26,5-1.74,2.48-1.88,5.6-2,8.55-.1,3.57-.73,8.19-1.32,13.16-.26,2.21-.1,4.42-.44,6.62a31.33,31.33,0,0,1-1.53,5.49,32.6,32.6,0,0,0,18.93,1.18c11.21-2.76,19.71-9.74,25.76-18.82,0-.71.06-1.41.1-2.12C819.76,727.84,820.22,722.84,819.48,718.06Z"/><path class="cls-20" d="M810.86,723.09a17,17,0,0,1-5.2,3.17c-5,1.89-10.63,1.23-15.53-.81s-9.17-5.35-13.19-8.82c-10.88-9.38-24.27-21.7-30-35-3.53-8.23-5.82-17.77-.9-25.91A24,24,0,0,1,766.23,644a3.82,3.82,0,0,1,2,.4,3.92,3.92,0,0,1,1.37,1.8c2.48,5.13,4.33,10.64,7.51,15.42a53.62,53.62,0,0,0,13,13c8.06,6,17.09,10.76,24.57,17.5,5.4,4.86,4.62,14.55,2.55,21.12A22,22,0,0,1,810.86,723.09Z"/><path class="cls-21" d="M775.18,624.37a65.2,65.2,0,0,0,13.16.6c4.41-.17,8.73-.77,13.19-1.13a91.52,91.52,0,0,1,13.35,0c2.22.16,4.44.43,6.65.75a42.54,42.54,0,0,1,6.63,1.39,19.42,19.42,0,0,1,8.71,5.53c.39.43.75.88,1.11,1.33a11.1,11.1,0,0,1,1,1.54,13,13,0,0,1,1.21,6.91,43.08,43.08,0,0,0-.17,6.48,13.58,13.58,0,0,0,2.14,5.88,36.64,36.64,0,0,1,3.15,5.92,16.79,16.79,0,0,1,.78,6.69,45.13,45.13,0,0,1-1,6.57,61.06,61.06,0,0,0,.49-6.58,16.25,16.25,0,0,0-1.16-6.33,37.82,37.82,0,0,0-3.36-5.59,19.57,19.57,0,0,1-1.65-3,12.46,12.46,0,0,1-.92-3.38,40,40,0,0,1,0-6.74,11.22,11.22,0,0,0-1.13-6,10,10,0,0,0-.82-1.25c-.33-.41-.66-.82-1-1.2a17.74,17.74,0,0,0-2.31-2.11,18.76,18.76,0,0,0-5.59-2.83,41,41,0,0,0-6.31-1.36c-2.16-.34-4.33-.59-6.5-.79a102.57,102.57,0,0,0-13.12-.34c-2.18.07-4.37.29-6.59.39s-4.44.18-6.66.16A57.73,57.73,0,0,1,775.18,624.37Z"/><path class="cls-16" d="M829.5,688.32a75,75,0,0,0-1.12-22.7c-6.39-28.69-40.42-38.91-63.24-21-25.44,20-21.67,74.09,1.06,95.16a27.64,27.64,0,0,0,23,6.88C813.93,742.56,827.18,713.9,829.5,688.32Z"/><path class="cls-19" d="M828.38,665.62c-6.39-28.69-40.42-38.91-63.24-21a37.74,37.74,0,0,0-7.51,8,27.9,27.9,0,0,0,3.4,3,107.28,107.28,0,0,0,27.17,14.59c4.17,1.51,8.59,2.85,11.83,5.88a18,18,0,0,1,4.2,6.2,54.24,54.24,0,0,1,2.69,8.86c1.55,6.52,1.86,13.25,2.1,19.93a3.08,3.08,0,0,0,.53,2,2.57,2.57,0,0,0,1.79.71c3.86.27,6.07-3.24,9.26-4.9,1.91-1,3.83-2,5.67-3.17a96,96,0,0,0,3.23-17.41A75,75,0,0,0,828.38,665.62Z"/><path class="cls-18" d="M808.26,681.65a53.76,53.76,0,0,1,1.52,9.12c.69,6.67.13,13.39-.5,20a3,3,0,0,0,.27,2,2.65,2.65,0,0,0,1.69.93c3.79.77,6.43-2.43,9.81-3.66a52.33,52.33,0,0,0,10.17-4.59c8.94-5.72,8.08-16.65,8.74-26.24.37-5.27.72-10.61-.33-15.78a38.54,38.54,0,0,0-7.44-15.44c-10.08-13.22-26.44-21.18-43-21.73-8.19-.27-17.71,2.28-24.07,7.58-5.49,4.58-.06,12,3.74,15.7a107.22,107.22,0,0,0,25,18c3.94,2,8.14,3.94,11,7.36A18.17,18.17,0,0,1,808.26,681.65Z"/><path class="cls-16" d="M824.88,688.57c11.23-4.81,13.09,10.29,10.54,17.46a23.46,23.46,0,0,1-4.66,8.13c-2.86,3.12-10.67,8-14.49,3.92-1.74-1.86-1.66-4.72-1.48-7.25C815.29,704,817.26,691.82,824.88,688.57Z"/><path class="cls-22" d="M742.23,650.66c-3.34-13.28-11.53-24.51-4.85-38.4a21.68,21.68,0,0,1,21.44-12.21,23.88,23.88,0,0,1,11.85,4.28c4.16,2.94,6.61,7.32,11.58,9.19,11.67,4.39,25-3.55,36.62-4.57s23.24,3.88,27.74,15.24c1.77,4.48,2.23,9.5,4.73,13.62,4.19,6.87,13.32,10,16.44,17.39,5.1,12.11-9.27,27.51-16.61,35.73"/><path class="cls-16" d="M912.36,866.08c2.55,8.65,4.84,17.38,6.6,26.23,2.56,12.91,8.15,37.2-11.3,39.64-7,.88-11.78-3.06-15.91-8.36-11.31-14.47-17.68-32.55-24.1-49.74-8.59-23-17.43-46.48-22.26-70.55-1.85-9.24.12-19.22,4-27.68,1.61-3.52,3.74-9.09,7.71-9.5,4.72-.49,10.68,2.74,14.14,5.65a40.26,40.26,0,0,1,6.2,7c12.8,17.35,19.16,37.87,25.7,58.12C906.27,846.56,909.48,856.28,912.36,866.08Z"/><path class="cls-2" d="M886.82,784.69a123,123,0,0,1,13.32,19.76A141.12,141.12,0,0,1,909,822.69a.76.76,0,0,1,.07.51.78.78,0,0,1-.46.41c-4.31,2.07-50.27,29.91-51.08,28.18-3.72-8-7.75-14.82-10.06-23.51-3.68-13.78-6.58-28.61-4.77-43,.7-5.55,2.16-11.66,5.82-16.06,3.49-4.2,8.4-4.17,13.22-2.55C871.62,769.94,880.16,776.74,886.82,784.69Z"/></g><path class="cls-2" d="M845.32,1000.79H690a9.33,9.33,0,0,1-9.31-9.3h0a9.34,9.34,0,0,1,9.31-9.31H845.32a9.34,9.34,0,0,1,9.31,9.31h0A9.33,9.33,0,0,1,845.32,1000.79Z"/><path class="cls-2" d="M915.71,1000.79h-38.4a9.32,9.32,0,0,1-9.3-9.3h0a9.33,9.33,0,0,1,9.3-9.31h38.4a9.34,9.34,0,0,1,9.31,9.31h0A9.33,9.33,0,0,1,915.71,1000.79Z"/><path class="cls-2" d="M760.39,947.92H915.71a9.33,9.33,0,0,1,9.31,9.3h0a9.34,9.34,0,0,1-9.31,9.31H760.39a9.34,9.34,0,0,1-9.31-9.31h0A9.33,9.33,0,0,1,760.39,947.92Z"/><path class="cls-2" d="M690,947.92h38.39a9.33,9.33,0,0,1,9.31,9.3h0a9.34,9.34,0,0,1-9.31,9.31H690a9.34,9.34,0,0,1-9.31-9.31h0A9.33,9.33,0,0,1,690,947.92Z"/><path class="cls-2" d="M793.54,1035.8H690a9.34,9.34,0,0,1-9.31-9.31h0a9.34,9.34,0,0,1,9.31-9.31H793.54a9.34,9.34,0,0,1,9.31,9.31h0A9.34,9.34,0,0,1,793.54,1035.8Z"/><path class="cls-11" d="M461.24,1325.88c-5.52-39.72-11.83-103.09-11.49-143.19.27-32.13,4.4-64.56,15.09-95,10.41-29.62,17-60.3,24.76-90.93q15-59.1,30.1-118.19,7.44-29.21,14.87-58.4c3-12,4.91-24.22,8.83-35.93,6.35-19,37.31-10.9,48.53-1.66C605.8,794,609.57,813.35,613.22,830a305.62,305.62,0,0,1,5.63,95.85c-3.28,32.56-13,63.93-20.92,95.57-7.46,30-14.44,61.94-3.44,91.95,10.37,28.29,35.2,46.06,50.87,70.82,44,69.61,78.4,166.47,56.07,243.75l-8.85,21Z"/><path class="cls-23" d="M581.52,793.54c2.07,4,2.84,8.79,3.22,13.36a114.45,114.45,0,0,1-10.61,58.28c-5.44,11.45-47.85-9.73-48.71-6.15q8.34-34.75,16.72-69.49a11.73,11.73,0,0,1,2.09-5c6.32-7.36,28.35-1.14,34.15,4.67A17,17,0,0,1,581.52,793.54Z"/><path class="cls-11" d="M981.79,1008.27c-6,6.89-10.68,14.68-12.62,23.52a42.24,42.24,0,0,0,7.64,34.28c26.38,34.39,72.28,4.74,100.46-11.15,22.77-12.83,43-38.58,32.8-66.24-6.45-17.53-24.79-30-43.47-29.45-13.64.36-26.3,6.84-38.08,13.72a257.24,257.24,0,0,0-33.39,22.62A108.14,108.14,0,0,0,981.79,1008.27Z"/><path class="cls-11" d="M965.69,913.71c-4.16,8.61-6.78,17.79-6.32,27.27a44.3,44.3,0,0,0,17.14,32.6c36.14,27.57,74.46-15,98.62-38.86,19.53-19.24,32.9-50.85,15-76.05-11.35-16-33.32-23.52-52.09-17.88-13.7,4.12-24.74,14.15-34.78,24.34a271.31,271.31,0,0,0-27.58,32.06A114,114,0,0,0,965.69,913.71Z"/><path class="cls-11" d="M972.63,789.62a79.11,79.11,0,0,0,.16,20.68,52.64,52.64,0,0,0,6.14,19.17c28.5,49.2,119.13-11.6,97-54.53-6.45-12.54-17.86-21.66-28.93-30.39-10.71-8.45-23.94-17.41-36.92-13.18-4.52,1.47-8.4,4.44-11.9,7.67A83,83,0,0,0,972.63,789.62Z"/><path class="cls-23" d="M1044.16,1034.48c.16,12.61-9.9,25.17-20.36,31.15-12.1,6.91-19.49-1.4-26.74-10.93-4.76-6.24-11.51-15.84-13.14-23.51-1.39-6.56,1.6-11.92,7.16-15.25,7.4-4.43,15.4-8.57,24-8.78,13.92-.34,26.33,10.25,28.72,23.65A22.77,22.77,0,0,1,1044.16,1034.48Z"/><path class="cls-23" d="M1043.27,917.6c3.38,13.58-4.28,29.71-14,38.84-11.31,10.55-21.41,3.45-31.68-5-6.72-5.53-16.47-14.18-20.18-22.05-3.18-6.73-1.32-13.29,3.84-18.3,6.87-6.67,14.45-13.19,23.7-15.61,15-3.92,31.06,4.36,37.06,18.22A24.6,24.6,0,0,1,1043.27,917.6Z"/><path class="cls-23" d="M1053.51,791.53c2.4,9.65.11,33-14.41,32.56a15,15,0,0,1-6-1.92,99.42,99.42,0,0,1-39.55-35.83c-9.6-15.26,14.54-24.11,25.69-22.24,12.71,2.13,27.42,10.5,32.73,22.78A31,31,0,0,1,1053.51,791.53Z"/><polygon class="cls-24" points="104.5 1825.95 355.52 1409.23 679.65 1574.1 561.49 1825.95 104.5 1825.95"/></g></svg>