<svg xmlns="http://www.w3.org/2000/svg" xmlns:xlink="http://www.w3.org/1999/xlink" viewBox="0 0 1988.11 1527.84"><defs><style>.cls-1{fill:#68bcb8;}.cls-2{fill:#f5f5fe;}.cls-3{fill:#0b2d4e;}.cls-4{fill:#73b8d4;}.cls-5{fill:#061f33;}.cls-6{fill:#00a09d;}.cls-7{clip-path:url(#clip-path);}.cls-8{fill:#9b87ff;}.cls-18,.cls-9{fill:none;stroke-miterlimit:10;stroke-width:4px;}.cls-9{stroke:#0b2d4e;}.cls-10{fill:#f8a17a;}.cls-11{fill:#e5785c;}.cls-12{fill:#8070f2;}.cls-13{fill:#b8d1ce;}.cls-14,.cls-15{fill:#fff;}.cls-15{opacity:0.2;}.cls-16{fill:#ffc73c;}.cls-17{fill:#dbcdfe;}.cls-18{stroke:#fff;}</style><clipPath id="clip-path"><path class="cls-1" d="M1262.72,1144.78c10.88-46.06,16.52-93.18-8.14-124.56-11.13-14.17-31-24-47.19-31.05-31.66-13.69-64-32.08-97.92-38C1073.73,944.84,1034,941,998.38,950c-22.62,5.72-43.78,16.29-64,27.69-17.56,9.9-39.09,18.42-47.61,36.83A1254.79,1254.79,0,0,0,832.6,1152.4c-12.72,39.12-26.67,80.12-6.64,119.76,6.5,12.85,15.93,23.85,23.36,36.12,8.27,13.67,11.35,26.51,12.44,42.28,2.47,36,1.51,72.08,1.41,108.11,0,10.38.1,21.18,4.65,30.51,9,18.41,33.33,18.67,50.87,18.64l173.52-.3c24.06,0,42.45,2.9,65,7.54,19,3.91,35.33-5.68,44.45-23.37,8.64-16.75,9.3-36.31,10.22-55.13a1190.22,1190.22,0,0,1,31-217.41C1247.72,1199,1256.16,1172.55,1262.72,1144.78Z"/></clipPath></defs><g id="Layer_1" data-name="Layer 1"><circle class="cls-2" cx="1064.9" cy="853.69" r="705.46"/><path class="cls-3" d="M1331.78,1202.47c-46.33,16.39-102.2,14.71-144.36-12.33-41.43-26.58-79.19-45.77-130.17-44.84-45.56.83-83.23,25.45-127.35,30.7-35,4.15-70.55-11.1-95.91-35.57-24.76-23.89-41.2-60.3-30.44-93,5.64-17.11,18-31.23,25-47.81,16.21-38.24-26.48-61.32-15.86-101.58,9-34.24,46.6-58.66,46-94.06-.41-25.92-20.48-46-27.54-70-7.13-24.19-5.56-51.28,7-73.38a87.64,87.64,0,0,1,41.28-36.86c15.45-6.59,32.71-6.71,44.65-20.21,21.29-24.06,29.1-50.13,58.31-67.72,24.72-14.89,57.38-15.83,85.75-13.23,63,5.78,124.21,39,159.72,92,12.58,18.78,21.66,38,22,60.32.35,24.4.34,48.94,15.29,69.68,12.55,17.42,32.7,27.61,52.67,35.47s40.92,14.22,58.46,26.6,31.47,32.58,29.42,53.95C1404,878.57,1391.64,894.11,1390,912c-3,32.54,28.34,56.17,47.67,82.51,27,36.89,31.53,89,11.17,130-23.44,47.17-66,57.8-110.66,75.55Q1335,1201.33,1331.78,1202.47Z"/><path class="cls-4" d="M994.94,594.18c15.32-8.95,33.13-13,50.82-13.76a189.13,189.13,0,0,1,52.78,5.9,162.6,162.6,0,0,1,88,57.58,145.53,145.53,0,0,1,24.23,47.69c5,17.33,6,35.44,5.83,53.17s-1.45,35.42-.86,52.9c.37,8.67,1.44,17.33,4.08,25.42s7.1,15.51,13.76,20.36,15,7.1,23.55,8.12,17.5,1.07,26.43,2.26c17.65,2.37,35.61,6.57,51,16.7,7.56,5.05,14.36,12.09,17.67,21s2.73,18.59.44,27.44c-2.66,9-7.74,16.46-11.27,24.29a77.35,77.35,0,0,0-6.58,24.86c-1.63,17.28,2.8,34.61,9,51s13.29,32.82,17.52,50.18a107.18,107.18,0,0,1,3.19,26.52,83.67,83.67,0,0,1-4.65,26.25,89.84,89.84,0,0,1-30.92,42.35,89.2,89.2,0,0,0,29.75-42.74c5.59-16.76,4.84-34.93.23-51.78-4.43-17-11.8-33.09-18.11-49.66s-11.31-34.28-9.84-52.45a81.29,81.29,0,0,1,6.59-26.26c3.69-8.28,8.62-15.68,11-23.79,2-8.17,2.59-16.88-.45-24.61s-9-14.06-16-18.75c-14.34-9.39-31.85-13.52-49-15.72-8.62-1.13-17.41-1.13-26.42-2.15s-18.31-3.21-26-9-12.69-14.19-15.44-22.88a99.93,99.93,0,0,1-4.21-26.78c-.52-17.89.84-35.55,1.08-53.14s-.66-35.16-5.43-51.92a146.7,146.7,0,0,0-23.12-46.54,159.7,159.7,0,0,0-85.55-57.54,187.39,187.39,0,0,0-52.13-7.05C1028.24,582,1010.47,585.59,994.94,594.18Z"/><path class="cls-5" d="M1218,986.31c1.64,40-7.63,70-44.19,89.79-29.12,15.75-64,20.91-96.13,21.7-53.9,1.33-114-12.57-154.27-50.43-7.32-6.87-14.34-15.29-14.87-25.31-.48-9.12,4.53-17.7,5-26.82.75-15.37-11.2-28.1-16.55-42.53-7-19.06-2.25-40.34,4.08-59.65s14.28-38.8,13.32-59.11c-1.23-26.33-17.06-49.32-29.73-72.44s-22.64-51.25-11.81-75.29c7.13-15.84,24.15-28,41.53-30,18.37-2,34.87,19,46.64,30.52a288.22,288.22,0,0,0,52.45,40.79c26.24,15.92,55.05,27.67,79.74,45.92,14.94,11,31,26.2,38.09,43.79,8,19.83-6,39,11,57.25,11,11.76,27.84,15.76,41.11,24.86C1211.72,918.86,1216.65,954.75,1218,986.31Z"/><path class="cls-6" d="M920.29,1210c37.85-58.32,61.39-129.9,28.51-195.74-3.33-6.67-7.34-14-14.42-16.31-15.22-5.06-35.87.38-49.11,8.15-45.92,26.94-74,77.64-99.81,122.74-26.8,46.87-50.08,95.65-77,142.44-10.91,19-21.92,38.15-27.78,59.22-5.12,18.45-5.68,39.58,1.31,57.64,30.23,78.07,113.37-17.56,138.67-46.45A1154.75,1154.75,0,0,0,920.29,1210Z"/><path class="cls-1" d="M1262.72,1144.78c10.88-46.06,16.52-93.18-8.14-124.56-11.13-14.17-31-24-47.19-31.05-31.66-13.69-64-32.08-97.92-38C1073.73,944.84,1034,941,998.38,950c-22.62,5.72-43.78,16.29-64,27.69-17.56,9.9-39.09,18.42-47.61,36.83A1254.79,1254.79,0,0,0,832.6,1152.4c-12.72,39.12-26.67,80.12-6.64,119.76,6.5,12.85,15.93,23.85,23.36,36.12,8.27,13.67,11.35,26.51,12.44,42.28,2.47,36,1.51,72.08,1.41,108.11,0,10.38.1,21.18,4.65,30.51,9,18.41,33.33,18.67,50.87,18.64l173.52-.3c24.06,0,42.45,2.9,65,7.54,19,3.91,35.33-5.68,44.45-23.37,8.64-16.75,9.3-36.31,10.22-55.13a1190.22,1190.22,0,0,1,31-217.41C1247.72,1199,1256.16,1172.55,1262.72,1144.78Z"/><g class="cls-7"><path class="cls-6" d="M1128.76,1010.79c13.62-22.9,16.71-51.52-1.13-73.58-8.15-10.09-22.57-11.22-34.91-11.45a293.79,293.79,0,0,0-72.25,7.65c-22.53,5.28-45.51,14.2-55.27,37-7.25,16.9-4.71,36.46,4.84,51.92a64,64,0,0,0,39.13,28.26c25.93,6.18,56.29,5.35,81-5C1105.7,1039,1119.61,1026.19,1128.76,1010.79Z"/><path class="cls-6" d="M1283.21,1356l-.54-106c-.06-12.29,7.92-87.14-11.21-86.29a10.83,10.83,0,0,0-5.63,2.36c-9.51,6.81-14.4,18.2-18.85,29-13.94,33.92-25.65,88.23-54.67,112-29.49,24.14-74.85,34.32-111.5,40.11-42.81,6.77-86.32,7.27-129.58,9.91-28,1.7-58.85,5.73-77.23,26.89-13.13,15.11-19.81,37.77-26.82,56.24-6.13,16.14-11,35.31,1.43,49.92,5.3,6.24,12.66,10.33,20.07,13.82,27,12.73,56.5,19.15,85.94,24.07,82.38,13.79,166.35,16.65,249.78,12.68,17.84-.85,37.18-2.63,50.34-14.7,9.79-9,14.4-22.21,17.68-35.09C1283.6,1447.08,1283.44,1401.23,1283.21,1356Z"/></g><path class="cls-8" d="M888.74,752.77c-31.56,32.48-2.93,111.82,47.4,100.34,54.08-12.34,45.94-96.62-3-110.46C914.11,737.25,898.9,742.32,888.74,752.77Z"/><path class="cls-9" d="M1319.55,1197.14c31.63,4,65,1.25,93.21-13.53,36-18.83,54-53.34,54.71-93,.54-28.76-5-58.75-22.4-81.69-18.88-24.94-50.52-40.27-62.26-69.27-7.6-18.77-5.78-44.34,9.26-58.87,9.57-9.25,17-19.67,15.83-33.54-1.81-20.4-16.73-40-33.4-51-24.44-16.15-54.84-22.06-83.44-25.7-19.37-2.46-38.67-7.9-44.66-28.76-3.23-11.26-2.6-23.13-3.2-34.7-1.29-24.66-3.1-49.33-6.78-73.76-4.25-28.17-22.54-55.42-42.94-74.83q-4.39-4.17-9.11-8c-52.6-42.61-150-57.7-208-18.21a89.89,89.89,0,0,0-38,57.62c-2.94,15.75-7.21,19.13-22.59,23.91-27.94,8.67-59.65,14.82-81.84,35.32-17.36,16-25.34,40.3-23,63.6,3,29.73,23.74,44,38.62,67.52,15.2,24.06,3.25,54.33-14.4,74.18-13.59,15.29-32.88,26.46-40.56,45.42-7.06,17.44-2.38,37.61,6.15,54.39,3.46,6.8,7.52,13.29,10.58,20.27a78.58,78.58,0,0,1-2.53,67.25"/><path class="cls-1" d="M1409.22,1243.15q14.51,26.17,28.73,52.52c19.16,35.7,54.73,115-2.22,134.62-28.7,9.87-45.11.22-64.08-20.69a1208.55,1208.55,0,0,1-181.44-262.87c-18-35.4-66-127.66-7.76-148.75a70.72,70.72,0,0,1,56.78,4.16c7.87,4.23,14.85,9.93,21.52,15.88,42,37.46,71.92,85.8,98.53,134.82C1375.72,1183.14,1392.56,1213.1,1409.22,1243.15Z"/><path class="cls-10" d="M1079.44,1022.47c17.33-5.56,31.61-16.33,37-33.46,4.85-15.54-2.8-33-4.16-48.71a296.55,296.55,0,0,1-.49-45.2c.91-13.91,2.24-28.41.1-42.28-1.21-7.92-5.57-6.57-13.59-9.72s-17-3.17-25.72-3.15c-17.84,0-64.35-1.25-75.38,14.4-5.06,7.19-5.46,16.23-5.7,24.79-.29,10.33-2.12,23.71-3.81,38.12-.75,6.42-.29,12.81-1.27,19.18-1.1,7.14-3.81,14-6.18,20.82-9,25.85-.57,50.43,27.38,62.26C1027.64,1028,1056.27,1029.9,1079.44,1022.47Z"/><path class="cls-11" d="M1111.76,852.82c-1.21-7.92-5.57-6.57-13.59-9.72s-17-3.17-25.72-3.15c-17.84,0-64.35-1.25-75.38,14.4-5.06,7.19-5.46,16.23-5.7,24.79-.29,10.33-2.12,23.71-3.81,38.12-.75,6.42-.29,12.81-1.27,19.18a89.29,89.29,0,0,1-4.45,15.92,94.56,94.56,0,0,0,54.86,3.41c32.51-8,57.12-28.23,74.67-54.53.1-2,.15-4.09.29-6.14C1112.57,881.19,1113.9,866.69,1111.76,852.82Z"/><path class="cls-10" d="M1137.66,751c-.14-23.82-3.43-46.42-9.56-65.18-26.44-81-127.44-101-188.26-42.85C872,707.75,898,862.71,969.41,917.15a80.17,80.17,0,0,0,68.25,13.45C1107.85,911.77,1138.11,825.4,1137.66,751Z"/><path class="cls-10" d="M1124.39,753c31.07-17,40.64,26,35.29,47.45-2.21,8.84-5.7,17.46-11.19,24.74-7.39,9.8-28.53,26.05-40.71,15.33-5.53-4.86-6.1-13.13-6.27-20.49C1101.05,800.27,1103.33,764.49,1124.39,753Z"/><path class="cls-12" d="M1023.18,894.69a157.73,157.73,0,0,1-23-1.69l1.37-9.32A141.6,141.6,0,0,0,1082,872.45a104.16,104.16,0,0,0,17.41-10A82.15,82.15,0,0,0,1122,837.6l8.13,4.76a91.69,91.69,0,0,1-25.15,27.72A113.08,113.08,0,0,1,1086,881,149,149,0,0,1,1023.18,894.69Z"/><path class="cls-12" d="M973,876.25c11.36-9.75,36.63-8.91,45,1.21,6.18,7.5,4.29,17-2.51,23.37-8,7.51-18,7.07-28,4.81C974.84,902.81,959.28,888,973,876.25Z"/><path class="cls-11" d="M1137.82,689.12C1110,603.88,1003.64,582.82,939.61,644c-14.15,13.52-24.36,30.79-31.15,50.2a57.8,57.8,0,0,0,4.94,6.64c8.78,10.18,20.91,16.82,33.11,22.47,35.65,16.47,74.07,26.14,112.67,33.38,2.84.53,5.7,1.06,8.56,1.62,10.62,2.09,21.17,4.71,30.45,10.18,26.23,15.46,15,49.47,34.17,64.38a18.32,18.32,0,0,0,5.25,2.84,286.57,286.57,0,0,0,10.27-78C1147.73,732.67,1144.27,708.88,1137.82,689.12Z"/><path class="cls-3" d="M1070.49,748.58c10.15,3.77,20.15,8,28.44,14.91,23.43,19.45,6.87,51.23,23.46,69,14.7,15.75,37-5.07,42.88-19.62,10.78-26.8,10.14-56.63,9.35-85.5-.44-16.11-.92-32.44-5.64-47.84-5.15-16.8-15.19-31.79-27.13-44.68-34.49-37.22-86.53-56.56-136.92-53.39-39.41,2.49-108.53,35.6-77.64,85.77,7.05,11.44,18,19.94,29.11,27.45,32.56,22,68.94,37.63,105.9,50.93C1065,746.6,1067.76,747.57,1070.49,748.58Z"/><path class="cls-8" d="M1137.44,740.73c-43.86,11.25-60.81,93.88-11.88,110.33,52.58,17.68,89.59-58.48,55.08-95.79C1167.18,740.72,1151.56,737.11,1137.44,740.73Z"/><path class="cls-12" d="M1151.82,751.34c-30.28,4.86-48.93,69.19-17.73,86.89,33.53,19,65-38.26,45.27-71.25C1171.67,754.11,1161.57,749.77,1151.82,751.34Z"/><path class="cls-8" d="M1157.93,746.52l-11.7-1.36c7.94-68.57,4.56-156.2-56.61-184.18-29-13.26-111.92-28-148.43,21.31-4.39,4.93-7.33,9.06-7.33,9.06,22.64-69.86,129.39-55.39,160.66-41.08C1162.12,581.2,1166.31,674.06,1157.93,746.52Z"/><rect class="cls-13" x="697.88" y="1393.91" width="240.52" height="47.09"/><path class="cls-13" d="M739.15,1398.48l-60.7-309a17.41,17.41,0,0,0-17.08-14H257.85a17.25,17.25,0,0,0-14,7.18l-.05-.06-18.64,22,16.54-3.63,59.76,304.26a17.41,17.41,0,0,0,17.08,14H722.08A17.4,17.4,0,0,0,739.15,1398.48Z"/><path class="cls-14" d="M300.1,1441H703.63a17.4,17.4,0,0,0,17.07-20.76l-60.7-309a17.41,17.41,0,0,0-17.08-14H239.4a17.41,17.41,0,0,0-17.08,20.76L283,1427A17.41,17.41,0,0,0,300.1,1441Z"/><path class="cls-13" d="M427,1261.43c3.72,20.84,23.64,37.74,44.48,37.74s34.49-16.9,30.47-37.74-23.94-37.75-44.49-37.75S423.3,1240.58,427,1261.43Z"/><path class="cls-14" d="M1585.29,1256.5c4.45-9.19,3.65-18.86.85-27.62-2.7-9-7.51-16.68-12.72-25.12s-10.64-17.38-13.93-28.3-2.38-23.42.69-33.89c6.63-21.35,20.2-37.09,29.55-53.19,4.69-8.15,8.52-16.42,10-25.58,1.7-9.07,1.12-18.73-3.34-27.84,7.73,6.76,11.47,17.72,12,28.32s-2.22,21.6-6.33,31.16c-8.12,19.39-20.28,35.13-25,52.16-2.68,8.42-3.34,16.59-1.44,24.76,1.6,8.37,6,16.83,9.92,26,4.18,9,8.18,19.3,9.07,29.94S1593.1,1249.63,1585.29,1256.5Z"/><path class="cls-8" d="M1529.48,1268.24H1649.4a0,0,0,0,1,0,0V1415a25,25,0,0,1-25,25h-69.92a25,25,0,0,1-25-25V1268.24A0,0,0,0,1,1529.48,1268.24Z"/><path class="cls-8" d="M1657.77,1307.09c-28.75,0-52.07,23.66-52.07,52.83s23.32,52.84,52.07,52.84,52.07-23.66,52.07-52.84S1686.53,1307.09,1657.77,1307.09Zm0,86.83c-18.5,0-33.5-15.22-33.5-34s15-34,33.5-34,33.5,15.22,33.5,34S1676.27,1393.92,1657.77,1393.92Z"/><path class="cls-15" d="M1547.41,1374.81h0a6.49,6.49,0,0,1-6.48-6.48v-83.59a6.5,6.5,0,0,1,6.48-6.49h0a6.51,6.51,0,0,1,6.48,6.49v83.59A6.5,6.5,0,0,1,1547.41,1374.81Z"/><path class="cls-12" d="M1621.7,1268.24v141.4a30.36,30.36,0,0,1-30.37,30.37H1619a30.37,30.37,0,0,0,30.37-30.37v-141.4Z"/><rect class="cls-16" x="1263.01" y="142.9" width="690.73" height="375.48" rx="41" transform="translate(3216.74 661.28) rotate(180)"/><polygon class="cls-16" points="1353.92 617.21 1353.92 444.67 1504.88 518.38 1353.92 617.21"/><rect class="cls-14" x="1368.22" y="314.79" width="341.93" height="32.76" rx="9"/><rect class="cls-14" x="1736.45" y="314.79" width="112.07" height="32.76" rx="9"/><rect class="cls-14" x="1506.59" y="240.39" width="341.93" height="32.76" rx="9" transform="translate(3355.12 513.55) rotate(180)"/><rect class="cls-14" x="1368.22" y="240.39" width="112.07" height="32.76" rx="9" transform="translate(2848.51 513.55) rotate(180)"/><rect class="cls-14" x="1368.22" y="382.8" width="240.15" height="32.76" rx="9"/><path class="cls-1" d="M1129.07,1367.79q7.35-1.24,14.72-2.41,35.85-5.62,71.36-13.35c46.87-10.19,94-18.94,141.73-23.46q7.59-.72,15.18-1.29c21.39-1.62,43.81-2.15,63.39,8.08s35.15,34.43,30.37,57.75c-3.36,16.39-15.89,28.73-29.82,35s-29.25,7.3-44.29,8.31l-146.15,9.84q-36.18,2.41-72.35,5c-23,1.6-46.41,4.85-69.5,4.83-9.77,0-20.68-1.84-28.89-8.36-11.41-9.06-18.28-28.35-19.38-43.43-.57-7.83,1-17.33,7-22.17,3.21-2.6,7.29-3.39,11.22-4.11C1092.12,1374.51,1110.54,1371,1129.07,1367.79Z"/><path class="cls-10" d="M1074.42,1442c-11.78,2.44-21,12.78-32.72,16.25-8.36,2.47-17.32,1.15-25.36-1.87-7.39-2.77-14.91-4.25-22.49-6.68-5.92-1.9-13.9-5.89-20.26-4.56-16.65,3.46-33.26,15.31-48.35,23-3.4,1.73-7.11,3.51-10.86,2.8s-6.86-5.25-4.73-8.41c-4.34,4.06-10.09,12.17-17.1,9-2.86-1.29-4.59-5.09-3-7.8-2.41,2.65-4.94,5.37-8.26,6.68s-7.69.75-9.65-2.24a9.57,9.57,0,0,1-1.28-4.82c-.29-5.78,1.46-11.49,3.87-16.75,11.89-26,38.77-45.2,61.65-60.65,4-2.74,8.17-5.51,12.84-6.94,4.18-1.27,8.61-1.41,13-1.43a258.79,258.79,0,0,1,83.64,13.51c5.81,2,12.22.29,18-.79,4.29-.81,8.78-1.61,13-.38,4.69,1.37,8.33,5.09,11.19,9,5.25,7.3,9.27,17,8.64,26.11-.47,7-1,14.46-9.18,15.92-3.32.59-6.74.23-10.09.58C1076.05,1441.73,1075.23,1441.86,1074.42,1442Z"/><path class="cls-17" d="M1937.2,1498.13H207.08c-17.62,0-31.91-13.62-31.91-30.43h0c0-16.8,14.29-30.42,31.91-30.42H1937.2c17.62,0,31.91,13.62,31.91,30.42h0C1969.11,1484.51,1954.82,1498.13,1937.2,1498.13Z"/><path class="cls-17" d="M587.05,412.73H522.41a50.11,50.11,0,0,0-50,50h0a50,50,0,0,0,21.66,41.1V539l36-26.3h57a50.11,50.11,0,0,0,50-50h0A50.11,50.11,0,0,0,587.05,412.73Z"/><circle class="cls-14" cx="518.53" cy="462.69" r="7.58"/><circle class="cls-14" cx="554.73" cy="462.69" r="7.58"/><circle class="cls-14" cx="590.93" cy="462.69" r="7.58"/><path class="cls-17" d="M1564,850.37c-10-17.06-35.12-25.62-59.44,2.8-24.31-28.42-49.46-19.86-59.43-2.8-24.55,42,59.43,91.46,59.43,91.46S1588.56,892.38,1564,850.37Z"/><rect class="cls-17" x="859.74" y="325.65" width="148.96" height="99.39" rx="12"/><path class="cls-18" d="M862.15,328.84l65.22,63.24a10,10,0,0,0,13.71,0l65.22-63.24"/><line class="cls-18" x1="862.15" y1="421.83" x2="915.66" y2="380.73"/><line class="cls-18" x1="1006.3" y1="421.83" x2="952.79" y2="380.73"/><rect class="cls-17" x="583.28" y="690.37" width="172.08" height="119.52" rx="12"/><polygon class="cls-17" points="669.31 847.65 699.48 806.96 639.14 806.96 669.31 847.65"/><path class="cls-14" d="M714.59,765.5h-7.45V745.12l.07-3.35.12-3.66c-1.23,1.23-2.09,2-2.57,2.43l-4,3.25-3.59-4.48,11.35-9h6.12Z"/><path class="cls-14" d="M659.4,729.09H635A18.94,18.94,0,0,0,616.1,748h0a18.89,18.89,0,0,0,8.19,15.53v13.29l13.58-9.94H659.4A18.94,18.94,0,0,0,678.28,748h0A18.94,18.94,0,0,0,659.4,729.09Z"/><rect class="cls-14" x="62.4" y="1498.13" width="2005" height="276.07"/><rect class="cls-17" x="113.39" y="522.92" width="198.03" height="132.13" rx="12"/><path class="cls-18" d="M116.59,527.16l86.7,84.08a13.32,13.32,0,0,0,18.23,0l86.71-84.08"/><line class="cls-18" x1="116.59" y1="650.79" x2="187.73" y2="596.15"/><line class="cls-18" x1="308.23" y1="650.79" x2="237.08" y2="596.15"/><path class="cls-17" d="M749.74,121.24c-13.49-23.71-47.53-35.62-80.43,3.89-32.9-39.51-66.93-27.6-80.42-3.89-33.23,58.42,80.42,127.17,80.42,127.17S783,179.66,749.74,121.24Z"/></g></svg>