<svg xmlns="http://www.w3.org/2000/svg" xmlns:xlink="http://www.w3.org/1999/xlink" viewBox="0 0 1531.56 1440.82"><defs><style>.cls-1{fill:#68bcb8;}.cls-2{fill:#00a09d;}.cls-3{fill:#f5f5fe;}.cls-4{fill:#0b2d4e;}.cls-5{fill:#73b8d4;}.cls-6{fill:#061f33;}.cls-7{clip-path:url(#clip-path);}.cls-8{fill:#9b87ff;}.cls-18,.cls-20,.cls-24,.cls-9{fill:none;stroke-miterlimit:10;}.cls-9{stroke:#0b2d4e;}.cls-24,.cls-9{stroke-width:4px;}.cls-10{fill:#f8a17a;}.cls-11{fill:#e5785c;}.cls-12{fill:#8070f2;}.cls-13{fill:#b8d1ce;}.cls-14,.cls-15{fill:#fff;}.cls-15{opacity:0.2;}.cls-16{fill:#ffc73c;}.cls-17{clip-path:url(#clip-path-2);}.cls-18{stroke:#26a8d1;}.cls-18,.cls-20{stroke-width:5px;}.cls-19{clip-path:url(#clip-path-3);}.cls-20{stroke:#3dc8e8;}.cls-21{fill:#efb126;}.cls-22{fill:#231f20;opacity:0.1;}.cls-23{fill:#dbcdfe;}.cls-24{stroke:#fff;}</style><clipPath id="clip-path"><path class="cls-1" d="M987.3,1038.25c10.87-46.06,16.51-93.18-8.14-124.56-11.13-14.17-31-24-47.2-31.05-31.66-13.68-64-32.08-97.92-38-35.73-6.29-75.47-10.17-111.08-1.18-22.62,5.72-43.78,16.29-64,27.69-17.55,9.9-39.08,18.42-47.6,36.84a1251.86,1251.86,0,0,0-54.17,137.92c-12.72,39.12-26.68,80.12-6.64,119.77,6.5,12.84,15.93,23.84,23.35,36.11,8.28,13.67,11.36,26.51,12.45,42.28,2.47,36,1.51,72.08,1.41,108.11,0,10.38.1,21.18,4.65,30.51,9,18.41,33.32,18.67,50.87,18.64l173.52-.3c24.06,0,42.45,2.9,65,7.55,19,3.9,35.33-5.69,44.45-23.38,8.64-16.75,9.3-36.31,10.22-55.13a1190.22,1190.22,0,0,1,31-217.41C972.3,1092.43,980.74,1066,987.3,1038.25Z"/></clipPath><clipPath id="clip-path-2"><path class="cls-1" d="M1481.65,648.68c-11-.07-21.69-1.48-29.22-12.27-14.8-21.19-37.38-40.21-62.71-18.67-14.6,12.43-3.62,38-16.19,50.29-11.12,10.87-25.25,9.07-30.94,27.12-8.36,26.55,18,49.82,26.46,72.78,7.1,19.26-8.87,26.6-16,41.62-5.54,11.57-2.69,24,3.34,35,10.63,19.51,34.19,35.22,28.73,60.48-4.55,21.09-8.79,39.88,9.81,55.86,12.76,11,36.42,20.94,34.62,41.22-.64,7.17-5.6,13.29-7,20.36-2.15,11.2,5.1,22.09,13.52,29.78,19.16,17.48,36,34,50.35,56,6.13,9.4,30.69,30.63,20.87,43.48,17.84-23.36,36.69-46,52.9-70.57,13.33-20.19,33.42-49.73,19.75-74.61-4.26-7.73-12.17-13.5-14.34-22.06-3.91-15.46,11.27-29.79,16.92-42.94,8.86-20.64,2.36-44.62-13.26-60.12-7.38-7.33-15.4-15.4-16.49-25.75-1.18-11.31,5.91-21.85,9.12-32.27a161.28,161.28,0,0,0,5.9-29.82c.76-7.05,1-14.27-.6-21.16-3.16-13.11-15-20.4-23.71-29.71-20.81-22.15-9.87-48.2-19-73.94C1516.35,645.67,1498.62,648.78,1481.65,648.68Z"/></clipPath><clipPath id="clip-path-3"><path class="cls-2" d="M1616.78,810.1c8,1.48,15.94,1.93,22.9-4.86,13.66-13.32,32.68-24,48.07-4.86,8.87,11-2.64,28.06,4.78,38.72,6.56,9.43,17.06,10.08,18.69,24,2.39,20.42-20,33.64-29.27,49.13-7.81,13,2.75,20.52,5.88,32.41,2.41,9.16-1.37,17.76-7.27,24.95-10.41,12.68-29.68,20.82-29.22,39.9.39,15.92.86,30.14-14.85,39.16-10.76,6.18-29.31,10.15-30.81,25.11-.53,5.29,2.22,10.41,2.23,15.73,0,8.42-6.75,15.32-13.92,19.73-16.32,10-30.81,19.66-44.27,33.63-5.75,6-26.5,18-21.16,28.64-9.71-19.41-20.25-38.45-28.6-58.51-6.88-16.49-17.36-40.7-4-56.85,4.16-5,10.7-8.11,13.45-14,5-10.67-4.05-23.17-6.33-33.49-3.57-16.2,4.47-32.69,17.94-41.77,6.38-4.3,13.31-9,15.53-16.4,2.42-8-1.26-16.66-2.15-24.67a118.57,118.57,0,0,1-.15-22.45c.42-5.22,1.21-10.49,3.37-15.26,4.1-9.08,13.67-12.73,21.3-18.27,18.16-13.19,13.83-33.6,24-51C1592,803.11,1604.46,807.83,1616.78,810.1Z"/></clipPath></defs><g id="Layer_1" data-name="Layer 1"><circle class="cls-3" cx="789.48" cy="747.17" r="705.46"/><path class="cls-4" d="M1056.36,1095.94c-46.33,16.39-102.21,14.72-144.36-12.32-41.44-26.59-79.19-45.78-130.17-44.85-45.56.83-83.23,25.46-127.36,30.7-35,4.15-70.54-11.1-95.9-35.57-24.76-23.88-41.2-60.3-30.44-93,5.64-17.11,18-31.22,25-47.81,16.21-38.24-26.48-61.32-15.86-101.58,9-34.24,46.6-58.66,46-94.06-.41-25.92-20.48-46-27.54-70-7.13-24.2-5.56-51.29,7-73.39a87.69,87.69,0,0,1,41.28-36.86c15.45-6.59,32.71-6.71,44.65-20.21C670,473,677.81,446.91,707,429.32c24.73-14.89,57.39-15.83,85.76-13.23,63,5.78,124.21,39.05,159.72,92,12.58,18.78,21.66,38,22,60.32.34,24.4.34,48.94,15.28,69.68,12.56,17.42,32.7,27.61,52.68,35.47s40.92,14.22,58.46,26.6,31.46,32.58,29.42,53.95c-1.72,17.89-14.1,33.43-15.74,51.32-3,32.54,28.34,56.17,47.66,82.51,27.06,36.89,31.54,89,11.18,130-23.44,47.17-66,57.8-110.67,75.55Q1059.59,1094.8,1056.36,1095.94Z"/><path class="cls-5" d="M719.52,487.65c15.32-8.95,33.13-13,50.82-13.75a189.12,189.12,0,0,1,52.78,5.89,162.6,162.6,0,0,1,88,57.58,145.48,145.48,0,0,1,24.23,47.7c5,17.32,6,35.43,5.82,53.16s-1.44,35.42-.85,52.9a94.87,94.87,0,0,0,4.08,25.43c2.59,8.06,7.1,15.5,13.76,20.35s15,7.1,23.55,8.12,17.5,1.07,26.43,2.26c17.65,2.38,35.61,6.58,51,16.7,7.56,5,14.36,12.09,17.67,21s2.73,18.59.44,27.44c-2.67,9-7.74,16.46-11.27,24.29a77.35,77.35,0,0,0-6.58,24.86c-1.63,17.28,2.8,34.61,8.95,51s13.28,32.82,17.52,50.18a107.18,107.18,0,0,1,3.19,26.52,83.67,83.67,0,0,1-4.65,26.25,89.74,89.74,0,0,1-30.93,42.35,89.07,89.07,0,0,0,29.75-42.74c5.6-16.76,4.85-34.93.23-51.78-4.42-17-11.79-33.09-18.1-49.66s-11.31-34.28-9.84-52.45a81.29,81.29,0,0,1,6.59-26.26c3.69-8.28,8.61-15.68,10.94-23.78,2.06-8.18,2.6-16.88-.44-24.62s-9-14.06-16-18.74c-14.34-9.4-31.85-13.53-49-15.73C999,751,990.15,751,981.15,749.94s-18.32-3.21-26-9-12.69-14.18-15.44-22.88a99.53,99.53,0,0,1-4.21-26.78c-.52-17.89.84-35.55,1.08-53.14s-.66-35.16-5.43-51.92a146.7,146.7,0,0,0-23.12-46.54,159.74,159.74,0,0,0-85.55-57.54,187.39,187.39,0,0,0-52.13-7.05C752.82,475.42,735.05,479.06,719.52,487.65Z"/><path class="cls-6" d="M942.52,879.79c1.65,40-7.62,70-44.18,89.78-29.12,15.75-64,20.91-96.13,21.71-53.9,1.32-114-12.58-154.27-50.44-7.32-6.87-14.34-15.29-14.87-25.31-.48-9.12,4.53-17.7,5-26.81.75-15.37-11.2-28.11-16.55-42.54-7-19.06-2.26-40.34,4.08-59.65s14.27-38.8,13.32-59.11c-1.23-26.33-17.06-49.32-29.73-72.44s-22.64-51.25-11.81-75.28c7.13-15.85,24.15-28,41.53-30,18.37-2,34.87,19,46.64,30.51A288.06,288.06,0,0,0,738,621.05C764.21,637,793,648.72,817.71,667c14.94,11,31,26.2,38.09,43.79,8,19.83-6,39,11,57.25,11,11.76,27.83,15.76,41.11,24.86C936.3,812.33,941.23,848.22,942.52,879.79Z"/><path class="cls-2" d="M644.87,1103.5c37.84-58.32,61.39-129.89,28.51-195.74-3.33-6.67-7.34-14-14.42-16.31-15.22-5.06-35.87.38-49.11,8.15-45.92,26.94-74,77.64-99.81,122.74-26.8,46.87-50.08,95.65-77,142.44-10.91,19-21.93,38.15-27.78,59.22-5.12,18.46-5.68,39.59,1.31,57.64,30.23,78.07,113.36-17.56,138.67-46.45A1155.92,1155.92,0,0,0,644.87,1103.5Z"/><path class="cls-1" d="M987.3,1038.25c10.87-46.06,16.51-93.18-8.14-124.56-11.13-14.17-31-24-47.2-31.05-31.66-13.68-64-32.08-97.92-38-35.73-6.29-75.47-10.17-111.08-1.18-22.62,5.72-43.78,16.29-64,27.69-17.55,9.9-39.08,18.42-47.6,36.84a1251.86,1251.86,0,0,0-54.17,137.92c-12.72,39.12-26.68,80.12-6.64,119.77,6.5,12.84,15.93,23.84,23.35,36.11,8.28,13.67,11.36,26.51,12.45,42.28,2.47,36,1.51,72.08,1.41,108.11,0,10.38.1,21.18,4.65,30.51,9,18.41,33.32,18.67,50.87,18.64l173.52-.3c24.06,0,42.45,2.9,65,7.55,19,3.9,35.33-5.69,44.45-23.38,8.64-16.75,9.3-36.31,10.22-55.13a1190.22,1190.22,0,0,1,31-217.41C972.3,1092.43,980.74,1066,987.3,1038.25Z"/><g class="cls-7"><path class="cls-2" d="M853.34,904.27c13.61-22.91,16.71-51.52-1.13-73.59-8.15-10.09-22.58-11.22-34.91-11.45a293.75,293.75,0,0,0-72.25,7.66c-22.53,5.27-45.51,14.19-55.27,37-7.25,16.9-4.72,36.46,4.84,51.92A64,64,0,0,0,733.75,944c25.93,6.17,56.29,5.34,81-5C830.28,932.47,844.19,919.66,853.34,904.27Z"/><path class="cls-2" d="M1007.79,1249.43l-.54-106c-.06-12.29,7.92-87.14-11.21-86.29a10.91,10.91,0,0,0-5.63,2.36c-9.52,6.81-14.41,18.21-18.85,29-13.94,33.92-25.65,88.24-54.67,112-29.49,24.14-74.85,34.32-111.51,40.11-42.8,6.77-86.31,7.27-129.57,9.91-28,1.7-58.85,5.73-77.23,26.89-13.13,15.12-19.81,37.77-26.82,56.24-6.13,16.14-11,35.31,1.42,49.92,5.31,6.24,12.67,10.33,20.08,13.82,27,12.73,56.5,19.15,85.94,24.07,82.38,13.79,166.34,16.66,249.78,12.68,17.83-.85,37.18-2.63,50.33-14.7,9.79-9,14.41-22.21,17.69-35.09C1008.18,1340.55,1008,1294.7,1007.79,1249.43Z"/></g><path class="cls-8" d="M613.32,646.25c-31.56,32.47-2.93,111.81,47.4,100.33,54.08-12.34,45.94-96.62-3-110.46C638.69,630.73,623.48,635.79,613.32,646.25Z"/><path class="cls-9" d="M1044.13,1090.61c31.63,4,64.95,1.25,93.2-13.53,36-18.82,54-53.34,54.72-93,.54-28.76-5-58.75-22.4-81.68-18.88-25-50.52-40.28-62.26-69.27-7.61-18.78-5.78-44.35,9.25-58.88,9.58-9.24,17.06-19.67,15.83-33.54-1.8-20.39-16.72-40-33.39-51-24.44-16.15-54.84-22.06-83.44-25.7-19.37-2.46-38.67-7.9-44.66-28.76-3.24-11.25-2.6-23.13-3.2-34.69-1.29-24.67-3.1-49.33-6.78-73.77-4.25-28.17-22.54-55.42-42.94-74.83q-4.39-4.17-9.12-8c-52.59-42.6-150-57.7-208-18.21a89.85,89.85,0,0,0-38.05,57.62c-2.95,15.75-7.21,19.13-22.59,23.91-27.94,8.67-59.65,14.82-81.84,35.32-17.36,16-25.34,40.31-23,63.6,2.95,29.73,23.74,44,38.62,67.52,15.2,24.06,3.25,54.33-14.4,74.18-13.59,15.29-32.88,26.46-40.56,45.42-7.07,17.45-2.39,37.61,6.15,54.39,3.45,6.8,7.52,13.29,10.58,20.27a78.54,78.54,0,0,1-2.54,67.25"/><path class="cls-1" d="M1133.8,1136.62q14.51,26.18,28.72,52.52c19.17,35.7,54.74,115-2.21,134.62-28.7,9.87-45.11.22-64.08-20.69A1208.55,1208.55,0,0,1,914.79,1040.2c-18-35.4-66-127.66-7.76-148.74a70.65,70.65,0,0,1,56.77,4.15c7.88,4.23,14.86,9.93,21.53,15.88,42,37.47,71.91,85.8,98.53,134.82C1100.3,1076.61,1117.14,1106.57,1133.8,1136.62Z"/><path class="cls-10" d="M804,915.94c17.33-5.56,31.61-16.33,37-33.46,4.85-15.54-2.8-33-4.17-48.71a297.82,297.82,0,0,1-.48-45.2c.91-13.91,2.24-28.4.1-42.27-1.22-7.93-5.57-6.57-13.59-9.72s-17-3.18-25.72-3.16c-17.85,0-64.35-1.25-75.38,14.4-5.06,7.19-5.46,16.23-5.7,24.79-.29,10.33-2.12,23.71-3.81,38.12-.75,6.42-.29,12.81-1.27,19.18-1.1,7.14-3.81,14-6.19,20.82-9,25.85-.57,50.43,27.39,62.27C752.21,921.49,780.85,923.38,804,915.94Z"/><path class="cls-11" d="M836.34,746.3c-1.22-7.93-5.57-6.57-13.59-9.72s-17-3.18-25.72-3.16c-17.85,0-64.35-1.25-75.38,14.4-5.06,7.19-5.46,16.23-5.7,24.79-.29,10.33-2.12,23.71-3.81,38.12-.75,6.42-.29,12.81-1.27,19.18a89.29,89.29,0,0,1-4.45,15.92,94.56,94.56,0,0,0,54.86,3.41c32.5-8,57.12-28.23,74.67-54.53.09-2.05.15-4.09.29-6.14C837.15,774.66,838.48,760.17,836.34,746.3Z"/><path class="cls-10" d="M862.24,644.44c-.14-23.82-3.43-46.42-9.56-65.18-26.44-81-127.45-101-188.27-42.85C596.59,601.22,622.55,756.18,694,810.62a80.16,80.16,0,0,0,68.25,13.45C832.43,805.24,862.68,718.87,862.24,644.44Z"/><path class="cls-10" d="M849,646.44c31.07-17,40.64,26,35.29,47.45-2.21,8.84-5.7,17.47-11.19,24.74-7.39,9.8-28.54,26-40.72,15.33-5.52-4.86-6.09-13.12-6.26-20.48C825.63,693.74,827.9,658,849,646.44Z"/><path class="cls-12" d="M747.75,788.17a157.71,157.71,0,0,1-23-1.7l1.37-9.32a141.6,141.6,0,0,0,80.43-11.23,103.47,103.47,0,0,0,17.41-10,82.28,82.28,0,0,0,22.54-24.85l8.13,4.76a91.82,91.82,0,0,1-25.15,27.72,112.4,112.4,0,0,1-19,10.92A149.08,149.08,0,0,1,747.75,788.17Z"/><path class="cls-12" d="M697.55,769.73c11.36-9.75,36.63-8.92,45,1.2,6.18,7.51,4.29,17-2.51,23.37-8,7.51-18,7.07-28,4.81C699.42,796.28,683.86,781.48,697.55,769.73Z"/><path class="cls-11" d="M862.4,582.59c-27.84-85.24-134.18-106.3-198.21-45.11C650,551,639.83,568.28,633,587.68a60.25,60.25,0,0,0,4.94,6.64c8.79,10.18,20.92,16.83,33.12,22.47,35.64,16.48,74.06,26.15,112.66,33.38,2.85.53,5.71,1.06,8.56,1.62,10.63,2.1,21.18,4.72,30.46,10.18,26.23,15.47,15,49.48,34.17,64.38a18.19,18.19,0,0,0,5.25,2.84,286.52,286.52,0,0,0,10.27-78C872.31,626.14,868.85,602.35,862.4,582.59Z"/><path class="cls-4" d="M795.07,642.06c10.15,3.76,20.15,8,28.43,14.91,23.44,19.44,6.87,51.22,23.47,69,14.7,15.75,37-5.07,42.88-19.61,10.78-26.81,10.14-56.63,9.35-85.51-.45-16.1-.93-32.44-5.65-47.84-5.15-16.8-15.18-31.79-27.12-44.68-34.49-37.22-86.53-56.56-136.92-53.39-39.41,2.49-108.54,35.6-77.64,85.77,7,11.44,18,19.94,29.1,27.46,32.57,22,68.95,37.62,105.9,50.92C789.6,640.07,792.34,641,795.07,642.06Z"/><path class="cls-8" d="M862,634.21c-43.86,11.24-60.81,93.87-11.88,110.32,52.58,17.68,89.59-58.48,55.08-95.79C891.76,634.19,876.14,630.59,862,634.21Z"/><path class="cls-12" d="M876.4,644.81c-30.28,4.87-48.93,69.19-17.73,86.9,33.53,19,65-38.26,45.27-71.26C896.25,647.58,886.14,643.24,876.4,644.81Z"/><path class="cls-8" d="M882.51,640l-11.7-1.36c7.94-68.57,4.56-156.19-56.61-184.18-29-13.25-111.93-28-148.43,21.31-4.39,4.93-7.33,9.07-7.33,9.07,22.64-69.87,129.39-55.4,160.66-41.09C886.7,474.67,890.89,567.53,882.51,640Z"/><rect class="cls-13" x="422.46" y="1287.38" width="240.52" height="47.09"/><path class="cls-13" d="M463.73,1292l-60.7-309a17.41,17.41,0,0,0-17.08-14H-17.57a17.25,17.25,0,0,0-14,7.18l-.05,0-18.64,22,16.53-3.63,59.77,304.26a17.41,17.41,0,0,0,17.08,14H446.65A17.41,17.41,0,0,0,463.73,1292Z"/><path class="cls-14" d="M24.68,1334.47H428.2a17.4,17.4,0,0,0,17.08-20.76l-60.7-309a17.41,17.41,0,0,0-17.08-14H-36a17.4,17.4,0,0,0-17.07,20.76l60.7,309A17.41,17.41,0,0,0,24.68,1334.47Z"/><path class="cls-13" d="M151.61,1154.9c3.72,20.84,23.63,37.74,44.48,37.74s34.48-16.9,30.46-37.74-23.93-37.75-44.48-37.75S147.88,1134.05,151.61,1154.9Z"/><path class="cls-14" d="M1309.87,1150c4.45-9.19,3.65-18.85.85-27.62-2.7-9-7.51-16.68-12.72-25.11s-10.64-17.39-13.93-28.31-2.38-23.42.68-33.89c6.63-21.35,20.21-37.09,29.56-53.19,4.69-8.15,8.52-16.42,10-25.58a44.08,44.08,0,0,0-3.34-27.84c7.72,6.76,11.47,17.72,12,28.33s-2.22,21.59-6.33,31.15c-8.12,19.39-20.28,35.13-25,52.16-2.69,8.42-3.35,16.59-1.44,24.76,1.59,8.38,6,16.83,9.92,26,4.18,9,8.18,19.3,9.06,29.94S1317.68,1143.11,1309.87,1150Z"/><path class="cls-8" d="M1254.06,1161.71H1374a0,0,0,0,1,0,0v146.77a25,25,0,0,1-25,25h-69.92a25,25,0,0,1-25-25V1161.71A0,0,0,0,1,1254.06,1161.71Z"/><path class="cls-8" d="M1382.35,1200.56c-28.76,0-52.07,23.66-52.07,52.84s23.31,52.83,52.07,52.83,52.07-23.66,52.07-52.83S1411.11,1200.56,1382.35,1200.56Zm0,86.83c-18.5,0-33.5-15.22-33.5-34s15-34,33.5-34,33.5,15.22,33.5,34S1400.85,1287.39,1382.35,1287.39Z"/><path class="cls-15" d="M1272,1268.29h0a6.51,6.51,0,0,1-6.49-6.49v-83.59a6.51,6.51,0,0,1,6.49-6.49h0a6.51,6.51,0,0,1,6.48,6.49v83.59A6.51,6.51,0,0,1,1272,1268.29Z"/><path class="cls-12" d="M1346.28,1161.71v141.4a30.37,30.37,0,0,1-30.37,30.37h27.7a30.37,30.37,0,0,0,30.37-30.37v-141.4Z"/><rect class="cls-16" x="1010.52" y="265.81" width="491.31" height="298.34" rx="41" transform="translate(2512.35 829.97) rotate(180)"/><polygon class="cls-16" points="1075.19 642.68 1075.19 505.59 1182.56 564.15 1075.19 642.68"/><rect class="cls-14" x="1085.36" y="402.39" width="243.22" height="26.03" rx="9"/><rect class="cls-14" x="1347.28" y="402.39" width="79.72" height="26.03" rx="9"/><rect class="cls-14" x="1183.78" y="343.28" width="243.22" height="26.03" rx="9" transform="translate(2610.78 712.59) rotate(180)"/><rect class="cls-14" x="1085.36" y="343.28" width="79.72" height="26.03" rx="9" transform="translate(2250.43 712.59) rotate(180)"/><rect class="cls-14" x="1085.36" y="456.43" width="170.82" height="26.03" rx="9"/><path class="cls-1" d="M1481.65,648.68c-11-.07-21.69-1.48-29.22-12.27-14.8-21.19-37.38-40.21-62.71-18.67-14.6,12.43-3.62,38-16.19,50.29-11.12,10.87-25.25,9.07-30.94,27.12-8.36,26.55,18,49.82,26.46,72.78,7.1,19.26-8.87,26.6-16,41.62-5.54,11.57-2.69,24,3.34,35,10.63,19.51,34.19,35.22,28.73,60.48-4.55,21.09-8.79,39.88,9.81,55.86,12.76,11,36.42,20.94,34.62,41.22-.64,7.17-5.6,13.29-7,20.36-2.15,11.2,5.1,22.09,13.52,29.78,19.16,17.48,36,34,50.35,56,6.13,9.4,30.69,30.63,20.87,43.48,17.84-23.36,36.69-46,52.9-70.57,13.33-20.19,33.42-49.73,19.75-74.61-4.26-7.73-12.17-13.5-14.34-22.06-3.91-15.46,11.27-29.79,16.92-42.94,8.86-20.64,2.36-44.62-13.26-60.12-7.38-7.33-15.4-15.4-16.49-25.75-1.18-11.31,5.91-21.85,9.12-32.27a161.28,161.28,0,0,0,5.9-29.82c.76-7.05,1-14.27-.6-21.16-3.16-13.11-15-20.4-23.71-29.71-20.81-22.15-9.87-48.2-19-73.94C1516.35,645.67,1498.62,648.78,1481.65,648.68Z"/><g class="cls-17"><path class="cls-18" d="M1509.5,1178.06c7.72-88.56.63-177.83-15.73-265-15.61-83.21-36.1-166.7-67.15-245.58a755.55,755.55,0,0,0-34.88-76.4"/><path class="cls-18" d="M1321.82,709.79a534.78,534.78,0,0,1,123.35,62.54c9.68,6.61,15.08,8.63,23.15,17.14"/><path class="cls-18" d="M1489,884.35a365.38,365.38,0,0,0-138.44-53.44"/><path class="cls-18" d="M1505.54,998.6A312.27,312.27,0,0,0,1368.81,930"/><path class="cls-18" d="M1466.16,786.55a388.09,388.09,0,0,1,34.22-135.84"/><path class="cls-18" d="M1488.46,880.49a342.48,342.48,0,0,1,83.39-111.43"/><path class="cls-18" d="M1508.13,1001.85a128.39,128.39,0,0,1,14.16-37.32c7.7-13.5,17.79-25.47,28.06-37.13q11.09-12.6,22.56-24.87"/></g><path class="cls-2" d="M1616.78,810.1c8,1.48,15.94,1.93,22.9-4.86,13.66-13.32,32.68-24,48.07-4.86,8.87,11-2.64,28.06,4.78,38.72,6.56,9.43,17.06,10.08,18.69,24,2.39,20.42-20,33.64-29.27,49.13-7.81,13,2.75,20.52,5.88,32.41,2.41,9.16-1.37,17.76-7.27,24.95-10.41,12.68-29.68,20.82-29.22,39.9.39,15.92.86,30.14-14.85,39.16-10.76,6.18-29.31,10.15-30.81,25.11-.53,5.29,2.22,10.41,2.23,15.73,0,8.42-6.75,15.32-13.92,19.73-16.32,10-30.81,19.66-44.27,33.63-5.75,6-26.5,18-21.16,28.64-9.71-19.41-20.25-38.45-28.6-58.51-6.88-16.49-17.36-40.7-4-56.85,4.16-5,10.7-8.11,13.45-14,5-10.67-4.05-23.17-6.33-33.49-3.57-16.2,4.47-32.69,17.94-41.77,6.38-4.3,13.31-9,15.53-16.4,2.42-8-1.26-16.66-2.15-24.67a118.57,118.57,0,0,1-.15-22.45c.42-5.22,1.21-10.49,3.37-15.26,4.1-9.08,13.67-12.73,21.3-18.27,18.16-13.19,13.83-33.6,24-51C1592,803.11,1604.46,807.83,1616.78,810.1Z"/><g class="cls-19"><path class="cls-20" d="M1523.31,1190.25c6.65-65.32,24.16-129.09,48.1-190.09,22.84-58.19,49.25-115.92,82.7-168.84A559.1,559.1,0,0,1,1690,780.73"/><path class="cls-20" d="M1548.69,1062.62a94.67,94.67,0,0,0-5.1-29c-3.72-10.86-9.38-20.94-15.22-30.82q-6.3-10.68-12.92-21.16"/></g><polygon class="cls-21" points="1445.62 1167.63 1608.9 1167.63 1580.26 1331.03 1474.27 1331.03 1445.62 1167.63"/><rect class="cls-16" x="1425.63" y="1121.76" width="203.26" height="45.87" transform="translate(3054.52 2289.39) rotate(180)"/><polygon class="cls-22" points="1605.1 1189.3 1449.42 1189.3 1445.62 1167.63 1608.9 1167.63 1605.1 1189.3"/><path class="cls-1" d="M853.65,1261.26q7.33-1.24,14.72-2.41,35.83-5.62,71.36-13.35c46.87-10.19,94-18.94,141.73-23.46q7.59-.72,15.18-1.29c21.39-1.62,43.81-2.14,63.39,8.08s35.15,34.43,30.37,57.76c-3.36,16.39-15.89,28.72-29.82,34.94s-29.25,7.3-44.29,8.31l-146.15,9.84q-36.18,2.41-72.35,5c-23,1.6-46.41,4.86-69.51,4.83-9.77,0-20.67-1.84-28.88-8.36C788,1332,781.12,1312.75,780,1297.67c-.58-7.82,1-17.33,7-22.17,3.21-2.6,7.29-3.39,11.22-4.11C816.7,1268,835.12,1264.43,853.65,1261.26Z"/><path class="cls-10" d="M799,1335.5c-11.78,2.43-21,12.77-32.71,16.24-8.36,2.47-17.32,1.15-25.36-1.87-7.39-2.77-14.91-4.25-22.5-6.68-5.91-1.9-13.9-5.88-20.25-4.56-16.65,3.46-33.26,15.31-48.35,23-3.4,1.73-7.12,3.51-10.86,2.8s-6.86-5.25-4.73-8.41c-4.34,4.06-10.09,12.17-17.1,9-2.87-1.29-4.59-5.09-3-7.79-2.4,2.64-4.93,5.36-8.26,6.68s-7.68.74-9.64-2.25a9.57,9.57,0,0,1-1.28-4.82c-.29-5.78,1.45-11.49,3.87-16.75,11.88-26,38.77-45.19,61.64-60.65,4-2.74,8.17-5.51,12.84-6.93,4.18-1.28,8.62-1.42,13-1.44a259,259,0,0,1,83.63,13.51c5.82,2,12.23.29,18-.79,4.29-.81,8.78-1.6,13-.38,4.69,1.37,8.33,5.09,11.19,9,5.25,7.3,9.27,17,8.64,26.11-.47,7-1,14.46-9.19,15.92-3.31.6-6.73.23-10.08.58C800.63,1335.2,799.81,1335.33,799,1335.5Z"/><path class="cls-23" d="M1661.78,1391.6H-68.34c-17.62,0-31.91-13.62-31.91-30.42h0c0-16.81,14.29-30.43,31.91-30.43H1661.78c17.62,0,31.91,13.62,31.91,30.43h0C1693.69,1378,1679.4,1391.6,1661.78,1391.6Z"/><path class="cls-23" d="M311.62,306.2H247a50.1,50.1,0,0,0-50,50h0a50,50,0,0,0,21.66,41.1v35.16l36-26.3h57a50.1,50.1,0,0,0,50-50h0A50.1,50.1,0,0,0,311.62,306.2Z"/><circle class="cls-14" cx="243.11" cy="356.16" r="7.58"/><circle class="cls-14" cx="279.31" cy="356.16" r="7.58"/><circle class="cls-14" cx="315.51" cy="356.16" r="7.58"/><path class="cls-23" d="M1288.59,743.84c-10-17.05-35.12-25.62-59.44,2.8-24.31-28.42-49.47-19.85-59.43-2.8-24.56,42,59.43,91.46,59.43,91.46S1313.14,785.85,1288.59,743.84Z"/><rect class="cls-23" x="584.32" y="216.12" width="148.96" height="99.39" rx="12"/><path class="cls-24" d="M586.73,219.31,652,282.55a10,10,0,0,0,13.71,0l65.22-63.24"/><line class="cls-24" x1="586.73" y1="312.31" x2="640.24" y2="271.2"/><line class="cls-24" x1="730.88" y1="312.31" x2="677.37" y2="271.2"/><rect class="cls-23" x="307.85" y="583.84" width="172.08" height="119.52" rx="12"/><polygon class="cls-23" points="393.89 741.13 424.06 700.43 363.72 700.43 393.89 741.13"/><path class="cls-14" d="M439.16,659h-7.44V638.59l.07-3.35.12-3.66c-1.23,1.23-2.09,2-2.58,2.43l-4,3.25-3.59-4.48,11.34-9h6.12Z"/><path class="cls-14" d="M384,622.56H359.56a18.94,18.94,0,0,0-18.88,18.88h0A18.89,18.89,0,0,0,348.86,657v13.29l13.59-9.94H384a18.94,18.94,0,0,0,18.88-18.88h0A18.94,18.94,0,0,0,384,622.56Z"/><rect class="cls-14" x="-213.02" y="1391.6" width="2005" height="276.07"/></g></svg>