<svg xmlns="http://www.w3.org/2000/svg" xmlns:xlink="http://www.w3.org/1999/xlink" viewBox="0 0 1208.91 1169.82"><defs><style>.cls-1{mask:url(#mask);filter:url(#luminosity-noclip-2);}.cls-18,.cls-2{mix-blend-mode:multiply;}.cls-2{fill:url(#_ÂÁ_Ï_ÌÌ_È_ËÂÌÚ_3);}.cls-3{fill:none;}.cls-4{fill:#f7a73c;}.cls-5{fill:url(#linear-gradient);}.cls-6{isolation:isolate;}.cls-7{fill:#f5f5fe;}.cls-8{clip-path:url(#clip-path);}.cls-9{fill:#6a3bc4;}.cls-10{fill:#4a1aab;}.cls-11{fill:#262987;}.cls-12{fill:#fff;}.cls-13,.cls-18{fill:#ffbca4;}.cls-14{fill:#f4501e;}.cls-15{fill:#b3b3b3;}.cls-16{fill:#ccc;}.cls-17{fill:#092040;}.cls-18{opacity:0.65;}.cls-19{fill:#fd0;}.cls-20{fill:url(#linear-gradient-2);}.cls-21{fill:url(#linear-gradient-3);}.cls-22{mask:url(#mask-2);}.cls-23{fill:url(#_ÂÁ_Ï_ÌÌ_È_ËÂÌÚ_73);}.cls-24{fill:#6d82ff;opacity:0.3;}.cls-25{clip-path:url(#clip-path-2);}.cls-26{clip-path:url(#clip-path-3);}.cls-27{fill:#68bcb8;}.cls-28{clip-path:url(#clip-path-4);}.cls-29{fill:#2e3192;}.cls-30{clip-path:url(#clip-path-5);}.cls-31{clip-path:url(#clip-path-6);}.cls-32{clip-path:url(#clip-path-7);}.cls-33{clip-path:url(#clip-path-8);}.cls-34{clip-path:url(#clip-path-9);}.cls-35{clip-path:url(#clip-path-10);}.cls-36{clip-path:url(#clip-path-11);}.cls-37{clip-path:url(#clip-path-12);}.cls-38{clip-path:url(#clip-path-13);}.cls-39{clip-path:url(#clip-path-14);}.cls-40{fill:#c6d6e7;}.cls-41{fill:#00a872;}.cls-42{fill:#ffc159;}.cls-43{fill:#ffc73c;}.cls-44{filter:url(#luminosity-noclip);}</style><filter id="luminosity-noclip" x="187.52" y="-9174.51" width="360.32" height="32766" filterUnits="userSpaceOnUse" color-interpolation-filters="sRGB"><feFlood flood-color="#fff" result="bg"/><feBlend in="SourceGraphic" in2="bg"/></filter><mask id="mask" x="187.52" y="-9174.51" width="360.32" height="32766" maskUnits="userSpaceOnUse"><g class="cls-44"/></mask><radialGradient id="_ÂÁ_Ï_ÌÌ_È_ËÂÌÚ_3" cx="3716.38" cy="323.33" r="174.27" gradientTransform="translate(-2031.57 -2533.18) rotate(45)" gradientUnits="userSpaceOnUse"><stop offset="0" stop-color="#4d4d4d"/><stop offset="0.7"/></radialGradient><linearGradient id="linear-gradient" x1="920.24" y1="727.02" x2="830.07" y2="616.43" gradientTransform="matrix(1, 0.04, -0.04, 1, 38.54, -0.93)" gradientUnits="userSpaceOnUse"><stop offset="0" stop-color="#06a77c"/><stop offset="1" stop-color="#1dc990"/></linearGradient><clipPath id="clip-path"><polyline class="cls-3" points="1574.88 2083.64 -2425.12 2083.64 -2425.12 -116.36 1574.88 -116.36"/></clipPath><linearGradient id="linear-gradient-2" x1="-303.69" y1="658.22" x2="-254.02" y2="608.54" gradientTransform="matrix(0.98, 0.17, -0.17, 0.98, 873.66, 69.11)" gradientUnits="userSpaceOnUse"><stop offset="0" stop-color="#cdf8ff"/><stop offset="1" stop-color="#7996ba"/></linearGradient><linearGradient id="linear-gradient-3" x1="-206.35" y1="638.4" x2="-276.02" y2="523.1" gradientTransform="matrix(0.98, 0.17, -0.17, 0.98, 873.66, 69.11)" gradientUnits="userSpaceOnUse"><stop offset="0" stop-color="#cdf8ff"/><stop offset="1" stop-color="#a6ceff"/></linearGradient><filter id="luminosity-noclip-2" x="187.52" y="143.17" width="360.32" height="360.32" filterUnits="userSpaceOnUse" color-interpolation-filters="sRGB"><feFlood flood-color="#fff" result="bg"/><feBlend in="SourceGraphic" in2="bg"/></filter><mask id="mask-2" x="187.52" y="143.17" width="360.32" height="360.32" maskUnits="userSpaceOnUse"><g class="cls-1"><circle class="cls-2" cx="367.68" cy="323.33" r="180.16" transform="translate(-120.94 354.69) rotate(-45)"/></g></mask><radialGradient id="_ÂÁ_Ï_ÌÌ_È_ËÂÌÚ_73" cx="3716.38" cy="323.33" r="174.27" gradientTransform="translate(-2031.57 -2533.18) rotate(45)" gradientUnits="userSpaceOnUse"><stop offset="0" stop-color="#fff"/><stop offset="0.7" stop-color="#fff"/></radialGradient><clipPath id="clip-path-2"><path class="cls-4" d="M978.48,752.87c5.63,24.77,45,30.06,59.79,8.81,15.9-22.8-10-56.92,14.24-75.78,9.78-7.61,13.8-7.22,23-15.61s-.15-23.66,12.45-42.29c13-19.26-10.83-32.4-30.27-19.62-13,8.54-21.48,23.36-32.28,34.06-7.42,7.34-20.76,2-22.39,20.08-1.12,12.26-2.66,23.77-5.82,35.52-2.17,8.05-11.23,12.15-15.06,19.17C976.8,727,976.12,742.49,978.48,752.87Z"/></clipPath><clipPath id="clip-path-3"><path class="cls-4" d="M929.89,754.43c-11.55,2.26-23.53-13-28.6-21.62-8.19-14-12.8-32-8.58-46.82,3.38-11.86,9.47-26,4.55-38.21-5.21-12.93-15.16-13.43-21.66-25.39-11.19-20.62-.48-31.56-.13-43.57.51-17.12-8.28-19.58-7.66-36.72.51-14.12,20.05-22.08,30.73-14.2,27.86,20.54,18.16,32.38,30.57,49.65,12.67,17.62,28.07.6,29.55,59C959,649.5,954,662,956.53,675c1.28,6.69,5.15,12.12,6.94,18.57C969.05,713.7,951.41,750.21,929.89,754.43Z"/></clipPath><clipPath id="clip-path-4"><path class="cls-5" d="M948.83,770.12c-7.42,27.11-46.24,26.23-54.37,3.09-7.4-21,8-42.05-15.56-55.9-8.58-5-15.07-5-23.86-14.31s-4.16-19.54-6.57-29.44c-.85-3.46-11.49-14.64-12.53-18.06-5.41-17.67,16.74-33.8,31.09-17.92,12,13.32,26.75,14.42,38.33,24.54,7.31,6.38,15,14.51,19.4,23.25,5.78,11.57,4.3,24.14,8.06,36.24,2.38,7.63,10.57,10.62,14.42,17.19C953.14,748.88,951.72,759.56,948.83,770.12Z"/></clipPath><clipPath id="clip-path-5"><path class="cls-3" d="M967,969.66a71.87,71.87,0,0,1-71.87-71.87V823.94a6,6,0,0,1,6-6h131.67a6,6,0,0,1,6,6v73.85A71.86,71.86,0,0,1,967,969.66Z"/></clipPath><clipPath id="clip-path-6"><rect class="cls-3" x="1016.17" y="768.5" width="68.69" height="68.7"/></clipPath><clipPath id="clip-path-7"><rect class="cls-3" x="1016.17" y="837.19" width="68.69" height="68.7"/></clipPath><clipPath id="clip-path-8"><rect class="cls-3" x="1016.17" y="905.89" width="68.69" height="68.7"/></clipPath><clipPath id="clip-path-9"><rect class="cls-3" x="947.47" y="768.5" width="68.69" height="68.7"/></clipPath><clipPath id="clip-path-10"><polygon class="cls-3" points="946.47 837.19 1015.17 837.19 1016.17 905.89 947.47 905.89 946.47 837.19"/></clipPath><clipPath id="clip-path-11"><rect class="cls-3" x="947.47" y="905.89" width="68.69" height="68.7"/></clipPath><clipPath id="clip-path-12"><rect class="cls-3" x="878.78" y="768.5" width="68.69" height="68.7"/></clipPath><clipPath id="clip-path-13"><rect class="cls-3" x="878.78" y="837.19" width="68.69" height="68.7"/></clipPath><clipPath id="clip-path-14"><rect class="cls-3" x="878.78" y="905.89" width="68.69" height="68.7"/></clipPath></defs><g class="cls-6"><g id="_ÎÓÈ_1" data-name="—ÎÓÈ_1"><path class="cls-7" d="M1122.93,589.44c0,367.85-230.38,512.47-528.85,512.47S120.3,961.14,120.3,593.29,311.23,108.43,609.7,108.43,1122.93,221.59,1122.93,589.44Z"/><g class="cls-8"><path class="cls-9" d="M871.6,819c-13.22,36.71-47.48,127.26-71.44,153.77l-322,1.2s-54.14-55.68-69-79.9c-78.5-127.68-53.69-194.19,2.11-227.62q3-1.8,6.09-3.46c66.06-35.49,169.07-29.26,201.81-23l1.2.23C728.55,662,774,323.55,862,374.71c7.89,4.59,14.84,14.74,20.77,29.18C915.38,483.52,916.78,693.45,871.6,819Z"/><path class="cls-10" d="M852.18,403.89c-.25,17-2.35,36.64-6.87,59.38-32.2,162-33.54,219.53-82.95,266.09-27.59,26-221.47,77.51-316,18.16C392,713.4,387.25,687.18,386.75,663c66.06-35.49,169.07-29.26,201.81-23l1.2.23C698,662,743.44,323.55,831.41,374.71,839.3,379.3,846.25,389.45,852.18,403.89Z"/><path class="cls-9" d="M78.62,848.81c6.14,22.49-11.19,106.1,35.78,116.54,55.2,12.26,193.19,8.17,217.73-4.1s47-77.68,34.75-141c-7.29-37.68-11.15-69.75-36.55-86.38l-1.26-.8c-.42-.26-.85-.52-1.29-.77-17.42-10.15-44.29-13.64-87.44-7.79-34.69,4.72-99.87-10.58-129,6.29a49.18,49.18,0,0,0-10.64,8.34c-.43.43-.84.87-1.25,1.31s-.67.74-1,1.12C72.86,770.84,73.28,829.18,78.62,848.81Z"/><path class="cls-11" d="M99.45,740.4c5.65,1.82,11.33,3.13,16,3.13s15.19,2.17,20.11,4.77A106.77,106.77,0,0,1,155,760.91a26.15,26.15,0,0,0,10.9,5.62c2.61.65,6,2.84,8.86,3.24,6.65.91,17.7.84,27.43-.52,33.05-4.59,79.16-7.33,101.37-14.48,12.17-3.91,20.28-12.81,25.56-21.75-.42-.26-.85-.52-1.29-.77-17.42-10.15-44.29-13.64-87.44-7.79-34.69,4.72-99.87-10.58-129,6.29a49.18,49.18,0,0,0-10.64,8.34C100.27,739.52,99.86,740,99.45,740.4Z"/><path class="cls-12" d="M98.46,741.15a1.43,1.43,0,0,0,.75.36c.17,0,16.92,2.78,23.58,4.15a53.22,53.22,0,0,1,6.76,1.89c8.66,3.05,16.46,8.14,24.07,13.09l.06,0c5.58,3.65,10.87,7.1,16.07,9.41,3.66,1.62,8.25,2.24,13.4,2.24,8.4,0,18.28-1.64,28-3.24,7.63-1.26,14.82-2.45,20.66-2.7C249.94,765.6,288,761,304,755.84s25.68-21.22,26.36-22.38l-1.26-.8c-.42-.26-.85-.52-1.29-.77h0c-.09.16-9.63,16.2-24.72,21.07s-53.2,9.62-71.41,10.41c-6,.26-13.31,1.47-21,2.75-3.53.58-7.15,1.19-10.76,1.71-11.24,1.62-22.26,2.45-28.89-.49q-2.22-1-4.5-2.27c-3.59-2-7.3-4.4-11.15-6.91-9.33-6.09-19.89-13-31.93-15.46-5.74-1.18-18.93-3.37-22.69-4-.43.43-.84.87-1.25,1.31S98.78,740.77,98.46,741.15Z"/><path class="cls-13" d="M185.39,722.77s-.25-1.92-11.12,1.45c-8.3,2.58-6.73-.8-23.12-17.43-17.06-17.31-18.05-18.75-10.94-22.38s5.4-4.09,13.25,5.06c15.11,17.6,29.21,12.22,29.21,12.22Z"/><path class="cls-14" d="M148.57,683.64s-6.7,1.21-3.41,9,15.52,20.4,18.08,24.66,9.29,7.53,11,6.94-8.8,8.5-15.93,5-7.71-17.54-14-23.89c-10.7-10.84-15.79-23.78-12.55-30.68C135.89,666,148.57,683.64,148.57,683.64Z"/><path class="cls-15" d="M740.3,647.59s20,38.72-26.7,58.75-133.52,12-166.9,5.34S438.55,689,438.55,689s-33.38,20-60.09,24c-58.6,8.79-194.94,11.35-194.94,11.35l-8-24.7s251-62.75,273.72-62.75,211,4,211,4Z"/><path class="cls-12" d="M562.91,777.62c37.24,0,77.51-7.28,101.36-12.44C706,756.14,746.7,743,760.94,734c16.59-10.51,32.55-43.11,43.11-66.72,10.76-24.06,47.79-253.43,49.36-263.19l-2.46-.39c-.39,2.38-38.55,238.8-49.18,262.56-10.43,23.31-26.14,55.48-42.16,65.64-12,7.63-48.82,20.68-95.87,30.85-30.62,6.63-88.45,16.78-131.74,10.33-46.08-6.86-79.24-22.65-98.94-34.69-21.35-13-31.94-24.61-32-24.73l-1.85,1.67c.43.48,10.87,11.9,32.49,25.13,19.91,12.18,53.42,28.15,100,35.09A215.12,215.12,0,0,0,562.91,777.62Z"/><path class="cls-13" d="M229.27,746.25s-.53-2.09-12.18,3.07c-8.89,3.94-7.59,0-28-16.37-21.22-17-22.51-18.49-15.08-23.46s5.47-5.24,15.39,3.9c19.09,17.6,34.07,9.78,34.07,9.78Z"/><path class="cls-14" d="M183.23,707.55s-7.29,2.22-2.62,10.43,19.91,20.66,23.32,25.06,11.3,7.16,13.16,6.28S208.42,759.91,200,757s-10.86-18.5-18.64-24.74c-13.31-10.66-20.66-24.38-18-32.48C166.84,689.61,183.23,707.55,183.23,707.55Z"/><path class="cls-16" d="M748.31,669s20,38.72-26.7,58.75-133.52,12-166.9,5.34-100.14-33.38-100.14-33.38-25.37,18.69-52.07,22.7c-58.61,8.79-178.92,28.93-178.92,28.93l-16-27.59s224.31-78.78,247-78.78S668.2,662.28,668.2,662.28Z"/><path class="cls-17" d="M686,311.54s-7.52,36.15-13,52.44-18.15,21.89-8.15,49.49c10.74,29.62,49.18,24.12,59.09,14.1s19-10.1,28.89-4.84,30.08,34.86,41.36,11.1C854.93,306,686,311.54,686,311.54Z"/><path class="cls-13" d="M567,578.48s-39.46,5.11-43.3,5.83.58,29.62.58,29.62,42.72-1.32,51.17-5.86S567,578.48,567,578.48Z"/><path class="cls-14" d="M569.75,613.39l89-14.67c18.63-6.07,17.15-13.58,17.4-14.64l38.09-141.24c2.75-11.47,3.12-22.62-9.29-24.58s-32.42,4.72-38.39,24.56c0,0-16.38,97.95-24,106.86s-76.28,24.89-76.28,24.89C570.56,592.38,572.55,596,569.75,613.39Z"/><path class="cls-13" d="M486.91,590.45a28.17,28.17,0,0,1,31.87-19.61,25.33,25.33,0,0,1,19.54,31.58A28.16,28.16,0,0,1,506.45,622,25.33,25.33,0,0,1,486.91,590.45Z"/><path class="cls-12" d="M571,613.57a84.11,84.11,0,0,0,.15-23.16c-.08-.73-.15-1.4-.21-2-1-10-3.43-14.27-3.54-14.45l-2.12,1.25,1.06-.62-1.06.62s2.31,4.08,3.21,13.43c.06.63.13,1.31.21,2a81.88,81.88,0,0,1-.13,22.54Z"/><path class="cls-14" d="M790.77,438.26s-18.12-17.15-69.08-19.82l-2.89-.19c-4-.48-13.19.05-22.43,1.39-12.11,1.76-21.42,22.52-21.49,34.75-.09,16.55-3.16,24.23-10.06,34.71-13.69,20.8-17.64,39.25-5.4,54.79,10.81,13.73,14,52.06-6.44,119.63,0,0,22.75,19.74,100.71,9.85,0,0-12.1-77.07,14.85-120.53C790.39,517.62,790.77,438.26,790.77,438.26Z"/><path class="cls-13" d="M705,418.26s-22.79,37-10.42,64.39l4,9.63s48.27-21.7,59.14-66-45.22-7.1-45.22-7.1Z"/><path class="cls-12" d="M697.86,493.9l1.15-.49c.55-.24,55.19-24.19,62.42-85l-2.44-.29c-6.49,54.5-52,78.67-59.81,82.44-15.91-40.27,6.53-71.31,6.76-71.62l-2-1.47c-.25.33-24,33.05-6.58,75.22Z"/><path class="cls-13" d="M752.84,383.77s-9.69,24.62,0,39c0,0-31.59,18.51-46.78-.79,0,0,9.12-29,5.34-44.86C708.5,364.78,752.84,383.77,752.84,383.77Z"/><path class="cls-18" d="M711.91,379.65s30.56,5.54,39.73-.17c0,0,5.12,42.52,3.46,47.58,0,0-27.13-6.81-42.93-35.95C712.17,391.11,712,382.26,711.91,379.65Z"/><path class="cls-12" d="M667,597.24a1.24,1.24,0,0,0,1.37-1.13c2-26.35-1.74-39.08-10.44-56.08-8.26-16.16-.14-35.78,3.73-43.47,2.81-5.58,8.29-16.57,11-22.1a23.26,23.26,0,0,0,2.24-7.33c2.5-19.32,4.93-28.77,5-28.86a1.23,1.23,0,1,0-2.38-.62c0,.09-2.49,9.67-5,29.16a20.3,20.3,0,0,1-2,6.55c-2.76,5.53-8.24,16.52-11,22.09-4,8-12.49,28.54-3.72,45.7,8.48,16.59,12.17,29,10.18,54.77A1.22,1.22,0,0,0,667,597.24Z"/><path class="cls-13" d="M696.8,306.13c-1.1,1.75-3,7.36-3,16.39.07,10-1.37,14.86-3,25.7-2,12.75,11.13,50.63,52.31,42.4,32.68-6.53,42-43.1,42.37-70.68,0,0-34.79-41.75-61.91-33.33C723.53,286.61,711.36,282.92,696.8,306.13Z"/><path class="cls-12" d="M732.52,360.6c-5.36,2.58-17.24,4-29.15-3.27a1.24,1.24,0,0,0-1.81,1.43c1.23,4.47,5,12.75,16.14,14.18,9.55,1.22,14.42-6.26,16.31-10.28C734.51,361.62,733.56,360.1,732.52,360.6Z"/><path class="cls-17" d="M738.08,292.56s-40,.61-44.22,29.19c-1.4,9.35-16,48.74,3.27,64.78,0,0-24-35.75-17.63-60.27,7.61-29.37,13.09-22.38,9.43-32.23s16.64-48.29,47.52-35.52S738.08,292.56,738.08,292.56Z"/><path class="cls-13" d="M651.63,618.63s-7,10.32,59.16-15.27c9.45-3.65,13.78,30.2,13.78,30.2s2.89,5.7-60.59,16.36C639.4,654.05,651.63,618.63,651.63,618.63Z"/><path class="cls-14" d="M705,644.32c11.08-5.47,56.49-18,75.58-23.62a56.09,56.09,0,0,0,12.38-5.2c6-3.45,10.95-8,12.44-23,3.19-23.54.34-130.59.34-130.59-.29-13.35-11.46-33.48-32.68-33.69-13.35-.14-18,18.21-17.74,31.56l1.23,122.78-61.13,24,3.15,5.52c2.64,8.94,5.11,16.26,5.88,25.55Z"/><path class="cls-13" d="M620.22,630.86A28.17,28.17,0,0,1,654.1,615a25.34,25.34,0,0,1,15.84,33.6,28.16,28.16,0,0,1-33.89,15.88C622.11,660.17,614.59,644.31,620.22,630.86Z"/><path class="cls-12" d="M696.19,609.26a1.22,1.22,0,0,0,.62-.09L757,583.73a1.24,1.24,0,0,0,.75-1.15L757,510.51a1.24,1.24,0,0,0-2.47,0l.72,71.25L695.85,606.9a1.23,1.23,0,0,0-.65,1.62A1.21,1.21,0,0,0,696.19,609.26Z"/><path class="cls-17" d="M718.38,278.88l-.76-12.16c12.45-34.91,52.66-22.33,63.93-17.94,23.94,9.3,36.4,31.47,60.7,42,20.12,8.71,32.13,32.56,25.29,48-2.59,5.86,6.13,11,5.05,28.17-1.32,20.73-7,26.6-17.28,31s-4.56,19.31-10.23,30.93c-10.33,21.16-45.36,34.67-67.3,20.26-19-12.45-20.91-14.41-27.09-30.49-4.45-11.57-4.67-36,5.45-45.51s19.17-13.29,15.42-29.9C767.9,327,754.64,320.76,734.9,312,713.43,302.43,718.38,278.88,718.38,278.88Z"/><path class="cls-13" d="M755.58,351.23c-1.25,8,3,15.36,9.4,16.36s12.69-4.69,13.94-12.72-3.22-16-9.74-15.77C762,339.32,756.83,343.2,755.58,351.23Z"/><path class="cls-19" d="M764.86,363.89a4.91,4.91,0,1,0,5.61-4.1A4.91,4.91,0,0,0,764.86,363.89Z"/><path class="cls-20" d="M628,667.77l-140.9-25-24.17-96.3a7.68,7.68,0,0,1,8.8-9.44L596,559.08a7.7,7.7,0,0,1,6.12,5.7Z"/><path class="cls-21" d="M619.31,666.23l-140.9-25-24.17-96.3a7.68,7.68,0,0,1,8.8-9.44l124.3,22.08a7.7,7.7,0,0,1,6.12,5.7Z"/><path class="cls-12" d="M620.71,667.53,477.57,642.11l-24.34-97a8.73,8.73,0,0,1,10-10.72l124.3,22.08a8.73,8.73,0,0,1,6.94,6.47ZM479.25,640.3l138.66,24.63L592.45,563.49a6.67,6.67,0,0,0-5.29-4.93l-124.3-22.08a6.66,6.66,0,0,0-7.62,8.17Z"/><path class="cls-12" d="M542,603.41c-.42-6.34-6.1-12.43-12.68-13.6s-11.6,3-11.18,9.36,6.09,12.44,12.68,13.61S542.41,609.75,542,603.41Z"/><path class="cls-17" d="M855.09,390.58s10.18,7,5.09,22.27-31.82,30.55-31.82,30.55L836,388.67Z"/><g class="cls-22"><circle class="cls-23" cx="367.68" cy="323.33" r="180.16" transform="translate(-120.94 354.69) rotate(-45)"/></g><path class="cls-12" d="M254.2,382.56c-6.56,0-7.3,9.35-.65,9.35S260.85,382.56,254.2,382.56Z"/><path class="cls-12" d="M313.7,382.56c-6.56,0-7.3,9.35-.65,9.35S320.35,382.56,313.7,382.56Z"/><path class="cls-12" d="M373.2,382.56c-6.56,0-7.3,9.35-.65,9.35S379.85,382.56,373.2,382.56Z"/><rect class="cls-24" x="126.82" y="184.55" width="254.92" height="193.21" rx="22.12" transform="translate(508.55 562.31) rotate(180)"/><path class="cls-12" d="M522.27,452.24l-5.9-2.41c-.57-.24-57.48-23.54-95.51-38.79H247.12A46.1,46.1,0,0,1,201.07,365V284.9a46.1,46.1,0,0,1,46.05-46H417.31a46.1,46.1,0,0,1,46.05,46v71.16ZM247.12,243a41.92,41.92,0,0,0-41.88,41.88V365a41.93,41.93,0,0,0,41.88,41.88H421.66l.37.15c30.86,12.37,74.38,30.14,90,36.54l-52.87-86.32V284.9A41.92,41.92,0,0,0,417.31,243Z"/><path class="cls-4" d="M978.48,752.87c5.63,24.77,45,30.06,59.79,8.81,15.9-22.8-10-56.92,14.24-75.78,9.78-7.61,13.8-7.22,23-15.61s-.15-23.66,12.45-42.29c13-19.26-10.83-32.4-30.27-19.62-13,8.54-21.48,23.36-32.28,34.06-7.42,7.34-20.76,2-22.39,20.08-1.12,12.26-2.66,23.77-5.82,35.52-2.17,8.05-11.23,12.15-15.06,19.17C976.8,727,976.12,742.49,978.48,752.87Z"/><g class="cls-25"><path class="cls-12" d="M1049.49,652.22c-18.14,0-.33-35.83,1.8-34.51C1051.88,618.07,1037.66,652.22,1049.49,652.22Z"/><path class="cls-12" d="M1046.92,669.22c-3.65.74-5.63-.27-5.94-3-2,3.74,34.73-14.79,30.62-17.54C1076.51,652,1050.18,669.22,1046.92,669.22Z"/><path class="cls-12" d="M1020.13,721.82q-5.39,1.7-6.91-2.32c-1.77,6.4,30.48-11.37,26.85-13.12C1046.27,709.35,1021.76,721.82,1020.13,721.82Z"/><path class="cls-12" d="M1005,762.16q-3.9,1.49-5.39-1.58c-.86,6.14,46-15.79,37.49-19.25C1045.77,744.92,1010.94,762.16,1005,762.16Z"/></g><path class="cls-12" d="M985.56,841.4a1.2,1.2,0,0,1-1.19-1.26c0-.22,1.35-22.4,12.06-68.95,14-61,66.78-142.44,67.31-143.25a1.19,1.19,0,1,1,2,1.3c-.53.81-53,81.88-67,142.48-10.66,46.36-12,68.34-12,68.55A1.2,1.2,0,0,1,985.56,841.4Z"/><path class="cls-4" d="M929.89,754.43c-11.55,2.26-23.53-13-28.6-21.62-8.19-14-12.8-32-8.58-46.82,3.38-11.86,9.47-26,4.55-38.21-5.21-12.93-15.16-13.43-21.66-25.39-11.19-20.62-.48-31.56-.13-43.57.51-17.12-8.28-19.58-7.66-36.72.51-14.12,20.05-22.08,30.73-14.2,27.86,20.54,18.16,32.38,30.57,49.65,12.67,17.62,28.07.6,29.55,59C959,649.5,954,662,956.53,675c1.28,6.69,5.15,12.12,6.94,18.57C969.05,713.7,951.41,750.21,929.89,754.43Z"/><g class="cls-26"><path class="cls-12" d="M901,582.39c7.34,0,8.25-28.82,9.55-29.06C913.05,552.86,913.79,582.39,901,582.39Z"/><path class="cls-12" d="M903.37,607.45c-2.5,0-31.1-14.39-25.63-18.15-4.48,3.11,34.5,20.45,32.82,15.55Q909.22,609.16,903.37,607.45Z"/><path class="cls-12" d="M915.5,624.68c12.65,0,11-43.4,12.78-43.66C929.44,580.81,934.15,624.68,915.5,624.68Z"/><path class="cls-12" d="M920.9,657.05c-5.41,0-31.63-19.69-25.8-22.72-5,2.6,32.81,26.3,31.26,20.63Q925.21,658.34,920.9,657.05Z"/><path class="cls-12" d="M931,678c12.52,0,20.74-47.52,23.65-47.64C953.38,630.52,950.85,678,931,678Z"/></g><path class="cls-12" d="M948.51,834a1.06,1.06,0,0,1-1.06-1.06c0-.31-.44-31.92-1.51-80.19-1.26-56.8-55.75-197.13-56.3-198.54a1.06,1.06,0,1,1,2-.77c.56,1.41,55.18,142.09,56.45,199.27,1.08,48.28,1.51,79.89,1.51,80.21a1.06,1.06,0,0,1-1.05,1.08Z"/><path class="cls-27" d="M1002.6,737.47c-16.07,7.06-44.42,4.62-57.85-9.53a74.1,74.1,0,0,1-20-56.42c1.34-19,12.83-23,20.08-40,8.48-19.88,1.12-35.4-13.07-52.73-10.22-12.48-15.39-15.31-18.06-31.39-5.14-31,12.62-34.62,13.78-50.05.51-6.64-1.33-29.3.57-35.72,6.24-21.16,33.68-20.74,48-3.59,17.27,20.72,13.49,24,19.29,42.75,7.43,24,38.43-3.09,36.69,78.22-.49,22.78-7.11,27-8.17,42.69-.82,12.05,8.26,29.12,11.16,41a124.82,124.82,0,0,1,3.1,33.58C1037.32,717.1,1012.37,733.18,1002.6,737.47Z"/><path class="cls-12" d="M951.21,845.78a1.16,1.16,0,0,1-.89-.4,1.19,1.19,0,0,1,.1-1.68c34.35-30.49,37.49-123.45,36.31-176.14-1.84-81.35-33-191.24-33.32-192.34a1.19,1.19,0,0,1,.81-1.48,1.2,1.2,0,0,1,1.48.82c.31,1.1,31.57,111.28,33.41,192.94,1.2,53.11-2,146.86-37.11,178A1.2,1.2,0,0,1,951.21,845.78Z"/><path class="cls-12" d="M967.56,528a1.19,1.19,0,0,1-.13-2.38c16.69-1.78,17.79-40.65,17.8-41.05a1.29,1.29,0,0,1,1.22-1.16,1.19,1.19,0,0,1,1.16,1.22c0,1.69-1.18,41.36-19.93,43.37Z"/><path class="cls-12" d="M964.5,565.1c-26.13,0-44.45-35.44-44.65-35.84a1.19,1.19,0,1,1,2.12-1.09c.23.45,22.8,44,52.55,32.63a1.2,1.2,0,0,1,.86,2.23A30.36,30.36,0,0,1,964.5,565.1Z"/><path class="cls-12" d="M979,585.22a1.19,1.19,0,0,1-.06-2.38c32.61-1.63,36.55-62,36.59-62.57a1.22,1.22,0,0,1,1.26-1.12,1.2,1.2,0,0,1,1.12,1.26c-.15,2.57-4.11,63.07-38.85,64.81Z"/><path class="cls-12" d="M986.22,639.78a1.19,1.19,0,0,1-.11-2.38c26.53-2.61,37.93-41.73,38-42.12a1.17,1.17,0,0,1,1.47-.82,1.19,1.19,0,0,1,.82,1.47c-.47,1.68-11.94,41.07-40.1,43.84Z"/><path class="cls-12" d="M987.71,662.2c-30.49-2.73-37.55-30.76-37.62-31a1.21,1.21,0,0,1,.88-1.44,1.18,1.18,0,0,1,1.44.88c.26,1.09,6.76,26.65,35.41,29.22a1.19,1.19,0,0,1,1.08,1.29A1.2,1.2,0,0,1,987.71,662.2Z"/><path class="cls-12" d="M987.82,711.71h-.13a1.2,1.2,0,1,1,0-2.39c25.91,0,42.07-43.38,42.23-43.82a1.2,1.2,0,0,1,2.25.82C1031.49,668.18,1015.25,711.71,987.82,711.71Z"/><path class="cls-12" d="M986.8,729.63c-35.17-1.27-49.66-43.48-49.8-43.9a1.19,1.19,0,0,1,2.26-.76c.14.41,14.12,41.07,47.58,42.28a1.2,1.2,0,0,1,1.15,1.24A1.19,1.19,0,0,1,986.8,729.63Z"/><path class="cls-5" d="M948.83,770.12c-7.42,27.11-46.24,26.23-54.37,3.09-7.4-21,8-42.05-15.56-55.9-8.58-5-15.07-5-23.86-14.31s-4.16-19.54-6.57-29.44c-.85-3.46-11.49-14.64-12.53-18.06-5.41-17.67,16.74-33.8,31.09-17.92,12,13.32,26.75,14.42,38.33,24.54,7.31,6.38,15,14.51,19.4,23.25,5.78,11.57,4.3,24.14,8.06,36.24,2.38,7.63,10.57,10.62,14.42,17.19C953.14,748.88,951.72,759.56,948.83,770.12Z"/><g class="cls-28"><path class="cls-12" d="M871.13,671c6.22,0,4.92-12.72,2.53-24.72C873.27,644.35,884.25,671,871.13,671Z"/><path class="cls-12" d="M871.75,694.05c-1.86,0-21.57-4.4-18.85-7.85-1.7,2.16,38,8.89,33.85,2C892.14,696,871.9,694.05,871.75,694.05Z"/><path class="cls-12" d="M899,707.39c8.63-5.83,9-17.83,6.27-25.12-.47-1.26-7.85-23.23-6.72-23.8C901,657.19,920.27,707.39,899,707.39Z"/><path class="cls-12" d="M913.37,738.08c10.44-8.72,14.78-21.4,14.8-27.21C932.48,710.83,924.42,735.64,913.37,738.08Z"/><path class="cls-12" d="M926.1,774.56c15.7-10,15.45-37.79,16.59-37.8C945.8,736.76,940.07,774.56,926.1,774.56Z"/><path class="cls-12" d="M896,721.47c-3.69,0-22.69-9.94-21.59-16.9,4.53,9.07,26.59,19.7,30.4,12.95Q903.93,723.16,896,721.47Z"/></g><path class="cls-12" d="M937.07,833.66a1.19,1.19,0,0,1-1.18-1.11c0-.57-4.55-58.33-29.06-106.83C885,682.55,852.77,651.25,852.44,651a1.2,1.2,0,1,1,1.66-1.72c.32.31,32.85,31.87,54.86,75.42,24.73,48.93,29.26,107.15,29.3,107.73a1.18,1.18,0,0,1-1.1,1.27Z"/><path class="cls-29" d="M967,969.66a71.87,71.87,0,0,1-71.87-71.87V823.57a5.67,5.67,0,0,1,5.66-5.67h132.41a5.66,5.66,0,0,1,5.66,5.67v74.22A71.86,71.86,0,0,1,967,969.66Z"/><g class="cls-30"><g class="cls-31"><path class="cls-12" d="M1084.86,840.63a3.44,3.44,0,1,0-3.43-3.44A3.44,3.44,0,0,0,1084.86,840.63Z"/><path class="cls-12" d="M1050.51,840.63a3.44,3.44,0,1,0-3.43-3.44A3.44,3.44,0,0,0,1050.51,840.63Z"/><path class="cls-12" d="M1084.86,806.28a3.44,3.44,0,1,0-3.43-3.44A3.44,3.44,0,0,0,1084.86,806.28Z"/><path class="cls-12" d="M1050.51,806.28a3.44,3.44,0,1,0-3.43-3.44A3.44,3.44,0,0,0,1050.51,806.28Z"/><path class="cls-12" d="M1033.34,823.45a3.44,3.44,0,1,0-3.43-3.43A3.43,3.43,0,0,0,1033.34,823.45Z"/><path class="cls-12" d="M1067.69,823.45a3.44,3.44,0,1,0-3.44-3.43A3.43,3.43,0,0,0,1067.69,823.45Z"/><path class="cls-12" d="M1033.34,789.11a3.44,3.44,0,1,0-3.43-3.44A3.44,3.44,0,0,0,1033.34,789.11Z"/><path class="cls-12" d="M1067.69,789.11a3.44,3.44,0,1,0-3.44-3.44A3.44,3.44,0,0,0,1067.69,789.11Z"/><path class="cls-12" d="M1016.17,840.63a3.44,3.44,0,1,0-3.44-3.44A3.44,3.44,0,0,0,1016.17,840.63Z"/><path class="cls-12" d="M1016.17,806.28a3.44,3.44,0,1,0-3.44-3.44A3.44,3.44,0,0,0,1016.17,806.28Z"/><path class="cls-12" d="M1084.86,771.93a3.44,3.44,0,1,0-3.43-3.43A3.44,3.44,0,0,0,1084.86,771.93Z"/><path class="cls-12" d="M1050.51,771.93a3.44,3.44,0,1,0-3.43-3.43A3.44,3.44,0,0,0,1050.51,771.93Z"/><path class="cls-12" d="M1016.17,771.93a3.44,3.44,0,1,0-3.44-3.43A3.44,3.44,0,0,0,1016.17,771.93Z"/></g><g class="cls-32"><path class="cls-12" d="M1084.86,909.32a3.43,3.43,0,1,0-3.43-3.43A3.43,3.43,0,0,0,1084.86,909.32Z"/><path class="cls-12" d="M1050.51,909.32a3.43,3.43,0,1,0-3.43-3.43A3.43,3.43,0,0,0,1050.51,909.32Z"/><path class="cls-12" d="M1084.86,875a3.44,3.44,0,1,0-3.43-3.44A3.44,3.44,0,0,0,1084.86,875Z"/><path class="cls-12" d="M1050.51,875a3.44,3.44,0,1,0-3.43-3.44A3.44,3.44,0,0,0,1050.51,875Z"/><path class="cls-12" d="M1033.34,892.15a3.44,3.44,0,1,0-3.43-3.43A3.44,3.44,0,0,0,1033.34,892.15Z"/><path class="cls-12" d="M1067.69,892.15a3.44,3.44,0,1,0-3.44-3.43A3.44,3.44,0,0,0,1067.69,892.15Z"/><path class="cls-12" d="M1033.34,857.8a3.44,3.44,0,1,0-3.43-3.43A3.43,3.43,0,0,0,1033.34,857.8Z"/><path class="cls-12" d="M1067.69,857.8a3.44,3.44,0,1,0-3.44-3.43A3.43,3.43,0,0,0,1067.69,857.8Z"/><path class="cls-12" d="M1016.17,909.32a3.43,3.43,0,1,0-3.44-3.43A3.43,3.43,0,0,0,1016.17,909.32Z"/><path class="cls-12" d="M1016.17,875a3.44,3.44,0,1,0-3.44-3.44A3.44,3.44,0,0,0,1016.17,875Z"/><path class="cls-12" d="M1084.86,840.63a3.44,3.44,0,1,0-3.43-3.44A3.44,3.44,0,0,0,1084.86,840.63Z"/><path class="cls-12" d="M1050.51,840.63a3.44,3.44,0,1,0-3.43-3.44A3.44,3.44,0,0,0,1050.51,840.63Z"/><path class="cls-12" d="M1016.17,840.63a3.44,3.44,0,1,0-3.44-3.44A3.44,3.44,0,0,0,1016.17,840.63Z"/></g><g class="cls-33"><path class="cls-12" d="M1084.86,978a3.44,3.44,0,1,0-3.43-3.43A3.44,3.44,0,0,0,1084.86,978Z"/><path class="cls-12" d="M1050.51,978a3.44,3.44,0,1,0-3.43-3.43A3.44,3.44,0,0,0,1050.51,978Z"/><path class="cls-12" d="M1084.86,943.68a3.44,3.44,0,1,0-3.43-3.44A3.44,3.44,0,0,0,1084.86,943.68Z"/><path class="cls-12" d="M1050.51,943.68a3.44,3.44,0,1,0-3.43-3.44A3.44,3.44,0,0,0,1050.51,943.68Z"/><path class="cls-12" d="M1033.34,960.85a3.44,3.44,0,1,0-3.43-3.43A3.44,3.44,0,0,0,1033.34,960.85Z"/><path class="cls-12" d="M1067.69,960.85a3.44,3.44,0,1,0-3.44-3.43A3.44,3.44,0,0,0,1067.69,960.85Z"/><path class="cls-12" d="M1033.34,926.5a3.44,3.44,0,1,0-3.43-3.43A3.44,3.44,0,0,0,1033.34,926.5Z"/><path class="cls-12" d="M1067.69,926.5a3.44,3.44,0,1,0-3.44-3.43A3.44,3.44,0,0,0,1067.69,926.5Z"/><path class="cls-12" d="M1016.17,978a3.44,3.44,0,1,0-3.44-3.43A3.44,3.44,0,0,0,1016.17,978Z"/><path class="cls-12" d="M1016.17,943.68a3.44,3.44,0,1,0-3.44-3.44A3.44,3.44,0,0,0,1016.17,943.68Z"/><path class="cls-12" d="M1084.86,909.32a3.43,3.43,0,1,0-3.43-3.43A3.43,3.43,0,0,0,1084.86,909.32Z"/><path class="cls-12" d="M1050.51,909.32a3.43,3.43,0,1,0-3.43-3.43A3.43,3.43,0,0,0,1050.51,909.32Z"/><path class="cls-12" d="M1016.17,909.32a3.43,3.43,0,1,0-3.44-3.43A3.43,3.43,0,0,0,1016.17,909.32Z"/></g><g class="cls-34"><path class="cls-12" d="M1016.17,840.63a3.44,3.44,0,1,0-3.44-3.44A3.44,3.44,0,0,0,1016.17,840.63Z"/><path class="cls-12" d="M981.82,840.63a3.44,3.44,0,1,0-3.43-3.44A3.43,3.43,0,0,0,981.82,840.63Z"/><path class="cls-12" d="M1016.17,806.28a3.44,3.44,0,1,0-3.44-3.44A3.44,3.44,0,0,0,1016.17,806.28Z"/><path class="cls-12" d="M981.82,806.28a3.44,3.44,0,1,0-3.43-3.44A3.43,3.43,0,0,0,981.82,806.28Z"/><path class="cls-12" d="M964.64,823.45a3.44,3.44,0,1,0-3.43-3.43A3.43,3.43,0,0,0,964.64,823.45Z"/><path class="cls-12" d="M999,823.45a3.44,3.44,0,1,0-3.43-3.43A3.43,3.43,0,0,0,999,823.45Z"/><path class="cls-12" d="M964.64,789.11a3.44,3.44,0,1,0-3.43-3.44A3.44,3.44,0,0,0,964.64,789.11Z"/><path class="cls-12" d="M999,789.11a3.44,3.44,0,1,0-3.43-3.44A3.44,3.44,0,0,0,999,789.11Z"/><path class="cls-12" d="M947.47,840.63a3.44,3.44,0,1,0-3.43-3.44A3.44,3.44,0,0,0,947.47,840.63Z"/><path class="cls-12" d="M947.47,806.28a3.44,3.44,0,1,0-3.43-3.44A3.44,3.44,0,0,0,947.47,806.28Z"/><path class="cls-12" d="M1016.17,771.93a3.44,3.44,0,1,0-3.44-3.43A3.44,3.44,0,0,0,1016.17,771.93Z"/><path class="cls-12" d="M981.82,771.93a3.44,3.44,0,1,0-3.43-3.43A3.43,3.43,0,0,0,981.82,771.93Z"/><path class="cls-12" d="M947.47,771.93A3.44,3.44,0,1,0,944,768.5,3.44,3.44,0,0,0,947.47,771.93Z"/></g><g class="cls-35"><path class="cls-12" d="M1016.17,909.32a3.43,3.43,0,1,0-3.44-3.43A3.43,3.43,0,0,0,1016.17,909.32Z"/><path class="cls-12" d="M981.82,909.32a3.43,3.43,0,1,0-3.43-3.43A3.42,3.42,0,0,0,981.82,909.32Z"/><path class="cls-12" d="M1016.17,875a3.44,3.44,0,1,0-3.44-3.44A3.44,3.44,0,0,0,1016.17,875Z"/><path class="cls-12" d="M981.82,875a3.44,3.44,0,1,0-3.43-3.44A3.43,3.43,0,0,0,981.82,875Z"/><path class="cls-12" d="M964.64,892.15a3.44,3.44,0,1,0-3.43-3.43A3.44,3.44,0,0,0,964.64,892.15Z"/><path class="cls-12" d="M999,892.15a3.44,3.44,0,1,0-3.43-3.43A3.44,3.44,0,0,0,999,892.15Z"/><path class="cls-12" d="M964.64,857.8a3.44,3.44,0,1,0-3.43-3.43A3.43,3.43,0,0,0,964.64,857.8Z"/><path class="cls-12" d="M999,857.8a3.44,3.44,0,1,0-3.43-3.43A3.43,3.43,0,0,0,999,857.8Z"/><path class="cls-12" d="M947.47,909.32a3.43,3.43,0,1,0-3.43-3.43A3.43,3.43,0,0,0,947.47,909.32Z"/><path class="cls-12" d="M947.47,875a3.44,3.44,0,1,0-3.43-3.44A3.44,3.44,0,0,0,947.47,875Z"/><path class="cls-12" d="M1016.17,840.63a3.44,3.44,0,1,0-3.44-3.44A3.44,3.44,0,0,0,1016.17,840.63Z"/><path class="cls-12" d="M981.82,840.63a3.44,3.44,0,1,0-3.43-3.44A3.43,3.43,0,0,0,981.82,840.63Z"/><path class="cls-12" d="M947.47,840.63a3.44,3.44,0,1,0-3.43-3.44A3.44,3.44,0,0,0,947.47,840.63Z"/></g><g class="cls-36"><path class="cls-12" d="M1016.17,978a3.44,3.44,0,1,0-3.44-3.43A3.44,3.44,0,0,0,1016.17,978Z"/><path class="cls-12" d="M981.82,978a3.44,3.44,0,1,0-3.43-3.43A3.43,3.43,0,0,0,981.82,978Z"/><path class="cls-12" d="M1016.17,943.68a3.44,3.44,0,1,0-3.44-3.44A3.44,3.44,0,0,0,1016.17,943.68Z"/><path class="cls-12" d="M981.82,943.68a3.44,3.44,0,1,0-3.43-3.44A3.43,3.43,0,0,0,981.82,943.68Z"/><path class="cls-12" d="M964.64,960.85a3.44,3.44,0,1,0-3.43-3.43A3.44,3.44,0,0,0,964.64,960.85Z"/><path class="cls-12" d="M999,960.85a3.44,3.44,0,1,0-3.43-3.43A3.44,3.44,0,0,0,999,960.85Z"/><path class="cls-12" d="M964.64,926.5a3.44,3.44,0,1,0-3.43-3.43A3.44,3.44,0,0,0,964.64,926.5Z"/><path class="cls-12" d="M999,926.5a3.44,3.44,0,1,0-3.43-3.43A3.44,3.44,0,0,0,999,926.5Z"/><path class="cls-12" d="M947.47,978a3.44,3.44,0,1,0-3.43-3.43A3.44,3.44,0,0,0,947.47,978Z"/><path class="cls-12" d="M947.47,943.68a3.44,3.44,0,1,0-3.43-3.44A3.44,3.44,0,0,0,947.47,943.68Z"/><path class="cls-12" d="M1016.17,909.32a3.43,3.43,0,1,0-3.44-3.43A3.43,3.43,0,0,0,1016.17,909.32Z"/><path class="cls-12" d="M981.82,909.32a3.43,3.43,0,1,0-3.43-3.43A3.42,3.42,0,0,0,981.82,909.32Z"/><path class="cls-12" d="M947.47,909.32a3.43,3.43,0,1,0-3.43-3.43A3.43,3.43,0,0,0,947.47,909.32Z"/></g><g class="cls-37"><path class="cls-12" d="M947.47,840.63a3.44,3.44,0,1,0-3.43-3.44A3.44,3.44,0,0,0,947.47,840.63Z"/><path class="cls-12" d="M913.12,840.63a3.44,3.44,0,1,0-3.43-3.44A3.44,3.44,0,0,0,913.12,840.63Z"/><path class="cls-12" d="M947.47,806.28a3.44,3.44,0,1,0-3.43-3.44A3.44,3.44,0,0,0,947.47,806.28Z"/><path class="cls-12" d="M913.12,806.28a3.44,3.44,0,1,0-3.43-3.44A3.44,3.44,0,0,0,913.12,806.28Z"/><path class="cls-12" d="M896,823.45a3.44,3.44,0,1,0-3.43-3.43A3.43,3.43,0,0,0,896,823.45Z"/><path class="cls-12" d="M930.3,823.45a3.44,3.44,0,1,0-3.44-3.43A3.43,3.43,0,0,0,930.3,823.45Z"/><path class="cls-12" d="M896,789.11a3.44,3.44,0,1,0-3.43-3.44A3.44,3.44,0,0,0,896,789.11Z"/><path class="cls-12" d="M930.3,789.11a3.44,3.44,0,1,0-3.44-3.44A3.44,3.44,0,0,0,930.3,789.11Z"/><path class="cls-12" d="M878.78,840.63a3.44,3.44,0,1,0-3.44-3.44A3.44,3.44,0,0,0,878.78,840.63Z"/><path class="cls-12" d="M878.78,806.28a3.44,3.44,0,1,0-3.44-3.44A3.44,3.44,0,0,0,878.78,806.28Z"/><path class="cls-12" d="M947.47,771.93A3.44,3.44,0,1,0,944,768.5,3.44,3.44,0,0,0,947.47,771.93Z"/><path class="cls-12" d="M913.12,771.93a3.44,3.44,0,1,0-3.43-3.43A3.44,3.44,0,0,0,913.12,771.93Z"/><path class="cls-12" d="M878.78,771.93a3.44,3.44,0,1,0-3.44-3.43A3.44,3.44,0,0,0,878.78,771.93Z"/></g><g class="cls-38"><path class="cls-12" d="M947.47,909.32a3.43,3.43,0,1,0-3.43-3.43A3.43,3.43,0,0,0,947.47,909.32Z"/><path class="cls-12" d="M913.12,909.32a3.43,3.43,0,1,0-3.43-3.43A3.43,3.43,0,0,0,913.12,909.32Z"/><path class="cls-12" d="M947.47,875a3.44,3.44,0,1,0-3.43-3.44A3.44,3.44,0,0,0,947.47,875Z"/><path class="cls-12" d="M913.12,875a3.44,3.44,0,1,0-3.43-3.44A3.44,3.44,0,0,0,913.12,875Z"/><path class="cls-12" d="M896,892.15a3.44,3.44,0,1,0-3.43-3.43A3.44,3.44,0,0,0,896,892.15Z"/><path class="cls-12" d="M930.3,892.15a3.44,3.44,0,1,0-3.44-3.43A3.44,3.44,0,0,0,930.3,892.15Z"/><path class="cls-12" d="M896,857.8a3.44,3.44,0,1,0-3.43-3.43A3.43,3.43,0,0,0,896,857.8Z"/><path class="cls-12" d="M930.3,857.8a3.44,3.44,0,1,0-3.44-3.43A3.43,3.43,0,0,0,930.3,857.8Z"/><path class="cls-12" d="M878.78,909.32a3.43,3.43,0,1,0-3.44-3.43A3.43,3.43,0,0,0,878.78,909.32Z"/><path class="cls-12" d="M878.78,875a3.44,3.44,0,1,0-3.44-3.44A3.44,3.44,0,0,0,878.78,875Z"/><path class="cls-12" d="M947.47,840.63a3.44,3.44,0,1,0-3.43-3.44A3.44,3.44,0,0,0,947.47,840.63Z"/><path class="cls-12" d="M913.12,840.63a3.44,3.44,0,1,0-3.43-3.44A3.44,3.44,0,0,0,913.12,840.63Z"/><path class="cls-12" d="M878.78,840.63a3.44,3.44,0,1,0-3.44-3.44A3.44,3.44,0,0,0,878.78,840.63Z"/></g><g class="cls-39"><path class="cls-12" d="M947.47,978a3.44,3.44,0,1,0-3.43-3.43A3.44,3.44,0,0,0,947.47,978Z"/><path class="cls-12" d="M913.12,978a3.44,3.44,0,1,0-3.43-3.43A3.44,3.44,0,0,0,913.12,978Z"/><path class="cls-12" d="M947.47,943.68a3.44,3.44,0,1,0-3.43-3.44A3.44,3.44,0,0,0,947.47,943.68Z"/><path class="cls-12" d="M913.12,943.68a3.44,3.44,0,1,0-3.43-3.44A3.44,3.44,0,0,0,913.12,943.68Z"/><path class="cls-12" d="M896,960.85a3.44,3.44,0,1,0-3.43-3.43A3.44,3.44,0,0,0,896,960.85Z"/><path class="cls-12" d="M930.3,960.85a3.44,3.44,0,1,0-3.44-3.43A3.44,3.44,0,0,0,930.3,960.85Z"/><path class="cls-12" d="M896,926.5a3.44,3.44,0,1,0-3.43-3.43A3.44,3.44,0,0,0,896,926.5Z"/><path class="cls-12" d="M930.3,926.5a3.44,3.44,0,1,0-3.44-3.43A3.44,3.44,0,0,0,930.3,926.5Z"/><path class="cls-12" d="M878.78,978a3.44,3.44,0,1,0-3.44-3.43A3.44,3.44,0,0,0,878.78,978Z"/><path class="cls-12" d="M878.78,943.68a3.44,3.44,0,1,0-3.44-3.44A3.44,3.44,0,0,0,878.78,943.68Z"/><path class="cls-12" d="M947.47,909.32a3.43,3.43,0,1,0-3.43-3.43A3.43,3.43,0,0,0,947.47,909.32Z"/><path class="cls-12" d="M913.12,909.32a3.43,3.43,0,1,0-3.43-3.43A3.43,3.43,0,0,0,913.12,909.32Z"/><path class="cls-12" d="M878.78,909.32a3.43,3.43,0,1,0-3.44-3.43A3.43,3.43,0,0,0,878.78,909.32Z"/></g></g><path class="cls-12" d="M975.6,392.73l-19-27.35-24.84-2.45a25.25,25.25,0,0,1-22.61-27.57l4.59-46.43a25.24,25.24,0,0,1,27.57-22.61l88,8.7A25.22,25.22,0,0,1,1052,302.58L1047.38,349a25.25,25.25,0,0,1-27.57,22.61l-23.76-2.35ZM937.1,268.34a23.21,23.21,0,0,0-25.35,20.79l-4.59,46.43A23.22,23.22,0,0,0,928,360.91l25.77,2.54,18.06,26,19.42-22.27,24.81,2.45a23.22,23.22,0,0,0,25.35-20.79l4.58-46.44A23.2,23.2,0,0,0,1025.15,277Z"/><path class="cls-12" d="M1011.87,311.82c-4.55-22.78-25.11-14.36-29.63-12.2-4.77-3.44-22.39-14.28-31,6.48C944.34,322.65,977.66,348,977.66,348l.13-1.1-.06.84S1015.38,329.4,1011.87,311.82Z"/><path class="cls-29" d="M744.33,155.35a2.25,2.25,0,0,1-.7-.33,28.23,28.23,0,0,1,4.65-55.89A48.76,48.76,0,0,1,844.21,96a31.73,31.73,0,0,1-.29,63.39,2.43,2.43,0,0,1-.71.09l-98.34-4A2,2,0,0,1,744.33,155.35Zm63.86-91.61a43.71,43.71,0,0,0-9.87-1.55c-23.25-.95-44.27,16.43-46.58,39.56-.12,1.26-.22,2.2-1.48,2.13a23.49,23.49,0,0,0-4.9,46.63,2.4,2.4,0,0,1,.67.22l96.8,4a2,2,0,0,1,.42-.05,27,27,0,0,0,.4-53.93c-.46,0-.93,0-1.39,0a2.35,2.35,0,0,1-2.36-2A44.25,44.25,0,0,0,808.19,63.74Z"/><polygon class="cls-40" points="467.56 95.96 472.9 97.31 464.78 133.53 459.44 132.18 467.56 95.96"/><polygon class="cls-40" points="483.88 116.22 482.6 121.89 448.46 113.27 449.73 107.61 483.88 116.22"/><polygon class="cls-40" points="595.04 227.6 600.38 228.94 592.25 265.16 586.91 263.81 595.04 227.6"/><polygon class="cls-40" points="611.35 247.86 610.08 253.52 575.94 244.9 577.21 239.24 611.35 247.86"/><rect class="cls-40" x="1126.01" y="516.55" width="3.44" height="21.98" transform="translate(444.79 1568.53) rotate(-81.8)"/><rect class="cls-40" x="1116.74" y="525.82" width="21.98" height="3.44" transform="matrix(0.14, -0.99, 0.99, 0.14, 444.81, 1568.55)"/><rect class="cls-12" x="1165.87" y="906.65" width="31.38" height="4.91" transform="translate(23.61 1848.09) rotate(-76.61)"/><rect class="cls-12" x="1179.1" y="893.41" width="4.91" height="31.38" transform="translate(23.61 1848.09) rotate(-76.61)"/><rect class="cls-12" x="269.14" y="519.14" width="31.38" height="4.91" transform="translate(-288.54 677.93) rotate(-76.61)"/><rect class="cls-12" x="282.37" y="505.91" width="4.91" height="31.38" transform="translate(-288.54 677.92) rotate(-76.61)"/><path class="cls-41" d="M920.61,225.87a10.1,10.1,0,1,1,10.09-10.09A10.11,10.11,0,0,1,920.61,225.87Zm0-18.2a8.11,8.11,0,1,0,8.11,8.11A8.12,8.12,0,0,0,920.61,207.67Z"/><path class="cls-42" d="M777.69,1100.63c-22.57,0-40.94-19.34-40.94-43.12s18.37-43.13,40.94-43.13,40.94,19.34,40.94,43.13S800.26,1100.63,777.69,1100.63Zm0-71.42c-14.81,0-26.86,12.69-26.86,28.3s12,28.29,26.86,28.29,26.86-12.69,26.86-28.29S792.5,1029.21,777.69,1029.21Z"/><rect class="cls-41" x="363.22" y="538.81" width="17.81" height="2.79" transform="translate(-239.56 777.15) rotate(-76.61)"/><rect class="cls-41" x="370.73" y="531.3" width="2.79" height="17.81" transform="translate(-239.56 777.15) rotate(-76.61)"/></g><path class="cls-12" d="M127.77,721.62s41.45,162.13,173.35,283.91,67.2,132.34,67.2,132.34L70,1001.73,33.23,845.89l17.54-115,77-9.23"/><rect class="cls-43" x="152.06" y="204.7" width="378.4" height="205.89" rx="41" transform="translate(682.52 615.3) rotate(180)"/><polygon class="cls-43" points="483.48 345.23 483.48 439.85 400.78 399.43 483.48 345.23"/><rect class="cls-12" x="209.7" y="298.96" width="187.32" height="17.96" rx="8.98"/><rect class="cls-12" x="411.43" y="298.96" width="61.4" height="17.96" rx="8.98"/><rect class="cls-12" x="285.5" y="258.16" width="187.32" height="17.96" rx="8.98" transform="translate(758.33 534.29) rotate(180)"/><rect class="cls-12" x="209.7" y="258.16" width="61.4" height="17.96" rx="8.98" transform="translate(480.79 534.29) rotate(180)"/><rect class="cls-12" x="209.7" y="336.25" width="131.56" height="17.96" rx="8.98"/></g></g></svg>