<?xml version="1.0" encoding="UTF-8" standalone="no"?>
<!DOCTYPE svg PUBLIC "-//W3C//DTD SVG 1.1//EN" "http://www.w3.org/Graphics/SVG/1.1/DTD/svg11.dtd">
<svg version="1.1" xmlns="http://www.w3.org/2000/svg" xmlns:xlink="http://www.w3.org/1999/xlink" preserveAspectRatio="xMidYMid meet" viewBox="-1.0008754219807519 250.3966810564154 98.00297626645664 108.05528289808456" width="94" height="104.06"><defs><path d="M65.17 355.45C65.03 355.44 64.89 355.42 64.75 355.41C63.84 355.37 62.93 355.36 62.02 355.29C60.55 355.18 59.08 355.03 57.62 354.9C56.07 354.76 54.53 354.53 53 354.22C47.24 353 41.64 351.1 36.33 348.56C33.13 347.01 30.06 345.19 27.17 343.11C24.66 341.35 22.38 339.32 20.11 337.26C18.29 335.62 16.62 333.81 15.12 331.85C14.19 330.63 13.29 329.38 12.36 328.13C10.66 325.8 9.15 323.33 7.86 320.75C5.88 316.71 4.36 312.46 3.32 308.08C2.49 304.51 2.03 300.86 1.98 297.19C1.93 295.3 1.95 293.41 1.95 291.52C1.95 288.86 1.97 286.73 1.97 286.19C1.97 284.97 1.99 283.75 2.02 282.52C2.06 281.54 2.17 280.56 2.36 279.59C2.63 278.22 3 276.87 3.47 275.55C4.43 272.59 5.77 269.78 7.48 267.19C8.73 265.36 10.16 263.67 11.75 262.12C15.19 258.71 19.26 256.01 23.75 254.18C25.32 253.51 27 253.1 28.65 252.66C31.53 251.88 34.5 251.46 37.49 251.42C39.73 251.4 41.53 251.4 41.98 251.4C47.55 251.4 52.01 251.4 53.12 251.4C55.44 251.4 57.3 251.46 57.76 251.47C59.18 251.52 60.6 251.68 62 251.95C65.07 252.52 67.99 253.56 70.88 254.7C72.89 255.53 74.81 256.59 76.58 257.85C80.96 260.79 84.6 264.7 87.22 269.28C88.76 272 90 274.84 90.67 277.92C91.06 279.59 91.3 281.29 91.4 283C91.44 283.87 91.43 284.75 91.43 285.62C91.46 292.54 91.48 298.08 91.48 299.46C91.51 306.19 91.54 311.56 91.55 312.91C91.57 316.93 91.57 320.15 91.57 320.96C91.57 337.32 91.57 350.4 91.57 353.67C91.58 353.76 91.58 353.85 91.57 353.94C91.56 354.03 91.52 354.12 91.46 354.2C90.93 354.74 90.27 355.14 89.54 355.35C89.36 355.35 89.2 355.41 89.04 355.45C84.27 355.45 67.56 355.45 65.17 355.45ZM50.52 318.99C51.95 318.85 53.38 318.66 54.8 318.45C56.7 318.16 58.52 317.57 60.35 316.97C64.59 315.56 68.57 313.44 72.12 310.71C73.94 309.33 75.55 307.71 77.15 306.1C78.21 305.04 79.17 303.88 80.02 302.64C80.14 302.47 80.27 302.29 80.39 302.12C82.33 299.39 83.83 296.38 84.84 293.19C85.35 291.62 85.73 290.02 85.97 288.39C86.07 287.51 86.11 286.62 86.18 285.74C86.24 284.56 86.19 283.39 86.04 282.22C85.88 281.11 85.65 280.01 85.36 278.93C84.59 275.52 83.14 272.3 81.1 269.46C79.69 267.47 78.05 265.66 76.19 264.08C75.57 263.54 74.75 263.29 73.93 263.39C72.55 263.52 71.17 263.7 69.8 263.93C65.36 264.68 61.5 266.67 58.02 269.44C56.35 270.78 55.02 272.43 53.83 274.2C52.99 275.41 52.29 276.72 51.76 278.1C51.44 278.99 51.13 279.88 50.81 280.77C50 283.13 49.54 285.6 49.44 288.09C49.41 288.81 49.43 289.53 49.43 290.25C49.43 292.07 47.57 293.14 46.15 292.81C44.92 292.55 44.04 291.48 44.02 290.22C44.03 289.43 44.01 288.65 43.93 287.86C43.76 286.36 43.59 284.86 43.32 283.38C42.42 278.4 39.97 273.82 36.33 270.31C34.25 268.26 31.77 266.65 29.05 265.58C26.99 264.77 24.85 264.16 22.67 263.75C21.38 263.52 20.08 263.39 18.78 263.38C18.37 263.35 17.96 263.48 17.64 263.74C16.45 264.67 15.37 265.73 14.41 266.89C14 267.42 13.58 267.92 13.18 268.44C12.19 269.67 11.31 270.99 10.55 272.38C9.1 275.12 8.1 278.07 7.6 281.12C7.27 282.87 7.16 284.65 7.25 286.42C7.58 290.06 8.58 293.6 10.2 296.88C11.24 298.99 12.47 301 13.88 302.88C15.66 305.25 17.72 307.4 20.01 309.27C23.99 312.58 28.54 315.15 33.43 316.85C37.84 318.48 42.52 319.26 47.22 319.15C48.32 319.1 49.43 319.09 50.52 318.99ZM73.23 350.54C73.41 350.54 73.59 350.51 73.76 350.45C73.98 350.37 74.02 350.25 73.97 350.02C73.91 349.8 73.79 349.6 73.62 349.45C73.17 349 72.69 348.58 72.27 348.11C69.35 344.86 67.17 341.02 65.88 336.84C65.41 335.35 65.05 333.82 64.64 332.31C64.13 330.47 63.77 328.6 63.57 326.7C63.43 325.31 63.37 323.91 63.27 322.5C63.26 322.24 63.24 322 63.23 321.75C63.23 321.6 63.15 321.56 63.02 321.6C62.75 321.68 62.49 321.76 62.23 321.86C57.94 323.38 53.46 324.26 48.91 324.45C46.53 324.57 44.14 324.51 41.77 324.28C40.21 324.13 38.66 323.89 37.12 323.57C33.65 322.85 30.29 321.65 27.14 320.01C24.81 318.84 22.54 317.54 20.35 316.11C15.96 313.21 12.14 309.52 9.09 305.23C9 305.1 8.9 304.99 8.77 304.89C8.62 304.79 8.51 304.83 8.41 304.99C8.31 305.15 8.28 305.35 8.33 305.54C8.74 307.29 9.12 309.04 9.67 310.76C10.34 312.98 11.16 315.16 12.13 317.27C12.45 317.92 12.72 318.58 12.94 319.27C13.05 319.61 13.22 319.93 13.42 320.22C13.8 320.79 14.21 321.33 14.59 321.9C15.56 323.4 16.5 324.92 17.46 326.42C17.82 327 18.22 327.56 18.66 328.08C19.95 329.53 21.24 330.98 22.6 332.37C25.81 335.62 29.37 338.51 33.21 340.98C35.21 342.28 37.33 343.35 39.45 344.4C43.06 346.21 46.87 347.43 50.74 348.53C52.78 349.08 54.85 349.49 56.93 349.78C59.24 350.15 61.57 350.37 63.9 350.46C65.45 350.52 67 350.52 67.8 350.54C70.12 350.54 71.68 350.54 73.23 350.54ZM85.99 305.7C85.99 305.17 85.97 304.67 85.94 304.16C85.94 304 86 303.77 85.79 303.73C85.7 303.71 85.53 303.87 85.45 303.99C84.8 304.82 84.15 305.66 83.53 306.5C80.88 310.12 77.6 313.23 73.86 315.7C72.81 316.39 71.75 317.1 70.7 317.8C70.17 318.11 69.8 318.65 69.72 319.27C69.59 320.39 69.43 321.5 69.37 322.63C69.27 324.88 69.37 327.13 69.69 329.36C70.14 332.81 71.14 336.16 72.65 339.29C74.37 343.01 77.08 346.19 80.48 348.48C81.28 349.02 82.12 349.51 82.96 349.99C83.69 350.4 84.52 350.59 85.35 350.54C85.77 350.54 85.9 350.41 85.94 349.99C85.97 349.74 85.99 349.49 85.99 349.24C85.99 341.89 86 334.54 85.99 327.2C85.99 314.3 85.99 307.13 85.99 305.7ZM37.71 256.32C36.59 256.34 35.46 256.41 34.35 256.55C31.71 256.88 29.11 257.52 26.62 258.45C26.47 258.5 26.33 258.56 26.19 258.63C25.96 258.77 25.93 258.89 26.1 259.14C26.25 259.34 26.47 259.48 26.72 259.52C27.96 259.81 29.17 260.17 30.36 260.6C33.72 261.77 36.82 263.58 39.49 265.94C41.96 268.13 44.04 270.62 45.47 273.63C45.67 274.04 45.88 274.44 46.11 274.83C46.47 275.42 46.96 275.41 47.29 274.81C47.53 274.38 47.76 273.94 47.97 273.5C48.88 271.61 50.07 269.86 51.5 268.32C53.13 266.53 54.88 264.85 56.99 263.61C58.3 262.84 59.65 262.14 60.99 261.42C61.86 260.96 62.78 260.59 63.72 260.32C64.72 260.04 65.73 259.78 66.73 259.5C66.92 259.45 67.09 259.36 67.23 259.23C67.48 259 67.45 258.8 67.16 258.63C66.94 258.51 66.71 258.41 66.47 258.33C65.13 257.85 63.76 257.45 62.37 257.13C60.06 256.59 57.7 256.32 55.32 256.32C52.46 256.33 49.6 256.32 46.73 256.32C43.73 256.32 40.72 256.3 37.71 256.32Z" id="a1cIjBSfFw"></path><path d="M94 272.12C94.01 272.44 93.93 272.76 93.77 273.05C93.73 273.14 93.62 273.19 93.52 273.15C93.52 273.15 93.51 273.14 93.51 273.14C93.2 273.04 92.93 272.84 92.74 272.58C90.87 269.85 89.35 267.69 88.98 267.14C88.69 266.74 88.53 266.26 88.53 265.77C88.53 263.8 88.53 261.83 88.53 259.87C88.53 259.57 88.53 259.27 88.53 258.98C88.55 258.73 88.36 258.51 88.12 258.49C88.1 258.49 88.08 258.49 88.06 258.49C87.94 258.48 87.82 258.48 87.7 258.49C86.36 258.49 85.02 258.49 83.68 258.49C83.23 258.52 82.8 258.3 82.57 257.92C81.73 256.69 80.88 255.47 80.05 254.24C79.92 254.06 79.82 253.85 79.76 253.63C79.68 253.32 79.79 253.16 80.1 253.07C80.3 253.02 80.5 252.99 80.7 252.99C81.52 252.99 85.63 252.99 93.03 252.99C93.14 252.99 93.2 252.99 93.21 252.99C93.74 253.02 93.85 253.12 94 253.64C94 257.34 94 268.42 94 272.12Z" id="dCWfxBCu9"></path><path d="M16.4 353.29C16.19 353.3 15.97 353.28 15.76 353.24C15.46 353.22 15.22 352.98 15.2 352.68C15.19 352.53 15.18 352.39 15.18 352.25C15.18 346.08 15.18 341.15 15.18 339.92C15.18 339.71 15.21 339.49 15.28 339.29C15.32 339.08 15.53 338.94 15.74 338.98C15.76 338.98 15.78 338.99 15.8 339C15.99 339.04 16.17 339.12 16.33 339.22C17.61 340.1 18.89 341 20.17 341.88C20.51 342.11 20.69 342.5 20.66 342.9C20.66 344.26 20.66 345.63 20.66 347C20.66 347.1 20.66 347.21 20.66 347.32C20.69 347.62 20.81 347.75 21.11 347.77C21.42 347.79 21.76 347.77 22.08 347.77C22.64 347.77 27.13 347.77 27.69 347.77C27.91 347.76 28.14 347.77 28.37 347.81C28.6 347.85 28.83 347.93 29.03 348.05C30.99 349.39 32.93 350.75 34.88 352.1C35.1 352.28 35.26 352.51 35.34 352.77C35.39 352.87 35.34 352.93 35.26 352.98C34.97 353.18 34.63 353.28 34.28 353.28C33.17 353.28 32.06 353.28 30.94 353.28C29.06 353.29 27.17 353.3 25.28 353.29C19.95 353.29 16.99 353.29 16.4 353.29Z" id="aibzR5feF"></path><path d="M0 254.18C0.01 253.93 0.04 253.68 0.09 253.44C0.12 253.23 0.3 253.07 0.51 253.05C0.68 253.02 0.86 253 1.03 252.99C7.16 252.99 12.06 252.99 13.29 252.99C13.51 253 13.74 253.02 13.96 253.07C14.17 253.09 14.33 253.27 14.32 253.48C14.32 253.52 14.31 253.56 14.29 253.6C14.24 253.81 14.16 254.01 14.05 254.19C12.78 256.08 11.74 257.59 11.48 257.96C11.27 258.31 10.88 258.51 10.48 258.49C9.08 258.49 7.67 258.49 6.27 258.49C5.64 258.49 5.51 258.62 5.52 259.24C5.52 260.09 5.54 260.95 5.54 261.8C5.54 263.11 5.52 264.41 5.51 265.71C5.51 266.23 5.35 266.74 5.06 267.17C4.68 267.72 1.65 272.13 1.27 272.68C1.06 272.92 0.8 273.09 0.5 273.18C0.46 273.2 0.35 273.13 0.31 273.08C0.09 272.77 -0.01 272.4 0 272.03C0 271.39 0 270.76 0 270.12C0 267.77 0 265.41 0 263.06C0 257.73 0 254.77 0 254.18Z" id="b1lu0bL3ok"></path><path d="M67.07 277.88C67.6 277.7 68.15 277.56 68.7 277.45C69.03 277.42 69.37 277.43 69.7 277.49C70.44 277.56 71.16 277.76 71.83 278.08C73.41 278.86 74.3 280.15 74.6 281.87C74.98 284.01 73.5 286.41 71.42 287.21C69.48 288.01 67.26 287.71 65.6 286.42C64.38 285.51 63.68 284.07 63.72 282.54C63.69 280.42 65.05 278.53 67.07 277.88Z" id="b302irvFO"></path><path d="M19.66 279.8C20.28 278.89 21.17 278.2 22.2 277.83C24.04 277.21 25.81 277.37 27.45 278.44C28.75 279.27 29.42 280.49 29.66 281.98C30.01 284.15 28.53 286.16 26.99 286.94C24.95 287.97 22.94 287.89 21.01 286.68C19.52 285.74 18.85 284.39 18.84 282.43C18.74 281.51 19.07 280.62 19.66 279.8Z" id="c2dV32cuVC"></path></defs><g><g><use xlink:href="#a1cIjBSfFw" opacity="1" fill="#ffffff" fill-opacity="1"></use><g><use xlink:href="#a1cIjBSfFw" opacity="1" fill-opacity="0" stroke="#000000" stroke-width="1" stroke-opacity="0"></use></g></g><g><use xlink:href="#dCWfxBCu9" opacity="1" fill="#ffffff" fill-opacity="1"></use><g><use xlink:href="#dCWfxBCu9" opacity="1" fill-opacity="0" stroke="#000000" stroke-width="1" stroke-opacity="0"></use></g></g><g><use xlink:href="#aibzR5feF" opacity="1" fill="#ffffff" fill-opacity="1"></use><g><use xlink:href="#aibzR5feF" opacity="1" fill-opacity="0" stroke="#000000" stroke-width="1" stroke-opacity="0"></use></g></g><g><use xlink:href="#b1lu0bL3ok" opacity="1" fill="#ffffff" fill-opacity="1"></use><g><use xlink:href="#b1lu0bL3ok" opacity="1" fill-opacity="0" stroke="#000000" stroke-width="1" stroke-opacity="0"></use></g></g><g><use xlink:href="#b302irvFO" opacity="1" fill="#ffffff" fill-opacity="1"></use><g><use xlink:href="#b302irvFO" opacity="1" fill-opacity="0" stroke="#000000" stroke-width="1" stroke-opacity="0"></use></g></g><g><use xlink:href="#c2dV32cuVC" opacity="1" fill="#ffffff" fill-opacity="1"></use><g><use xlink:href="#c2dV32cuVC" opacity="1" fill-opacity="0" stroke="#000000" stroke-width="1" stroke-opacity="0"></use></g></g></g></svg>