<svg id="_Layer_" data-name="&lt;Layer&gt;" xmlns="http://www.w3.org/2000/svg" viewBox="0 0 1143.05 1089.29"><defs><style>.cls-1{fill:#f2e199;}.cls-2{fill:#1d7e8e;}.cls-3{fill:#00a09d;}.cls-4{fill:#599dad;}.cls-5{fill:#6a3bc4;}.cls-6{fill:#ab79f2;}.cls-7{fill:#150749;}.cls-8{fill:#0d0530;}.cls-9{fill:#b5453c;}.cls-10{fill:#d88e7d;}.cls-11{fill:#68bcb8;}.cls-12{fill:#ef9d84;}.cls-13{fill:#f7a73c;}.cls-14{fill:#f1a34f;}.cls-15{fill:#d3671e;}.cls-16{fill:#b25618;}.cls-17{fill:#ffc558;opacity:0.4;}.cls-18{fill:#dcd5ef;}.cls-19{fill:#c6bae2;}.cls-20{fill:#f4501e;}.cls-21{fill:#f2e7e4;}</style></defs><path class="cls-1" d="M1103,977.64a357,357,0,0,1-8.53,36.12q-1.45,5-3.06,9.82H58.31S-35.78,608.47,92.41,407.5q2.4-3.76,4.82-7.39,2.23-3.32,4.48-6.52t4.4-6.12c38.63-52.57,80.94-78.57,125.32-94.69,1.56-.58,3.13-1.12,4.7-1.67s3-1,4.48-1.52c36-12,73.23-18.25,110.92-27.59,13.11-3.26,26.29-6.88,39.48-11.25C443.8,233.3,496.87,204,548,139.29,611,59.45,676,39.23,731.24,55.07q5.65,1.62,11.15,3.73A144,144,0,0,1,758.22,66c66.33,35.08,113.29,123.16,116,214.26,1.81,61.39,5.59,120.39,14,171.57A494.91,494.91,0,0,0,903,517.38q2.49,8.1,5.27,15.69c18.27,49.85,46,82.69,88.34,88.16,29.41,3.8,54.19,29.18,73.05,66.75.17.35.35.69.52,1C1106.65,762.48,1120.72,881.65,1103,977.64Z"/><path class="cls-1" d="M62.16,1014.14a68.38,68.38,0,0,1,8.15-2.38c.93-.22,1.91-.43,2.93-.64h986.87s89.89,27.33-32.56,40.56l-4.61.48-4.28.43-4.2.41c-36.91,3.46-77.32,5.17-119.71,6.23l-4.49.11-4.28.1c-34.36.79-70,1.2-106,1.82q-18.79.32-37.72.74c-50.42,1.15-101.12,3.07-149.93,7.34a1689.44,1689.44,0,0,1-175.07,5.54q-5.4-.11-10.64-.24-7.73-.21-15.13-.48c-63.36-2.31-108.22-8.11-110.8-14.11-1.73-4-5.34-7.92-13.34-11.29a84.5,84.5,0,0,0-14.18-4.32c-1.59-.35-3.27-.7-5-1-17.45-3.28-44-5.44-84.39-5.8-28.09-.25-51.76-1.92-69.78-4.4l-.5-.07C58.7,1028.31,45.27,1020.46,62.16,1014.14Z"/><path class="cls-1" d="M1110.64,987a197,197,0,0,1-25.05,42.64h-720v.07H315.3V491.63h86.07V343.84h86.07V543.5h69.67V498.91h89.26c8.38,22,18.89,42.45,32.09,60.85v14.56h11.39c39.48,46.27,99.47,76.76,190.9,81.83,63.55,3.53,117.09,27.09,157.84,62l1.13,1C1118.47,787.27,1148.85,897.89,1110.64,987Z"/><path class="cls-2" d="M185.1,812.38s-18.92-41.24-1.16-67.44c0,0,13-14.66,23.54-13.47,0,0-15,46.94-10.13,51.61S212,728.52,212,728.52s26.75-5.35,36.24,3.18c0,0-25.23,38.58-19.91,40.87S260.92,737,260.92,737s27.48,8.73,26,40S276,818,271.84,817.19s-28.5-18.19-29-11.82,14.12,27.18,24.38,28.15c0,0-19.37,39.9-32.24,28.39s-11.21-29.77-19.23-36.62-14.87-6.83-11.56.16,15.07,13.76,19.66,28.93S235.29,879.77,222,876s-35-21.94-35.91-42.79Z"/><path class="cls-3" d="M273.43,777.89s-71.85-5.37-88.33,34.49c0,0-3.64,20.39-14.85,39l-1.75,8.9s12.93-25.47,17.56-27C186.06,833.23,176.06,783.84,273.43,777.89Z"/><path class="cls-4" d="M170.25,851.34s-16,22.13-17.13,61.66l2.91.49s5.11-40.88,14.36-56.87S170.25,851.34,170.25,851.34Z"/><path class="cls-2" d="M118.94,760.52S149,729,135,686.29c0,0-11.24-26.25-23.28-33,0,0,6.42,63.74,0,65.24s-4.42-72-4.42-72-31.71-28.5-44.15-26.25c0,0,19.67,62.24,13.25,60.74s-28.5-64.49-28.5-64.49S15.39,605.3,10.17,641.3s3.21,54,8,56.23,35.72,1.5,34.92,9S31.44,726,19.81,719.28c0,0,12.84,59.23,29.7,56.23S71.58,753,82,751.52s18.06,3.75,12.84,9S72,762.24,63.55,775.62,48.3,797.26,64,803.26s43.74,2.25,49.36-20.25Z"/><path class="cls-2" d="M25,652.54s84.29,51,93.92,108a208.46,208.46,0,0,0,8,54.73V826.5s-8.83-38.24-13.65-43.49C113.32,783,132.19,733.52,25,652.54Z"/><path class="cls-2" d="M127,815.25s13,36.88,5.59,81.77l-3.35-1.68s3.25-49.44-3.55-74.31S127,815.25,127,815.25Z"/><path class="cls-3" d="M166.83,717.08s-39.68-41.51-21.16-97.85c0,0,14.81-34.59,30.69-43.49,0,0-8.47,84,0,86s5.82-94.89,5.82-94.89,39-37.56,55.43-34.59c0,0-23.16,82-14.7,80.06s34.81-85,34.81-85,42.85-14.82,49.73,32.62-4.23,71.16-10.58,74.13-47.09,2-46,11.86,28.57,25.7,43.91,16.8c0,0-16.93,78.09-39.15,74.13s-26.34-29.65-40.09-31.63-23.81,4.95-16.93,11.86S226,719.35,237.08,737s20.11,28.52-.53,36.42-54.9,3-62.31-26.68Z"/><path class="cls-2" d="M287.87,574.76S179.53,642,166.83,717.08a274.87,274.87,0,0,1-10.58,72.16v14.82s11.64-50.4,18-57.32C174.24,746.74,146.61,681.5,287.87,574.76Z"/><path class="cls-2" d="M156.25,789.24S139.12,837.85,148.88,897l4.41-2.22S149,829.63,158,796.85,156.25,789.24,156.25,789.24Z"/><path class="cls-5" d="M162.73,1025.33c42.93,0,77.73-65,77.73-145.21H87.77C87.77,960.32,119.81,1025.33,162.73,1025.33Z"/><path class="cls-6" d="M181.86,1024.22a42.23,42.23,0,0,1-9.66,1.11c-42.92,0-75-65-75-145.21h19.31C116.55,954.21,143.49,1015.33,181.86,1024.22Z"/><path class="cls-5" d="M215.53,1028.91H102.89c0-7.24,3.07-13.11,6.86-13.11h98.93c3.79,0,6.85,5.87,6.85,13.11Z"/><rect class="cls-6" x="85.21" y="880.12" width="157.02" height="4.46"/><path class="cls-7" d="M844.74,839.84,726.3,831.16s-2.84-16.88,3.35-29.68c5.92-12.29-2.23-21.18-10.35-35.81,7.53,7.25,33.45,6.18,50.57,4,2.1,3.19,23.23,32.45,30.23,37.16C807.84,812.05,842.36,818.88,844.74,839.84Z"/><path class="cls-7" d="M705.63,831.16H587.19s-2.84-16.88,3.34-29.68c5.93-12.29,16.26-25.48,8.15-40.11,7.52,7.25,31.3,6.45,48.42,4.3,2.1,3.18-7.92,24,13.89,41.18C668.28,812.6,703.25,810.2,705.63,831.16Z"/><path class="cls-8" d="M686,437.64S646.64,422.9,592.84,474C489.54,552.23,356.9,751.22,344.43,765.19c-25,28-5.67,66.9,96.44,66,59.7-.55,96.25-26.17,112.61-49.21,4.36-6.14,20.38-34.13,40-71.61-.58,37.65-.83,64.93-.83,64.93-3.06,26.68,61.06,19.39,61.06,19.39C762.46,454.62,686,437.64,686,437.64Z"/><path class="cls-9" d="M633.1,313.8c-6-11.23-17.22-19.07-25.67-23.72,3.54-.7,8.19,1.14,8.19,1.14-4.54-3.86-19.14-6.23-19.14-6.23-52-69.18-132.2,20.42-146.8,43.76S416.75,378,367.34,376.18c-97.22-3.58-103.4,87.83-83.51,134.64.28.66,47.94,79.56,47.94,79.56C343,571.15,443.91,489.57,511.08,490.16c22.56-8.51,46.4-33.59,48.25-35.58-17.65,20.67-30.46,30.44-39,35.11C584.2,480.45,649,343.55,633.1,313.8Z"/><path class="cls-10" d="M515.1,490.15c.18.23-8.78,31.23-35.71,17.63-17.68-8.92-46.05-47-35.12-59.9,5.2-6.14,28.09-17.79,51.92-57.25l2.87,2.31,48.1,38.91s-10.95,15.29-20.14,30.3C519.3,474.75,512.83,487.15,515.1,490.15Z"/><path class="cls-9" d="M497.29,383.19s.9-32,11-53.46c7.22-15.33,51.11-61.46,100.48-19.93a84.44,84.44,0,0,1,23,30.15c6.49,14.92,12,41.81-38.91,74.15L577.15,426Z"/><path class="cls-11" d="M432.62,431s17.68,3.15,25.15-6.22,23.74-29.16,27.54-17.8,39.69,44.41,48,45.28,14.11,3,9.42,7.06-2.74,20.12-7.44,21.58S443.44,430.09,432.62,431Z"/><path class="cls-12" d="M543.75,453.57S474.37,411.63,503,371.64s38.91-72.34,84.42-47.26,43.11,45.67,37,61.19S562.54,463.44,543.75,453.57Z"/><path class="cls-11" d="M547.16,486s-117.49-80.94-158.62-50.45c-60.65,45-48.52,196.78-62.61,216.53S232.47,813.49,361.57,827.9s158.84-61.68,164.71-118.75S547.16,486,547.16,486Z"/><path class="cls-3" d="M392.56,485s-33.83,174.85,33.22,222.62S526.58,479.58,392.56,485Z"/><path class="cls-3" d="M460,457.05s1.29-20.43,20.57-12.62,55,19.53,68.78,14.72-22.23,59.79-55.15,38.16S460,457.05,460,457.05Z"/><path class="cls-9" d="M619.34,343s-52.4,35.12-86.2,24S492,340.77,492,340.77s33.9-2.57,59-28.37C551,312.4,621.17,311.79,619.34,343Z"/><path class="cls-12" d="M708.67,570.91s26.57,10.81,21.29,39.32-15.85,18.95-15.85,18.95Z"/><path class="cls-9" d="M612,343.87s6.53,19.26,2.65,31.58-17.35,34.24-10.31,37.62c0,0,37-23,34-51C635.15,332.39,612,343.87,612,343.87Z"/><path class="cls-7" d="M311.45,765.19c15.69-17.58,222.73-355.9,308.85-351.35,129.62,6.85-96.91,344.64-112.8,367-16.36,23-39.91,49.76-99.61,50.31C305.77,832.09,286.48,793.16,311.45,765.19Z"/><path class="cls-7" d="M656.72,437.64s5.15,4.49,122.4,341.49c0,0-48.92,33.14-59.82,8.31,0,0-158-221.69-120.78-260.73S656.72,437.64,656.72,437.64Z"/><path class="cls-12" d="M382.84,447.91s-30.95,44.7,65.3,85.7,107.58,51,126.35,54.68c29.25,5.7,141.58,4.9,141.58,4.9s2.95-16.66-7.4-22.28c-16.56-9-112.24-23.63-125.14-28.45S433.15,399.49,382.84,447.91Z"/><path class="cls-11" d="M404.42,428.75s49.17,1.86,151.72,90.19c0,0,15.7,17.81,23.5,19s29,6.38,29.43,11.42-26.05,68.12-59.8,69.92S357.41,512.48,368.5,476,404.42,428.75,404.42,428.75Z"/><rect class="cls-13" x="214.62" y="840.87" width="421.41" height="190.09"/><rect class="cls-14" x="465.46" y="840.88" width="381.28" height="190.08"/><path class="cls-15" d="M536,873.65c-3.87,0-7,1.7-7,3.79s3.12,3.78,7,3.78,7-1.69,7-3.78S539.8,873.65,536,873.65Z"/><path class="cls-15" d="M785.4,877.44c0-2.09,3.13-3.79,7-3.79s7,1.7,7,3.79-3.13,3.78-7,3.78S785.4,879.53,785.4,877.44Z"/><path class="cls-15" d="M536,993.4c-3.87,0-7,1.69-7,3.78s3.12,3.78,7,3.78,7-1.69,7-3.78S539.8,993.4,536,993.4Z"/><path class="cls-15" d="M785.4,997.18c0-2.09,3.13-3.78,7-3.78s7,1.69,7,3.78-3.13,3.78-7,3.78S785.4,999.27,785.4,997.18Z"/><path class="cls-16" d="M254.31,877.44a4.36,4.36,0,1,1,4.32,3.78A4.08,4.08,0,0,1,254.31,877.44Z"/><path class="cls-16" d="M413.14,877.44a4.37,4.37,0,1,1,4.33,3.78A4.09,4.09,0,0,1,413.14,877.44Z"/><path class="cls-16" d="M254.31,997.18a4.36,4.36,0,1,1,4.32,3.78A4.07,4.07,0,0,1,254.31,997.18Z"/><ellipse class="cls-16" cx="417.47" cy="997.18" rx="4.33" ry="3.78"/><path class="cls-13" d="M214.62,841.18s57.27-29.6,95.05-20.57c49.72,11.88,167.31,8.57,197,5.5s261.41,6.1,340.09,14.77Z"/><path class="cls-17" d="M846.74,981.1V1031H465.46V840.88h64l1.25.3S564.91,970.12,846.74,981.1Z"/><path class="cls-8" d="M852.5,745s-79.74-10.57-84.37-22.6c0,0,5.54-10.87-3.21-13.71-2.35-.77-6.3-2.17-8-.09l.11,22.19s8.59,7.83,13.41,14.15c2.66,3.48,54.18,23.64,54.18,23.64Z"/><path class="cls-8" d="M1016.79,907.73c7.56-10.21-.3-82.35-54.73-60.45-11.55,3.27-25.47,11.08-42.12,25.35,0,0-23.92,52.67,70.38,87.51,0,0,9.34,3.78,10.67,11.81s2.82,44.28-.38,45.37-7.94-3.06-11.39,1.52S987,1031,987,1031h34.26s16.38-81.35,15.46-87.82S1007.82,919.85,1016.79,907.73Z"/><path class="cls-8" d="M882.36,612.88s18.14,35.55,8.12,46.21l-28.17-21.16S862.16,627.46,882.36,612.88Z"/><path class="cls-7" d="M1076.65,804.33c-7.4-12.54-18.48-33.51-3.85-42.06,12.47-7.3,7.69-22.5.48-26.14-15.19-7.66-30.61,2-37.84,11.49-13.76,18,4.51,46.15,4.51,46.15,17.28,34.78-18.29,52.88-35.44,59.34a191.19,191.19,0,0,0-28.88-31.81c-5.91-5.24-11.33-9.51-15.88-13.14-48.27-38.57-36.58-52.68-48-70-2.25-3.43-11.13-12.77-13.49-15.76s-3.19-13.52-3.46-22.81c5.42-4.32,6-9.16,6-9.16a8.54,8.54,0,0,1,0,4c5.62-4.27,4.34-14.09,4.34-14.09,1.25,1.42,1.74,4.46,1.74,4.46,2.83-15.3-7.24-27.77-7.32-27.86,1.78-14.37-11-39.36-11-39.36-9.35,6.75-14.33,12.62-17,17-8.72-2.47-19-2.3-29.81,7.58-3.3,3-13.1,5.49-17.72,4.93-2.55-.31-8.34,11.62-8.57,13.25-2.53,18,3.6,27,14.62,36.18,1.55,4.07,2.73,9.53,0,13.2,0,0,2.33-.88,2.61-1.58-.19,1-1.45,6.63-4.77,9.17a10.1,10.1,0,0,0,2.24-.49c-2.89,3.43-13.88,17.63-13.73,35.13-23.13.18-45.13-1.14-47.26-6.68,0,0,5-9.13-3.21-13.72a19.18,19.18,0,0,0-9-1.94l-.4,24.91s10,7,14.87,13.28c1.65,2.17,34,15.82,58.21,25.83,14.09,57.1,59.35,90.11,74.33,99.68,2.16,17.44,13.24,40.14,45,66.58,0,0,7.39,6.55,5.69,14.51s-13.64,42.49-17,42.49-14.77-4.6-19.69-1.42,1.89,15.58,1.89,15.58h34.66s42.8-65.85,44.32-72.22-18.56-31.16-5.68-39.66c5.52-3.64,13.18-23.62,11.59-42C1021.61,871.6,1099.82,843.59,1076.65,804.33Z"/><path class="cls-18" d="M822.63,647a5.75,5.75,0,0,1,5.24,0s0,9.37-10.12,9.15C817.75,656.18,820,648.24,822.63,647Z"/><path class="cls-18" d="M834.71,660.56c.24.07,23.75,8.26,40.59,26.34h0c-17.14-18.4-40.09-27-40.33-27.06Z"/><path class="cls-19" d="M832.52,662.11c.25.15,24.89,15.82,38.85,41.13h0c-14.2-25.77-38.08-41.74-38.34-41.89Z"/><path class="cls-18" d="M830,664c.18.16,17.5,17.13,24.22,40.27h0c-6.83-23.56-23.47-40.65-23.66-40.81Z"/><path class="cls-8" d="M888.54,617.52s1.34,27.49,4.23,32.58a16.35,16.35,0,0,0,6.73,6.78C901.28,642.52,888.54,617.52,888.54,617.52Z"/><path class="cls-20" d="M588.44,31.76a42.69,42.69,0,0,0-10.87,1.8A55.15,55.15,0,0,0,556.3,45.83a80.94,80.94,0,0,0-8,8.72c-1.16,1.4-2.29,2.83-3.41,4.26a80.76,80.76,0,0,0-11.22.82A49.61,49.61,0,0,0,527,61a44.2,44.2,0,0,0-6.48-.75,25.62,25.62,0,0,0-8,.91,18.53,18.53,0,0,0-6.32,3.22,16.29,16.29,0,0,0-4.07,4.91,21.37,21.37,0,0,0-2.27,6.38,42,42,0,0,0,.43,15.88A76,76,0,0,0,506,109a94.08,94.08,0,0,0,10,16.91l.54.71a28.28,28.28,0,0,0,3.68,10.67c3.07,5.13,8.33,9.05,14.31,11.51A54.1,54.1,0,0,0,546.23,152c1,.17,2.1.33,3.16.46A128.15,128.15,0,0,0,573.24,162a85.15,85.15,0,0,0,24.29,3.58,47.67,47.67,0,0,0,21.71-5.12,36,36,0,0,0,10.32-8.28c2.94,4.43,5.77,8.91,8.54,13.42a2.66,2.66,0,0,0,3.29.74,1.94,1.94,0,0,0,.86-2.83c-3.15-5.11-6.38-10.19-9.74-15.21a41.31,41.31,0,0,0,2.41-4.09,51.76,51.76,0,0,0,4.33-11.87,44.54,44.54,0,0,0,1.31-9.32,25.73,25.73,0,0,0-3.6-14.33c-.26-.44-.55-.87-.85-1.28a33.89,33.89,0,0,0-3.46-9.81,25.86,25.86,0,0,0,5.44-6.87,20.06,20.06,0,0,0,2.32-8.38,23.62,23.62,0,0,0-1.91-10.18,19.27,19.27,0,0,0-3.3-5.4A16.59,16.59,0,0,0,630.36,63,18.18,18.18,0,0,0,625,61.25,27.66,27.66,0,0,0,618.6,61l-1.56.15a41.3,41.3,0,0,0-.32-6.28,32.6,32.6,0,0,0-1.16-5.36,28.23,28.23,0,0,0-2.16-5,23.32,23.32,0,0,0-6.25-7.23A25.74,25.74,0,0,0,598.47,33a31.24,31.24,0,0,0-8.9-1.2h-1.13m16.37,31.4a33.67,33.67,0,0,0,.9-9.15,20.38,20.38,0,0,0-2.08-8.11,17.09,17.09,0,0,0-5.24-6.15,23.2,23.2,0,0,0-8.29-3.85c1,0,2,.08,3,.19a28.8,28.8,0,0,1,5.41,1.28,25.09,25.09,0,0,1,4.34,2.16,23.11,23.11,0,0,1,3.76,3.27,23.06,23.06,0,0,1,3,4.53,29.78,29.78,0,0,1,2.21,7.14,40.1,40.1,0,0,1,.34,7.5c-2.31.52-4.59,1.18-6.81,1.9l-.81.26c.08-.32.15-.65.23-1M587.17,39.57a20.45,20.45,0,0,1,3.53.87,24.23,24.23,0,0,1,4,2,17.55,17.55,0,0,1,2.72,2.34,16.79,16.79,0,0,1,2,3,17.89,17.89,0,0,1,1.38,4.69,28.68,28.68,0,0,1-.1,7,44.82,44.82,0,0,1-1.58,6.64h0c-1.54.57-3.08,1.13-4.56,1.78l-1,.47a159.55,159.55,0,0,0-16.79-5.29A142.84,142.84,0,0,0,561.33,60a70.68,70.68,0,0,1,8-11.46l-.15.17.19-.21.18-.21-.08.1A37.61,37.61,0,0,1,576,42.63a23.14,23.14,0,0,1,4.23-2.18,18.57,18.57,0,0,1,3.49-.87,17.3,17.3,0,0,1,3.45,0m-.52-.06.31,0-.31,0m3.72.8.28.12-.28-.12m-10,.07-.1,0,.1,0m-9.2.31a43,43,0,0,0-6.6,6.47,71.65,71.65,0,0,0-8.27,12.26c-1.93-.2-3.87-.35-5.8-.46,1.66-2.08,3.38-4.14,5.15-6.16a59.7,59.7,0,0,1,10.57-9.22l-.17.1.28-.18.21-.14-.19.13a53.53,53.53,0,0,1,4.82-2.8m26.06,4,.11.13-.11-.13m.13.16c.08.08.16.17.25.25a2,2,0,0,1-.25-.25m12.16,2.33c0,.06.05.11.07.17s0-.11-.07-.17m-8.86,4.92a.88.88,0,0,0,0,.16.88.88,0,0,1,0-.16m11.19,2.63a2.56,2.56,0,0,0,.05.27,2.56,2.56,0,0,1-.05-.27m-11.27,5.06,0,.26,0-.26m-60.39,3.37a14,14,0,0,0-1.77,1.24c-.8-.3-1.62-.59-2.45-.88l.46,0h-.11c1.29-.14,2.57-.24,3.87-.32m-3.23.24-.34,0,.34,0M578,73.7a75,75,0,0,0-16.28-9.41A151,151,0,0,1,588.29,71c-2.41,1.3-4.77,2.66-7.1,4l-.84.5c-.78-.62-1.58-1.23-2.38-1.83m-59.65-9.26a42.13,42.13,0,0,0-7.49,5.42,25.1,25.1,0,0,0-6.66,8.87c.05-.56.12-1.11.21-1.66,0,.17-.06.35-.08.55A21.27,21.27,0,0,1,506,71.84a16.39,16.39,0,0,1,2-3.08,14.08,14.08,0,0,1,2.32-2,15.73,15.73,0,0,1,2.52-1.29,20.94,20.94,0,0,1,3.85-.91c.54-.06,1.08-.09,1.61-.11m-1.13,0-.22,0,.22,0M623,65.16a18.33,18.33,0,0,1,3.61.81,16.38,16.38,0,0,1,2.47,1.26,14.64,14.64,0,0,1,2.13,1.86,18.25,18.25,0,0,1,2.37,3.65l-.09-.2a25.32,25.32,0,0,1,1.88,5.94,20.73,20.73,0,0,1,.09,5.22A18.58,18.58,0,0,1,634,88.63a24.21,24.21,0,0,1-2.85,4.19l.12-.13-.2.21-.17.21.09-.12c-.2.22-.41.43-.62.65a46.66,46.66,0,0,0-5.66-7,53.72,53.72,0,0,0-8.84-7.06c-.7-.46-1.4-.92-2.11-1.36a51.27,51.27,0,0,0,2.65-10c.15-.93.28-1.86.38-2.8l.57-.08a29.68,29.68,0,0,1,5.73-.12m-95.88.16a68.11,68.11,0,0,1,8.43,2.47l-.24-.1.38.15.14,0h0l-.15,0a17.77,17.77,0,0,0-1.17,2.83,17.37,17.37,0,0,0-.77,4q-2.13,3.38-4.11,6.82a131.63,131.63,0,0,0-9.36,19.83l-1.41-.91.32.22a42,42,0,0,1-7.12-6l.12.13-.13-.15-.13-.13.11.11a23.52,23.52,0,0,1-3-4.31c0,.09.09.19.14.29-.06-.11-.11-.23-.17-.35s-.05-.1-.08-.15a.54.54,0,0,1,.07.13,16.11,16.11,0,0,1-1.22-3.85,14.39,14.39,0,0,1,0-3.47A15.73,15.73,0,0,1,509,79.28a23.78,23.78,0,0,1,3.21-4.56,43.25,43.25,0,0,1,6.54-5.53l-.19.12c.09-.07.2-.13.29-.19l.19-.13-.11.08a35.91,35.91,0,0,1,6.3-3.13l-.2.07.3-.11.28-.1-.16.06c.56-.19,1.11-.37,1.67-.54m23.05.1c1,.11,1.9.28,2.84.48q-1,2.07-1.88,4.15c-2.17-1.1-4.37-2.16-6.6-3.16.3-.44.62-.87.93-1.31.41-.08.82-.15,1.23-.2a20.21,20.21,0,0,1,3.48,0m-3.79,0-.16,0,.16,0m4,0,.37,0-.37,0m61.41.93c-.06.41-.11.83-.17,1.24,0,0,0-.09,0-.13a49,49,0,0,1-2,7.85c0,.15-.09.29-.14.43-1.67-.92-3.38-1.8-5.1-2.64-.83-.41-1.66-.8-2.49-1.19.39-.93.76-1.88,1.1-2.83,2.86-1,5.77-2,8.74-2.73m-.08.69c0,.14,0,.27-.07.41,0-.14,0-.28.07-.41m-54.14.15.18.07.35.12-.22-.07a66.78,66.78,0,0,1,13.27,6.91c1.77,1.19,3.5,2.43,5.16,3.73q-3,1.84-5.87,3.75a165.2,165.2,0,0,0-15.11-9.45c.71-1.7,1.46-3.38,2.24-5.06l0,0Zm-49.66,1.64-.14.15.14-.15m33.81,2.08.33-.48c2.36,1,4.68,2.18,7,3.36.17.08.33.17.49.26-1.37,3.53-2.58,7.11-3.6,10.72-.6,2.08-1.13,4.18-1.54,6.29a43.41,43.41,0,0,1-3.52-5.67,26.54,26.54,0,0,1-2.21-6.84,21.8,21.8,0,0,1-.13-2.79q1.58-2.44,3.21-4.85M588,76.05c1.84-1,3.72-2.07,5.64-3,.76.3,1.52.62,2.27.93l-.27.58A93.66,93.66,0,0,1,590,84.35c-1.93-2-4-4-6.14-5.9,1.38-.81,2.77-1.62,4.17-2.4M512.1,74.87,512,75Zm88.11,1c2.66,1.23,5.26,2.56,7.78,4-.52,1.23-1.09,2.43-1.66,3.63a2.7,2.7,0,0,1,.15-.29A110.57,110.57,0,0,1,599,95.89a65.45,65.45,0,0,0-5.09-7.07l-.75-.91a92.8,92.8,0,0,0,7-12.08m-48.37,5.9c.58-1.81,1.22-3.62,1.89-5.41,3.71,2.08,7.3,4.29,10.8,6.61.68.45,1.35.91,2,1.38l-3.23,2.21c-4.81,3.35-9.52,6.82-13.94,10.54-.29-.3-.57-.6-.85-.91.06-1,.15-2,.31-3,0,.19-.06.37-.08.55a73.91,73.91,0,0,1,3.08-12m83.62-2.94a1.42,1.42,0,0,1,0,.2c0-.07,0-.14,0-.2m-55.59,2.07a89.27,89.27,0,0,1,7.52,7.28c-1,1.41-2.1,2.8-3.19,4.17-3.22-2.72-6.55-5.36-10-7.89,1.86-1.2,3.75-2.39,5.65-3.56m-45.28,1.37a33.15,33.15,0,0,0,2.87,6.67,50.33,50.33,0,0,0,6.23,8.57c0,1.2,0,2.39.08,3.59,0,.34,0,.68.07,1q-1.58,1.58-3.05,3.23a26.27,26.27,0,0,0-2.89,3.93c-1.22-.38-2.44-.79-3.64-1.21l0,0-.13-.05-.45-.16.25.08a83.46,83.46,0,0,1-9.49-4.23,110.27,110.27,0,0,1,5-12l-.09.16q2.42-4.91,5.19-9.65m72.85,9A95.28,95.28,0,0,0,612,82.25l1,.65a51.66,51.66,0,0,1,9.35,7.86,46.62,46.62,0,0,1,4.39,6c-.6.46-1.23.91-1.86,1.35l-.9.57A47.41,47.41,0,0,0,611.87,96a62.08,62.08,0,0,0-7.21-.28c1-1.49,1.88-3,2.78-4.52M564.6,83l.35.23L564.6,83m70.88.92s0,.11,0,.16,0-.11,0-.16M540.67,85a2.87,2.87,0,0,1,.2.39c-.06-.13-.13-.26-.2-.39m30.38,1.48-.42.28.38-.26,0,0m-63.19.06a.68.68,0,0,1,0,.14s0-.09,0-.14m48.46,10.55c4.49-3.56,9.19-6.89,14-10.12q5.72,4.19,11,8.74l-.73.83c-1.27,1.39-2.56,2.76-3.9,4.1a98.85,98.85,0,0,0-16,6.74c-2.88-2.29-5.64-4.68-8.25-7.19,1.25-1,2.53-2.08,3.81-3.1m33.32-4.34.79-1c1.26,1.59,2.45,3.21,3.54,4.87-1.38.2-2.76.42-4.13.68-.73-.67-1.47-1.33-2.21-2q1-1.26,2-2.52m-84.18.43a30.59,30.59,0,0,0,6.31,7.23,48.94,48.94,0,0,0,7.13,5.06,60.9,60.9,0,0,0-2.52,12.81,94.45,94.45,0,0,1-4.93-8.75l0,.06a80.56,80.56,0,0,1-6-16.41m119.47,4.86h0Zm0,0-.22.16a1.77,1.77,0,0,1,.22-.16m-12.1,2.15-.64-.07a47.83,47.83,0,0,1,6.77,1.27,76.37,76.37,0,0,1-7.07,3c-2.54.92-5.13,1.73-7.75,2.46,0-.14-.08-.28-.13-.42a41.52,41.52,0,0,0-2.49-6.08c.09-.13.18-.27.28-.4a65.53,65.53,0,0,1,11,.26m-17.09.31-1,1.34-1.07-1c.69-.12,1.38-.22,2.08-.31m33.21,0,.27.59-.59-.36.32-.23m-40.73,1.29c1.26,1.17,2.49,2.35,3.71,3.55-1.35,1.67-2.75,3.32-4.18,4.94q-3.93.61-7.88,1.08l.64-.08c-3.48.39-7,.7-10.51.9q1.8-1.31,3.49-2.68c2.13-1.72,4.15-3.53,6.08-5.42,2.84-.89,5.73-1.65,8.65-2.29m33.18.28.22.08.09,0a2.85,2.85,0,0,1-.31-.12m-24.11.16,0,.08a0,0,0,0,1,0,0l-.05-.11m-48.13.85c1.25,1.2,2.53,2.36,3.85,3.5s2.41,2.06,3.65,3.07q-2,1.22-3.88,2.53c-.74-.06-1.49-.13-2.23-.21a60.88,60.88,0,0,1-1.45-6.36.09.09,0,0,0,0,0c-.12-.75-.22-1.5-.31-2.25l.36-.33m75.24.27a27.36,27.36,0,0,1,2.75,1.55,22.81,22.81,0,0,1,3.89,3.35c.17.2.33.41.49.61a24.1,24.1,0,0,1,0,6.06c0-.09,0-.17,0-.26l-.06.34,0,.21c0-.05,0-.09,0-.14a24.5,24.5,0,0,1-1.85,5.7,29.85,29.85,0,0,1-4.23,6.22.23.23,0,0,1,.07-.07.76.76,0,0,0-.09.09l-.29.33c.08-.1.17-.19.25-.28a45.56,45.56,0,0,1-4.72,4.36c-4.78-6.31-9.81-12.48-15.16-18.44-.07-.71-.17-1.42-.3-2.12a86.67,86.67,0,0,0,19.27-7.51m-12.11.84-.17,0,.17,0m-14,.39c.19.45.36.9.53,1.35l-.87-.89c.11-.15.23-.3.34-.46m-49.32.53.06.3-.06-.3m26.4.35-.37.13.18-.06.19-.07m-30.18,1.53-.23.25,0,0,.2-.21m-.61.7c.21,1.14.46,2.28.75,3.41-1-.2-1.9-.42-2.84-.65a25,25,0,0,1,2.09-2.76m-21.43.07.14.07a85.28,85.28,0,0,0,13.07,5.24,5.83,5.83,0,0,0,.18,2.42,6.14,6.14,0,0,0,3.62,3.61,14.83,14.83,0,0,0,3.53.95,29.3,29.3,0,0,0-6.1,10.06,19.05,19.05,0,0,0-1,7.32,19.45,19.45,0,0,0,.33,2.38c-2.16-1.53-4.26-3.12-6.26-4.8a63.16,63.16,0,0,1-6.27-6.07l.06.08-.23-.26-.14-.16,0,.06q-1.54-1.77-3-3.61a41.36,41.36,0,0,1,.4-10.3h0a67.85,67.85,0,0,1,1.59-7m72,.81.3.31-.68.14.38-.45m-28.26.45c-.67.49-1.35,1-2,1.43h0l-.34-.25c.79-.41,1.59-.81,2.4-1.19m20.53,1.62,0,0-.22.25c.08-.1.16-.18.25-.28m-36.88,1.33.56.07-.56-.07Zm48.28.44c.64.67,1.26,1.35,1.88,2a24.89,24.89,0,0,1-.21,4.56,21.66,21.66,0,0,1-1.57,5,31.81,31.81,0,0,1-3.8,5.68q-6.48-3.59-12.76-7.43c2.52-2.37,4.93-4.83,7.26-7.34l.76-.84c2.83-.47,5.65-1,8.44-1.64m-57.66,2h0m0,0h0s0,.06,0,.09,0-.06,0-.09m.05,0c1.81.45,3.63.84,5.47,1.15l.2.59c-.64,0-1.27-.08-1.9-.14a14.5,14.5,0,0,1-2.35-.52,5.9,5.9,0,0,1-.84-.4l-.37-.31-.17-.25Zm-19.67.58c0,.09,0,.19,0,.29a2.93,2.93,0,0,0,0-.29m57.54.57c1.39-.15,2.77-.31,4.14-.49-1.55,1.59-3.15,3.16-4.78,4.69-1.53-1-3-2-4.55-3l.32.22c-.46-.3-.91-.61-1.35-.91,2.08-.16,4.16-.35,6.22-.56M542,115.31l.13.1-.13-.1m.28.16.2.07-.2-.07m3,.69.16,0-.16,0m20.53.46c3,2.12,6.09,4.17,9.21,6.17l.12.07A117.54,117.54,0,0,1,563.19,132l-1.56,1s0,0,0,0a51.77,51.77,0,0,1-7.35-11.12l.14.26c-.35-.71-.67-1.42-1-2.13a22.37,22.37,0,0,0,3-.69,35.23,35.23,0,0,0,6.46-2.66l2.88-.06m65,10.95a27.92,27.92,0,0,0,4.7-9,34.82,34.82,0,0,1-.23,9.4v0a52.71,52.71,0,0,1-4.53,14.25l.23-.48c-.42.83-.86,1.65-1.32,2.45-2.11-3.05-4.26-6.09-6.47-9.09a43.8,43.8,0,0,0,7.62-7.46m-30.26-8.94c0,.07,0,.14,0,.21s0-.14,0-.21m1.28,9.68A23.62,23.62,0,0,0,604,124a21,21,0,0,0,1.18-4.39q6.1,7.13,11.67,14.54a69.7,69.7,0,0,1-6.42,3.67c-3.8-1.92-7.58-3.89-11.31-5.9,1-1.19,1.87-2.4,2.69-3.65m-53-7.06c.5,1.14,1,2.28,1.6,3.4a50.87,50.87,0,0,0,6.63,10c.2.24.4.47.61.7a72.73,72.73,0,0,1-10.57,4.92l.56-.2q-2.57.91-5.25,1.59a17,17,0,0,1-.91-3.39,17.91,17.91,0,0,1,0-4.14,21.18,21.18,0,0,1,1.74-5.44,31.31,31.31,0,0,1,4.13-6c.47-.52,1-1,1.45-1.52m50,2.88-.18.39.18-.39m-32.46,11A122.48,122.48,0,0,0,579,125.34c4.3,2.66,8.7,5.23,13.16,7.71a38.83,38.83,0,0,1-5.54,4.73,26.82,26.82,0,0,1-4.53,2.32,20.59,20.59,0,0,1-3.82.89,19.25,19.25,0,0,1-3.31,0,20.92,20.92,0,0,1-3.67-.9,24.68,24.68,0,0,1-4.09-2.11q-1.26-.87-2.4-1.83c.54-.34,1.06-.69,1.59-1m69-7.68c0,.08,0,.16,0,.25,0-.08,0-.16,0-.25m-92,1.17a.91.91,0,0,0-.07.14.91.91,0,0,1,.07-.14m-.08.16a3.24,3.24,0,0,1-.17.32c.06-.1.11-.21.17-.32m50.07,3.1a.39.39,0,0,0-.08.1.39.39,0,0,1,.08-.1m-51.76,1.92a1,1,0,0,1,0,.16,1,1,0,0,0,0-.16m44.76,9.15a29.26,29.26,0,0,0,5.25-3.31,37.44,37.44,0,0,0,4.67-4.3q4.59,2.49,9.27,4.88c-1.65.7-3.3,1.36-5,2l.38-.14a123.31,123.31,0,0,1-27,6.26l.64-.06a107.45,107.45,0,0,1-23.51.26q-2.91-1.53-5.73-3.2a67.76,67.76,0,0,0,15.55-6.72,34.49,34.49,0,0,0,4.71,3.47,25.37,25.37,0,0,0,4.65,2.11,21.24,21.24,0,0,0,5.33,1c.43,0,.86.05,1.3.05a22.54,22.54,0,0,0,9.48-2.32m-61.61-7.18q2.12,2,4.42,3.81,3.76,3,7.84,5.66a35.88,35.88,0,0,1-5.78-3,27.37,27.37,0,0,1-4.5-3.85l.14.15-.16-.18-.11-.12a.39.39,0,0,1,.08.1,24.74,24.74,0,0,1-1.93-2.58m94.75,2q3.82,5.22,7.43,10.57c-.48.64-1,1.28-1.54,1.9l0,0,0,0-.2.23c.05-.07.12-.14.17-.2a36,36,0,0,1-6,5.16,37.89,37.89,0,0,1-6.9,3.5,46.38,46.38,0,0,1-10.09,2.32,66.59,66.59,0,0,1-13.9-.21l.64.07a101.94,101.94,0,0,1-22.44-5.56l0,0c-2-.74-3.91-1.52-5.83-2.33A121.72,121.72,0,0,0,587,150.31a108.71,108.71,0,0,0,23.55-7.74,2.56,2.56,0,0,0,2.51-1c.06-.11.12-.21.17-.32a68.47,68.47,0,0,0,6.23-3.59m-32.85.11-.17.12.17-.12m-45.08.75a.77.77,0,0,0,0,.15.77.77,0,0,1,0-.15m29.83,1.55.31.12-.31-.12m10.68,0-.28.1.28-.1m-3.24.82-.22,0,.22,0M603,161.1l-.23,0,.23,0m22.34-10.92s0,0,0,0,0,0,0,0M526.7,138.32l0,0a.12.12,0,0,0-.05,0l0,0m-2.43-9.48.17.18-.26-.28a.41.41,0,0,1,.09.1m101-1.7,0,0s0,0,0,0l-.06.07m-51.4-10.22-.15-.11.15.11m57.54-1.77s0-.05,0-.07V115l0,.15M534.18,108l.08,0-.28-.11.2.08M512.1,94.54s0,0,0,0l0,0s0,0,0,0M630.94,93l.08-.09.08-.08a1.29,1.29,0,0,0-.16.17M529.49,91.72l.16-.33Zm-20.42-1.57a.16.16,0,0,0,0,.06l0-.08v0m9.82-21-.1.07.18-.12-.08.05m16.84-1.28h0l-.14,0,.14,0m22.17-.51-.13,0-.14,0,.27.1M525.37,65.9l-.1,0,.22-.08-.12,0m44-17.38,0,0,.14-.15-.1.11m-3-5-.11.08.13-.09h0"/><path class="cls-20" d="M819.56,146.15c5.11-11.86-15.79-24.25-22.18-12.58-5.81,10.61-22.81,14-33.37,20.19-11.22,6.54-21.29,14.63-31.24,22.64-13.16-11.44-25.4-23.3-40.67-32.64-3.74-2.28-10-1.75-11.34,1.81-9.22,25.35-29.14,44.63-37,71.07-1,3.34,5.72,6.3,7.06,3,8.64-21.05,22.53-42.75,39.43-59.13,13.1,10.76,24.56,22.79,37.23,34.07a11.7,11.7,0,0,0,14.48,1.31c17.72-11.41,34.83-22.57,54.44-31.6C806.21,159.8,815.45,155.7,819.56,146.15Z"/><path class="cls-20" d="M838.26,248.17c-18,5.15-29.27,15.12-44.64,24.31a28.87,28.87,0,0,1-16.92,7.7,77.44,77.44,0,0,0-7.18-7.2c-4.93-2.46-8.15-6.69-13.69-8.67-25.42-9.07-42.31,18.42-58.54,30.6-3.09,2.32.43,7.64,4,5.59,10.47-6,21.17-18.72,33.08-21.89,23.09-6.16,22.46,13.82,37.53,19.3,7.89,2.88,14.32-.26,21.15-3.71,18.17-9.17,30.86-23.44,51-30.33C853.65,260.6,848.23,245.33,838.26,248.17Z"/><path class="cls-20" d="M385.39,303c-14.66-6.29-29.9-11.26-44.77-17-10.53-4.05-26.27-14.24-37-11-3,.88-5.3,4-3.19,7.2,7,10.66,25,13.47,36.51,17.56,15.27,5.43,31.46,11,47.43,11.71C389.73,311.67,390.16,305,385.39,303Z"/><path class="cls-21" d="M755.21,756.84c.71-5,1.33-10,2-15,.47-3.53,1.5-9.47,1.42-11.89,0-.67-.22-.81-.5.28-.93,3.63-1.42,9-1.92,12.8-.65,5-1.33,10.36-1.63,14.84C754.48,759.42,755,758.47,755.21,756.84Z"/><path class="cls-20" d="M482.71,218.25c-3.92-28.05-11-58-20.82-89.94-6.87-22.38-15.84-62.66-28.11-83.24-4.1-6.88-10.19-12.41-11.61-7.84-4.06,13.05,7.7,41.89,15.33,64.93,11.6,35.05,23.83,70.52,31,103.6C471.43,219.18,484.56,231.44,482.71,218.25Z"/><path class="cls-20" d="M384.92,127a32.08,32.08,0,0,0-9.11,1.68A45.5,45.5,0,0,0,358,140.16a74.48,74.48,0,0,0-6.7,8.16q-1.45,2-2.85,4a61.67,61.67,0,0,0-9.41.76,38.93,38.93,0,0,0-5.6,1.3,32.26,32.26,0,0,0-5.44-.69,19,19,0,0,0-6.74.85,15,15,0,0,0-5.3,3,14.83,14.83,0,0,0-3.41,4.6,21.43,21.43,0,0,0-1.9,6A43.5,43.5,0,0,0,311,183a76.89,76.89,0,0,0,4.86,16.29,90.83,90.83,0,0,0,8.36,15.84l.45.66a28.66,28.66,0,0,0,3.09,10,25.53,25.53,0,0,0,12,10.78,42.13,42.13,0,0,0,9.8,3c.88.16,1.76.3,2.65.43a101.31,101.31,0,0,0,20,8.95,64.56,64.56,0,0,0,20.36,3.36,36.58,36.58,0,0,0,18.19-4.8,30.81,30.81,0,0,0,8.66-7.76q3.69,6.24,7.16,12.57a2.07,2.07,0,0,0,2.75.7,1.92,1.92,0,0,0,.73-2.65q-4-7.19-8.17-14.25a40,40,0,0,0,2-3.83,52.79,52.79,0,0,0,3.63-11.12,46.55,46.55,0,0,0,1.1-8.73,26.41,26.41,0,0,0-3-13.43q-.33-.6-.72-1.2a34.4,34.4,0,0,0-2.89-9.18,23.84,23.84,0,0,0,4.56-6.44,20.58,20.58,0,0,0,1.94-7.85,24.27,24.27,0,0,0-1.6-9.53,18.5,18.5,0,0,0-2.77-5.06,14.13,14.13,0,0,0-4.05-3.56,13.84,13.84,0,0,0-4.47-1.61,20.27,20.27,0,0,0-5.39-.23c-.44,0-.87.08-1.31.13a42.87,42.87,0,0,0-.27-5.88,32.73,32.73,0,0,0-1-5,27.42,27.42,0,0,0-1.81-4.71,21.4,21.4,0,0,0-5.23-6.78,21.1,21.1,0,0,0-7.28-4,23.57,23.57,0,0,0-7.46-1.13l-.95,0m13.72,29.41a35.34,35.34,0,0,0,.76-8.57,20.82,20.82,0,0,0-1.75-7.6,15.66,15.66,0,0,0-4.39-5.76,18.54,18.54,0,0,0-6.95-3.6,23.88,23.88,0,0,1,2.53.17,21.4,21.4,0,0,1,4.54,1.2,20.45,20.45,0,0,1,3.63,2,19.88,19.88,0,0,1,3.16,3.06,21.91,21.91,0,0,1,2.53,4.24,29.69,29.69,0,0,1,1.85,6.69,42.3,42.3,0,0,1,.29,7,58.2,58.2,0,0,0-5.71,1.79c-.23.07-.46.16-.68.24.06-.31.13-.61.19-.91m-14.78-22.1a15.2,15.2,0,0,1,2.95.82,19.21,19.21,0,0,1,3.34,1.88,15.16,15.16,0,0,1,2.27,2.19,15.39,15.39,0,0,1,1.67,2.82,18.12,18.12,0,0,1,1.16,4.39,29.9,29.9,0,0,1-.09,6.55,45.42,45.42,0,0,1-1.32,6.21h0c-1.3.53-2.58,1.06-3.83,1.67l-.87.43A125,125,0,0,0,375,156.31a109.3,109.3,0,0,0-12.84-2.86,67.48,67.48,0,0,1,6.71-10.74,1.83,1.83,0,0,1-.13.16l.17-.19.15-.2-.07.09a33.33,33.33,0,0,1,5.47-5.41,18.56,18.56,0,0,1,3.54-2,14.61,14.61,0,0,1,2.93-.81,13.29,13.29,0,0,1,2.89,0m-.44-.06.26,0-.26,0m3.11.76.24.1-.24-.1m-8.34.06-.08,0,.08,0m-7.71.29A37.8,37.8,0,0,0,365,141.4,67.38,67.38,0,0,0,358,152.88c-1.62-.18-3.25-.32-4.87-.42,1.4-2,2.83-3.89,4.32-5.78a52.14,52.14,0,0,1,8.86-8.64l-.14.1.23-.17.18-.13-.16.12a44.24,44.24,0,0,1,4-2.62m21.84,3.7.09.12-.09-.12m.11.15.21.24a2.41,2.41,0,0,1-.21-.24m10.19,2.18.06.16-.06-.16M395.2,146c0,.05,0,.1,0,.15s0-.1,0-.15m9.38,2.47a2.17,2.17,0,0,0,0,.25,2.17,2.17,0,0,1,0-.25m-9.45,4.73,0,.25,0-.25m-50.62,3.17a10.36,10.36,0,0,0-1.48,1.16c-.67-.29-1.36-.56-2-.83l.38-.05h-.09c1.08-.13,2.16-.22,3.24-.29m-2.71.22-.28,0,.28,0m34.34,9.69a61.59,61.59,0,0,0-13.64-8.81,115.92,115.92,0,0,1,22.3,6.26c-2,1.22-4,2.49-5.95,3.79l-.71.47c-.66-.58-1.32-1.15-2-1.71m-50-8.68a35.87,35.87,0,0,0-6.28,5.09,23.44,23.44,0,0,0-5.58,8.3c0-.52.1-1,.17-1.56,0,.17,0,.34-.06.52a21.68,21.68,0,0,1,1.41-5.41,14.85,14.85,0,0,1,1.71-2.89,11.92,11.92,0,0,1,1.94-1.88,12.21,12.21,0,0,1,2.11-1.2,15.71,15.71,0,0,1,3.23-.86c.45-.05.9-.08,1.35-.11m-.95,0-.18,0,.18,0m88.72.63a14.94,14.94,0,0,1,3,.76A12.85,12.85,0,0,1,419,160.2a13.38,13.38,0,0,1,1.79,1.74,18,18,0,0,1,2,3.42l-.07-.18a25.4,25.4,0,0,1,1.57,5.56,22.2,22.2,0,0,1,.08,4.89,18.73,18.73,0,0,1-1.31,4.62,22.16,22.16,0,0,1-2.38,3.92l.1-.12-.17.2-.14.19a.38.38,0,0,1,.08-.11l-.53.61a43.25,43.25,0,0,0-4.74-6.58,46.2,46.2,0,0,0-7.41-6.61c-.59-.43-1.17-.86-1.77-1.27a53.43,53.43,0,0,0,2.23-9.41c.12-.87.23-1.74.32-2.62l.47-.07a22,22,0,0,1,4.8-.12m-80.36.15a53.93,53.93,0,0,1,7.06,2.31l-.2-.09.32.14.12,0h0l-.13,0a18.8,18.8,0,0,0-1,2.65,18.05,18.05,0,0,0-.65,3.7q-1.78,3.16-3.44,6.39a129.22,129.22,0,0,0-7.84,18.58l-1.18-.85.26.2a36.65,36.65,0,0,1-6-5.64l.1.13-.12-.15-.1-.12a.39.39,0,0,1,.08.1,22.9,22.9,0,0,1-2.49-4,2.18,2.18,0,0,1,.11.27c0-.11-.09-.22-.14-.33l-.06-.14a.61.61,0,0,1,.05.12,16.71,16.71,0,0,1-1-3.61,14.63,14.63,0,0,1,0-3.24,15.94,15.94,0,0,1,1-3.31,22.26,22.26,0,0,1,2.69-4.27,37.37,37.37,0,0,1,5.48-5.18l-.16.11.25-.18a1,1,0,0,1,.16-.12l-.1.07A29.87,29.87,0,0,1,332,159l-.17.07.26-.11.23-.09-.13.06c.47-.18.93-.35,1.4-.51m19.32.09c.8.11,1.59.27,2.38.46-.55,1.28-1.07,2.58-1.57,3.88q-2.73-1.54-5.54-3l.78-1.22c.34-.08.68-.14,1-.19a15.83,15.83,0,0,1,2.92,0m-3.18,0h0m3.34,0,.3,0-.3,0m51.47.87c-.05.39-.1.78-.14,1.17a.59.59,0,0,1,0-.13,51.8,51.8,0,0,1-1.65,7.36l-.12.4q-2.1-1.29-4.28-2.48c-.68-.37-1.38-.74-2.08-1.1.33-.88.64-1.77.93-2.66a72,72,0,0,1,7.32-2.56m-.07.65c0,.13,0,.26-.05.39,0-.13,0-.26.05-.39m-45.38.14.15.06.3.12-.18-.07a54.59,54.59,0,0,1,11.12,6.48c1.48,1.11,2.93,2.27,4.32,3.49-1.65,1.15-3.3,2.32-4.92,3.51a138,138,0,0,0-12.67-8.85q.9-2.38,1.88-4.73h0Zm-41.62,1.54-.12.14.12-.14m28.34,1.95c.09-.15.19-.31.27-.46,2,1,3.93,2,5.85,3.16.14.07.27.16.41.24-1.15,3.3-2.16,6.66-3,10-.5,1.95-1,3.91-1.29,5.89a40.51,40.51,0,0,1-2.95-5.31,26.71,26.71,0,0,1-1.85-6.41,20.72,20.72,0,0,1-.11-2.61c.88-1.53,1.77-3,2.69-4.54m38.81,4.79c1.54-1,3.12-1.93,4.72-2.84.64.28,1.27.58,1.91.87L391,167a90.12,90.12,0,0,1-4.76,9.21c-1.61-1.92-3.34-3.76-5.14-5.53,1.16-.76,2.32-1.51,3.5-2.25m-63.65-1.1-.09.11Zm73.85.89c2.23,1.16,4.4,2.4,6.51,3.74-.43,1.14-.9,2.27-1.39,3.4,0-.09.08-.18.13-.27A107.33,107.33,0,0,1,393.79,187a63.23,63.23,0,0,0-4.27-6.62l-.63-.85a90.09,90.09,0,0,0,5.9-11.32m-40.55,5.53q.74-2.53,1.59-5.06c3.11,1.94,6.12,4,9.05,6.18l1.69,1.3c-.9.68-1.81,1.37-2.71,2.07-4,3.13-8,6.39-11.68,9.87l-.71-.85c0-.93.13-1.86.26-2.78,0,.18-.05.34-.07.51a76.23,76.23,0,0,1,2.58-11.24M424.33,171c0,.06,0,.12,0,.19a1.62,1.62,0,0,1,0-.19M377.74,173a81,81,0,0,1,6.3,6.81c-.86,1.33-1.76,2.63-2.67,3.91-2.7-2.55-5.49-5-8.37-7.38,1.56-1.13,3.14-2.25,4.74-3.34m-38,1.28a33.63,33.63,0,0,0,2.41,6.25,47.42,47.42,0,0,0,5.22,8c0,1.12,0,2.24.07,3.36l.06,1c-.89,1-1.74,2-2.56,3a24.49,24.49,0,0,0-2.42,3.67c-1-.35-2.05-.74-3.05-1.14l0,0-.11-.05-.37-.15.2.08a64.75,64.75,0,0,1-7.95-4,109.26,109.26,0,0,1,4.19-11.2,1,1,0,0,0-.07.15q2-4.59,4.34-9m61.06,8.39c1.42-2.73,2.72-5.52,3.86-8.37l.85.61a44.83,44.83,0,0,1,7.83,7.36,43.79,43.79,0,0,1,3.69,5.58c-.51.44-1,.86-1.57,1.27l-.75.53a36.64,36.64,0,0,0-10.19-2.49,45.29,45.29,0,0,0-6.05-.26q1.22-2.09,2.33-4.23m-35.9-7.7a3.15,3.15,0,0,0,.29.22l-.29-.22m59.41.87s0,.1,0,.14,0-.1,0-.14m-79.47,1.05a3,3,0,0,1,.17.37c-.05-.12-.11-.25-.17-.37m25.46,1.39-.35.26.32-.24,0,0m-53,.06a.51.51,0,0,1,0,.13c0-.05,0-.09,0-.13M358,188.19c3.76-3.33,7.7-6.46,11.73-9.48q4.78,3.91,9.24,8.18c-.2.26-.41.52-.61.79q-1.59,1.95-3.27,3.83a79,79,0,0,0-13.37,6.32c-2.41-2.15-4.73-4.39-6.92-6.74q1.57-1.47,3.2-2.9m27.92-4.07.67-1c1.06,1.49,2.05,3,3,4.56-1.16.19-2.32.4-3.47.64-.61-.62-1.23-1.25-1.85-1.86.57-.78,1.13-1.57,1.68-2.36m-70.55.4a27.7,27.7,0,0,0,5.29,6.78,40.59,40.59,0,0,0,6,4.74,62.88,62.88,0,0,0-2.12,12q-2.26-4-4.13-8.2l0,.06a81.2,81.2,0,0,1-5.05-15.38m100.13,4.56h0Zm0,0-.19.15a1.25,1.25,0,0,1,.19-.15m-10.14,2c-.18,0-.37,0-.54-.06a36.25,36.25,0,0,1,5.68,1.18,61.67,61.67,0,0,1-5.93,2.8c-2.13.86-4.3,1.62-6.49,2.3a2.85,2.85,0,0,1-.11-.39,41.43,41.43,0,0,0-2.1-5.7l.24-.37a50.17,50.17,0,0,1,9.25.24m-14.33.29-.85,1.26-.9-1,1.75-.29m27.84.05.22.55-.49-.33.27-.22m-34.14,1.21q1.57,1.64,3.11,3.32-1.71,2.35-3.51,4.63c-2.19.39-4.4.72-6.6,1l.53-.07c-2.91.36-5.86.65-8.8.84,1-.81,2-1.65,2.92-2.51,1.79-1.61,3.48-3.31,5.1-5.08,2.38-.83,4.8-1.55,7.25-2.14m27.81.26.18.08.07,0-.25-.11m-20.21.15,0,.08a0,0,0,0,0,0,0s0-.07-.05-.1m-40.34.8q1.56,1.68,3.23,3.28c1,1,2,1.93,3.06,2.87-1.12.75-2.2,1.54-3.25,2.37-.63-.06-1.26-.12-1.88-.2-.5-2-.9-4-1.21-6v0c-.09-.7-.18-1.4-.25-2.1l.3-.31m63.06.25a23,23,0,0,1,2.31,1.45,20.61,20.61,0,0,1,3.26,3.14l.41.57a25.69,25.69,0,0,1,0,5.68,1.5,1.5,0,0,1,0-.24c0,.1,0,.21,0,.31l0,.2s0-.09,0-.13a25.09,25.09,0,0,1-1.55,5.34,29,29,0,0,1-3.55,5.82l.05-.06-.07.08-.24.31.2-.27a39.12,39.12,0,0,1-3.95,4.09c-4-5.91-8.22-11.68-12.71-17.27-.06-.66-.14-1.33-.25-2a68,68,0,0,0,16.15-7m-10.15.78-.14.06.14-.06m-11.7.37c.16.42.31.85.44,1.27l-.73-.84c.1-.14.2-.28.29-.43m-41.33.5c0,.09,0,.19,0,.28,0-.09,0-.19,0-.28m22.12.33-.31.12.16-.06.15-.06m-25.29,1.43-.2.23,0,0c.05-.07.11-.13.17-.2m-.52.65c.18,1.07.39,2.14.63,3.2-.79-.19-1.59-.39-2.38-.61a25,25,0,0,1,1.75-2.59m-18,.07.12.07a66.86,66.86,0,0,0,11,4.9,6.2,6.2,0,0,0,.15,2.27,5.49,5.49,0,0,0,3,3.38,11.14,11.14,0,0,0,3,.89,28.23,28.23,0,0,0-5.12,9.43,19.88,19.88,0,0,0-.81,6.85,18.84,18.84,0,0,0,.27,2.23c-1.81-1.43-3.57-2.92-5.24-4.49a57.84,57.84,0,0,1-5.27-5.69l.06.08c-.06-.08-.13-.16-.19-.25l-.12-.15,0,.05c-.86-1.1-1.69-2.23-2.49-3.37a42.23,42.23,0,0,1,.33-9.66h0c.34-2.2.79-4.39,1.33-6.55m60.32.76.26.29-.57.13.31-.42m-23.68.42c-.56.46-1.13.9-1.71,1.34h0l-.28-.23q1-.57,2-1.11m17.2,1.52,0,0-.18.23c.06-.09.13-.17.2-.26m-30.91,1.24.48.07-.48-.06Zm40.47.42c.53.63,1.06,1.26,1.58,1.9a25.44,25.44,0,0,1-.18,4.27,22.11,22.11,0,0,1-1.31,4.66,31.07,31.07,0,0,1-3.19,5.33q-5.43-3.37-10.69-7c2.1-2.22,4.13-4.52,6.08-6.87l.64-.78q3.56-.67,7.07-1.54m-48.33,1.86h0m0,0h0s0,.06,0,.09,0,0,0-.09m0,0c1.52.42,3.05.78,4.59,1.07l.16.55q-.79,0-1.59-.12a11.13,11.13,0,0,1-2-.49,5.16,5.16,0,0,1-.7-.37c-.11-.1-.21-.19-.31-.3l-.15-.23Zm-16.48.54a2.51,2.51,0,0,0,0,.27,2.51,2.51,0,0,1,0-.27m48.22.53c1.17-.14,2.32-.29,3.48-.45q-2,2.24-4,4.38-1.91-1.35-3.8-2.76l.26.21-1.13-.85c1.74-.15,3.48-.33,5.21-.53M346,205.24l.11.09-.11-.09m.24.15.17.07-.17-.07m2.54.64.13,0-.13,0m17.2.43q3.79,3,7.73,5.78l.1.07a101.35,101.35,0,0,1-10,8.6l-1.31.94v0a49.61,49.61,0,0,1-6.16-10.42,2.56,2.56,0,0,1,.11.24c-.28-.66-.55-1.32-.82-2a18.55,18.55,0,0,0,2.54-.65,27.92,27.92,0,0,0,5.41-2.49c.8,0,1.61,0,2.41-.06m54.52,10.26a27.51,27.51,0,0,0,3.94-8.45,36.08,36.08,0,0,1-.2,8.81.11.11,0,0,0,0-.05,53.9,53.9,0,0,1-3.8,13.35l.19-.45c-.34.77-.72,1.54-1.11,2.29q-2.64-4.29-5.41-8.51a39.15,39.15,0,0,0,6.38-7m-25.36-8.38a1.52,1.52,0,0,0,0,.21,1.52,1.52,0,0,1,0-.21m1.07,9.07a23.3,23.3,0,0,0,1.84-4,21.5,21.5,0,0,0,1-4.1q5.11,6.66,9.78,13.61a58.35,58.35,0,0,1-5.38,3.44q-4.78-2.7-9.49-5.53a40.41,40.41,0,0,0,2.26-3.42m-44.41-6.61c.42,1.07.87,2.14,1.34,3.19a48.6,48.6,0,0,0,5.55,9.4l.52.66a57.75,57.75,0,0,1-8.87,4.6l.47-.18a40.58,40.58,0,0,1-4.4,1.48,18.07,18.07,0,0,1-.76-3.17,19.35,19.35,0,0,1,0-3.88,21.48,21.48,0,0,1,1.46-5.09,29.3,29.3,0,0,1,3.46-5.58c.39-.49.8-1,1.22-1.43m41.93,2.7-.15.36.15-.36m-27.21,10.25A103.37,103.37,0,0,0,377,214.63q5.41,3.75,11,7.22a33.53,33.53,0,0,1-4.64,4.43,21.55,21.55,0,0,1-3.79,2.18,16.29,16.29,0,0,1-3.21.83,14.35,14.35,0,0,1-2.78,0,16.42,16.42,0,0,1-3.07-.84,19.84,19.84,0,0,1-3.43-2q-1-.81-2-1.71c.45-.32.89-.65,1.33-1m57.8-7.18a2.07,2.07,0,0,1,0,.22c0-.07,0-.15,0-.22m-77.14,1.09-.06.13.06-.13m-.06.15-.14.3c0-.1.09-.2.14-.3m42,2.9-.07.09.07-.09m-43.38,1.8a.77.77,0,0,0,0,.15.77.77,0,0,1,0-.15m37.51,8.57a25,25,0,0,0,4.4-3.09,32.44,32.44,0,0,0,3.91-4q3.86,2.33,7.77,4.57c-1.38.66-2.76,1.28-4.18,1.86l.32-.14a94.61,94.61,0,0,1-22.63,5.88l.54-.07a80.25,80.25,0,0,1-19.71.25q-2.43-1.44-4.8-3a53.53,53.53,0,0,0,13-6.3,28.29,28.29,0,0,0,3.95,3.26,20.1,20.1,0,0,0,3.9,2,15.74,15.74,0,0,0,4.46,1c.36,0,.73.05,1.09.05a17.36,17.36,0,0,0,7.95-2.17m-51.64-6.73c1.18,1.24,2.41,2.44,3.7,3.57q3.16,2.79,6.58,5.3a28.78,28.78,0,0,1-4.85-2.79,23.86,23.86,0,0,1-3.77-3.61,1.34,1.34,0,0,1,.11.14l-.13-.17-.09-.11.07.09a22.68,22.68,0,0,1-1.62-2.42m79.41,1.85c2.14,3.25,4.21,6.56,6.24,9.89-.41.6-.85,1.2-1.3,1.78l0,0,0,0c-.05.07-.11.14-.16.22a1.33,1.33,0,0,1,.14-.19,30.83,30.83,0,0,1-5,4.83,30,30,0,0,1-5.78,3.28,35.2,35.2,0,0,1-8.46,2.17A49.9,49.9,0,0,1,385,248l.53.06a77.51,77.51,0,0,1-18.8-5.2h0q-2.48-1-4.89-2.18A91.77,91.77,0,0,0,383.74,238a85.44,85.44,0,0,0,19.74-7.25,2,2,0,0,0,2.1-.93,2.75,2.75,0,0,0,.14-.3,55.77,55.77,0,0,0,5.22-3.35m-27.53.1-.14.11.14-.11m-37.79.7a.59.59,0,0,1,0,.14s0-.1,0-.14m25,1.45.26.11-.26-.11m8.95,0-.23.11.23-.11m-2.71.77-.18,0,.18,0m20.26,18.89-.19,0,.19,0m18.73-10.23,0,0,0,0m-82.69-11.11,0,0,0,0,0,0m-2-8.88.13.17c-.06-.09-.14-.18-.21-.27l.08.1m84.67-1.6,0,0,0,0-.06.06m-43.07-9.57-.14-.09.14.09M421,205.09a.17.17,0,0,1,0-.07V205a.68.68,0,0,0,0,.14m-81.53-6.71.07,0-.24-.09.17.07m-18.51-12.6,0,0,0,0,0,0m99.62-1.45.06-.08a.27.27,0,0,0,.07-.08,1.83,1.83,0,0,0-.13.16m-85-1.19.13-.3Zm-17.12-1.47,0,.06a.59.59,0,0,0,0-.08v0m8.24-19.7-.09.07.15-.12-.06.05m14.11-1.2h0l-.12-.05.12.05m18.59-.48-.12,0-.11,0,.23.09M332.06,159l-.09,0,.19-.07-.1,0M369,142.68l0,0,.12-.14a.44.44,0,0,0-.08.11M366.42,138l-.09.07.11-.08h0"/></svg>