<svg xmlns="http://www.w3.org/2000/svg" xmlns:xlink="http://www.w3.org/1999/xlink" viewBox="0 0 466 388"><defs><style>.cls-1{fill:none;}.cls-2{isolation:isolate;}.cls-18,.cls-3{opacity:0.5;}.cls-4{fill:#f2e199;}.cls-5{fill:#1a201d;}.cls-6{fill:#e2bea6;}.cls-7{fill:#f4d8c0;}.cls-8{clip-path:url(#clip-path);}.cls-9{fill:#f7a73c;}.cls-10{fill:#1a1436;}.cls-11{fill:#fff3e4;}.cls-12{fill:#c14a3e;}.cls-13{fill:#93312a;}.cls-14{fill:#2f241c;}.cls-15{fill:#fc802a;}.cls-16{fill:#c84d2a;}.cls-17{fill:#605847;}.cls-18,.cls-19{mix-blend-mode:screen;}.cls-19{opacity:0.4;}.cls-20{fill:#f4501e;}.cls-21{fill:#0d0530;}.cls-22{fill:#150749;}.cls-23{fill:#00a09d;}.cls-24{fill:#254529;}.cls-25{fill:#6a3bc4;}.cls-26{fill:#402718;}</style><clipPath id="clip-path"><polygon class="cls-1" points="120.82 326.29 70.38 16.32 212.62 16.32 263.06 326.29 120.82 326.29"/></clipPath></defs><g class="cls-2"><g id="Capa_1" data-name="Capa 1"><g class="cls-3"><path class="cls-4" d="M204.57,130.64c-51.83-.9-144.92-30.66-169.51,50-20.26,66.45,47.5,120.78,130.86,96.73,45.05-13,52.51-48.14,94.81-36.42s87.08,46.92,143.18,20.8c66.79-31.09,55.28-143.1,36.68-176.8,0,0-40-83.27-119.62-40.56C259.9,77.13,294.59,132.19,204.57,130.64Z"/></g><path class="cls-4" d="M421,344.45c-25.3,1.29-67.62,2.12-105.14,1.55-31.86-.49,2.35,32.7-36.26,33.73-30.58.81-147.64.76-151.29-13.84-2.46-9.89,34.91-16.63,59.29-19.95-7.47.14-15.12.21-22.91.21-84.26,0-152.58-8.54-152.58-19.07S80.46,308,164.72,308c45.36,0,86.08,2.47,114,6.4,63-3.65,101.62.15,139.4.87C463.05,316.13,460,342.48,421,344.45Z"/><path class="cls-5" d="M122.63,324.38H66.75a2.87,2.87,0,0,1-2-.83,2.53,2.53,0,0,1-.74-2L81.38,106.2a2.73,2.73,0,0,1,3-2.4,2.66,2.66,0,0,1,2.56,2.79L69.75,319.18h52.88a2.61,2.61,0,1,1,0,5.2Z"/><polygon class="cls-5" points="57.71 6.14 221.98 6.14 275.73 336.46 111.46 336.46 57.71 6.14"/><polygon class="cls-6" points="116.7 330.77 64.8 11.84 216.74 11.84 268.64 330.77 116.7 330.77"/><polygon class="cls-7" points="120.82 326.29 70.38 16.32 212.62 16.32 263.06 326.29 120.82 326.29"/><g class="cls-8"><path class="cls-9" d="M258.18,226.12a17.53,17.53,0,0,1-9.25-2.35c-21.29-12.41-48.61-34.31-65-52.09a14.87,14.87,0,0,1,1.77-22,17.46,17.46,0,0,1,23.48,1.65c14,15.18,42.46,37,58.5,52.34,6.42,6.15,4.94,11.68,4.15,15.07C270.63,224.09,263.58,226,258.18,226.12Z"/><path class="cls-9" d="M131.69,127.08s-26.71-3-36.12,67c-6.74,50.09-26.2,140.51,44.64,133.58s86.06-110.7,86.06-110.7-13-42.52-14.47-57.63-20.79-20-20.79-20Z"/><path class="cls-10" d="M146.14,171.68l.77,18.78S175.6,189.2,195,190l-1.37-17.65S166.4,170.3,146.14,171.68Z"/><path class="cls-10" d="M212.59,188.74h-.12a1,1,0,0,1-.88-1c1.21-11-2.53-27.68-2.56-27.84a.91.91,0,0,1,.75-1.09,1,1,0,0,1,1.16.71c.16.69,3.84,17.15,2.6,28.41A1,1,0,0,1,212.59,188.74Z"/><path class="cls-11" d="M136.55,265.18a1,1,0,0,1-.91-.51c-.09-.18-2.28-4.49-2.09-12.66.18-7.44,2.46-19.68,12.35-35.75,9.66-15.69,11.22-32.38,10.82-43.61a84.48,84.48,0,0,0-3.21-20.89.91.91,0,0,1,.65-1.15,1,1,0,0,1,1.22.61,84.51,84.51,0,0,1,3.3,21.31c.41,11.48-1.18,28.55-11.08,44.64-18.48,30-10.28,46.53-10.2,46.7a.88.88,0,0,1-.45,1.22A1,1,0,0,1,136.55,265.18Z"/><path class="cls-11" d="M172.67,221.22a1,1,0,0,1-.42-.08.89.89,0,0,1-.5-1.2C186,189.42,179,154,178.93,153.64a.91.91,0,0,1,.77-1.07,1,1,0,0,1,1.15.72,121.86,121.86,0,0,1,1.86,21.92c0,11.78-1.57,29.23-9.17,45.46A1,1,0,0,1,172.67,221.22Z"/><path class="cls-10" d="M111.8,319.75a1,1,0,0,1-.68-.23c-6.56-5.47-11.52-13.37-14.74-23.49A104.91,104.91,0,0,1,92,267.94a170.18,170.18,0,0,1,2.33-33.51,1,1,0,0,1,1.14-.74.92.92,0,0,1,.79,1.06A168.17,168.17,0,0,0,94,267.92c.54,16.35,4.19,38.33,18.46,50.23a.88.88,0,0,1,.08,1.3A1,1,0,0,1,111.8,319.75Z"/><path class="cls-9" d="M191.35,143.4s48.34-69.51.76-80.3c-58.46-13.25-34.26,33.8-65.47,71C118.87,143.32,174.44,152.94,191.35,143.4Z"/><path class="cls-10" d="M184.54,148.69a1.1,1.1,0,0,0,.31,0,14.61,14.61,0,0,0,7.7-6.27.82.82,0,0,0-.38-1.14.93.93,0,0,0-1.22.35h0a12.86,12.86,0,0,1-6.67,5.45.84.84,0,0,0-.57,1.07A.89.89,0,0,0,184.54,148.69Z"/><path class="cls-10" d="M168.65,149.23c8.45.22,15.36-4.72,15.68-4.95a.84.84,0,0,0,.16-1.24,1,1,0,0,0-1.33-.16c-.11.08-8,5.67-16.63,4.39-4.95-.73-9.26-3.55-12.81-8.4a1,1,0,0,0-1.32-.23.85.85,0,0,0-.24,1.23c3.85,5.27,8.59,8.35,14.09,9.16A19.75,19.75,0,0,0,168.65,149.23Z"/><path class="cls-5" d="M161.34,93.84S156.8,81.55,159.46,76s9.87-4.16,9.87-4.16,1.34-4.75,9.39-6.32,26.6,6.72,26.6,6.72,4.51-3.46,8-3.36c6.56.17-1.48,9.53-1.48,9.53s7.71-3.05,7.14-.27c-.46,2.25-7.71,8-6.32,8,0,0,3.57-.14,4.28,3.08S204.32,97,204.32,97l-34.81,16a14.56,14.56,0,0,1-6.35,5.16Z"/><path class="cls-12" d="M156.12,130.74s-2.13,1.92,7.9,7.76a25.89,25.89,0,0,0,16.81,2.65,21.59,21.59,0,0,0,2.65-.76c.67-8.24,3.7-12.87,4.5-14l.19-.25-24.29-21.1Z"/><path class="cls-5" d="M164.62,116.64s1.28,19.47,16.21,24.51a21.59,21.59,0,0,0,2.65-.76c.67-8.24,3.7-12.87,4.5-14Z"/><path class="cls-12" d="M172.76,128.87c11.1,5.27,21.9,3,25.9-6.08,1-2.2,2.1-5.45,3.19-8.86l0-.11c.23-.72.46-1.46.69-2.19.17-.53.33-1.06.49-1.59,1.85-6.11,3.35-11.7,3.35-11.7,2.94-15.62-11.41-25.56-26-23.22s-15.3,22.12-18,31.15S163.24,124.35,172.76,128.87Z"/><path class="cls-13" d="M188.36,120.27a.59.59,0,0,0,.28-.1.51.51,0,0,0,.14-.74,4.79,4.79,0,0,0-4.73-1.46.54.54,0,0,0-.45.63.57.57,0,0,0,.67.42,3.6,3.6,0,0,1,3.57,1A.59.59,0,0,0,188.36,120.27Z"/><path class="cls-14" d="M192.24,118.85a.64.64,0,0,0,.34-.14.51.51,0,0,0,0-.76,12.24,12.24,0,0,0-11.19-3,.52.52,0,0,0-.4.66.59.59,0,0,0,.71.37c5.75-1.52,10,2.62,10.05,2.67A.59.59,0,0,0,192.24,118.85Z"/><path class="cls-13" d="M200.47,113.72c.47.1.93.16,1.38.21l0-.11c.23-.72.46-1.46.69-2.19.17-.53.33-1.06.49-1.59-.51-.16-1.07-.31-1.65-.43-3-.6-5.66-.18-5.92,1S197.46,113.11,200.47,113.72Z"/><path class="cls-13" d="M170.34,103.16c-.26,1.13,2,2.55,5,3.15s5.66.18,5.92-1-2-2.54-5-3.15S170.6,102,170.34,103.16Z"/><path class="cls-5" d="M166,90.29a5.56,5.56,0,0,0,0,.59s2.38,1.64,2.14,6.86l3.55.83s2.62-3.69,3.33-10.7a5.8,5.8,0,0,1,.41-1.6C178,80.39,191,78,198.34,81.54a14.79,14.79,0,0,1,8.43,11.81,24.48,24.48,0,0,1-.68,6A17.93,17.93,0,0,0,206,83.26c-5.35-11-22-15-31.42-8C166.66,81.19,166,88.23,166,90.29Z"/><path class="cls-13" d="M161,89.34c-2.18,3.25,5,1.54,5,1.54s2.38,1.64,2.14,6.86l3.55.83s2.62-3.69,3.33-10.7a5.8,5.8,0,0,1,.41-1.6l-10.51.89A5.25,5.25,0,0,0,161,89.34Z"/><path class="cls-5" d="M182.05,81.19s6.59-.53,9.12,1.31,6.23,4.37,10,3.13,5.39,6,5.39,6-.45-12.18-11-12.58S185.4,77.77,182.05,81.19Z"/><path class="cls-12" d="M168.49,94.52s-1.8-6-8.09-5-8.69,19.94,3,20.51Z"/><path class="cls-5" d="M162.19,110.64a6.12,6.12,0,0,0,5-2.32.54.54,0,0,0-.16-.77.62.62,0,0,0-.81.16,4.91,4.91,0,0,1-4,1.83.58.58,0,0,0-.6.54A.57.57,0,0,0,162.19,110.64Z"/><path class="cls-5" d="M163.17,103h.12a.53.53,0,0,0,.54-.51c0-.24-.08-5.93-5-8.06a.57.57,0,0,0-.73.24.5.5,0,0,0,.26.68c4.25,1.87,4.33,7.09,4.33,7.14A.51.51,0,0,0,163.17,103Z"/><path class="cls-5" d="M158.94,100.14a.65.65,0,0,0,.41-.07s1.33-.78,2.83-1.49a.51.51,0,0,0,.25-.69.57.57,0,0,0-.74-.22c-1.55.73-2.87,1.5-2.92,1.53a.5.5,0,0,0-.18.71A.59.59,0,0,0,158.94,100.14Z"/><path class="cls-9" d="M197.19,69s-13.92-4.3-19.15,2.31-6.43,22.59-6.85,28.16c-2.07,27.23-15.6,37-2.31,43.1a23.52,23.52,0,0,1-21.31-11.75c-7.62-13,7.67-62.12,7.67-62.12S172.85,58.76,197.19,69Z"/><polygon class="cls-12" points="246.59 321.8 251.01 339.45 270.17 339 268.75 318.92 246.59 321.8"/><path class="cls-15" d="M318.23,366.18l-72.48,1.71a8.92,8.92,0,0,1-1.06-3.74c-.61-5.72,1.1-14.92,1.9-20.71.1-.67.18-1.3.25-1.87a21.59,21.59,0,0,0,.15-2.36c-.13-4.71,3-4,3-4,7.51,6.55,16.93-3.77,21.87-.57,0,0,2.12,1.35,8,6.05s15.76,7.67,24.18,10.73c10.86,3.95,14,8.07,14.7,10.95A5,5,0,0,1,318.23,366.18Z"/><path class="cls-16" d="M318.23,366.18l-72.48,1.71a8.92,8.92,0,0,1-1.06-3.74l74-1.75A5,5,0,0,1,318.23,366.18Z"/><path class="cls-16" d="M253.14,367.71l-2.15.05a14.26,14.26,0,0,0,3.6-10.94c-.53-6.68-5-11.1-8-13.38.1-.67.18-1.3.25-1.87,3.28,2.22,8.84,7.12,9.47,15.13A15.69,15.69,0,0,1,253.14,367.71Z"/><path class="cls-11" d="M278.72,344.75a1.19,1.19,0,0,1-1.18-.82,1.12,1.12,0,0,1,.83-1.38l4.5-1.16a1.21,1.21,0,0,1,1.47.78,1.12,1.12,0,0,1-.83,1.38l-4.5,1.16Z"/><path class="cls-11" d="M274.12,341.33a1.2,1.2,0,0,1-1.18-.82,1.12,1.12,0,0,1,.84-1.38l4.5-1.15a1.2,1.2,0,0,1,1.47.78,1.11,1.11,0,0,1-.84,1.37l-4.5,1.16A1.35,1.35,0,0,1,274.12,341.33Z"/><path class="cls-11" d="M283.31,347.1a1.2,1.2,0,0,1-1.18-.82,1.11,1.11,0,0,1,.84-1.37l4.5-1.16a1.19,1.19,0,0,1,1.46.78,1.1,1.1,0,0,1-.83,1.37l-4.5,1.16A1.45,1.45,0,0,1,283.31,347.1Z"/><path class="cls-11" d="M287.9,349.36a1.2,1.2,0,0,1-1.18-.82,1.12,1.12,0,0,1,.84-1.38l4.5-1.15a1.2,1.2,0,0,1,1.47.78,1.11,1.11,0,0,1-.84,1.37l-4.5,1.16A1.35,1.35,0,0,1,287.9,349.36Z"/><path class="cls-11" d="M292.9,351.43a1.19,1.19,0,0,1-1.18-.82,1.12,1.12,0,0,1,.83-1.38l4.5-1.15a1.19,1.19,0,0,1,1.47.78,1.11,1.11,0,0,1-.83,1.37l-4.5,1.16A1.45,1.45,0,0,1,292.9,351.43Z"/><path class="cls-11" d="M298.3,353.17a1.2,1.2,0,0,1-1.18-.82A1.12,1.12,0,0,1,298,351l4.5-1.15a1.2,1.2,0,0,1,1.47.78,1.11,1.11,0,0,1-.84,1.37l-4.5,1.16A1.35,1.35,0,0,1,298.3,353.17Z"/><polygon class="cls-12" points="327.43 319.05 341.53 331.49 357.25 321.22 344.19 305.21 327.43 319.05"/><path class="cls-15" d="M413.36,319.08l-59.42,38.83a10,10,0,0,1-3.09-2.57c-3.88-4.46-7.89-13-10.64-18.24-.32-.62-.62-1.19-.91-1.7a19.37,19.37,0,0,0-1.26-2c-2.89-3.86.13-4.84.13-4.84,10.13,1.58,11.89-11.88,17.89-11.77,0,0,2.57,0,10.26.92s17.67-1.74,26.49-3.54c11.4-2.31,16.47-.51,18.74,1.55A5.08,5.08,0,0,1,413.36,319.08Z"/><path class="cls-16" d="M413.36,319.08l-59.42,38.83a10,10,0,0,1-3.09-2.57l60.7-39.66A5.08,5.08,0,0,1,413.36,319.08Z"/><path class="cls-16" d="M360,354l-1.76,1.15a14.22,14.22,0,0,0-3.46-11c-4.39-5.3-10.68-6.7-14.57-7-.32-.62-.62-1.19-.91-1.7,4.05.16,11.58,1.39,16.85,7.73A15.75,15.75,0,0,1,360,354Z"/><path class="cls-11" d="M367.76,321.6a1.26,1.26,0,0,1-1.47-.07,1.08,1.08,0,0,1-.11-1.58l3.07-3.29a1.25,1.25,0,0,1,1.68-.1,1.06,1.06,0,0,1,.12,1.57L368,321.42A1.24,1.24,0,0,1,367.76,321.6Z"/><path class="cls-11" d="M361.91,321.12a1.26,1.26,0,0,1-1.47-.07,1.08,1.08,0,0,1-.11-1.58l3.07-3.28a1.24,1.24,0,0,1,1.68-.11,1.06,1.06,0,0,1,.12,1.57l-3.07,3.29A1.24,1.24,0,0,1,361.91,321.12Z"/><path class="cls-11" d="M373,321.19a1.26,1.26,0,0,1-1.47-.07,1.08,1.08,0,0,1-.11-1.58l3.07-3.29a1.25,1.25,0,0,1,1.68-.1,1.06,1.06,0,0,1,.12,1.57L373.2,321A1.24,1.24,0,0,1,373,321.19Z"/><path class="cls-11" d="M378.15,320.71a1.28,1.28,0,0,1-1.47-.08,1.07,1.07,0,0,1-.12-1.58l3.07-3.28a1.25,1.25,0,0,1,1.69-.11,1.08,1.08,0,0,1,.11,1.58l-3.07,3.28A1.9,1.9,0,0,1,378.15,320.71Z"/><path class="cls-11" d="M383.53,319.85a1.26,1.26,0,0,1-1.47-.07,1.08,1.08,0,0,1-.11-1.58l3.07-3.28a1.24,1.24,0,0,1,1.68-.11,1.06,1.06,0,0,1,.12,1.57l-3.07,3.29A1.24,1.24,0,0,1,383.53,319.85Z"/><path class="cls-11" d="M389.07,318.51a1.26,1.26,0,0,1-1.47-.07,1.07,1.07,0,0,1-.12-1.58l3.07-3.28a1.25,1.25,0,0,1,1.69-.11,1.06,1.06,0,0,1,.11,1.57l-3.07,3.29A.91.91,0,0,1,389.07,318.51Z"/><path class="cls-5" d="M180.52,226.51s45-33.41,63.32-28.69,108,109.71,108,109.71L328.56,323s-68.95-44.61-86.6-65.38c-23.86-28.08-20.68-28.05-20.68-28.05L160,269.25Z"/><path class="cls-5" d="M111.86,321.85c17.17-45,51.37-111.26,81.36-128.34,27.45-15.64,47.68,1.58,52.92,18S274.5,324.61,274.5,324.61l-30.29,3.74c-11.24-33.89-34.86-57.63-25.36-73,0,0-13,69.93-47.49,80.83S111.86,321.85,111.86,321.85Z"/><path class="cls-17" d="M116.5,316.3a.86.86,0,0,1-.9-.75.84.84,0,0,1,.79-.91c7.12-.68,12.1-3.22,14.8-7.56,6.22-10-1.35-26.35-1.43-26.51a.82.82,0,0,1,.46-1.1.93.93,0,0,1,1.18.43,50,50,0,0,1,3.19,9.88c1.56,7.41.91,13.69-1.86,18.14-3,4.82-8.44,7.64-16.16,8.38Z"/><path class="cls-17" d="M156.06,334.42c-8.85.23-17.71-2.52-24.34-5.32a97.63,97.63,0,0,1-17-9.29.66.66,0,0,1-.13-1,.78.78,0,0,1,1-.13,95.57,95.57,0,0,0,16.75,9.14c8.83,3.72,21.7,7.37,32.91,3.64,12.18-4.05,25.62-21.71,38.86-51.06a405.6,405.6,0,0,0,16.56-43.83.74.74,0,0,1,.82-.5.71.71,0,0,1,.63.71c0,.26-.59,26.25,8.1,44.54C239,299.8,247.05,319.8,247.13,320a.68.68,0,0,1-.44.89.74.74,0,0,1-.95-.4c-.08-.2-8.1-20.16-16.86-38.58-6.59-13.87-7.92-32.05-8.18-40.48A407.21,407.21,0,0,1,205.5,281c-5.93,13.15-11.94,24.05-17.85,32.42-7.46,10.53-14.82,17.07-21.88,19.42A33.26,33.26,0,0,1,156.06,334.42Z"/><path class="cls-17" d="M242.32,321.63a.73.73,0,0,1-.76-.61.7.7,0,0,1,.65-.77L272,317a.73.73,0,0,1,.82.6.7.7,0,0,1-.65.77l-29.8,3.31Z"/><path class="cls-9" d="M114.91,242c-10.55.27-18.4-1.54-24.27-5.53A21.89,21.89,0,0,1,80.86,216c2.23-26.53,28.33-73,31.3-78.22,4.12-7.23,13.72-10,21.46-6.12s10.66,12.83,6.54,20.06h0c-8.86,15.57-22.71,43.72-26.66,60.63,6.27-.1,19.29-1.63,44.41-9,21.79-6.41,41.18-13.89,41.37-14,8.1-3.13,17.37.46,20.73,8s-.49,16.23-8.58,19.37c-.92.35-22.77,8.79-47.29,15.81-14.76,4.23-27.47,7.06-37.79,8.43A108.16,108.16,0,0,1,114.91,242Z"/><path class="cls-10" d="M123.77,207.49h-.06a1,1,0,0,1-.76-.32.89.89,0,0,1-.22-.76c3.7-20,19.9-46.79,20.06-47.06a1,1,0,0,1,1.34-.35.88.88,0,0,1,.36,1.25c-.15.26-15.59,25.83-19.62,45.37,4.16-.15,18.6-.79,35.88-3.1a142.54,142.54,0,0,0,36.71-9.83,1,1,0,0,1,1.31.41.9.9,0,0,1-.44,1.23,144.64,144.64,0,0,1-37.3,10C141.06,207,124.85,207.47,123.77,207.49Z"/><path class="cls-10" d="M138.17,170.55a1,1,0,0,1-.87-.44.9.9,0,0,1,.34-1.26c4-2.24,7.14-3.72,7.18-3.73a1,1,0,0,1,1.31.4.89.89,0,0,1-.43,1.23s-3.08,1.46-7.06,3.68A1,1,0,0,1,138.17,170.55Z"/><path class="cls-10" d="M109.83,218a1,1,0,0,1-.58-.15.89.89,0,0,1-.26-1.28c3-4.13,8.13-7.46,11.36-9.29a27.64,27.64,0,0,0-7.7,1.55,1,1,0,0,1-1.28-.49.91.91,0,0,1,.53-1.2c.26-.1,6.46-2.46,12-1.45a.94.94,0,0,1,.78.78.89.89,0,0,1-.53.94c-.1,0-9.32,4.37-13.52,10.19A1,1,0,0,1,109.83,218Z"/><path class="cls-10" d="M114.33,241.45c-20.31.52-24.66-4.95-24.9-5.29a.87.87,0,0,1,.25-1.27,1,1,0,0,1,1.35.23c.14.17,9.35,10.71,61.91-1a1,1,0,0,1,1.17.68.9.9,0,0,1-.72,1.1C136.27,239.71,123.63,241.21,114.33,241.45Z"/><path class="cls-13" d="M201.58,195s2.94-10.77,5.26-12.62,10.87-1.55,10.87-1.55Z"/><path class="cls-12" d="M200.58,196.72c5.47-10.09,13.33-18.11,22.82-17.67,1.17,0,4.17-.76,6.17.33,1.38.75,1.62,3.19,3.13,4.26,1.25.9,3.87.53,5.07,1.56,1.45,1.23,1.45,3.87,2.6,5.16.84.95,2.87,1.18,3.45,2.09,1.13,1.75.38,4.08,0,5.37-1.63,5.84-31.72,17.22-31.72,17.22C203.57,209.4,199.69,203.3,200.58,196.72Z"/><path class="cls-12" d="M277.36,217.33c-4.1-6.11-8-11.58-14.94-14.69-1.56-.7-3.24-1.43-4.94-2.15-5.16-2.17-8.75-.24-8.75-.24,2.68,2.63,4.61,3.47,8.6,6.59,0,0-.63-.35-2.46,2.14s-9.12,12.56-7.47,14.34c3.77,4.09,11.71-6.63,11.71-6.63s-8.62,11.35-5.54,13.83c2.48,2,12.45-6.19,12.45-6.19s-9.11,8.38-4.82,10.47c4.55,2.21,10.95-7.54,10.95-7.54s-3.3,8.29-1.51,8.92c2.57.89,6.7-1.93,11.19-8.58C283.75,224.77,280,221.24,277.36,217.33Z"/></g><g class="cls-18"><polygon class="cls-7" points="263.06 326.29 120.82 326.29 113.03 278.42 109.4 256.14 99.48 195.16 93.07 155.75 82.37 90.06 78.75 67.78 70.38 16.32 212.62 16.32 216.53 40.35 222.94 79.75 222.94 79.75 232.87 140.74 236.49 163.01 249.39 242.25 253.01 264.53 263.06 326.29"/></g><g class="cls-19"><polygon class="cls-11" points="160.19 16.32 81.31 90.06 77.68 67.78 132.73 16.32 160.19 16.32"/></g><g class="cls-19"><polygon class="cls-11" points="235.42 163.01 111.96 278.42 108.33 256.14 231.8 140.74 235.42 163.01"/></g><g class="cls-19"><polygon class="cls-11" points="251.94 264.53 185.9 326.29 158.44 326.29 248.32 242.25 251.94 264.53"/></g><g class="cls-19"><polygon class="cls-11" points="221.87 78.75 221.87 78.75 98.41 194.16 92 154.75 215.46 39.35 221.87 78.75"/></g><path class="cls-4" d="M26.81,104.33l.12-26.64H14.67a1,1,0,0,0-.78.37.92.92,0,0,0-.17.51l-.1,24.88a.78.78,0,0,0,.11.42l0,.07.12.13a1,1,0,0,0,.67.26Z"/><path class="cls-4" d="M59.15,100.6l-.12-.36A4,4,0,0,0,58.24,99L58,98.79A5.27,5.27,0,0,0,57,98a3,3,0,0,0,1.15-2.66l0-.23a2.23,2.23,0,0,0,0-.23L58,94.66h0a2.58,2.58,0,0,0-.08-.26,6.83,6.83,0,0,0-.27-.68A3.17,3.17,0,0,0,57,92.8a5,5,0,0,0-1.74-1A4.33,4.33,0,0,0,57,87.85a7.09,7.09,0,0,0-.17-.93,2.73,2.73,0,0,0-.49-1l-.06-.08L56,85.6a4.84,4.84,0,0,0-1.45-.88l.22-.12.15-.1a3.28,3.28,0,0,0,.43-.33l.13-.13h0l.19-.21.11-.16a1,1,0,0,0,.1-.17,2.55,2.55,0,0,0,.3-1.51,3.56,3.56,0,0,0-.06-.44c0-.16-.08-.32-.13-.49l-.09-.24a.54.54,0,0,1,0-.11l-.12-.22a3.81,3.81,0,0,0-.29-.41l-.26-.28-.29-.25-.1-.08-.21-.15c-.15-.1-.31-.19-.47-.28l-.37-.18a7.45,7.45,0,0,0-.93-.36l-.56-.16c-.28-.08-.57-.14-.86-.2l-.28,0L50.23,78l-.27,0-.41,0-.25,0h-.13l-.25,0-.46,0c-1,0-1.6,0-1.6,0L33,77.76h-3.5l-.11,26.66a8.44,8.44,0,0,1,3.51.94,11.85,11.85,0,0,1,1.49.85A33.52,33.52,0,0,1,38.48,110c3.25,3.57,3.36,6.89,3.84,8.64v0c.25.87.58,1.35,1.46,1.26,2.47-.25,6.28-3.9,1.17-15.19.93.07,2.19.15,3.57.2h.38c.78,0,1.6,0,2.41,0,.5,0,1,0,1.48,0a14.79,14.79,0,0,0,4.71-.63,2.77,2.77,0,0,0,.81-.53.6.6,0,0,0,.08-.08l.15-.16a3.8,3.8,0,0,0,.31-.44l.1-.19A3.34,3.34,0,0,0,59.15,100.6Z"/><ellipse class="cls-20" cx="271.81" cy="51.73" rx="29.75" ry="27.81"/><path class="cls-11" d="M281.61,64.62a4.12,4.12,0,0,1-2.82-1.1L259.2,45.21a3.55,3.55,0,0,1,0-5.27,4.2,4.2,0,0,1,5.64,0l19.59,18.31a3.57,3.57,0,0,1,0,5.27A4.12,4.12,0,0,1,281.61,64.62Z"/><path class="cls-11" d="M262,64.62a4.12,4.12,0,0,1-2.82-1.1,3.55,3.55,0,0,1,0-5.27l19.59-18.31a4.2,4.2,0,0,1,5.64,0,3.57,3.57,0,0,1,0,5.27L264.84,63.52A4.12,4.12,0,0,1,262,64.62Z"/><path class="cls-20" d="M297.12,61.42l7.41,17.28a1.7,1.7,0,0,1-2.23,2.17l-19.66-6.55Z"/><path class="cls-9" d="M273.53,226.87a17.55,17.55,0,0,0,9.25-2.35c21.28-12.41,48.6-34.32,65-52.09a14.88,14.88,0,0,0-1.77-22,17.46,17.46,0,0,0-23.48,1.65c-14,15.18-42.46,37-58.51,52.34-6.42,6.15-4.94,11.68-4.14,15.07C261.08,224.84,268.13,226.73,273.53,226.87Z"/><path class="cls-9" d="M400,127.82s26.71-3,36.12,67c6.73,50.09,26.19,140.51-44.64,133.57s-86.07-110.69-86.07-110.69,13-42.52,14.48-57.63,20.79-20,20.79-20Z"/><path class="cls-10" d="M385.57,172.43l-.77,18.78s-28.69-1.26-48.09-.47l1.37-17.65S365.31,171.05,385.57,172.43Z"/><path class="cls-10" d="M319.11,189.49h.13a.92.92,0,0,0,.87-1c-1.2-11,2.53-27.68,2.57-27.85a.91.91,0,0,0-.75-1.08,1,1,0,0,0-1.16.71c-.16.69-3.84,17.15-2.6,28.41A1,1,0,0,0,319.11,189.49Z"/><path class="cls-11" d="M395.16,265.93a1,1,0,0,0,.91-.52c.09-.17,2.28-4.48,2.09-12.65-.18-7.44-2.46-19.68-12.35-35.75-9.66-15.7-11.22-32.38-10.83-43.61a84.44,84.44,0,0,1,3.22-20.9.9.9,0,0,0-.65-1.14,1,1,0,0,0-1.22.61,84,84,0,0,0-3.3,21.31c-.41,11.48,1.18,28.55,11.08,44.64,18.47,30,10.28,46.53,10.2,46.69a.89.89,0,0,0,.45,1.23A.93.93,0,0,0,395.16,265.93Z"/><path class="cls-11" d="M359,222a1,1,0,0,0,.41-.08.88.88,0,0,0,.51-1.2c-14.28-30.53-7.25-65.95-7.18-66.3a.91.91,0,0,0-.78-1.07,1,1,0,0,0-1.14.72A121.86,121.86,0,0,0,349,176c0,11.78,1.57,29.23,9.16,45.46A1,1,0,0,0,359,222Z"/><path class="cls-9" d="M340.35,144.15S292,74.64,339.6,63.85c58.46-13.25,34.25,33.8,65.47,71C412.83,144.07,357.27,153.68,340.35,144.15Z"/><path class="cls-10" d="M347.16,149.44a1,1,0,0,1-.3,0,14.56,14.56,0,0,1-7.7-6.27.82.82,0,0,1,.38-1.14.93.93,0,0,1,1.22.35h0a12.92,12.92,0,0,0,6.66,5.45.84.84,0,0,1,.58,1.07A.9.9,0,0,1,347.16,149.44Z"/><path class="cls-10" d="M363.05,150c-8.44.22-15.35-4.72-15.67-4.95a.85.85,0,0,1-.17-1.24,1,1,0,0,1,1.34-.16c.11.08,8,5.66,16.63,4.39,4.95-.73,9.26-3.56,12.8-8.4a1,1,0,0,1,1.32-.23.84.84,0,0,1,.25,1.23c-3.85,5.27-8.59,8.35-14.09,9.16A19.91,19.91,0,0,1,363.05,150Z"/><path class="cls-5" d="M370.37,94.59s4.53-12.29,1.88-17.85-9.87-4.17-9.87-4.17S361,67.83,353,66.26,326.38,73,326.38,73s-4.5-3.46-8-3.36c-6.56.16,1.48,9.52,1.48,9.52s-7.7-3-7.13-.26c.46,2.25,7.7,8,6.32,8,0,0-3.57-.13-4.29,3.09s12.66,7.79,12.66,7.79l34.81,16a14.49,14.49,0,0,0,6.35,5.16Z"/><path class="cls-12" d="M375.59,131.49s2.13,1.92-7.91,7.76a25.92,25.92,0,0,1-16.8,2.65,24.07,24.07,0,0,1-2.65-.76c-.68-8.24-3.71-12.87-4.5-14-.12-.17-.19-.25-.19-.25l24.28-21.1Z"/><path class="cls-5" d="M367.09,117.39s-1.28,19.47-16.21,24.51a24.07,24.07,0,0,1-2.65-.76c-.68-8.24-3.71-12.87-4.5-14Z"/><path class="cls-12" d="M359,129.62c-11.1,5.27-21.91,3-25.9-6.08-1-2.2-2.1-5.45-3.19-8.86l0-.11-.69-2.19c-.17-.53-.33-1.06-.49-1.59-1.86-6.11-3.36-11.7-3.36-11.7-2.93-15.63,11.42-25.56,26-23.22S366.65,98,369.35,107,368.47,125.1,359,129.62Z"/><path class="cls-13" d="M343.34,121a.56.56,0,0,1-.27-.1.51.51,0,0,1-.14-.74,4.77,4.77,0,0,1,4.73-1.46.54.54,0,0,1,.45.63.57.57,0,0,1-.67.42,3.63,3.63,0,0,0-3.57,1A.59.59,0,0,1,343.34,121Z"/><path class="cls-14" d="M339.47,119.6a.58.58,0,0,1-.34-.14.52.52,0,0,1,0-.76c.2-.19,4.79-4.65,11.2-3a.53.53,0,0,1,.4.66.59.59,0,0,1-.71.37c-5.75-1.52-10,2.62-10.05,2.67A.59.59,0,0,1,339.47,119.6Z"/><path class="cls-13" d="M331.24,114.47q-.71.14-1.38.21l0-.11-.69-2.19c-.17-.53-.33-1.06-.49-1.59a14.5,14.5,0,0,1,1.64-.43c3-.6,5.67-.18,5.93,1S334.25,113.86,331.24,114.47Z"/><path class="cls-13" d="M361.36,103.91c.27,1.13-2,2.54-5,3.15s-5.67.18-5.93-1,2-2.54,5-3.15S361.1,102.78,361.36,103.91Z"/><path class="cls-5" d="M365.73,91a5.56,5.56,0,0,1,0,.59s-2.39,1.64-2.14,6.86l-3.56.83s-2.61-3.69-3.32-10.7a5.48,5.48,0,0,0-.42-1.6c-2.57-5.88-15.52-8.28-22.92-4.74a14.78,14.78,0,0,0-8.42,11.82,23.92,23.92,0,0,0,.68,6A17.93,17.93,0,0,1,325.7,84c5.34-11,22-15,31.42-8C365.05,81.94,365.72,89,365.73,91Z"/><path class="cls-13" d="M370.72,90.09c2.19,3.25-5,1.54-5,1.54s-2.39,1.64-2.14,6.86l-3.56.83s-2.61-3.69-3.32-10.7a5.48,5.48,0,0,0-.42-1.6l10.52.88A5.25,5.25,0,0,1,370.72,90.09Z"/><path class="cls-5" d="M349.66,81.94s-6.6-.53-9.12,1.31-6.23,4.36-10,3.13-5.4,6-5.4,6,.46-12.18,11-12.58S346.31,78.52,349.66,81.94Z"/><path class="cls-12" d="M363.21,95.27s1.81-6,8.1-5,8.69,19.94-3,20.51Z"/><path class="cls-5" d="M369.51,111.39a6.1,6.1,0,0,1-5-2.33.53.53,0,0,1,.17-.76.61.61,0,0,1,.81.16,4.9,4.9,0,0,0,4,1.83.55.55,0,1,1,0,1.1Z"/><path class="cls-5" d="M368.54,103.79h-.12a.53.53,0,0,1-.55-.51c0-.24.09-5.93,5-8.07a.57.57,0,0,1,.73.25.5.5,0,0,1-.26.68C369,98,369,103.24,369,103.29A.52.52,0,0,1,368.54,103.79Z"/><path class="cls-5" d="M372.76,100.88a.56.56,0,0,1-.4-.06s-1.33-.78-2.84-1.49a.5.5,0,0,1-.24-.69.57.57,0,0,1,.74-.22c1.55.73,2.86,1.5,2.92,1.53a.49.49,0,0,1,.17.71A.51.51,0,0,1,372.76,100.88Z"/><path class="cls-9" d="M334.52,69.77s13.91-4.3,19.15,2.31,6.43,22.59,6.85,28.16c2.06,27.23,15.6,37,2.31,43.1a23.52,23.52,0,0,0,21.31-11.75c7.62-13-7.68-62.12-7.68-62.12S358.86,59.51,334.52,69.77Z"/><polygon class="cls-12" points="285.11 322.55 280.7 340.2 261.53 339.75 262.96 319.67 285.11 322.55"/><path class="cls-9" d="M213.48,366.93,286,368.64a9.08,9.08,0,0,0,1.06-3.75c.6-5.72-1.1-14.91-1.91-20.7-.09-.67-.18-1.3-.24-1.88a17.31,17.31,0,0,1-.15-2.36c.13-4.7-3-4-3-4-7.51,6.55-16.93-3.77-21.87-.58,0,0-2.13,1.35-8,6.06s-15.76,7.67-24.18,10.73c-10.87,3.95-14,8.07-14.7,10.95A5,5,0,0,0,213.48,366.93Z"/><path class="cls-16" d="M213.48,366.93,286,368.64a9.08,9.08,0,0,0,1.06-3.75l-74-1.74A5,5,0,0,0,213.48,366.93Z"/><path class="cls-16" d="M278.57,368.46l2.15.05a14.22,14.22,0,0,1-3.6-10.94c.53-6.68,4.94-11.1,8-13.38-.09-.67-.18-1.3-.24-1.88-3.28,2.23-8.84,7.13-9.48,15.14A15.64,15.64,0,0,0,278.57,368.46Z"/><path class="cls-11" d="M253,345.49a1.18,1.18,0,0,0,1.18-.82,1.11,1.11,0,0,0-.83-1.37l-4.5-1.16a1.21,1.21,0,0,0-1.47.78,1.12,1.12,0,0,0,.83,1.38l4.5,1.15A1,1,0,0,0,253,345.49Z"/><path class="cls-11" d="M257.58,342.08a1.18,1.18,0,0,0,1.18-.82,1.11,1.11,0,0,0-.83-1.38l-4.5-1.15a1.2,1.2,0,0,0-1.47.78,1.11,1.11,0,0,0,.84,1.37l4.5,1.16Z"/><path class="cls-11" d="M248.39,347.85a1.21,1.21,0,0,0,1.19-.82,1.12,1.12,0,0,0-.84-1.38l-4.5-1.15a1.2,1.2,0,0,0-1.47.78,1.11,1.11,0,0,0,.84,1.37l4.5,1.16A1.35,1.35,0,0,0,248.39,347.85Z"/><path class="cls-11" d="M243.8,350.11a1.18,1.18,0,0,0,1.18-.82,1.11,1.11,0,0,0-.83-1.38l-4.5-1.15a1.2,1.2,0,0,0-1.47.78,1.11,1.11,0,0,0,.84,1.37l4.5,1.16Z"/><path class="cls-11" d="M238.81,352.18a1.2,1.2,0,0,0,1.18-.82,1.12,1.12,0,0,0-.84-1.38l-4.5-1.15a1.19,1.19,0,0,0-1.46.78A1.1,1.1,0,0,0,234,351l4.5,1.16A1.45,1.45,0,0,0,238.81,352.18Z"/><path class="cls-11" d="M233.4,353.92a1.18,1.18,0,0,0,1.18-.82,1.11,1.11,0,0,0-.83-1.38l-4.5-1.15a1.2,1.2,0,0,0-1.47.78,1.11,1.11,0,0,0,.84,1.37l4.5,1.16Z"/><polygon class="cls-12" points="204.28 319.8 190.17 332.24 174.46 321.97 187.51 305.96 204.28 319.8"/><path class="cls-11" d="M153.56,321.45a1.26,1.26,0,0,0,1.47-.07,1.07,1.07,0,0,0,.12-1.58l-3.07-3.28a1.25,1.25,0,0,0-1.69-.11,1.05,1.05,0,0,0-.11,1.57l3.07,3.29A.91.91,0,0,0,153.56,321.45Z"/><path class="cls-9" d="M118.34,319.83l59.43,38.83a9.9,9.9,0,0,0,3.08-2.57c3.89-4.46,7.9-13,10.65-18.25.31-.61.62-1.18.9-1.69a21,21,0,0,1,1.27-2c2.89-3.86-.13-4.84-.13-4.84-10.13,1.58-11.89-11.88-17.9-11.77,0,0-2.57,0-10.25.91s-17.67-1.74-26.5-3.53c-11.39-2.31-16.47-.51-18.73,1.54A5.16,5.16,0,0,0,118.34,319.83Z"/><path class="cls-16" d="M118.34,319.83l59.43,38.83a9.9,9.9,0,0,0,3.08-2.57l-60.69-39.67A5.16,5.16,0,0,0,118.34,319.83Z"/><path class="cls-16" d="M171.7,354.7l1.77,1.15a14.14,14.14,0,0,1,3.46-11c4.39-5.3,10.68-6.7,14.57-7,.31-.61.62-1.18.9-1.69-4,.16-11.58,1.38-16.84,7.73A15.76,15.76,0,0,0,171.7,354.7Z"/><path class="cls-11" d="M163.94,322.35a1.26,1.26,0,0,0,1.47-.07,1.07,1.07,0,0,0,.12-1.58l-3.07-3.29a1.27,1.27,0,0,0-1.69-.11,1.08,1.08,0,0,0-.11,1.58l3.07,3.29A1.18,1.18,0,0,0,163.94,322.35Z"/><path class="cls-11" d="M169.79,321.87a1.26,1.26,0,0,0,1.47-.07,1.07,1.07,0,0,0,.12-1.58l-3.07-3.29a1.26,1.26,0,0,0-1.69-.1,1.07,1.07,0,0,0-.11,1.57l3.07,3.29A1.18,1.18,0,0,0,169.79,321.87Z"/><path class="cls-11" d="M158.72,321.94a1.26,1.26,0,0,0,1.47-.07,1.07,1.07,0,0,0,.12-1.58L157.24,317a1.26,1.26,0,0,0-1.69-.1,1.07,1.07,0,0,0-.11,1.57l3.07,3.29A1.18,1.18,0,0,0,158.72,321.94Z"/><path class="cls-11" d="M148.17,320.6a1.26,1.26,0,0,0,1.47-.07,1.07,1.07,0,0,0,.12-1.58l-3.07-3.28a1.25,1.25,0,0,0-1.69-.11,1.07,1.07,0,0,0-.11,1.57l3.07,3.29A.91.91,0,0,0,148.17,320.6Z"/><path class="cls-11" d="M142.64,319.26a1.26,1.26,0,0,0,1.47-.07,1.06,1.06,0,0,0,.11-1.58l-3.06-3.28a1.25,1.25,0,0,0-1.69-.11,1.05,1.05,0,0,0-.11,1.57l3.06,3.29A1.24,1.24,0,0,0,142.64,319.26Z"/><path class="cls-21" d="M351.18,227.26s-45-33.42-63.31-28.69-108,109.71-108,109.71l23.27,15.47s68.95-44.61,86.61-65.39c23.85-28.07,20.67-28,20.67-28L371.71,270Z"/><path class="cls-22" d="M419.85,322.6c-17.17-45-51.38-111.27-81.36-128.34-27.45-15.64-47.68,1.58-52.93,18S257.2,325.36,257.2,325.36l30.29,3.74c11.25-33.89,34.86-57.63,25.37-73,0,0,13.05,69.93,47.48,80.83S419.85,322.6,419.85,322.6Z"/><path class="cls-9" d="M441.07,237.19a27.48,27.48,0,0,1-5.33,2.8c-5.08,2-11.3,2.92-18.94,2.73a107.94,107.94,0,0,1-11.44-1c-10.32-1.37-23-4.2-37.8-8.43-24.51-7-46.36-15.46-47.28-15.81-8.09-3.14-11.93-11.81-8.58-19.37s12.63-11.16,20.72-8c.2.08,19.58,7.56,41.38,14,25.12,7.39,38.14,8.92,44.41,9-2-8.46-6.43-19.72-11.49-30.82s-10.74-22-15.18-29.81c-4.11-7.23-1.18-16.21,6.55-20.06s17.34-1.11,21.46,6.12c2.89,5.08,27.72,49.28,31.07,76.09.1.72.17,1.43.23,2.13A21.91,21.91,0,0,1,441.07,237.19Z"/><path class="cls-10" d="M441.07,237.19a27.48,27.48,0,0,1-5.33,2.8c-2.63-14.42,7.42-21.88,14.88-25.36.1.72.17,1.43.23,2.13A21.91,21.91,0,0,1,441.07,237.19Z"/><path class="cls-10" d="M407.94,208.24H408a1,1,0,0,0,.77-.31.89.89,0,0,0,.22-.76c-3.71-20-19.9-46.79-20.06-47.06a1,1,0,0,0-1.34-.35.89.89,0,0,0-.37,1.25c.16.26,15.6,25.83,19.62,45.37-4.16-.15-18.6-.79-35.88-3.1a141.82,141.82,0,0,1-36.7-9.84,1,1,0,0,0-1.31.42.9.9,0,0,0,.44,1.23,144.32,144.32,0,0,0,37.3,10C390.64,207.76,406.85,208.22,407.94,208.24Z"/><path class="cls-10" d="M393.54,171.3a1,1,0,0,0,.87-.44.89.89,0,0,0-.35-1.26c-4-2.24-7.14-3.72-7.17-3.73a1,1,0,0,0-1.31.4.88.88,0,0,0,.43,1.23s3.08,1.46,7.05,3.67A.91.91,0,0,0,393.54,171.3Z"/><path class="cls-10" d="M421.88,218.74a1,1,0,0,0,.57-.16.88.88,0,0,0,.27-1.27c-3-4.14-8.13-7.47-11.37-9.29a27.66,27.66,0,0,1,7.71,1.55,1,1,0,0,0,1.28-.49.91.91,0,0,0-.53-1.2c-.27-.1-6.47-2.46-12-1.45a.94.94,0,0,0-.78.78.89.89,0,0,0,.53.94c.09,0,9.32,4.37,13.51,10.19A1,1,0,0,0,421.88,218.74Z"/><path class="cls-10" d="M417.38,242.19c20.3.52,24.65-4.94,24.9-5.28a.88.88,0,0,0-.25-1.27,1,1,0,0,0-1.35.23c-.15.17-9.36,10.71-61.91-1a1,1,0,0,0-1.18.68.92.92,0,0,0,.73,1.1C395.44,240.46,408.08,242,417.38,242.19Z"/><path class="cls-13" d="M330.13,195.77s-2.94-10.77-5.27-12.63S314,181.6,314,181.6Z"/><path class="cls-12" d="M331.13,197.47c-5.47-10.09-13.33-18.11-22.83-17.67-1.16,0-4.16-.76-6.16.33-1.38.75-1.62,3.19-3.13,4.26-1.26.9-3.87.53-5.07,1.56-1.45,1.23-1.45,3.87-2.6,5.16-.85.95-2.87,1.18-3.45,2.08-1.13,1.76-.39,4.09,0,5.38,1.63,5.84,31.72,17.22,31.72,17.22C328.14,210.15,332,204.05,331.13,197.47Z"/><path class="cls-12" d="M254.34,218.08c4.11-6.11,8-11.58,15-14.69,1.56-.7,3.24-1.44,4.94-2.15,5.15-2.18,8.75-.24,8.75-.24-2.68,2.63-4.62,3.47-8.6,6.59,0,0,.63-.35,2.46,2.14s9.12,12.56,7.47,14.34c-3.77,4.09-11.71-6.63-11.71-6.63s8.61,11.35,5.54,13.83c-2.48,2-12.45-6.19-12.45-6.19s9.11,8.38,4.82,10.46C266,237.76,259.56,228,259.56,228s3.3,8.29,1.51,8.91c-2.58.9-6.7-1.92-11.2-8.57C248,225.52,251.71,222,254.34,218.08Z"/><ellipse class="cls-4" cx="73.5" cy="370.91" rx="47" ry="5.82"/><path class="cls-23" d="M52.53,307.72s-35.2-6.51-45-29.46,26.1-40.18,45-27.85C72.78,263.6,52.53,307.72,52.53,307.72Z"/><path class="cls-24" d="M73.46,368a.64.64,0,0,1-.63-.51c-3.37-21.32-17-52-27.77-74-11.72-23.84-22.79-42.86-22.9-43.05a.59.59,0,0,1,.26-.81.65.65,0,0,1,.86.24c.11.19,11.2,19.25,22.93,43.12,10.85,22,24.49,52.84,27.88,74.3a.61.61,0,0,1-.54.68Z"/><path class="cls-24" d="M51.21,305.49a.63.63,0,0,1-.56-.31c-15.32-26.66-40.18-46-40.43-46.19a.57.57,0,0,1-.08-.84.66.66,0,0,1,.89-.08c.25.2,25.31,19.68,40.74,46.55a.57.57,0,0,1-.26.8A.66.66,0,0,1,51.21,305.49Z"/><path class="cls-24" d="M51.9,307.4a.63.63,0,0,1-.48-.21A120.64,120.64,0,0,0,21.19,283a79.64,79.64,0,0,0-14-6.34.59.59,0,0,1-.42-.74.65.65,0,0,1,.8-.39A77.72,77.72,0,0,1,21.8,282a122.11,122.11,0,0,1,30.59,24.44.57.57,0,0,1-.08.84A.6.6,0,0,1,51.9,307.4Z"/><path class="cls-24" d="M48.8,300.42a.64.64,0,0,1-.6-.41c-8.58-23.54-5.42-52.16-5.39-52.45a.62.62,0,0,1,.7-.52.61.61,0,0,1,.57.65c0,.29-3.16,28.65,5.33,51.94a.59.59,0,0,1-.4.75A.78.78,0,0,1,48.8,300.42Z"/><path class="cls-24" d="M51,305.08a.62.62,0,0,1-.62-.5,77.7,77.7,0,0,1,1.54-34.64,53,53,0,0,1,5.39-13.05.67.67,0,0,1,.88-.21.58.58,0,0,1,.22.82,52.78,52.78,0,0,0-5.27,12.79,76.71,76.71,0,0,0-1.51,34.09.61.61,0,0,1-.52.69Z"/><path class="cls-23" d="M89.66,313.71s35.55-4.54,46.81-26.91S113,245.25,93.29,256.51C72.24,268.55,89.66,313.71,89.66,313.71Z"/><path class="cls-24" d="M76.18,366.08h0a.62.62,0,0,1-.63-.61c.14-11,2.7-23.49,7.61-37.18a237,237,0,0,1,16.13-34.8,316.77,316.77,0,0,1,23.26-35.89.67.67,0,0,1,.89-.13.57.57,0,0,1,.14.83,317.45,317.45,0,0,0-23.17,35.76c-10.59,19-23.27,46.82-23.59,71.43A.62.62,0,0,1,76.18,366.08Z"/><path class="cls-24" d="M91.16,311.57a.63.63,0,0,1-.33-.09.57.57,0,0,1-.21-.82c17.1-26,43.34-44,43.61-44.21a.68.68,0,0,1,.89.13.58.58,0,0,1-.14.84c-.26.17-26.31,18.1-43.28,43.87A.65.65,0,0,1,91.16,311.57Z"/><path class="cls-24" d="M90.34,313.44a.7.7,0,0,1-.44-.17.57.57,0,0,1,0-.84A123.53,123.53,0,0,1,122,289.72a78.6,78.6,0,0,1,14.63-5.62.64.64,0,0,1,.77.43.6.6,0,0,1-.46.73,78.7,78.7,0,0,0-14.4,5.54A122.43,122.43,0,0,0,90.8,313.25.62.62,0,0,1,90.34,313.44Z"/><path class="cls-24" d="M93.88,306.63a.67.67,0,0,1-.24,0,.59.59,0,0,1-.35-.78c9.95-22.78,8.62-51.26,8.61-51.55a.6.6,0,0,1,.61-.62.62.62,0,0,1,.66.57c0,.28,1.36,29-8.7,52A.64.64,0,0,1,93.88,306.63Z"/><path class="cls-24" d="M91.43,311.17l-.14,0a.59.59,0,0,1-.48-.71,76.46,76.46,0,0,0,.65-34.11A52.52,52.52,0,0,0,87,263.26a.57.57,0,0,1,.28-.8.65.65,0,0,1,.85.25A52.79,52.79,0,0,1,92.7,276a77.72,77.72,0,0,1-.65,34.66A.63.63,0,0,1,91.43,311.17Z"/><path class="cls-23" d="M76,270.42s-30.12-18.22-30.15-43S86,199.18,98.67,217.19C112.26,236.45,76,270.42,76,270.42Z"/><path class="cls-24" d="M71.76,333.73h-.15a.6.6,0,0,1-.47-.72c5.32-21,4.84-54.18,3.51-78.34-1.45-26.19-4.19-47.69-4.21-47.91a.6.6,0,0,1,.55-.66.63.63,0,0,1,.71.52c0,.21,2.77,21.75,4.22,48,1.34,24.24,1.81,57.56-3.54,78.67A.62.62,0,0,1,71.76,333.73Z"/><path class="cls-24" d="M75.86,267.94a.61.61,0,0,1-.63-.52c-3.66-30.07-19.1-56.64-19.25-56.9a.58.58,0,0,1,.25-.81.65.65,0,0,1,.86.24c.16.26,15.71,27,19.4,57.33a.61.61,0,0,1-.56.66Z"/><path class="cls-24" d="M75.75,270a.64.64,0,0,1-.6-.41,112,112,0,0,0-18.51-32.91A73.23,73.23,0,0,0,46.12,225.9a.56.56,0,0,1-.08-.83.65.65,0,0,1,.89-.09,73.27,73.27,0,0,1,10.69,10.9,113.13,113.13,0,0,1,18.73,33.29.58.58,0,0,1-.4.76A.64.64,0,0,1,75.75,270Z"/><path class="cls-24" d="M75.64,262.39h0a.6.6,0,0,1-.6-.62c1.35-24.84,15.62-50.33,15.76-50.59a.67.67,0,0,1,.86-.25.59.59,0,0,1,.27.81c-.14.25-14.28,25.51-15.62,50.09A.62.62,0,0,1,75.64,262.39Z"/><path class="cls-24" d="M75.8,267.47h-.13a.59.59,0,0,1-.49-.71A81.48,81.48,0,0,1,90.38,235a58.41,58.41,0,0,1,10.21-10.41.65.65,0,0,1,.89.1.56.56,0,0,1-.11.83,59.13,59.13,0,0,0-10,10.22,80.53,80.53,0,0,0-15,31.3A.62.62,0,0,1,75.8,267.47Z"/><path class="cls-25" d="M112.78,330.53l-1.06,2.61-.66,1.65-1.9,4.72-.67,1.65-2,4.86-.66,1.65-8.39,20.82a121.85,121.85,0,0,1-45.84,0l-8.39-20.82L42.58,346l-1.95-4.86L40,339.51l-1.91-4.72-.66-1.65-1-2.61a2.76,2.76,0,0,1,2.73-3.69h71A2.77,2.77,0,0,1,112.78,330.53Z"/><polygon class="cls-26" points="111.72 333.14 111.06 334.79 38.05 334.79 37.39 333.14 111.72 333.14"/><polygon class="cls-26" points="109.16 339.51 108.49 341.16 40.63 341.16 39.96 339.51 109.16 339.51"/><polygon class="cls-26" points="106.53 346.02 105.87 347.67 43.24 347.67 42.58 346.02 106.53 346.02"/></g></g></svg>