<svg xmlns="http://www.w3.org/2000/svg" width="3155.03" height="2000" viewBox="0 0 3155.03 2000">
  <defs>
    <style>
      .cls-1 {
        isolation: isolate;
      }

      .cls-16, .cls-2 {
        fill: #fff;
      }

      .cls-2 {
        stroke: #000;
        stroke-miterlimit: 10;
      }

      .cls-3 {
        fill: #96eadc;
      }

      .cls-3, .cls-8 {
        opacity: 0.2;
      }

      .cls-4 {
        fill: #feb546;
      }

      .cls-5 {
        fill: #f7a73c;
      }

      .cls-6 {
        fill: #ffc558;
      }

      .cls-7 {
        fill: #6a3bc4;
      }

      .cls-11, .cls-12, .cls-8 {
        fill: #daeef7;
      }

      .cls-9 {
        fill: #f4501e;
      }

      .cls-10 {
        fill: #ef350a;
      }

      .cls-12, .cls-25 {
        mix-blend-mode: multiply;
      }

      .cls-13 {
        fill: #06b5a3;
      }

      .cls-14 {
        fill: #68bcb8;
      }

      .cls-15 {
        fill: #00a09d;
      }

      .cls-17 {
        fill: #ffc0bb;
      }

      .cls-18 {
        fill: #f9b3af;
      }

      .cls-19 {
        fill: #5b32bf;
      }

      .cls-20 {
        fill: #f99893;
      }

      .cls-21 {
        fill: #f46c0f;
      }

      .cls-22 {
        fill: #07085b;
      }

      .cls-23 {
        fill: #96c9d6;
      }

      .cls-24 {
        fill: #b5dbe8;
      }

      .cls-25 {
        opacity: 0.3;
      }

      .cls-26 {
        fill: #c4dfe8;
      }

      .cls-27 {
        fill: #f47a4a;
      }

      .cls-28 {
        fill: #55769f;
      }
    </style>
  </defs>
  <g class="cls-1">
    <g id="Layer_1" data-name="Layer 1">
      <g>
        <rect class="cls-2" width="3155.03" height="2000"/>
        <g>
          <path class="cls-3" d="M375.94,1814H2820.63c32.43-52.83,47.78-113.54,37-176.24-7.86-46-29.13-91.32-41.22-137.19-42.1-159.68,25.19-327.49-78.89-474.79-86-121.66-136.66-120.69-168.61-252.7-11-45.42,39-184,41.15-228.69,4.21-88.86-22-188.55-228.65-268.2-113-43.57-303.44-56.28-425.45-57.76-74.54-.91-149.77.14-218.39,16.42-145.26,34.45-243.08,131.81-367,196.47-85.34,44.51-184.42,73.76-289.67,85.51-59.68,6.67-122.63,8.06-175,28.39C816.17,580,776.22,662.4,752.51,742.15S713.72,907.59,652.72,969.7c-58.69,59.77-152.56,89.86-222.9,140.68-108.9,78.69-227.57,163.42-229.73,342C198.51,1583.3,317.44,1653,375.94,1814Z"/>
          <g>
            <g>
              <rect class="cls-4" x="2316.39" y="1494.74" width="22.14" height="316.59"/>
              <rect class="cls-5" x="2439.02" y="1494.74" width="22.14" height="316.59"/>
              <rect class="cls-5" x="2770.73" y="1494.74" width="22.14" height="316.59" transform="translate(5563.61 3306.06) rotate(180)"/>
              <rect class="cls-5" x="2648.1" y="1494.74" width="22.14" height="316.59" transform="translate(5318.34 3306.06) rotate(180)"/>
              <rect class="cls-6" x="2281.34" y="1473.75" width="546.35" height="68.26"/>
              <rect class="cls-5" x="2259.95" y="1452.46" width="589.13" height="26.33"/>
            </g>
            <g>
              <path class="cls-7" d="M2556.22,1240.91v18.67a59.24,59.24,0,1,0,0,118.48v7.41a10.7,10.7,0,0,0,10.71,10.71h82.47a10.71,10.71,0,0,0,10.71-10.71V1240.91Zm-44.64,77.91a44.7,44.7,0,0,1,44.64-44.64v89.27A44.69,44.69,0,0,1,2511.58,1318.82Z"/>
              <path class="cls-8" d="M2660.11,1268.83a50,50,0,1,0,0,100Z"/>
            </g>
            <path class="cls-9" d="M2444.52,1398h-13.07a16.63,16.63,0,0,1,7.72-1.81h327.48c17.14,0,31,9.55,31,21.33v13.55c0,11.78-13.89,21.33-31,21.33l-323.81-.08Z"/>
            <path class="cls-10" d="M2630.44,1396.23c16.38,0,29.67,9.13,29.67,20.4v15.31c0,11.27-13.29,20.4-29.67,20.4H2426.58v-3.43h.84l51.83-3.37,10.47-28.26s-20.22-15.61-21.54-16-40.76-1.63-40.76-1.63h-.84v-3.41Z"/>
            <path class="cls-11" d="M2439.8,1424.18a30.22,30.22,0,0,0-12.42-24.53h198.88c15,0,27.25,8.39,27.25,18.74v11.79c0,10.35-12.2,18.73-27.25,18.73H2427.38S2439.8,1445,2439.8,1424.18Z"/>
            <path class="cls-12" d="M2653.51,1418.39v11.79a13.14,13.14,0,0,1-.79,4.49c-6.71-11.28-19.56-22.15-44-25.65-57.13-8.16-181.3-9.37-181.3-9.37h198.88C2641.31,1399.65,2653.51,1408,2653.51,1418.39Z"/>
          </g>
          <path class="cls-13" d="M2381.46,1117.14c-10.19.23-298.08,0-298.08,0v294.08l212.91,8.52s88-40.88,82.3-49.39S2381.46,1117.14,2381.46,1117.14Z"/>
          <path class="cls-14" d="M2098.71,642.83h0L719,643.15l7.24,7.28s-12.35,32.66-15.76,76.21-1.7,439.08,0,450,303.18,275.79,303.18,275.79l1031.62-17.32a91.24,91.24,0,0,0,53.4,17.32h0c52.92,0,95.81-45.69,95.81-102.06V744.89C2194.52,688.52,2151.63,642.83,2098.71,642.83Z"/>
          <rect class="cls-15" x="630.46" y="642.83" width="191.62" height="704.05" rx="38.82"/>
          <rect class="cls-15" x="1148.25" y="1494.67" width="1148.04" height="316.59"/>
          <path class="cls-14" d="M2381.46,1117.14c50.55,1.49,92.39,43.43,95.33,95.68,2.32,41.23-19.08,77.52-51.39,95.64a35.62,35.62,0,0,0-18.28,31.06v433.62c0,21-16.49,38.12-36.83,38.12h-53.23c-20.34,0-36.83-17.07-36.83-38.12V1218.91C2280.23,1161.7,2325.83,1115.51,2381.46,1117.14Z"/>
          <rect class="cls-14" x="1096.14" y="1357.87" width="1222.79" height="189.04" rx="46.76"/>
          <path class="cls-16" d="M2194.52,1357.87l-11.38.22c-7.42.12-18.31.39-32.17.56l-50,.7c-19.3.28-41.07.6-64.82.81l-76.71.69-85.61.54c-29.69.1-60.37.33-91.55.34l-94.52.14-94.52-.13c-31.17,0-61.86-.24-91.55-.34l-85.61-.54c-27.22-.17-52.95-.44-76.7-.69s-45.53-.52-64.83-.81l-50-.71c-13.86-.17-24.75-.44-32.17-.56l-11.38-.22,11.38-.22c7.42-.12,18.31-.39,32.17-.56l50-.71c19.3-.28,41.07-.6,64.83-.81s49.48-.51,76.7-.69l85.61-.53c29.69-.11,60.38-.34,91.55-.34l94.52-.14,94.52.14c31.18,0,61.86.24,91.55.35l85.61.53,76.71.69c23.75.21,45.52.53,64.82.81l50,.71c13.86.17,24.75.43,32.17.56Z"/>
          <g>
            <path class="cls-17" d="M1595.93,807.17l5.12,9-1,9s-2.69,4.25-3.3,4.53-7.1,1.45-7.1,1.45l-6.37-1.45-4.74-2.16s-8.65-10.29-5.79-12.37,9.79-11.56,15.49-10.78S1595.93,807.17,1595.93,807.17Z"/>
            <path class="cls-18" d="M2082,1330.23l-40.25-20.29a236.66,236.66,0,0,1-31.9-19.38l-153.1-110.43v66.17l10.14,37.42,76.86,43.62s49.07,15.28,86,18.34c6.59,1.42,13.4,2.87,14.19,3,1.56.26,31.45,7.79,33,1.56s15.6-4.19,14.82-6.77S2082,1330.23,2082,1330.23Z"/>
            <path class="cls-19" d="M2101.45,1341,2082,1330.23c2.69,36.51-138.25-2.89-138.25-2.89h0l.25,24c0,4.6,4.16,8.28,9.2,8.24l142.86-1.21C2106.41,1358.3,2110.22,1346,2101.45,1341Z"/>
            <path class="cls-17" d="M2046.31,1330.23l-57-28.72h0l-134-86-34.31,30.83,10.14,37.42,76.86,43.62s49.07,15.28,86,18.34c6.59,1.42,13.4,2.87,14.19,3,1.55.26,31.45,7.79,33,1.56s15.6-4.19,14.82-6.77S2046.31,1330.23,2046.31,1330.23Z"/>
            <path class="cls-17" d="M1527.3,639.84s-65.52,12.47-91,30.14-70.72,28.58-73.84,29.1l-8.31,47.65s146.1,98.9,165.51,105.66,49.74-16.63,49.74-16.63l42.87-28.33,22.64-26.76,41.94-77.43Z"/>
            <path class="cls-20" d="M1616.07,788.29a61.1,61.1,0,0,0-11.65,12.53,47.27,47.27,0,0,0-4.4,7.59,22.1,22.1,0,0,0-2.2,9.19l.14,1.34.14,1.17a8.87,8.87,0,0,1,.17,1.59,6.38,6.38,0,0,1-.53,2.9c-.69,1.84-2.57,3.13-4.75,4-4.57,1.58-10.18.51-15.47-1.48,4.1,3.86,10,6.76,16.53,5.59a11.65,11.65,0,0,0,8.29-5.76,9.17,9.17,0,0,0,1-2.55,10.63,10.63,0,0,0,.34-2.67,13.13,13.13,0,0,0-.22-2.59,7.2,7.2,0,0,1-.09-.92l-.07-.75a21.27,21.27,0,0,1,1.51-7.08,70.89,70.89,0,0,1,3.28-7.36C1610.55,798.13,1613.33,793.3,1616.07,788.29Z"/>
            <path class="cls-20" d="M1491.94,717.79s-22.36,30.31,2.94,95.1C1523.83,887,1385.82,691.73,1459,679,1485.87,674.31,1491.94,717.79,1491.94,717.79Z"/>
            <path class="cls-21" d="M1765.42,675.73c-6.21-21.15-25.18-70.52-25.37-71l-.09,0c-.87-2.49-1.79-4.84-2.79-7-7.59-16.41-25-41.93-57.53-45.39-2-.22-4.14-.38-6.24-.55a86.38,86.38,0,0,0,8.71-3.16,59,59,0,0,0,21.65-15.06,46.24,46.24,0,0,0,7-11.13,44.18,44.18,0,0,0,3.1-12.48,56.81,56.81,0,0,1-5.49,11.2,46.26,46.26,0,0,1-8,9.05,48.45,48.45,0,0,1-9.91,6.69,62.31,62.31,0,0,1-11,4.7,115.33,115.33,0,0,1-11.68,3.11c-4,.8-8,1.34-12,1.79-1.38.15-2.79.26-4.18.37.74-.5,1.5-1,2.22-1.49a78.36,78.36,0,0,0,17.33-16.3,50.74,50.74,0,0,0,10.11-21.6,42.31,42.31,0,0,0-2.23-23.07,57.61,57.61,0,0,1,.26,11.27,44,44,0,0,1-2.26,10.7,49.41,49.41,0,0,1-4.68,9.68,64.29,64.29,0,0,1-6.59,8.49,87.1,87.1,0,0,1-16.75,13.68c-.78.48-1.58.93-2.37,1.4.18-9.87-2.81-18.77-3.83-23.23-2.08-9.1-20.28-54.83-74.35-39.24a68.07,68.07,0,0,0-8.66,3.15h-.45a84.72,84.72,0,0,1-11.57-.39,46.86,46.86,0,0,1-10.84-2.68c-3.6-1.3-6.8-3.49-10.59-5.81a21.68,21.68,0,0,0,7.88,10.61,27.88,27.88,0,0,0,12.73,4.85c.46.05.93.05,1.4.08-21.38,16.11-23.94,42.93-23.5,57.83-6.81,3.34-34.52,16.72-73.59,32.65-16.25,6.62-27.55,21.68-31,41.33-2.85,16.14.11,32.6,7.63,45.2-1.65,20,12.51,40.59,64.15,53.78,0,0-10.46-35.74,24.76-45.55,11.43-3.19,23.94-.42,32,8.28,5.93,6.39,10.39,16.63,8.22,32.94,0,0,33.8,57.68,74.35,56.3l9.19,23s29.81,1,31.89,0,31.54-22.87,31.54-22.87,22.53,1.39,23.57,1a29.39,29.39,0,0,0,7.23-3.2l.08.23C1764,758.52,1775.41,709.77,1765.42,675.73Zm-302.77-64.82c-8.22,6.71-22.53,20.43-30.05,36.3-1.61-17.78,11.44-37.76,20-47.3,9.69-10.79,29.72-21.86,45.22-29.41C1484.87,585.26,1479.31,597.31,1462.65,610.91Zm39.45-45.09c-16,7.48-40,20-51.24,32.53-8.49,9.46-21.24,28.95-20.69,47a60.46,60.46,0,0,1-.79-24.91c2.9-16.41,12.13-28.91,25.33-34.29,18.76-7.64,34.91-14.71,47.45-20.38Zm246.05,187.36c3.78-7.25,6.36-17.34,5.66-31.41-1.3-26.48-2.64-57.95-6.5-84.36,5.19,14.18,10.77,29.93,13.62,39.64C1768.24,702,1763.17,735.64,1748.15,753.18Z"/>
            <path class="cls-22" d="M1591.26,774.52a44.54,44.54,0,0,0,3.29,6.27,23.41,23.41,0,0,0,4.29,5,21.55,21.55,0,0,0,5.52,3.55l.76.39c.26.12.54.19.8.3l1.64.64c1.11.41,2.27.68,3.45,1.18a20.91,20.91,0,0,1-3.73.48,16.88,16.88,0,0,1-3.79-.43,15.32,15.32,0,0,1-6.92-3.54,15.91,15.91,0,0,1-4.43-6.38A14.74,14.74,0,0,1,1591.26,774.52Z"/>
            <path class="cls-23" d="M1715.68,1021.8s119,126.66,169.85,169.07c0,0-5.72,29-28.6,40.88s-208.49-183.62-205.72-183.62S1715.68,1021.8,1715.68,1021.8Z"/>
            <path class="cls-24" d="M1073.39,1203.69l-5.29,24.48s44.81,160.52,220.54,131.42,279.73-197.48,279.73-197.48S1679.64,1265,1836.66,1291c0,0,26.69-14.2,34.31-67.56,0,0-186.48-180.84-239.86-243.2S1073.39,1203.69,1073.39,1203.69Z"/>
            <path class="cls-17" d="M1603,858.1s-5.72-56.9,12.21-86.26,30.42-39.5,32.76-35.86-13,44.69-6.24,49.89,34.32,1,52-75.62c0,0,1.82-21.3,13-14.81,0,0,1.15-5.85,5.14-7.41,3.31-1.29,6.82,1.56,6.82,5.11v33.74s4.94-2.33,7.28,2.6,1.56,31.7,1.56,31.7,6,8.58,3.38,24.69-72,65-72,65l-38.22,17.67Z"/>
            <path class="cls-20" d="M1658.84,850.83,1639.9,860l-19,9.09-.32.16-.31-.19-17.79-10.21-.39-.23,0-.45a235,235,0,0,1,.43-47.66,123.2,123.2,0,0,1,4.82-23.44,52.26,52.26,0,0,1,2-5.67l1.15-2.79a18.88,18.88,0,0,1,1.29-2.73c1-1.76,1.87-3.59,2.9-5.29l3.18-5a194.54,194.54,0,0,1,14-19.34,70.47,70.47,0,0,1,8.45-8.57,14.25,14.25,0,0,1,5.47-3.1,3,3,0,0,1,2,.21,2.6,2.6,0,0,1,.81.77,2.76,2.76,0,0,1,.32,1,12.12,12.12,0,0,1-.2,3.18c-1.47,7.9-3.81,15.43-5.67,23.13-.94,3.84-1.82,7.7-2.41,11.6a43.07,43.07,0,0,0-.5,5.89c0,1.91.1,4.09,1.58,5.51-1.55-1.35-1.72-3.58-1.85-5.51a38.14,38.14,0,0,1,.29-6c.46-3.95,1.21-7.85,2-11.74,1.57-7.76,3.81-15.44,5.08-23.15a11.21,11.21,0,0,0,.13-2.73c0-.63-.49-.83-1.28-.66a13,13,0,0,0-4.67,2.86,68.18,68.18,0,0,0-8,8.5,193.76,193.76,0,0,0-13.73,19.23c-9.12,13-12.93,28.5-14.92,44.08a248.23,248.23,0,0,0-.88,47.21l-.43-.67L1621,867.91l-.63,0,19.22-8.58Z"/>
            <path class="cls-7" d="M1367.67,689.21s-1.56,23.38,23.92,37.93c0,0,59.79,17.15,106.59,79S1606.84,926.7,1606.84,926.7s-7.27-54.05-6.75-72.75c0,0,24.43-12,58.75-3.12,0,0,29.63,77.43,44.19,97.7s52.52,128.88-4.16,158.5-223-72.06-276.43-140c0,0,17.33,63.06,4.85,76.91s-99.13,73.45-157.36,90.08-182.33,108.79-209.36,92.16c0,0-62.95-159.66,2.42-293.79C1135.09,784.48,1234.57,715.54,1367.67,689.21Z"/>
            <path class="cls-22" d="M1419,963c-3.94-4.62-8-9.18-12-13.72s-8.15-9-12.24-13.52c-8.28-8.91-16.65-17.74-25.47-26.17,7.17,9.87,14.81,19.34,22.53,28.74,3.91,4.65,7.76,9.36,11.76,13.94q4.17,4.85,8.41,9.63c-2.81-.23-5.64-.56-8.43-1a119.11,119.11,0,0,1-13.58-3,87.05,87.05,0,0,1-13-4.95,65.86,65.86,0,0,1-11.84-7.55,50.29,50.29,0,0,0,10.83,9.34,71.49,71.49,0,0,0,13,6.37,93,93,0,0,0,13.92,3.88,88.09,88.09,0,0,0,14.43,1.75l5.12.16Z"/>
            <path class="cls-22" d="M1567.16,1159.49a118.38,118.38,0,0,1-5.41-14.72,132.65,132.65,0,0,1-3.59-15.39,120.09,120.09,0,0,1-1.84-15.73,146.88,146.88,0,0,1,0-16,85.85,85.85,0,0,0-2,16c-.16,2.7,0,5.4,0,8.11.21,2.69.33,5.41.71,8.09a106.92,106.92,0,0,0,3.22,15.92,95.11,95.11,0,0,0,4.31,12.35,58.36,58.36,0,0,1-8.21-1.78,60.09,60.09,0,0,1-10.77-4.35c-1.75-.86-3.38-1.92-5.06-2.93s-3.23-2.2-4.7-3.5a63.18,63.18,0,0,1-8.39-8.37,48.82,48.82,0,0,0,16.83,17.13,53.89,53.89,0,0,0,11.09,5.19,50.33,50.33,0,0,0,12.1,2.61l3,.25Z"/>
            <path class="cls-22" d="M1613.82,932.28c8.15,6.63,16.22,13.34,24,20.39a265.94,265.94,0,0,1,22.13,22.16c6.72,7.92,13.13,16.28,16.95,26.18a52.1,52.1,0,0,0-5.42-15,100.93,100.93,0,0,0-8.7-13.48,177.18,177.18,0,0,0-21.82-23.32A269,269,0,0,0,1616,929.38c-3.17-2.24-6.41-4.4-9.67-6.51l.5,3.83Z"/>
            <path class="cls-20" d="M1697.38,761.76c-1.67,7.4-3.61,14.82-6.94,21.67,3.5-6.76,5.64-14.15,7.51-21.53s3.22-14.92,4.35-22.47,2-15.14,2.76-22.74c.66-7.08,1.19-14.17,1.53-21.29a9.43,9.43,0,0,0-2.27-.95c-.15,7.35-.51,14.73-1,22.09q-.76,11.38-2.17,22.72C1700.21,746.81,1699,754.34,1697.38,761.76Z"/>
            <path class="cls-20" d="M1718.63,726.88V726c-.55,9.68-2.43,19.79-3.63,29.37-.62,5-1.39,10.07-2.4,15a76,76,0,0,1-4.19,14.6,76.54,76.54,0,0,0,4.76-14.46c1.21-5,2.17-10,3-15,1.55-9.51,3.79-19.52,4.73-29.19A6.94,6.94,0,0,0,1718.63,726.88Z"/>
            <path class="cls-20" d="M1727.49,761.22a123.23,123.23,0,0,1-2.68,13.73,56.59,56.59,0,0,1-5,13.34,57.77,57.77,0,0,0,6.09-13c1.24-3.58,2.25-7.21,3.15-10.89A17.64,17.64,0,0,0,1727.49,761.22Z"/>
            <g class="cls-25">
              <path class="cls-20" d="M1546,828.13s-4.46,6.24,4,19.36a113.92,113.92,0,0,0,11.62-6.42C1560.62,831,1546,828.13,1546,828.13Z"/>
            </g>
            <path class="cls-20" d="M1556.85,843.92l1.45-.84c-.39-.92-.81-1.84-1.29-2.73a35.73,35.73,0,0,0-9-10.51,39,39,0,0,0-12-6.65,46.08,46.08,0,0,1,5.81,3.49,47.46,47.46,0,0,1,5.29,4.16,40.19,40.19,0,0,1,8.32,10.34C1556,842.07,1556.44,843,1556.85,843.92Z"/>
            <path class="cls-7" d="M2065.75,1341l-19.44-10.75c2.69,36.51-138.25-2.89-138.25-2.89h0l.24,24c0,4.6,4.17,8.28,9.21,8.24l142.86-1.21C2070.71,1358.3,2074.52,1346,2065.75,1341Z"/>
          </g>
          <path class="cls-11" d="M2260,1357.87a162.54,162.54,0,0,1,16.25-.45,47.72,47.72,0,0,1,16,4.1,49.3,49.3,0,0,1,13.87,9.53,52.61,52.61,0,0,1,15,30.71c.59,6,.41,11.43.54,17l.15,33.58-.15,33.58c-.12,5.61.06,11.08-.54,17a50.91,50.91,0,0,1-5,16.73,52.06,52.06,0,0,1-10,14,49.87,49.87,0,0,1-13.87,9.53,47.82,47.82,0,0,1-16,4.09,162.54,162.54,0,0,1-16.25-.45c5.38-.37,10.84-.41,16.1-1.06a46.08,46.08,0,0,0,15-5.12,47.7,47.7,0,0,0,21.14-22.93,49.72,49.72,0,0,0,4-15.34c.4-5.18.14-10.93.12-16.49l-.15-33.58.15-33.58c0-5.56.29-11.31-.11-16.49a50,50,0,0,0-4-15.34,47.75,47.75,0,0,0-21.14-22.93,45.75,45.75,0,0,0-15-5.12C2270.79,1358.28,2265.33,1358.23,2260,1357.87Z"/>
          <path class="cls-15" d="M1079.81,1117.14H607.51c-1.81,0-3.63-.05-5.47,0-50.54,1.49-92.38,43.44-95.32,95.69-2.32,41.23,19.08,77.53,51.38,95.65a35.62,35.62,0,0,1,18.28,31.06V1773.2c0,21.06,16.49,38.13,36.83,38.13h499.27Z"/>
          <path class="cls-14" d="M1079.81,1117.14c-50.54,1.49-92.39,43.44-95.33,95.69-2.32,41.23,19.08,77.53,51.39,95.65a35.62,35.62,0,0,1,18.28,31.06V1773.2c0,21.06,16.49,38.13,36.83,38.13h53.23c20.34,0,36.83-17.07,36.83-38.13V1218.92C1181,1161.7,1135.44,1115.51,1079.81,1117.14Z"/>
          <path class="cls-16" d="M1091,1810.49l39.16-.67,9.79-.13a57.8,57.8,0,0,0,9.64-.59,35.16,35.16,0,0,0,17.12-8,36.92,36.92,0,0,0,10.7-15.84,37.34,37.34,0,0,0,2-9.47c.18-3.17.07-6.61,0-10l-.48-40.48-1.2-161.93c-.52-54-.42-107.95-.62-161.93l-.39-161.93,0-20.24-.44-9.69c-.32-3.21-.91-6.38-1.34-9.58a98.88,98.88,0,0,0-14.23-35.57c-13.88-21.55-36.41-37-61.13-41.55l-9.33-1.27c-3.13-.18-6.3-.19-9.45-.3l-19.55-.07-39.17-.1q-39.17,0-78.34-.43l-156.67-1.24c-52.22-.74-104.45-1.18-156.66-2.19,52.21-1,104.43-1.44,156.64-2.18l156.63-1.24q39.15-.36,78.31-.43l39.16-.1,19.61,0c3.37.09,6.75.09,10.12.28l10.1,1.31c26.82,4.81,51.35,21.43,66.55,44.76a107.69,107.69,0,0,1,15.69,38.66c.5,3.48,1.15,7,1.51,10.44l.53,10.52,0,20.24-.39,161.93c-.2,54-.1,108-.62,161.93l-1.2,161.93-.48,40.48c-.06,3.39,0,6.7-.3,10.26a40.33,40.33,0,0,1-2.39,10.19,39.4,39.4,0,0,1-11.85,16.66,37.1,37.1,0,0,1-18.29,8,59.93,59.93,0,0,1-9.9.36l-9.79-.13Z"/>
          <rect class="cls-26" x="219.91" y="1811.21" width="2715.21" height="26.63" rx="9.05"/>
          <g>
            <g>
              <path class="cls-4" d="M979.91,959c38.34,25.49-19.17,83.36-35.11,98.28a362.19,362.19,0,0,1,9,52.54c12.87-24.73,9.65-50.48,21.47-63.63,13.25-14.76,34.27-21,30.28,16-3.17,29.34-37.19,47.69-51.19,54.06a352.09,352.09,0,0,1-1.47,70.84c18.11-26.49,17.35-57.17,32-70.61,16-14.71,39.38-18.7,30.65,22.5-7.22,34.06-49.12,49.7-63.45,54.1a215.18,215.18,0,0,1-5.48,27.36c-5.58,20-11.83,39-18.58,57,16.36-23,20.31-50,34.73-60.33,17.29-12.45,40.28-12.82,26.57,27.78-10.85,32.12-50.07,42-66,44.74a676,676,0,0,1-49.17,99.62c20-15.18,41.36-51.36,62.85-58.77,14.1-4.87,20.87,2,24.07,8.6,2.73,5.68,2.65,12.88-.11,19.77-15.59,39-73,37.26-90.11,35.84a639.79,639.79,0,0,1-64.38,87.48c10.42-7.76,26.1-19.55,34.07-26,12.56-10.23,33.08-17.63,44.82-12.48.48.21,1,.44,1.4.68,8.54,4.61,10.9,16.61,6.42,27.84-17.51,43.92-80.92,23.5-94.4,18.59l-.42.47c-51.69,56.46-94.19,81.87-96,82.92l-2.24-6.66c.42-.24,40.87-24.46,89.68-76.67-18.51-64.22,9-104,25.22-104.57,16.77-.57,31.38,19.4,11,46.81-11.84,15.89-21.44,35-27.42,48.18a628.86,628.86,0,0,0,66.08-88.86c-51.05-65.74-4.33-106,13.95-97.93,18.49,8.2,16.76,26,3.32,51.39a145.69,145.69,0,0,0-14.35,41.77A666.3,666.3,0,0,0,916.18,1290c-14.73-2.21-51.56-11-51.44-43.31.15-40.42,23.11-40.64,36.22-28.59,12,11.08,4.37,42.83,17.33,66.56,8-20.43,15.3-42.11,21.73-65.1.11-.37,5.73-20.19,7.71-51.91-15.4-.06-53.55-3.37-57.17-34.48-4.56-39.07,18.78-42.57,33.53-32.8,13.16,8.72,9.66,38.89,24,59.93a354.7,354.7,0,0,0-9.8-98.53c-16-.19-52.71-4-56.26-34.47-4.55-39.07,18.79-42.57,33.53-32.8,13.35,8.84,9.55,39.75,24.64,60.82l.71-.37c.11-10.93.26-34.11-.2-45.09-.6-14.66,6-36,17.51-45.67S979.91,959,979.91,959Z"/>
              <path class="cls-9" d="M556.4,966.33l-70.35-96.67c19.63-84.68,40.06-153.82,40.06-153.82,99.31,86.14,160,185.64,195.33,286.28L677.62,1131l64.59-58.25c65.89,274.48-35,536.17-35,536.17s-223-361.48-251.53-459.8c-11-38-3-111.21,10.92-186.83C503.64,966.84,556.4,966.33,556.4,966.33Z"/>
              <path class="cls-27" d="M526.11,715.84s187,579.26,181.1,893.08c0,0-223-361.48-251.53-459.8-11-38-3-111.21,10.92-186.83,37,4.55,89.8,4,89.8,4l-70.35-96.67C505.68,785,526.11,715.84,526.11,715.84Z"/>
              <path class="cls-4" d="M715.65,884.42c-30.95-3.29-24.51,55.67-21.8,73.89a2.37,2.37,0,0,1-.86,2.14,246.05,246.05,0,0,0-20.36,19.28,2.24,2.24,0,0,1-3.92-2c4.68-16.35,13.93-28,13-39.71-1.15-15.19-10.19-29.21-23.58-5.45-10.21,18.13-.24,44.3,5.07,55.71a2.28,2.28,0,0,1-.37,2.41,254.48,254.48,0,0,0-22.47,31.47c-1.35,2.24-4.76,1.17-4.29-1.33,3.61-18.88,12.74-33.43,10.66-46.14-2.71-16.52-14-30.34-26.54-1.79-10,22.82,5.28,51.41,11.83,62a2.22,2.22,0,0,1,0,2.18,162,162,0,0,0-7.9,17.65q-2,5.49-3.88,10.94c-.94,2.75-5.07,1.93-4.49-.9,1.53-7.48,2.39-14.15.8-19.92-4.37-15.82-17-27.32-26.49,3.32-7.31,23.58,9.18,48,17.17,57.93a2.15,2.15,0,0,1,.38,1.87,547.75,547.75,0,0,0-12.27,63.4c-.36,2.73-4.44,2.88-4.64.17-1.29-17.08-1.3-36.55-7.65-47.29-5.79-9.79-12.43-9.09-17-6.74-3.92,2-6.91,6.29-8.28,11.7-7.54,29.72,23.06,56.22,34.08,64.64a2.12,2.12,0,0,1,.81,1.87,541.14,541.14,0,0,0-2,59c.06,2.73-4,3.47-4.6.86-.95-3.84-1.78-7.34-2.36-10-2.67-12.19-11-26.63-19.66-29.35-.36-.12-.72-.21-1.07-.29-6.69-1.48-13.06,4.43-15.31,13.24-8.79,34.47,35.09,53.57,44.65,57.29,0,.16,0,.32,0,.48,4.22,50.14,14.27,83.6,17.44,93.17a2.26,2.26,0,0,0,3.5,1h0a2.35,2.35,0,0,0,1-2.65c-2.44-7.29-12.3-39-16.86-86.29a2.44,2.44,0,0,1,.94-2.11c36.34-28.62,37.72-64.93,29-73.14-9.09-8.57-25.63-4-25.84,22.19A180.54,180.54,0,0,1,600.1,1260c-.36,2.8-4.57,2.88-4.66.09a534.48,534.48,0,0,1,1.67-62.13,2.54,2.54,0,0,1,1.89-2.17c54.18-14.2,45.24-59.94,31.81-64.1-13.75-4.24-20.29,7.08-23.52,28.65a114.28,114.28,0,0,1-2.95,13.71c-.78,2.78-5,2.25-4.58-.58A540.68,540.68,0,0,1,611,1113.94a2.47,2.47,0,0,1,3.57-1.57c10.56,6.25,31.74,15.45,44.12-2,17-23.88,4.29-35.28-8.08-34.62-10.29.56-18.72,19-33,28.13a2.21,2.21,0,0,1-3.43-2.35c3.93-14.39,8.57-29.11,14.06-44.09.09-.26,4.89-13.51,16.08-31.89a2.44,2.44,0,0,1,3.58-.72c9.73,8,30.22,21.36,44.27,6,19-20.78,7.51-34.3-4.81-35.78-9.29-1.12-18.43,12.64-31.23,20.14a2.2,2.2,0,0,1-3-3.15,244,244,0,0,1,41-45.36,2.4,2.4,0,0,1,3.06-.11c9.72,8,30.27,21.45,44.35,6.07,19-20.78,7.5-34.3-4.82-35.78-11.14-1.34-22.07,18.73-39.35,23.73l-.24-.57c4.56-6.49,14.25-20.21,19.13-26.46,6.52-8.33,11.84-24.19,9.53-35.49-2-9.88-8.05-12.92-9.55-13.53A2.31,2.31,0,0,0,715.65,884.42Z"/>
              <path class="cls-9" d="M349.48,1055c56.51,20.3,103.64,52.83,142.88,92-2,27.94-3.84,61.47-3.84,61.47l29.93-33.13c139.32,164.17,163.81,410.89,163.81,410.89-124.21-42.12-203.08-111-252.91-185.42,6.82-16.29,17.22-40.28,17.22-40.28L414,1376.26a484.72,484.72,0,0,1-47.3-113.65c17-8,35.93-17.78,35.93-17.78l-44.5-17.77C338.34,1130.66,349.48,1055,349.48,1055Z"/>
              <path class="cls-27" d="M429.35,1400.81c6.82-16.29,17.22-40.28,17.22-40.28L414,1376.26a484.72,484.72,0,0,1-47.3-113.65c17-8,35.93-17.78,35.93-17.78l-44.5-17.77c-19.83-96.4-8.69-172.1-8.69-172.1,172.8,178.52,332.78,531.27,332.78,531.27C558.05,1544.11,479.18,1475.23,429.35,1400.81Z"/>
            </g>
            <g>
              <path class="cls-22" d="M567.39,1552.92H771.94a0,0,0,0,1,0,0v212.79a45.61,45.61,0,0,1-45.61,45.61H613a45.61,45.61,0,0,1-45.61-45.61V1552.92A0,0,0,0,1,567.39,1552.92Z"/>
              <path class="cls-28" d="M772.58,1585.09H566.75c-8.36,0-15.14-8.57-15.14-19.14h0c0-10.57,6.78-19.13,15.14-19.13H772.58c8.37,0,15.15,8.56,15.15,19.13h0C787.73,1576.52,781,1585.09,772.58,1585.09Z"/>
            </g>
          </g>
        </g>
      </g>
    </g>
  </g>
</svg>
