<svg xmlns="http://www.w3.org/2000/svg" viewBox="0 0 247.19 185.32"><defs><style>.cls-1{isolation:isolate;}.cls-2{fill:#d8cdfe;}.cls-3{fill:#ef9d7f;}.cls-4{fill:#1b2c47;}.cls-5{fill:#d9f4ec;}.cls-6{fill:#5bd8a9;}.cls-7{fill:#f4501e;}.cls-8{opacity:0.2;mix-blend-mode:multiply;}</style></defs><g class="cls-1"><g id="OBJECTS"><path class="cls-2" d="M238.51,70.23a2.3,2.3,0,0,0-4.33-1c-2.78,6.52-6.41,9.72-9.81,11.21.6-28.91-12.82-52.09-36.9-50.82-17.29.91-27.28,14.08-34.56,32.29-2.24-3-3.79-7.71-2.78-14.9a2.3,2.3,0,0,0-4.21-1.4c-6.3,9.42-12.48,24.82-.73,40-3.54,12.74-6.78,26.27-10.71,39a277.9,277.9,0,0,0-8.61-54.75c-.73-2.75-1.56-5.6-2.5-8.48,18.09-18.44,13-33.31,6.44-42a2.91,2.91,0,0,0-5.25,1.87c.5,9.32-6,16.88-9.72,20.35-7-12.2-16.94-22.13-31.48-24.09-19.53-2.64-37.6,9.67-44.25,27.83C34.22,58.41,36.5,71.46,38,82.3c-4.87-.28-15.17-1.82-20.88-9.57a2.91,2.91,0,0,0-5.24,1.89c.45,10.94,6,25.71,31.93,28.37.38,0,7.32,11.06,9.5,14,4.57,6.13,9.15,12.82,12.1,19.89a120.29,120.29,0,0,1,7.25,23c.75,3.77.81,7.93,1.94,11.61l57.44-.12a1.81,1.81,0,0,1,0-.19h36.25A108.29,108.29,0,0,0,221,103.74C236.61,96.29,239,81,238.51,70.23Zm-163-39,.25-.35a12.36,12.36,0,0,1,2.9-3,2.58,2.58,0,0,1,1.81-.5,1.34,1.34,0,0,1,1.19,1c.35,1.49-.74,3-1.73,4s-2.56,2.35-4,1.82S74.84,32.22,75.53,31.23Zm-20.37,14a12.31,12.31,0,0,1-4.13.37,2.54,2.54,0,0,1-1.7-.79,1.34,1.34,0,0,1-.26-1.53c.7-1.36,2.51-1.8,3.91-1.92s3.46-.13,4.25,1.24-.49,2.22-1.66,2.52ZM85.9,49.75a18.3,18.3,0,0,1-5.27.88c-2.88.19-6,.53-8.54,1.95-3.83,2.14-6.48,6.43-10.85,7.6-1.12.3-2.67.33-3.42-.7-.29-.41-3.25-4.45,4.25-11.64a32,32,0,0,1,10.58-7.26c5.2-2,13.86-3.13,16.81,3m87.28.33c-.49-1.24-1.13-3.73-.38-4s3.07,1.49,4.27,2.49a9.57,9.57,0,0,1,1.51,1.54,2.26,2.26,0,0,1,.57,1.71c-.25,1.32-2.12,1.27-3.1,1A4.29,4.29,0,0,1,176.74,43.88Zm10.45,19.77a5.94,5.94,0,0,1-6.34,1.49c-6.48-2.35,1.09-17,6.69-13.16C190.81,54.22,189.87,60.77,187.19,63.65Zm13-10.56a4.26,4.26,0,0,1-3.93-.16c-.89-.49-2.24-1.79-1.48-2.9a2.3,2.3,0,0,1,1.63-.79,9.66,9.66,0,0,1,2.15,0c1.56.15,4.47.54,4.78,1.29S201.37,52.57,200.15,53.09Z"/><rect class="cls-3" x="110.56" y="89.8" width="25.49" height="24.03"/><path class="cls-3" d="M120.57,42.73h2.3A21.07,21.07,0,0,1,143.94,63.8V79a21.07,21.07,0,0,1-21.07,21.07h0A21.07,21.07,0,0,1,101.8,79V61.5a18.77,18.77,0,0,1,18.77-18.77Z"/><path class="cls-4" d="M122.87,100.32a21.05,21.05,0,0,1-12.45-4l.28-.39a20.6,20.6,0,0,0,12.17,4,20.81,20.81,0,0,0,13-4.6l.31.37A21.35,21.35,0,0,1,122.87,100.32Z"/><path class="cls-4" d="M103.49,81c.32-4.26.74-10.08-2.75-10.76l-1-7.18c-.75-3.27.43-5.38,1.67-5.93,0,0-5.65-4.48-2.69-10.49S108,44.39,108,44.39s-.36-4.75,5.69-6.33,24.59,8,24.59,8c4.49,2.83,5.63,6.53,6.33,11.09,2.12.41,2.28,3.71,2.1,5.25l-.83,7.86c-4-.28-4.21,4.5-4,10.76-2.71,0-2.26-8.89-2.26-8.89l0-9.66c-11.82,2.85-22.83,3-32.88,0l-.49,9.7S106.47,81,103.49,81Z"/><path class="cls-4" d="M128.32,87.39c0,1.71-2.25.4-5,.4s-5,1.31-5-.4,2.25-3.1,5-3.1S128.32,85.68,128.32,87.39Z"/><path class="cls-4" d="M124.91,90.31a10.31,10.31,0,0,0-3.59,0l-.09-.47a10.33,10.33,0,0,1,3.76,0Z"/><path class="cls-3" d="M167.29,114.14c-1.56-3.49-3.53-6.81-5.4-10.15-1.3-2.34-2.58-4.7-3.74-7.11l1.12,0,20.07-8.35-28.4-7.23s-3.25,4.09-3.9,4.86-1.6,3.61-3.62,4a2.35,2.35,0,0,1-2.72-1.3l1-2.25a36.23,36.23,0,0,1,1.93-13.26,19.44,19.44,0,0,0,0-5.51A7,7,0,0,1,145,63.56s4.44.29,6.28,3.49c20.86,2.42,33,4.46,52.74,8.41,10.12,2.31,11.66,14.57,3.55,21l-36.75,25.89C169.67,119.58,168.5,116.85,167.29,114.14Z"/><polygon class="cls-4" points="193.8 92.1 180.55 89.07 184.39 91.66 184.13 92.06 178.14 88.02 193.91 91.63 193.8 92.1"/><path class="cls-3" d="M78.59,114.14c1.56-3.49,3.53-6.81,5.4-10.15,1.3-2.34,2.58-4.7,3.74-7.11l-1.12,0L66.54,88.55l28.39-7.23s3.26,4.09,3.91,4.86,1.6,3.61,3.62,4a2.35,2.35,0,0,0,2.72-1.3l-1-2.25a36.23,36.23,0,0,0-1.93-13.26,19.44,19.44,0,0,1,0-5.51,7,7,0,0,0-1.42-4.32s-4.44.29-6.28,3.49c-20.86,2.42-33,4.46-52.74,8.41-10.12,2.31-11.66,14.57-3.55,21L75,122.31C76.21,119.58,77.38,116.85,78.59,114.14Z"/><polygon class="cls-4" points="52.08 92.1 51.97 91.63 67.74 88.02 61.76 92.06 61.49 91.66 65.33 89.07 52.08 92.1"/><path class="cls-4" d="M104.64,90l-.35-.33a6.93,6.93,0,0,0,.68-.84,9.16,9.16,0,0,0-.65-1.45A3.38,3.38,0,0,1,104,86l-.14-6,.49,0,.14,6a2.76,2.76,0,0,0,.29,1.15c.82,1.58.71,1.77.64,1.9A9,9,0,0,1,104.64,90Z"/><path class="cls-4" d="M141.25,90a9,9,0,0,1-.75-.94c-.07-.13-.17-.32.64-1.9a2.62,2.62,0,0,0,.3-1.15l.14-6,.48,0-.14,6a3.16,3.16,0,0,1-.35,1.36,5,5,0,0,0-.63,1.49,9.47,9.47,0,0,0,.67.8Z"/><path class="cls-4" d="M94.23,77.34a14.37,14.37,0,0,1-.4-7.14l.47.11a14.34,14.34,0,0,0,.38,6.87Z"/><path class="cls-4" d="M150.58,77.34l-.46-.16a14.27,14.27,0,0,0,.39-6.87l.47-.11A14.64,14.64,0,0,1,150.58,77.34Z"/><path class="cls-4" d="M101.91,71.07a3.4,3.4,0,0,0-1.41-1.15l.16-.46a3.84,3.84,0,0,1,1.63,1.31Z"/><path class="cls-4" d="M143.75,71.07l-.38-.3A3.78,3.78,0,0,1,145,69.46l.16.46A3.4,3.4,0,0,0,143.75,71.07Z"/><path class="cls-5" d="M168.77,90.8l-9.49,4-22.77,3.56a15.94,15.94,0,0,1-13.2,7c-9.2.15-12.33-6.72-12.33-6.72L87.33,94.8l-9.49-4C77,92,61.16,114.64,61.16,114.64l20.71,13.25L85,169.44h76.69l3.09-41.55,20.71-13.25S169.62,92,168.77,90.8Z"/><path class="cls-6" d="M138.74,99.65l-2.71.42a16,16,0,0,1-13.21,7c-9.19.16-12.32-6.72-12.32-6.72l-1.87-.3.5,1.23c.46,1.07,3.82,8.09,13.69,7.92a18.57,18.57,0,0,0,14.91-8Z"/><polygon class="cls-6" points="60.68 116.36 77.35 92.52 79.56 93.45 63.09 117.9 60.68 116.36"/><polygon class="cls-6" points="168.29 92.52 165.71 93.6 182.15 118.16 184.97 116.36 168.29 92.52"/><path class="cls-6" d="M147.5,171.15H101.3l-1-42.21a268.21,268.21,0,0,1,49.08,0Z"/><path class="cls-7" d="M231.44,67.1a5.35,5.35,0,0,0,2.15-.86,1.52,1.52,0,0,0-.1-.46,1.35,1.35,0,0,0-.19-.31h0a1.09,1.09,0,0,0-.25-.23,6.58,6.58,0,0,1-1.4-1.8,8.23,8.23,0,0,1-.41-1.66,8.65,8.65,0,0,0,1.65-1.14,4.72,4.72,0,0,1,1.11.77,3.55,3.55,0,0,1,.65,1.17,1.07,1.07,0,0,0,.07.19h0a.7.7,0,0,0,.13.17.59.59,0,0,0,.18.14,2.11,2.11,0,0,0,1-1,1.09,1.09,0,0,0-.13-.17.76.76,0,0,0-.17-.13h0a1,1,0,0,0-.18-.07,3.53,3.53,0,0,1-1.14-.67,4.94,4.94,0,0,1-.74-1.12,8.73,8.73,0,0,0,1.62-2.58,4.47,4.47,0,0,1,1.05.24,4.36,4.36,0,0,1,1.17.91.57.57,0,0,0,.15.16h0a1,1,0,0,0,.2.13l.17,0a2.08,2.08,0,0,0,.57-1.49l-.14-.08a1.06,1.06,0,0,0-.23-.05h0a.79.79,0,0,0-.22,0,4.05,4.05,0,0,1-1.45-.17,4.65,4.65,0,0,1-1-.6,9.47,9.47,0,0,0,.36-2.16,7.56,7.56,0,0,1,1.82-.32,6.5,6.5,0,0,1,2.16.61,1,1,0,0,0,.3.14h0a1,1,0,0,0,.36.06,1.28,1.28,0,0,0,.47-.1,5.61,5.61,0,0,0,.11-1.21,4.13,4.13,0,0,0-.18-1.13,1.09,1.09,0,0,0-.4-.07,1,1,0,0,0-.36,0h0a1,1,0,0,0-.3.14,6.06,6.06,0,0,1-2.16.61,7.58,7.58,0,0,1-1.89-.34,9,9,0,0,0-.56-2.14,4,4,0,0,1,.85-.53,3.53,3.53,0,0,1,1.27-.16.62.62,0,0,0,.19,0h0a.65.65,0,0,0,.2,0,.6.6,0,0,0,.27-.2,3.19,3.19,0,0,0-.56-1.19.6.6,0,0,0-.23.06.52.52,0,0,0-.18.1h0a.93.93,0,0,0-.13.15,3.74,3.74,0,0,1-1,.8,4.24,4.24,0,0,1-1,.23,9,9,0,0,0-1.28-1.87A8.48,8.48,0,0,1,234.91,46a6.44,6.44,0,0,1,1.94-1.14,1,1,0,0,0,.31-.11h0a.89.89,0,0,0,.29-.22,1.07,1.07,0,0,0,.14-.16A3.1,3.1,0,0,0,236,42.6a1.3,1.3,0,0,0-.23.18,1.25,1.25,0,0,0-.21.3h0a1.66,1.66,0,0,0-.12.31,6.41,6.41,0,0,1-1.11,2,8.18,8.18,0,0,1-1.92,1.33,8.43,8.43,0,0,0-2.06-1.13,4.8,4.8,0,0,1,.2-.79,4.11,4.11,0,0,1,.84-1.09.62.62,0,0,0,.14-.14h0a.62.62,0,0,0,.12-.19.87.87,0,0,0,.05-.28,2.51,2.51,0,0,0-1.32-.47.91.91,0,0,0-.09.17.83.83,0,0,0-.06.21h0a1.48,1.48,0,0,0,0,.21,4.1,4.1,0,0,1-.17,1.37,4.59,4.59,0,0,1-.45.76,8.35,8.35,0,0,0-1.73-.3,8.17,8.17,0,0,1-.44-2.21,6,6,0,0,1,.52-2,1.39,1.39,0,0,0,.12-.28h0a1.13,1.13,0,0,0,.05-.32,1.1,1.1,0,0,0,0-.18,2.21,2.21,0,0,0-1-.21,2.56,2.56,0,0,0-1.1.22c0,.06,0,.11,0,.17a1.13,1.13,0,0,0,.05.32h0a1.39,1.39,0,0,0,.12.28,6,6,0,0,1,.53,2,8.86,8.86,0,0,1-.46,2.27,8.47,8.47,0,0,0-1.6.37,6.49,6.49,0,0,1-.94-1.42,5.39,5.39,0,0,1-.24-1.73.76.76,0,0,0,0-.26h0a.9.9,0,0,0-.07-.27,1.28,1.28,0,0,0-.11-.2,2.63,2.63,0,0,0-1.67.69s0,.18.07.26a1,1,0,0,0,.15.24h0A.81.81,0,0,0,222,43,5.18,5.18,0,0,1,223,44.33a7,7,0,0,1,.36,1.67,8.57,8.57,0,0,0-1.55,1l-.2.17a5.14,5.14,0,0,1-1-.76c-.34-.36-.3-.7-.42-1a1.72,1.72,0,0,0-.07-.21h0A1.43,1.43,0,0,0,220,45a.87.87,0,0,0-.26-.18,4.12,4.12,0,0,0-1.05,1.07.93.93,0,0,0,.36.43h0a.68.68,0,0,0,.2.07,2.1,2.1,0,0,1,1,.46,5.15,5.15,0,0,1,.72,1.07l-.09.1h0a9.09,9.09,0,0,0-1.23,1.86,6.7,6.7,0,0,1-1.67-.34,5,5,0,0,1-1.39-1.09,1.54,1.54,0,0,0-.17-.19h0a.89.89,0,0,0-.25-.14.72.72,0,0,0-.25-.07,4.61,4.61,0,0,0-.68,1.75.8.8,0,0,0,.22.13.9.9,0,0,0,.27.07h0a1,1,0,0,0,.25,0,4.83,4.83,0,0,1,1.74.2,6.61,6.61,0,0,1,1.42.94,8.67,8.67,0,0,0-.31,1.36,8.85,8.85,0,0,1-2.49.53,6.06,6.06,0,0,1-2.16-.61,1,1,0,0,0-.3-.14h0a1,1,0,0,0-.36,0,1.18,1.18,0,0,0-.5.11,3.11,3.11,0,0,0-.16,1.06,4.69,4.69,0,0,0,.13,1.21,1.19,1.19,0,0,0,.53.13,1,1,0,0,0,.36-.06h0a1,1,0,0,0,.3-.14,6.5,6.5,0,0,1,2.16-.61,8.8,8.8,0,0,1,2.4.5,8.31,8.31,0,0,0,.26,1.67,3.65,3.65,0,0,1-.5.28,3.58,3.58,0,0,1-1.24.16.4.4,0,0,0-.19,0h0a.65.65,0,0,0-.19,0,.74.74,0,0,0-.29.23,5.26,5.26,0,0,0,.51,1.12.58.58,0,0,0,.29,0,.64.64,0,0,0,.18-.1h0a.81.81,0,0,0,.12-.14,3.72,3.72,0,0,1,1-.78,2.53,2.53,0,0,1,.49-.14,9.08,9.08,0,0,0,1.36,2.6,6.19,6.19,0,0,1-.85,1.22,5.66,5.66,0,0,1-1.65,1,.82.82,0,0,0-.26.1h0a1.05,1.05,0,0,0-.25.18,1.24,1.24,0,0,0-.23.35,3.42,3.42,0,0,0,1.19,1.44,1,1,0,0,0,.51-.28,1.44,1.44,0,0,0,.18-.25h0a1.48,1.48,0,0,0,.1-.27,5.71,5.71,0,0,1,.94-1.7,6,6,0,0,1,1.13-.84,8.1,8.1,0,0,0,1.87,1.42,5.17,5.17,0,0,1-.27,1.08,4.88,4.88,0,0,1-1,1.33.73.73,0,0,0-.18.17h0a.74.74,0,0,0-.14.23.92.92,0,0,0-.06.46,3.16,3.16,0,0,0,1.51.56.85.85,0,0,0,.21-.31,1.1,1.1,0,0,0,.06-.26h0a.69.69,0,0,0,0-.25,5,5,0,0,1,.22-1.67,4.9,4.9,0,0,1,.53-.91,8.48,8.48,0,0,0,2.51.62,5.38,5.38,0,0,1,.15,1.1,5,5,0,0,1-.46,1.72,2.56,2.56,0,0,0-.11.24h0a1.35,1.35,0,0,0,0,.29,1,1,0,0,0,0,.29,3.79,3.79,0,0,0,1.78.08.91.91,0,0,0,.08-.37,1.35,1.35,0,0,0,0-.29h0a2.56,2.56,0,0,0-.11-.24,5.25,5.25,0,0,1-.46-1.72,4.9,4.9,0,0,1,.14-1.06,8.35,8.35,0,0,0,2.45-.43,7.25,7.25,0,0,1,.9,1.47,6.76,6.76,0,0,1,.32,2.28,1,1,0,0,0,0,.34h0a1.06,1.06,0,0,0,.09.35A1.38,1.38,0,0,0,231.44,67.1Z"/><g class="cls-8"><ellipse cx="226.81" cy="51.51" rx="1.36" ry="1.39"/><ellipse cx="229.83" cy="47.87" rx="1.15" ry="1.18"/><ellipse cx="229.08" cy="57.83" rx="2.26" ry="2.32"/><ellipse cx="224.11" cy="59.94" rx="0.8" ry="0.82"/><ellipse cx="222.06" cy="51.01" rx="0.83" ry="0.85"/><ellipse cx="223.62" cy="55.8" rx="1.02" ry="1.05"/><ellipse cx="233.3" cy="55.3" rx="0.78" ry="0.8"/><path d="M232.85,51.47a.47.47,0,0,1,0-.93.47.47,0,0,1,0,.93Z"/><path d="M224.64,48.09a.47.47,0,0,1,0-.93.47.47,0,0,1,0,.93Z"/></g><path class="cls-7" d="M34.05,44.47a5.32,5.32,0,0,0,2.16-.85,1.46,1.46,0,0,0-.1-.46,1.69,1.69,0,0,0-.19-.32h0a1.71,1.71,0,0,0-.25-.22,6.58,6.58,0,0,1-1.4-1.8,7.56,7.56,0,0,1-.41-1.67A8.17,8.17,0,0,0,35.51,38a4.93,4.93,0,0,1,1.11.77A3.74,3.74,0,0,1,37.27,40a1.46,1.46,0,0,0,.07.19h0a.7.7,0,0,0,.13.17.79.79,0,0,0,.18.14,2.15,2.15,0,0,0,1-1,1.09,1.09,0,0,0-.13-.17.7.7,0,0,0-.17-.13h0l-.18-.07A3.53,3.53,0,0,1,37,38.41a4.94,4.94,0,0,1-.74-1.12,8.73,8.73,0,0,0,1.62-2.58,4.47,4.47,0,0,1,1.05.24,4.36,4.36,0,0,1,1.17.91.75.75,0,0,0,.15.16h0a.67.67,0,0,0,.2.12.49.49,0,0,0,.16,0,2,2,0,0,0,.58-1.49.71.71,0,0,0-.15-.08.59.59,0,0,0-.22,0h0a.54.54,0,0,0-.22,0,4.08,4.08,0,0,1-1.45-.18,4,4,0,0,1-1-.59,9,9,0,0,0,.35-2.16,7.72,7.72,0,0,1,1.83-.32,6.06,6.06,0,0,1,2.16.61,1,1,0,0,0,.3.14h0a1,1,0,0,0,.36.06,1.28,1.28,0,0,0,.47-.1,5.61,5.61,0,0,0,.11-1.21,4.25,4.25,0,0,0-.18-1.14,1.34,1.34,0,0,0-.4-.07,1,1,0,0,0-.36.06h0a1,1,0,0,0-.3.14,6.27,6.27,0,0,1-2.16.61,7.58,7.58,0,0,1-1.89-.34A8.86,8.86,0,0,0,37.91,28a4,4,0,0,1,.85-.53A3.53,3.53,0,0,1,40,27.26h.19a.65.65,0,0,0,.2-.05.79.79,0,0,0,.27-.2,3.19,3.19,0,0,0-.56-1.19,1,1,0,0,0-.24.05l-.17.11h0a.47.47,0,0,0-.13.15,4.16,4.16,0,0,1-1,.8,4.24,4.24,0,0,1-1,.23,9.31,9.31,0,0,0-1.28-1.88,8.66,8.66,0,0,1,1.25-1.88,6.32,6.32,0,0,1,1.94-1.14.91.91,0,0,0,.31-.12h0a.89.89,0,0,0,.29-.22,1.07,1.07,0,0,0,.14-.16c-.29-1-1.49-1.88-1.64-1.79a1.3,1.3,0,0,0-.23.18,1.12,1.12,0,0,0-.21.29h0a1.39,1.39,0,0,0-.12.32,6.41,6.41,0,0,1-1.11,2A8.18,8.18,0,0,1,35,24.1,8.43,8.43,0,0,0,32.92,23a3.65,3.65,0,0,1,.2-.79A3.94,3.94,0,0,1,34,21.09.67.67,0,0,0,34.1,21h0a.45.45,0,0,0,.11-.19.71.71,0,0,0,.06-.28A2.51,2.51,0,0,0,33,20a.56.56,0,0,0-.09.17.83.83,0,0,0-.06.21h0a1.48,1.48,0,0,0,0,.21A3.92,3.92,0,0,1,32.63,22a3.93,3.93,0,0,1-.44.76,8.35,8.35,0,0,0-1.73-.3A8.17,8.17,0,0,1,30,20.22a5.77,5.77,0,0,1,.52-2,1.39,1.39,0,0,0,.12-.28h0a1.13,1.13,0,0,0,.05-.32,1.11,1.11,0,0,0,0-.19,2.3,2.3,0,0,0-1-.2,2.56,2.56,0,0,0-1.1.22c0,.05,0,.11,0,.17a1.13,1.13,0,0,0,.05.32h0a1.39,1.39,0,0,0,.12.28,5.77,5.77,0,0,1,.52,2,8.87,8.87,0,0,1-.45,2.27,8.47,8.47,0,0,0-1.6.37,6.49,6.49,0,0,1-.94-1.42A5.13,5.13,0,0,1,26,19.71a.76.76,0,0,0,0-.26h0a.9.9,0,0,0-.07-.27,1,1,0,0,0-.11-.2,2.64,2.64,0,0,0-1.67.68s0,.18.07.27a1,1,0,0,0,.15.24h0a.72.72,0,0,0,.18.17,5.22,5.22,0,0,1,1.07,1.37A7,7,0,0,1,26,23.38a8,8,0,0,0-1.55,1l-.2.18a4.87,4.87,0,0,1-1-.76c-.34-.36-.3-.7-.42-1a1,1,0,0,0-.07-.21h0a.66.66,0,0,0-.14-.2.72.72,0,0,0-.25-.18,4.12,4.12,0,0,0-1,1.07.71.71,0,0,0,.18.28.84.84,0,0,0,.18.15h0a.86.86,0,0,0,.21.07,2.1,2.1,0,0,1,1,.46,5.15,5.15,0,0,1,.72,1.07l-.09.1h0a9.45,9.45,0,0,0-1.23,1.87A6.7,6.7,0,0,1,20.52,27a5.18,5.18,0,0,1-1.39-1.09,1.54,1.54,0,0,0-.17-.19h0a1,1,0,0,0-.24-.15,1,1,0,0,0-.25-.06,4.79,4.79,0,0,0-.69,1.75,1,1,0,0,0,.23.13.9.9,0,0,0,.27.07h0a1.1,1.1,0,0,0,.26,0,5.12,5.12,0,0,1,1.74.21,6.25,6.25,0,0,1,1.42.94,10,10,0,0,0-.32,1.36,8.7,8.7,0,0,1-2.48.53,6.27,6.27,0,0,1-2.16-.61,1,1,0,0,0-.3-.14h0a1.11,1.11,0,0,0-.86.06,3.11,3.11,0,0,0-.16,1.06A4.69,4.69,0,0,0,15.54,32a1.19,1.19,0,0,0,.53.13,1,1,0,0,0,.36-.06h0a1,1,0,0,0,.3-.14,6.06,6.06,0,0,1,2.16-.61,8.8,8.8,0,0,1,2.4.5,8.42,8.42,0,0,0,.26,1.67,3.65,3.65,0,0,1-.5.28,3.58,3.58,0,0,1-1.24.15h-.19l-.19,0a.66.66,0,0,0-.29.23,5.75,5.75,0,0,0,.51,1.12.61.61,0,0,0,.29,0,.69.69,0,0,0,.17-.1h0a.86.86,0,0,0,.13-.14,3.72,3.72,0,0,1,1-.78,3.51,3.51,0,0,1,.49-.15,9.14,9.14,0,0,0,1.36,2.61,6.19,6.19,0,0,1-.85,1.22,5.4,5.4,0,0,1-1.65,1l-.26.1h0a.92.92,0,0,0-.25.19,1,1,0,0,0-.23.35A3.42,3.42,0,0,0,21,41a1.08,1.08,0,0,0,.51-.28,1.51,1.51,0,0,0,.18-.26h0a1.08,1.08,0,0,0,.1-.27,5.46,5.46,0,0,1,.94-1.69,6,6,0,0,1,1.13-.84,8.39,8.39,0,0,0,1.87,1.42,5.17,5.17,0,0,1-.27,1.08,5,5,0,0,1-1,1.33.69.69,0,0,0-.18.16h0a1,1,0,0,0-.14.24.92.92,0,0,0-.06.46,3.16,3.16,0,0,0,1.51.56,1.13,1.13,0,0,0,.21-.31,1.22,1.22,0,0,0,.06-.26h0a.69.69,0,0,0,0-.25,5,5,0,0,1,.22-1.67,5.33,5.33,0,0,1,.53-.92,8.2,8.2,0,0,0,2.51.63,5.29,5.29,0,0,1,.15,1.09,5.31,5.31,0,0,1-.46,1.73,1.33,1.33,0,0,0-.11.24h0a1.35,1.35,0,0,0,0,.29,1.26,1.26,0,0,0,0,.28,3.75,3.75,0,0,0,1.79.09.91.91,0,0,0,.08-.37,1.35,1.35,0,0,0,0-.29h0a1.33,1.33,0,0,0-.11-.24A5.31,5.31,0,0,1,30,41.19a4.89,4.89,0,0,1,.14-1,8.35,8.35,0,0,0,2.45-.43,7.25,7.25,0,0,1,.9,1.47,6.7,6.7,0,0,1,.32,2.27,1,1,0,0,0,0,.34h0a1.06,1.06,0,0,0,.09.36A1.42,1.42,0,0,0,34.05,44.47Z"/><g class="cls-8"><ellipse cx="29.43" cy="28.89" rx="1.36" ry="1.39"/><ellipse cx="32.44" cy="25.25" rx="1.15" ry="1.18"/><ellipse cx="31.7" cy="35.21" rx="2.26" ry="2.32"/><ellipse cx="26.73" cy="37.32" rx="0.8" ry="0.82"/><ellipse cx="24.68" cy="28.38" rx="0.83" ry="0.85"/><ellipse cx="26.24" cy="33.18" rx="1.02" ry="1.05"/><ellipse cx="35.92" cy="32.67" rx="0.78" ry="0.8"/><path d="M35.47,28.85a.47.47,0,0,1,0-.93.47.47,0,0,1,0,.93Z"/><path d="M27.26,25.47a.47.47,0,0,1,0-.93.47.47,0,0,1,0,.93Z"/></g><path class="cls-7" d="M208.42,159.65a6.32,6.32,0,0,0,2.45-.93,1.26,1.26,0,0,0-.12-.49,1.13,1.13,0,0,0-.21-.35h0a1.61,1.61,0,0,0-.28-.24,7.15,7.15,0,0,1-1.59-1.95,7.69,7.69,0,0,1-.47-1.8,10.67,10.67,0,0,0,1.88-1.23,5.83,5.83,0,0,1,1.26.83,4,4,0,0,1,.74,1.27.7.7,0,0,0,.08.2h0a.67.67,0,0,0,.14.19l.21.15a2.34,2.34,0,0,0,1.09-1.09.85.85,0,0,0-.14-.19,1.33,1.33,0,0,0-.19-.14h0a.86.86,0,0,0-.21-.07,4.31,4.31,0,0,1-1.3-.73,5.06,5.06,0,0,1-.84-1.21,9.51,9.51,0,0,0,1.84-2.8,5.24,5.24,0,0,1,1.2.27,4.78,4.78,0,0,1,1.33,1,.91.91,0,0,0,.17.17h0a.88.88,0,0,0,.23.14l.19.05a2.2,2.2,0,0,0,.65-1.62l-.16-.08-.26-.06h0a1,1,0,0,0-.25,0,4.78,4.78,0,0,1-1.65-.19,5.46,5.46,0,0,1-1.09-.64,9.47,9.47,0,0,0,.4-2.34,8.69,8.69,0,0,1,2.08-.34,7.41,7.41,0,0,1,2.46.65,1.33,1.33,0,0,0,.34.16h0a1.4,1.4,0,0,0,.41.06,1.32,1.32,0,0,0,.53-.11,5.62,5.62,0,0,0,.13-1.31,4.52,4.52,0,0,0-.2-1.23,1.43,1.43,0,0,0-.46-.07,1.84,1.84,0,0,0-.41.05h0a1.33,1.33,0,0,0-.34.16,7.65,7.65,0,0,1-2.46.66,9.31,9.31,0,0,1-2.16-.37,9,9,0,0,0-.63-2.32,5,5,0,0,1,1-.58,4.38,4.38,0,0,1,1.46-.17.5.5,0,0,0,.21,0h0a.59.59,0,0,0,.23,0,.85.85,0,0,0,.31-.21,3.55,3.55,0,0,0-.64-1.29.66.66,0,0,0-.27.06,1,1,0,0,0-.2.11h0a.75.75,0,0,0-.15.16,4.44,4.44,0,0,1-1.16.87,5.48,5.48,0,0,1-1.15.25,9.78,9.78,0,0,0-1.46-2,9.24,9.24,0,0,1,1.42-2,7.36,7.36,0,0,1,2.22-1.24,1.48,1.48,0,0,0,.35-.13h0a1.5,1.5,0,0,0,.33-.23,1.19,1.19,0,0,0,.15-.18,3.41,3.41,0,0,0-1.86-1.94,1.15,1.15,0,0,0-.26.19,1.41,1.41,0,0,0-.24.32h0a1.14,1.14,0,0,0-.13.35,7.4,7.4,0,0,1-1.27,2.16,9.85,9.85,0,0,1-2.19,1.44,10.3,10.3,0,0,0-2.35-1.23,4.63,4.63,0,0,1,.24-.85,4.32,4.32,0,0,1,.94-1.18.61.61,0,0,0,.17-.15h0a.86.86,0,0,0,.13-.2,1.16,1.16,0,0,0,.07-.31,3,3,0,0,0-1.51-.51,1.74,1.74,0,0,0-.11.18,1.05,1.05,0,0,0-.06.24h0a1.62,1.62,0,0,0,0,.22,4.09,4.09,0,0,1-.2,1.48,4,4,0,0,1-.51.82,10.52,10.52,0,0,0-2-.32,8.57,8.57,0,0,1-.5-2.39,6.23,6.23,0,0,1,.59-2.13,1.59,1.59,0,0,0,.15-.29h0a1.34,1.34,0,0,0,.05-.35,1.23,1.23,0,0,0,0-.2,2.66,2.66,0,0,0-1.19-.23,3,3,0,0,0-1.25.24,1.15,1.15,0,0,0,0,.19,1.34,1.34,0,0,0,.05.35h0a1.11,1.11,0,0,0,.14.29,6.23,6.23,0,0,1,.6,2.13,8.92,8.92,0,0,1-.52,2.46,9.82,9.82,0,0,0-1.82.4,7,7,0,0,1-1.07-1.54,5.31,5.31,0,0,1-.27-1.87,1.34,1.34,0,0,0,0-.28h0a1.11,1.11,0,0,0-.08-.3,1.59,1.59,0,0,0-.13-.22,3.15,3.15,0,0,0-1.9.75,2.34,2.34,0,0,0,.08.29,1.06,1.06,0,0,0,.17.26h0a.91.91,0,0,0,.21.18,5.62,5.62,0,0,1,1.21,1.48,7,7,0,0,1,.41,1.81,9.73,9.73,0,0,0-1.76,1.12l-.23.19a5.73,5.73,0,0,1-1.19-.82c-.38-.39-.33-.75-.47-1.11a.85.85,0,0,0-.09-.22h0a1,1,0,0,0-.16-.21.81.81,0,0,0-.29-.19,4.63,4.63,0,0,0-1.2,1.15,1.06,1.06,0,0,0,.21.31.83.83,0,0,0,.21.16h0a1,1,0,0,0,.23.08,2.43,2.43,0,0,1,1.1.5,5.86,5.86,0,0,1,.82,1.15l-.1.12h0a9.65,9.65,0,0,0-1.4,2,7.41,7.41,0,0,1-1.9-.36,5.92,5.92,0,0,1-1.59-1.18.8.8,0,0,0-.2-.21h0a1.2,1.2,0,0,0-.27-.16l-.29-.07a5,5,0,0,0-.78,1.9,1.08,1.08,0,0,0,.26.14.82.82,0,0,0,.31.07h0a.93.93,0,0,0,.29,0,5.75,5.75,0,0,1,2,.22,7.28,7.28,0,0,1,1.62,1,9,9,0,0,0-.36,1.47,10.66,10.66,0,0,1-2.83.58,7.65,7.65,0,0,1-2.46-.66,1.5,1.5,0,0,0-.34-.16h0a1.84,1.84,0,0,0-.41-.05,1.35,1.35,0,0,0-.57.12,3.09,3.09,0,0,0-.19,1.15,4.82,4.82,0,0,0,.15,1.31,1.37,1.37,0,0,0,.61.14,1.4,1.4,0,0,0,.41-.06h0a1.5,1.5,0,0,0,.34-.16,7.41,7.41,0,0,1,2.46-.65,9.87,9.87,0,0,1,2.73.54,9.66,9.66,0,0,0,.29,1.8,3.91,3.91,0,0,1-.56.31,4.38,4.38,0,0,1-1.42.16H192a.9.9,0,0,0-.22.06.75.75,0,0,0-.33.24,5.77,5.77,0,0,0,.58,1.22.82.82,0,0,0,.34-.06,1.18,1.18,0,0,0,.19-.11h0a1.06,1.06,0,0,0,.15-.15,4.06,4.06,0,0,1,1.13-.85,4.41,4.41,0,0,1,.55-.15,9.8,9.8,0,0,0,1.55,2.82,6.71,6.71,0,0,1-1,1.32,6.29,6.29,0,0,1-1.88,1.05,1.18,1.18,0,0,0-.3.1h0a1.37,1.37,0,0,0-.28.21,1.22,1.22,0,0,0-.26.38,3.92,3.92,0,0,0,1.36,1.56,1.19,1.19,0,0,0,.57-.31,1.08,1.08,0,0,0,.21-.28h0a1,1,0,0,0,.11-.29,6,6,0,0,1,1.07-1.83,6.65,6.65,0,0,1,1.29-.91,9.9,9.9,0,0,0,2.13,1.54,5.49,5.49,0,0,1-.3,1.16,5.29,5.29,0,0,1-1.16,1.44,1.12,1.12,0,0,0-.2.18h0a1,1,0,0,0-.16.25,1,1,0,0,0-.07.51,3.64,3.64,0,0,0,1.72.6,1,1,0,0,0,.24-.33,1,1,0,0,0,.07-.29h0a.82.82,0,0,0,0-.27,5.11,5.11,0,0,1,.24-1.81,6.16,6.16,0,0,1,.61-1,9.8,9.8,0,0,0,2.86.68,5,5,0,0,1,.17,1.19,5.59,5.59,0,0,1-.52,1.87.77.77,0,0,0-.12.26h0a1.06,1.06,0,0,0-.05.31,1.12,1.12,0,0,0,.05.31,4.43,4.43,0,0,0,2,.09.9.9,0,0,0,.09-.4,1.06,1.06,0,0,0-.05-.31h0a1,1,0,0,0-.12-.26,5.36,5.36,0,0,1-.53-1.87,5.92,5.92,0,0,1,.17-1.15,9.81,9.81,0,0,0,2.78-.46,8.35,8.35,0,0,1,1,1.59,6.94,6.94,0,0,1,.35,2.47,1.45,1.45,0,0,0,0,.36h0a1.25,1.25,0,0,0,.33.74Z"/><g class="cls-8"><ellipse cx="203.15" cy="142.77" rx="1.54" ry="1.51"/><ellipse cx="206.58" cy="138.83" rx="1.31" ry="1.27"/><ellipse cx="205.74" cy="149.62" rx="2.57" ry="2.51"/><ellipse cx="200.07" cy="151.9" rx="0.91" ry="0.89"/><ellipse cx="197.74" cy="142.22" rx="0.95" ry="0.92"/><ellipse cx="199.52" cy="147.42" rx="1.16" ry="1.13"/><ellipse cx="210.54" cy="146.87" rx="0.89" ry="0.87"/><path d="M210,142.73a.51.51,0,0,1-.52-.51.52.52,0,0,1,1,0A.51.51,0,0,1,210,142.73Z"/><path d="M200.68,139.07a.52.52,0,0,1-.52-.51.51.51,0,0,1,.52-.5.51.51,0,0,1,.52.5A.51.51,0,0,1,200.68,139.07Z"/></g><path class="cls-7" d="M166.11,41.92a7.76,7.76,0,0,0,3.06-1.17,1.7,1.7,0,0,0-.14-.63,1.79,1.79,0,0,0-.27-.44h0a1.73,1.73,0,0,0-.35-.31,9,9,0,0,1-2-2.46,9.5,9.5,0,0,1-.58-2.29,12.66,12.66,0,0,0,2.34-1.55,7.12,7.12,0,0,1,1.58,1,5.2,5.2,0,0,1,.93,1.61.93.93,0,0,0,.1.26h0a.94.94,0,0,0,.18.24.81.81,0,0,0,.26.18A2.91,2.91,0,0,0,172.59,35a1.08,1.08,0,0,0-.18-.24.81.81,0,0,0-.24-.17h0a.82.82,0,0,0-.26-.1,5.29,5.29,0,0,1-1.63-.91,7.25,7.25,0,0,1-1.05-1.54,12,12,0,0,0,2.31-3.55,6.69,6.69,0,0,1,1.5.34,6.09,6.09,0,0,1,1.66,1.24,1.15,1.15,0,0,0,.21.23h0a1.15,1.15,0,0,0,.29.16.88.88,0,0,0,.23.07,2.77,2.77,0,0,0,.82-2l-.2-.1a1.32,1.32,0,0,0-.33-.08h0a1.08,1.08,0,0,0-.31,0,6.34,6.34,0,0,1-2.07-.24A7.21,7.21,0,0,1,172,27.3a12.64,12.64,0,0,0,.5-3,11.51,11.51,0,0,1,2.59-.44,9.07,9.07,0,0,1,3.08.84,1.66,1.66,0,0,0,.43.19h0a1.67,1.67,0,0,0,1.18-.06,7.61,7.61,0,0,0,.15-1.65,5.68,5.68,0,0,0-.25-1.56,1.8,1.8,0,0,0-.57-.1,1.7,1.7,0,0,0-.51.08h0a1.66,1.66,0,0,0-.43.19,8.86,8.86,0,0,1-3.08.83,11.23,11.23,0,0,1-2.69-.46,12,12,0,0,0-.79-2.94,6.53,6.53,0,0,1,1.2-.73,5.57,5.57,0,0,1,1.82-.21,1.22,1.22,0,0,0,.27,0h0a1,1,0,0,0,.29-.07.94.94,0,0,0,.38-.27,4.44,4.44,0,0,0-.8-1.63,1.37,1.37,0,0,0-.34.07,1,1,0,0,0-.25.15h0a.86.86,0,0,0-.18.2,5.31,5.31,0,0,1-1.46,1.1,6.17,6.17,0,0,1-1.43.31,12.58,12.58,0,0,0-1.82-2.57A11.74,11.74,0,0,1,171.05,13a9.24,9.24,0,0,1,2.77-1.56,2.32,2.32,0,0,0,.44-.16h0a1.48,1.48,0,0,0,.42-.3,2,2,0,0,0,.19-.22,4.3,4.3,0,0,0-2.34-2.46,1.85,1.85,0,0,0-.32.25,1.9,1.9,0,0,0-.3.4h0a1.82,1.82,0,0,0-.17.44,8.9,8.9,0,0,1-1.58,2.74A12,12,0,0,1,167.42,14a12.63,12.63,0,0,0-2.93-1.55,5.19,5.19,0,0,1,.29-1.08A5.47,5.47,0,0,1,166,9.85a1.29,1.29,0,0,0,.21-.19h0a1,1,0,0,0,.16-.26,1.1,1.1,0,0,0,.09-.39,3.65,3.65,0,0,0-1.88-.64.83.83,0,0,0-.14.22,1.09,1.09,0,0,0-.07.3h0a.88.88,0,0,0,0,.28,5.77,5.77,0,0,1-.25,1.88,5.72,5.72,0,0,1-.64,1,12.49,12.49,0,0,0-2.47-.41,11.07,11.07,0,0,1-.62-3A7.85,7.85,0,0,1,161.1,6a1.33,1.33,0,0,0,.18-.38h0a1.61,1.61,0,0,0,.06-.44,1,1,0,0,0,0-.25,3.26,3.26,0,0,0-1.48-.29,3.69,3.69,0,0,0-1.57.31,1.64,1.64,0,0,0,0,.23,1.62,1.62,0,0,0,.07.44h0a1.33,1.33,0,0,0,.18.38,7.85,7.85,0,0,1,.74,2.7,11,11,0,0,1-.65,3.1,12.27,12.27,0,0,0-2.27.52,8.81,8.81,0,0,1-1.34-2A6.84,6.84,0,0,1,154.64,8a1,1,0,0,0,0-.35h0a1.07,1.07,0,0,0-.1-.38,1.2,1.2,0,0,0-.16-.27,3.85,3.85,0,0,0-2.37.94,2.71,2.71,0,0,0,.1.37,1.15,1.15,0,0,0,.21.33h0a1.38,1.38,0,0,0,.26.23,7.11,7.11,0,0,1,1.52,1.88,9.36,9.36,0,0,1,.51,2.28,12,12,0,0,0-2.2,1.43l-.29.23a7.54,7.54,0,0,1-1.48-1c-.49-.5-.42-1-.6-1.41a1.11,1.11,0,0,0-.1-.29h0a2.34,2.34,0,0,0-.2-.27,1.24,1.24,0,0,0-.37-.24,6.07,6.07,0,0,0-1.5,1.46,1.11,1.11,0,0,0,.26.39,1.05,1.05,0,0,0,.27.2h0a1,1,0,0,0,.29.1,3.09,3.09,0,0,1,1.37.63,7.15,7.15,0,0,1,1,1.47l-.13.14h0a12.36,12.36,0,0,0-1.74,2.55,9.11,9.11,0,0,1-2.38-.46,7,7,0,0,1-2-1.49,1.54,1.54,0,0,0-.25-.26h0a1.51,1.51,0,0,0-.35-.2,1.19,1.19,0,0,0-.36-.09,6.37,6.37,0,0,0-1,2.4,1.4,1.4,0,0,0,.32.18,1.38,1.38,0,0,0,.39.09h0a1.45,1.45,0,0,0,.36,0,7,7,0,0,1,2.47.29,9,9,0,0,1,2,1.28,12.75,12.75,0,0,0-.45,1.87,12.76,12.76,0,0,1-3.53.72,8.86,8.86,0,0,1-3.08-.83,1.66,1.66,0,0,0-.43-.19h0a1.7,1.7,0,0,0-.51-.08,1.68,1.68,0,0,0-.71.16,3.94,3.94,0,0,0-.24,1.45,6.12,6.12,0,0,0,.19,1.66,1.77,1.77,0,0,0,.76.18,1.7,1.7,0,0,0,.51-.08h0a1.66,1.66,0,0,0,.43-.19,9.07,9.07,0,0,1,3.08-.84,13.13,13.13,0,0,1,3.41.69,11.64,11.64,0,0,0,.37,2.29,5.49,5.49,0,0,1-.71.38,5.28,5.28,0,0,1-1.77.21,1.13,1.13,0,0,0-.26,0h0a.89.89,0,0,0-.28.07,1,1,0,0,0-.41.31,7.71,7.71,0,0,0,.72,1.54,1.23,1.23,0,0,0,.42-.07,1.28,1.28,0,0,0,.25-.15h0a.81.81,0,0,0,.18-.19,5,5,0,0,1,1.41-1.07,4.63,4.63,0,0,1,.69-.19,12.49,12.49,0,0,0,1.94,3.57,8.49,8.49,0,0,1-1.21,1.67,8,8,0,0,1-2.35,1.33,1.71,1.71,0,0,0-.38.13h0a1.67,1.67,0,0,0-.35.26,1.49,1.49,0,0,0-.32.48,4.78,4.78,0,0,0,1.69,2,1.4,1.4,0,0,0,.72-.4,1.19,1.19,0,0,0,.26-.34h0a1.28,1.28,0,0,0,.14-.37A7.74,7.74,0,0,1,150,33.68a9.54,9.54,0,0,1,1.61-1.15,12.29,12.29,0,0,0,2.67,1.95,6.31,6.31,0,0,1-.39,1.48,6.58,6.58,0,0,1-1.44,1.82,1.09,1.09,0,0,0-.25.23h0a1.42,1.42,0,0,0-.19.32,1.16,1.16,0,0,0-.09.63,4.43,4.43,0,0,0,2.15.77,1.29,1.29,0,0,0,.3-.42,1.19,1.19,0,0,0,.09-.36h0a1.28,1.28,0,0,0,0-.34,6.56,6.56,0,0,1,.3-2.3,7.46,7.46,0,0,1,.76-1.25,12.18,12.18,0,0,0,3.58.86,7.31,7.31,0,0,1,.21,1.5,6.93,6.93,0,0,1-.65,2.37,1.26,1.26,0,0,0-.16.33h0a1.3,1.3,0,0,0,0,.78,5.53,5.53,0,0,0,2.55.13,1.31,1.31,0,0,0,.11-.52,1.59,1.59,0,0,0-.06-.39h0a1.26,1.26,0,0,0-.16-.33,6.93,6.93,0,0,1-.65-2.37,6.74,6.74,0,0,1,.2-1.45,12.49,12.49,0,0,0,3.48-.58,10.13,10.13,0,0,1,1.3,2,8.91,8.91,0,0,1,.44,3.12,1.48,1.48,0,0,0,0,.47h0a1.78,1.78,0,0,0,.13.49A1.57,1.57,0,0,0,166.11,41.92Z"/><g class="cls-8"><ellipse cx="159.52" cy="20.54" rx="1.93" ry="1.91"/><ellipse cx="163.81" cy="15.55" rx="1.63" ry="1.61"/><ellipse cx="162.75" cy="29.22" rx="3.22" ry="3.18"/><ellipse cx="155.67" cy="32.1" rx="1.13" ry="1.12"/><ellipse cx="152.76" cy="19.85" rx="1.18" ry="1.17"/><ellipse cx="154.98" cy="26.43" rx="1.45" ry="1.44"/><ellipse cx="168.77" cy="25.74" rx="1.12" ry="1.1"/><path d="M168.12,20.49a.64.64,0,1,1,.65-.64A.65.65,0,0,1,168.12,20.49Z"/><path d="M156.44,15.85a.64.64,0,1,1,.64-.64A.64.64,0,0,1,156.44,15.85Z"/></g><path class="cls-7" d="M18.51,53.49a2.39,2.39,0,0,0,.92-.32.59.59,0,0,0,0-.17.94.94,0,0,0-.09-.12h0a.39.39,0,0,0-.1-.08,2.48,2.48,0,0,1-.6-.67,2.58,2.58,0,0,1-.17-.62,3.55,3.55,0,0,0,.7-.43,2.67,2.67,0,0,1,.48.29,1.25,1.25,0,0,1,.27.44l0,.07h0l.06.06.08.05a.81.81,0,0,0,.4-.37.18.18,0,0,0-.05-.07l-.07,0h0l-.08,0a1.63,1.63,0,0,1-.49-.25,2,2,0,0,1-.31-.42,3.26,3.26,0,0,0,.69-1,1.71,1.71,0,0,1,.45.09,1.82,1.82,0,0,1,.5.34l.06.06h0l.09,0,.07,0a.68.68,0,0,0,.24-.55.09.09,0,0,0-.06,0l-.1,0H21.3a2.39,2.39,0,0,1-.62-.06,2.38,2.38,0,0,1-.41-.23,2.64,2.64,0,0,0,.15-.8,3.51,3.51,0,0,1,.78-.12,2.88,2.88,0,0,1,.93.23l.13,0h0l.15,0a.45.45,0,0,0,.2,0,1.75,1.75,0,0,0,.05-.45,1.36,1.36,0,0,0-.08-.42.47.47,0,0,0-.17,0l-.15,0h0a.31.31,0,0,0-.13.06,2.89,2.89,0,0,1-.93.22,3.19,3.19,0,0,1-.81-.13,3.11,3.11,0,0,0-.23-.79,1.43,1.43,0,0,1,.36-.2,1.82,1.82,0,0,1,.54-.06h.09l.08,0a.24.24,0,0,0,.12-.07,1.34,1.34,0,0,0-.24-.44.16.16,0,0,0-.1,0,.2.2,0,0,0-.08,0h0l-.06,0a1.53,1.53,0,0,1-.43.3A3,3,0,0,1,20,47a3.4,3.4,0,0,0-.55-.7,3.2,3.2,0,0,1,.53-.71,2.82,2.82,0,0,1,.83-.42l.14-.05h0a.42.42,0,0,0,.12-.08l.06-.06a1.24,1.24,0,0,0-.7-.67l-.1.07a.31.31,0,0,0-.09.11h0a.61.61,0,0,0-.05.12,2.39,2.39,0,0,1-.47.74,4,4,0,0,1-.83.5,3.76,3.76,0,0,0-.88-.42,1.49,1.49,0,0,1,.09-.3,1.76,1.76,0,0,1,.35-.4l.07-.05h0a.56.56,0,0,0,0-.08.3.3,0,0,0,0-.1,1.23,1.23,0,0,0-.56-.18.16.16,0,0,0,0,.07s0,0,0,.08h0a.17.17,0,0,0,0,.07,1.42,1.42,0,0,1-.08.51,1.81,1.81,0,0,1-.19.29,3.67,3.67,0,0,0-.74-.11,2.66,2.66,0,0,1-.19-.83,2.33,2.33,0,0,1,.22-.73.53.53,0,0,0,.06-.1h0a.5.5,0,0,0,0-.12s0-.05,0-.07a1.09,1.09,0,0,0-.45-.08,1.17,1.17,0,0,0-.46.08.17.17,0,0,0,0,.07.5.5,0,0,0,0,.12h0a.47.47,0,0,0,0,.1,2.09,2.09,0,0,1,.23.73,3,3,0,0,1-.2.85,3.91,3.91,0,0,0-.68.14,2.55,2.55,0,0,1-.4-.53,1.61,1.61,0,0,1-.11-.65.28.28,0,0,0,0-.09h0l0-.11L15,44a1.22,1.22,0,0,0-.71.26.43.43,0,0,0,0,.1.16.16,0,0,0,.06.08h0a.27.27,0,0,0,.08.07,1.91,1.91,0,0,1,.45.51,2.36,2.36,0,0,1,.16.62,3.59,3.59,0,0,0-.66.39l-.09.06a2.11,2.11,0,0,1-.45-.28c-.14-.14-.12-.26-.17-.38a.2.2,0,0,0,0-.08h0a.13.13,0,0,0-.06-.07.26.26,0,0,0-.11-.07,1.66,1.66,0,0,0-.45.4.39.39,0,0,0,.08.1l.08.06h0l.09,0a.88.88,0,0,1,.41.17,1.72,1.72,0,0,1,.31.4l0,0h0a3.18,3.18,0,0,0-.52.7,3,3,0,0,1-.72-.13,2,2,0,0,1-.59-.4.27.27,0,0,0-.08-.07h0a.33.33,0,0,0-.1-.06l-.11,0a1.49,1.49,0,0,0-.29.65l.09.05.12,0h0a.21.21,0,0,0,.11,0,2.23,2.23,0,0,1,.74.08,2.62,2.62,0,0,1,.61.35,2.83,2.83,0,0,0-.13.5,3.84,3.84,0,0,1-1.07.2A2.82,2.82,0,0,1,11.1,48,.31.31,0,0,0,11,48h0l-.15,0a.78.78,0,0,0-.22,0,1,1,0,0,0-.07.4,1.4,1.4,0,0,0,.06.45.59.59,0,0,0,.23,0l.15,0h0l.13,0a2.81,2.81,0,0,1,.92-.23,4,4,0,0,1,1,.19,2.6,2.6,0,0,0,.11.62,1,1,0,0,1-.21.1,1.79,1.79,0,0,1-.54.06s-.05,0-.07,0h-.09a.27.27,0,0,0-.12.09,1.9,1.9,0,0,0,.22.42l.12,0,.08,0h0s0,0,0-.05a1.55,1.55,0,0,1,.42-.29l.21-.06a3.19,3.19,0,0,0,.59,1,2.76,2.76,0,0,1-.37.46,2.34,2.34,0,0,1-.7.36l-.12,0h0l-.1.07a.31.31,0,0,0-.1.13,1.4,1.4,0,0,0,.51.54.53.53,0,0,0,.21-.11.32.32,0,0,0,.08-.09h0a.25.25,0,0,0,0-.11,2.23,2.23,0,0,1,.41-.63,2.83,2.83,0,0,1,.48-.31,3.59,3.59,0,0,0,.8.53,1.68,1.68,0,0,1-.11.4,2,2,0,0,1-.44.5.13.13,0,0,0-.07.06h0a.15.15,0,0,0-.06.09.25.25,0,0,0,0,.17,1.55,1.55,0,0,0,.65.21.36.36,0,0,0,.08-.12.17.17,0,0,0,0-.1h0a.27.27,0,0,0,0-.09A1.6,1.6,0,0,1,15.1,52a1.56,1.56,0,0,1,.23-.34,4.16,4.16,0,0,0,1.07.23,1.53,1.53,0,0,1,.07.41,1.85,1.85,0,0,1-.2.64.41.41,0,0,0-.05.09h0a.61.61,0,0,0,0,.22,2,2,0,0,0,.77,0,.32.32,0,0,0,0-.14A.43.43,0,0,0,17,53h0a.36.36,0,0,0,0-.09,1.66,1.66,0,0,1-.2-.64,1.94,1.94,0,0,1,.06-.4,4,4,0,0,0,1.05-.15,3.36,3.36,0,0,1,.39.54,2.29,2.29,0,0,1,.13.85.57.57,0,0,0,0,.13h0a.65.65,0,0,0,0,.13A.38.38,0,0,0,18.51,53.49Z"/><g class="cls-8"><ellipse cx="16.53" cy="47.68" rx="0.58" ry="0.52"/><ellipse cx="17.82" cy="46.32" rx="0.49" ry="0.44"/><ellipse cx="17.5" cy="50.04" rx="0.97" ry="0.86"/><ellipse cx="15.37" cy="50.82" rx="0.34" ry="0.31"/><ellipse cx="14.5" cy="47.49" rx="0.36" ry="0.32"/><ellipse cx="15.17" cy="49.28" rx="0.44" ry="0.39"/><ellipse cx="19.31" cy="49.09" rx="0.34" ry="0.3"/><path d="M19.11,47.66a.18.18,0,1,1,0-.35.18.18,0,1,1,0,.35Z"/><path d="M15.6,46.4a.18.18,0,1,1,0-.35.18.18,0,1,1,0,.35Z"/></g><path class="cls-7" d="M190.71,20.93a2.5,2.5,0,0,0,.92-.32.33.33,0,0,0,0-.17.5.5,0,0,0-.08-.12h0l-.11-.08a2.62,2.62,0,0,1-.59-.67,2.68,2.68,0,0,1-.18-.63,3.59,3.59,0,0,0,.71-.42,2.13,2.13,0,0,1,.47.29,1.56,1.56,0,0,1,.28.43l0,.07h0a.18.18,0,0,0,0,.07l.08.05a.81.81,0,0,0,.41-.38l0-.06-.08,0h0l-.07,0a2.07,2.07,0,0,1-.49-.25,2,2,0,0,1-.32-.42,3.34,3.34,0,0,0,.7-1,2.26,2.26,0,0,1,.45.1,1.74,1.74,0,0,1,.49.33.13.13,0,0,0,.07.06h0l.08.05.07,0a.74.74,0,0,0,.25-.56l-.06,0-.1,0h-.09a1.44,1.44,0,0,1-1-.29,3.13,3.13,0,0,0,.15-.81,4.08,4.08,0,0,1,.78-.12,3.09,3.09,0,0,1,.92.23l.13.05h0a.4.4,0,0,0,.15,0,.71.71,0,0,0,.21,0,2.16,2.16,0,0,0,0-.45,1.55,1.55,0,0,0-.07-.43l-.18,0a.39.39,0,0,0-.15,0h0l-.13.05a3.09,3.09,0,0,1-.92.23,4.41,4.41,0,0,1-.81-.13,2.74,2.74,0,0,0-.24-.8,2.53,2.53,0,0,1,.36-.2,1.56,1.56,0,0,1,.55-.05h.08l.09,0a.41.41,0,0,0,.11-.07,1,1,0,0,0-.24-.45l-.1,0-.07,0h0l0,.06a1.77,1.77,0,0,1-.44.3,2,2,0,0,1-.43.08,3.64,3.64,0,0,0-.54-.7,3.15,3.15,0,0,1,.53-.7,3,3,0,0,1,.83-.43l.13,0h0a.57.57,0,0,0,.13-.08l.05-.06a1.21,1.21,0,0,0-.7-.67l-.09.07a.31.31,0,0,0-.09.11h0a.22.22,0,0,0-.05.12,2.56,2.56,0,0,1-.48.74,3.92,3.92,0,0,1-.82.5,4,4,0,0,0-.88-.43,1.4,1.4,0,0,1,.09-.29,1.43,1.43,0,0,1,.35-.41.15.15,0,0,0,.06,0h0a.18.18,0,0,0,.05-.07.19.19,0,0,0,0-.1,1.16,1.16,0,0,0-.57-.18l0,.06a.31.31,0,0,0,0,.08h0V12a1.39,1.39,0,0,1-.07.51,1.73,1.73,0,0,1-.19.28,5.88,5.88,0,0,0-.75-.11,2.6,2.6,0,0,1-.18-.82,1.9,1.9,0,0,1,.22-.73.54.54,0,0,0,0-.11h0a.22.22,0,0,0,0-.12v-.07a1.22,1.22,0,0,0-.45-.07,1.26,1.26,0,0,0-.47.08v.06a.22.22,0,0,0,0,.12h0a.54.54,0,0,0,.05.11,1.9,1.9,0,0,1,.22.73,2.79,2.79,0,0,1-.19.85,3.13,3.13,0,0,0-.69.14,3.15,3.15,0,0,1-.4-.54,1.73,1.73,0,0,1-.1-.64.17.17,0,0,0,0-.1h0a.19.19,0,0,0,0-.1.18.18,0,0,0-.05-.07,1.19,1.19,0,0,0-.71.25l0,.1.06.09h0a.27.27,0,0,0,.08.07,2,2,0,0,1,.45.5,2.07,2.07,0,0,1,.15.63,3.64,3.64,0,0,0-.66.38l-.08.07a2.86,2.86,0,0,1-.45-.28c-.15-.14-.13-.26-.18-.39a.21.21,0,0,0,0-.07h0l-.06-.08a.24.24,0,0,0-.11-.06,1.64,1.64,0,0,0-.45.39.28.28,0,0,0,.08.11l.08,0h0a.13.13,0,0,0,.08,0,1,1,0,0,1,.42.17,2.32,2.32,0,0,1,.3.4l0,0h0a3,3,0,0,0-.53.7,3.54,3.54,0,0,1-.71-.13,2.24,2.24,0,0,1-.6-.41l-.07-.07h0l-.11-.05-.1,0a1.61,1.61,0,0,0-.3.66l.1,0,.12,0h.11a2.22,2.22,0,0,1,.74.07,3,3,0,0,1,.61.35,3.23,3.23,0,0,0-.14.51,4.54,4.54,0,0,1-1.06.2,3.09,3.09,0,0,1-.92-.23l-.13-.05h0a.41.41,0,0,0-.16,0,.49.49,0,0,0-.21,0,1,1,0,0,0-.07.4,1.75,1.75,0,0,0,0,.45.59.59,0,0,0,.23,0,.41.41,0,0,0,.16,0h0l.13-.05a3.09,3.09,0,0,1,.92-.23,4.4,4.4,0,0,1,1,.19,4,4,0,0,0,.11.62l-.21.11a1.76,1.76,0,0,1-.53.06h-.08l-.08,0a.38.38,0,0,0-.13.09,3,3,0,0,0,.22.41.2.2,0,0,0,.13,0l.07,0h0l.06-.06a1.9,1.9,0,0,1,.42-.29l.21-.05a3.21,3.21,0,0,0,.58,1,2.71,2.71,0,0,1-.36.46,2.38,2.38,0,0,1-.71.36.35.35,0,0,0-.11,0h0l-.11.07a.51.51,0,0,0-.09.13,1.25,1.25,0,0,0,.5.54.44.44,0,0,0,.22-.1.39.39,0,0,0,.08-.1h0a.3.3,0,0,0,0-.1,1.94,1.94,0,0,1,.4-.63,2.76,2.76,0,0,1,.49-.32,3.51,3.51,0,0,0,.8.54,1.85,1.85,0,0,1-.12.4,1.74,1.74,0,0,1-.43.49.27.27,0,0,0-.08.07h0l-.06.08a.35.35,0,0,0,0,.17,1.27,1.27,0,0,0,.64.21.31.31,0,0,0,.09-.11.38.38,0,0,0,0-.1h0a.28.28,0,0,0,0-.09,1.68,1.68,0,0,1,.1-.63,1.7,1.7,0,0,1,.23-.34,3.71,3.71,0,0,0,1.07.24,1.94,1.94,0,0,1,.06.4,1.66,1.66,0,0,1-.19.65.41.41,0,0,0,0,.09h0a.36.36,0,0,0,0,.11.36.36,0,0,0,0,.1,1.83,1.83,0,0,0,.77,0,.39.39,0,0,0,0-.14.36.36,0,0,0,0-.11h0a.41.41,0,0,0-.05-.09,1.66,1.66,0,0,1-.19-.65,1.37,1.37,0,0,1,.06-.39,4,4,0,0,0,1-.16,2.51,2.51,0,0,1,.39.55,2.08,2.08,0,0,1,.13.85.48.48,0,0,0,0,.12h0a.65.65,0,0,0,0,.13Z"/><g class="cls-8"><ellipse cx="188.73" cy="15.11" rx="0.58" ry="0.52"/><ellipse cx="190.03" cy="13.76" rx="0.49" ry="0.44"/><ellipse cx="189.71" cy="17.47" rx="0.97" ry="0.86"/><ellipse cx="187.58" cy="18.26" rx="0.34" ry="0.31"/><ellipse cx="186.7" cy="14.92" rx="0.36" ry="0.32"/><ellipse cx="187.37" cy="16.71" rx="0.44" ry="0.39"/><ellipse cx="191.51" cy="16.53" rx="0.34" ry="0.3"/><path d="M191.32,15.1a.18.18,0,1,1,0-.35.18.18,0,1,1,0,.35Z"/><path d="M187.81,13.84a.18.18,0,1,1,0-.35.18.18,0,1,1,0,.35Z"/></g><path class="cls-7" d="M221,38.58a2.33,2.33,0,0,0,.92-.32.38.38,0,0,0,0-.17.44.44,0,0,0-.08-.11h0a.41.41,0,0,0-.1-.09,2.33,2.33,0,0,1-.6-.67,2.6,2.6,0,0,1-.18-.62,3.63,3.63,0,0,0,.71-.43,2.59,2.59,0,0,1,.47.29,1.46,1.46,0,0,1,.28.44l0,.07h0l.05.06.08.06a.9.9,0,0,0,.41-.38l0-.07-.07,0h0l-.08,0a1.52,1.52,0,0,1-.49-.25,1.8,1.8,0,0,1-.32-.42,3.29,3.29,0,0,0,.7-1,2.24,2.24,0,0,1,.45.09,1.75,1.75,0,0,1,.49.34l.07.06h0l.08,0h.08a.71.71,0,0,0,.24-.55l-.06,0-.1,0h-.09a2,2,0,0,1-.62-.06,2.67,2.67,0,0,1-.41-.22,2.76,2.76,0,0,0,.15-.81,3.42,3.42,0,0,1,.78-.12,2.81,2.81,0,0,1,.92.23l.13.05h0l.16,0a.48.48,0,0,0,.2,0,2,2,0,0,0,0-.45,1.53,1.53,0,0,0-.07-.42.51.51,0,0,0-.17,0l-.16,0h0a.75.75,0,0,0-.13.06,2.82,2.82,0,0,1-.92.22,3.69,3.69,0,0,1-.81-.12,2.74,2.74,0,0,0-.24-.8,1.65,1.65,0,0,1,.37-.2,1.79,1.79,0,0,1,.54-.06s.06,0,.08,0h0a.15.15,0,0,0,.09,0,.26.26,0,0,0,.11-.07,1.05,1.05,0,0,0-.24-.44l-.1,0-.07,0h0s0,0-.06,0a1.54,1.54,0,0,1-.44.3,2.72,2.72,0,0,1-.43.09,3,3,0,0,0-.54-.7,3.2,3.2,0,0,1,.53-.71,2.82,2.82,0,0,1,.83-.42.29.29,0,0,0,.13-.05h0a.35.35,0,0,0,.13-.08l.06-.06a1.29,1.29,0,0,0-.71-.67l-.09.07a.31.31,0,0,0-.09.11h0a.31.31,0,0,0-.05.12,2.4,2.4,0,0,1-.48.75,4.34,4.34,0,0,1-.82.49,4,4,0,0,0-.88-.42,1.49,1.49,0,0,1,.09-.3,1.55,1.55,0,0,1,.35-.4s0,0,.06-.05h0l0-.07a.23.23,0,0,0,0-.11,1.12,1.12,0,0,0-.57-.17.15.15,0,0,0,0,.06.19.19,0,0,0,0,.08h0v.07a1.25,1.25,0,0,1-.07.52,2.31,2.31,0,0,1-.19.28,3.67,3.67,0,0,0-.74-.11,2.66,2.66,0,0,1-.19-.83,1.9,1.9,0,0,1,.22-.73.31.31,0,0,0,.05-.1h0a.25.25,0,0,0,0-.12v-.07a1.09,1.09,0,0,0-.45-.08,1.26,1.26,0,0,0-.47.08v.07a.25.25,0,0,0,0,.12h0a.31.31,0,0,0,.05.1,1.9,1.9,0,0,1,.22.73,2.66,2.66,0,0,1-.19.85,3.56,3.56,0,0,0-.68.14,2.68,2.68,0,0,1-.41-.53,1.78,1.78,0,0,1-.1-.65.14.14,0,0,0,0-.09h0a.23.23,0,0,0,0-.11l0-.07a1.26,1.26,0,0,0-.72.26l0,.1.07.09h0l.08.06a1.91,1.91,0,0,1,.45.51,2,2,0,0,1,.15.62,4.4,4.4,0,0,0-.66.39l-.08.06a1.89,1.89,0,0,1-.45-.28c-.14-.14-.12-.26-.18-.38a.13.13,0,0,0,0-.08h0a.13.13,0,0,0-.06-.07.41.41,0,0,0-.11-.07,1.66,1.66,0,0,0-.45.4.25.25,0,0,0,.08.1.24.24,0,0,0,.08.06h0l.09,0a.88.88,0,0,1,.41.17,2,2,0,0,1,.31.4l0,0h0a3.17,3.17,0,0,0-.53.69,3,3,0,0,1-.71-.13,2,2,0,0,1-.6-.4.23.23,0,0,0-.07-.07h0a.39.39,0,0,0-.11-.06l-.1,0a1.63,1.63,0,0,0-.3.65l.1,0,.12,0h.11a2.23,2.23,0,0,1,.74.08,2.62,2.62,0,0,1,.61.35,2.73,2.73,0,0,0-.14.51,4.09,4.09,0,0,1-1.06.19,2.82,2.82,0,0,1-.92-.22.75.75,0,0,0-.13-.06h0l-.15,0a.78.78,0,0,0-.22,0,1,1,0,0,0-.07.4,1.4,1.4,0,0,0,.06.45.56.56,0,0,0,.23,0l.15,0h0l.13-.05a2.81,2.81,0,0,1,.92-.23,4.1,4.1,0,0,1,1,.19,2.6,2.6,0,0,0,.11.62,1.07,1.07,0,0,1-.22.1,1.69,1.69,0,0,1-.53.06h-.08l-.08,0a.2.2,0,0,0-.12.08,2,2,0,0,0,.21.42l.13,0,.07,0h0l.06,0a1.41,1.41,0,0,1,.42-.29l.21-.06a3.14,3.14,0,0,0,.58,1,3.09,3.09,0,0,1-.36.45,2.38,2.38,0,0,1-.71.36l-.11,0h0l-.11.07a.38.38,0,0,0-.09.13,1.33,1.33,0,0,0,.51.54.47.47,0,0,0,.21-.11l.08-.09h0a.49.49,0,0,0,0-.11,2.18,2.18,0,0,1,.4-.63,3.41,3.41,0,0,1,.49-.31,3.18,3.18,0,0,0,.8.53,1.69,1.69,0,0,1-.12.4,1.79,1.79,0,0,1-.43.5s-.05,0-.08.06h0a.7.7,0,0,0-.06.09.32.32,0,0,0,0,.17,1.51,1.51,0,0,0,.64.21.27.27,0,0,0,.09-.12.17.17,0,0,0,0-.1h0v-.09a1.43,1.43,0,0,1,.09-.62,1.46,1.46,0,0,1,.23-.34,4.07,4.07,0,0,0,1.07.23,2,2,0,0,1,.06.41,1.66,1.66,0,0,1-.19.64.41.41,0,0,0-.05.09h0a.31.31,0,0,0,0,.22,2,2,0,0,0,.77,0,.32.32,0,0,0,0-.14.43.43,0,0,0,0-.11h0a.41.41,0,0,0-.05-.09,1.66,1.66,0,0,1-.19-.64,1.44,1.44,0,0,1,.06-.4,4,4,0,0,0,1-.15,2.46,2.46,0,0,1,.39.54,2.32,2.32,0,0,1,.14.85.57.57,0,0,0,0,.13h0a.65.65,0,0,0,0,.13A.36.36,0,0,0,221,38.58Z"/><g class="cls-8"><ellipse cx="219.06" cy="32.77" rx="0.58" ry="0.52"/><ellipse cx="220.35" cy="31.41" rx="0.49" ry="0.44"/><ellipse cx="220.03" cy="35.13" rx="0.97" ry="0.86"/><ellipse cx="217.9" cy="35.91" rx="0.34" ry="0.31"/><ellipse cx="217.02" cy="32.58" rx="0.36" ry="0.32"/><ellipse cx="217.69" cy="34.37" rx="0.44" ry="0.39"/><ellipse cx="221.83" cy="34.18" rx="0.34" ry="0.3"/><path d="M221.64,32.75a.17.17,0,1,1,0-.34.17.17,0,1,1,0,.34Z"/><path d="M218.13,31.49a.18.18,0,1,1,.19-.17A.18.18,0,0,1,218.13,31.49Z"/></g><path class="cls-7" d="M225,128.58a2.33,2.33,0,0,0,.92-.32.38.38,0,0,0,0-.17.44.44,0,0,0-.08-.11h0a.41.41,0,0,0-.1-.09,2.33,2.33,0,0,1-.6-.67,2.6,2.6,0,0,1-.18-.62,3.63,3.63,0,0,0,.71-.43,2.59,2.59,0,0,1,.47.29,1.46,1.46,0,0,1,.28.44l0,.07h0l.05.06.08.06a.9.9,0,0,0,.41-.38l0-.07-.07,0h0l-.08,0a1.52,1.52,0,0,1-.49-.25,1.8,1.8,0,0,1-.32-.42,3.29,3.29,0,0,0,.7-1,2.24,2.24,0,0,1,.45.09,1.75,1.75,0,0,1,.49.34l.07.06h0l.08,0h.08a.71.71,0,0,0,.24-.55l-.06,0-.1,0h0a.27.27,0,0,0-.09,0,2,2,0,0,1-.62-.06,2.67,2.67,0,0,1-.41-.22,2.76,2.76,0,0,0,.15-.81,3.42,3.42,0,0,1,.78-.12,2.81,2.81,0,0,1,.92.23l.13,0h0l.16,0a.48.48,0,0,0,.2,0,2,2,0,0,0,0-.45,1.53,1.53,0,0,0-.07-.42.51.51,0,0,0-.17,0l-.16,0h0a.75.75,0,0,0-.13.06,2.82,2.82,0,0,1-.92.22,3.69,3.69,0,0,1-.81-.12,2.74,2.74,0,0,0-.24-.8,1.65,1.65,0,0,1,.37-.2,1.79,1.79,0,0,1,.54-.06s.06,0,.08,0h0a.15.15,0,0,0,.09,0,.26.26,0,0,0,.11-.07,1.05,1.05,0,0,0-.24-.44l-.1,0-.07,0h0s0,0-.06,0a1.54,1.54,0,0,1-.44.3,2.72,2.72,0,0,1-.43.09,3,3,0,0,0-.54-.7,3.2,3.2,0,0,1,.53-.71,2.82,2.82,0,0,1,.83-.42.29.29,0,0,0,.13,0h0a.35.35,0,0,0,.13-.08l.06-.06a1.29,1.29,0,0,0-.71-.67l-.09.07a.31.31,0,0,0-.09.11h0a.31.31,0,0,0-.05.12,2.4,2.4,0,0,1-.48.75,4.34,4.34,0,0,1-.82.49,4,4,0,0,0-.88-.42,1.49,1.49,0,0,1,.09-.3,1.55,1.55,0,0,1,.35-.4s0,0,.06,0h0l0-.07a.23.23,0,0,0,0-.11,1.12,1.12,0,0,0-.57-.17.15.15,0,0,0,0,.06.19.19,0,0,0,0,.08h0v.07a1.25,1.25,0,0,1-.07.52,2.31,2.31,0,0,1-.19.28,3.67,3.67,0,0,0-.74-.11,2.66,2.66,0,0,1-.19-.83,1.9,1.9,0,0,1,.22-.73.31.31,0,0,0,.05-.1h0a.25.25,0,0,0,0-.12v-.07a1.09,1.09,0,0,0-.45-.08,1.26,1.26,0,0,0-.47.08v.07a.25.25,0,0,0,0,.12h0a.31.31,0,0,0,.05.1,1.9,1.9,0,0,1,.22.73,2.66,2.66,0,0,1-.19.85,3.56,3.56,0,0,0-.68.14,2.68,2.68,0,0,1-.41-.53,1.78,1.78,0,0,1-.1-.65.14.14,0,0,0,0-.09h0a.23.23,0,0,0,0-.11l0-.07a1.26,1.26,0,0,0-.72.26l0,.1.07.09h0l.08.06a1.91,1.91,0,0,1,.45.51,2,2,0,0,1,.15.62,4.4,4.4,0,0,0-.66.39l-.08.06a1.89,1.89,0,0,1-.45-.28c-.14-.14-.12-.26-.18-.38a.13.13,0,0,0,0-.08h0a.13.13,0,0,0-.06-.07.41.41,0,0,0-.11-.07,1.66,1.66,0,0,0-.45.4.25.25,0,0,0,.08.1.24.24,0,0,0,.08.06h0l.09,0a.88.88,0,0,1,.41.17,2,2,0,0,1,.31.4l0,0h0a3.17,3.17,0,0,0-.53.69,3,3,0,0,1-.71-.13,2,2,0,0,1-.6-.4l-.07-.07h0a.39.39,0,0,0-.11-.06l-.1,0a1.63,1.63,0,0,0-.3.65.31.31,0,0,0,.1,0l.12,0h.11a2.23,2.23,0,0,1,.74.08,2.62,2.62,0,0,1,.61.35,2.73,2.73,0,0,0-.14.51,4.09,4.09,0,0,1-1.06.19,2.82,2.82,0,0,1-.92-.22.75.75,0,0,0-.13-.06h0l-.15,0a.78.78,0,0,0-.22,0,1,1,0,0,0-.07.4,1.4,1.4,0,0,0,.06.45.56.56,0,0,0,.23,0l.15,0h0l.13,0a2.81,2.81,0,0,1,.92-.23,4.1,4.1,0,0,1,1,.19,2.6,2.6,0,0,0,.11.62,1.07,1.07,0,0,1-.22.1,1.69,1.69,0,0,1-.53.06.21.21,0,0,0-.08,0h0l-.08,0a.2.2,0,0,0-.12.08,2,2,0,0,0,.21.42l.13,0,.07,0h0l.06,0a1.41,1.41,0,0,1,.42-.29l.21-.06a3.14,3.14,0,0,0,.58,1,3.09,3.09,0,0,1-.36.45,2.38,2.38,0,0,1-.71.36l-.11,0h0l-.11.07a.38.38,0,0,0-.09.13,1.33,1.33,0,0,0,.51.54.47.47,0,0,0,.21-.11l.08-.09h0a.49.49,0,0,0,0-.11,2.18,2.18,0,0,1,.4-.63,3.41,3.41,0,0,1,.49-.31,3.18,3.18,0,0,0,.8.53,1.69,1.69,0,0,1-.12.4,1.79,1.79,0,0,1-.43.5s-.05,0-.08.06h0a.7.7,0,0,0-.06.09.32.32,0,0,0,0,.17,1.51,1.51,0,0,0,.64.21.27.27,0,0,0,.09-.12.17.17,0,0,0,0-.1h0v-.09a1.43,1.43,0,0,1,.09-.62,1.46,1.46,0,0,1,.23-.34,4.07,4.07,0,0,0,1.07.23,2,2,0,0,1,.06.41,1.66,1.66,0,0,1-.19.64.41.41,0,0,0-.05.09h0a.31.31,0,0,0,0,.22,2,2,0,0,0,.77,0,.32.32,0,0,0,0-.14.43.43,0,0,0,0-.11h0a.41.41,0,0,0-.05-.09,1.66,1.66,0,0,1-.19-.64,1.44,1.44,0,0,1,.06-.4,4,4,0,0,0,1-.15,2.46,2.46,0,0,1,.39.54,2.32,2.32,0,0,1,.14.85.57.57,0,0,0,0,.13h0a.65.65,0,0,0,0,.13A.36.36,0,0,0,225,128.58Z"/><g class="cls-8"><ellipse cx="223.06" cy="122.77" rx="0.58" ry="0.52"/><ellipse cx="224.35" cy="121.41" rx="0.49" ry="0.44"/><ellipse cx="224.03" cy="125.13" rx="0.97" ry="0.86"/><ellipse cx="221.9" cy="125.91" rx="0.34" ry="0.31"/><ellipse cx="221.02" cy="122.58" rx="0.36" ry="0.32"/><ellipse cx="221.69" cy="124.37" rx="0.44" ry="0.39"/><ellipse cx="225.83" cy="124.18" rx="0.34" ry="0.3"/><path d="M225.64,122.75a.17.17,0,1,1,0-.34.17.17,0,1,1,0,.34Z"/><path d="M222.13,121.49a.18.18,0,1,1,.19-.17A.18.18,0,0,1,222.13,121.49Z"/></g><path class="cls-7" d="M228.53,137.76a1.21,1.21,0,0,0,.51-.2.43.43,0,0,0,0-.11l-.05-.07h0a.1.1,0,0,0-.06,0,1.62,1.62,0,0,1-.33-.42,1.72,1.72,0,0,1-.1-.39,2.11,2.11,0,0,0,.4-.26,1.1,1.1,0,0,1,.26.18.77.77,0,0,1,.16.27l0,0h0s0,0,0,0l0,0a.58.58,0,0,0,.23-.24l0,0,0,0h-.05a1.35,1.35,0,0,1-.27-.16,1.51,1.51,0,0,1-.18-.26,1.94,1.94,0,0,0,.39-.6.92.92,0,0,1,.25.06.79.79,0,0,1,.28.21l0,0h0a.05.05,0,0,0,.05,0h0a.44.44,0,0,0,.13-.34l0,0h0a.06.06,0,0,0-.06,0,.72.72,0,0,1-.57-.18,2.74,2.74,0,0,0,.08-.5,1.7,1.7,0,0,1,.44-.08,1.79,1.79,0,0,1,.52.14l.07,0h.08l.12,0a1.73,1.73,0,0,0,0-.28,1,1,0,0,0,0-.27h-.18l-.07,0a1.52,1.52,0,0,1-.52.14,1.77,1.77,0,0,1-.46-.08,1.61,1.61,0,0,0-.13-.49,1.13,1.13,0,0,1,.2-.13.88.88,0,0,1,.31,0h.09a.18.18,0,0,0,.07-.05.92.92,0,0,0-.14-.28l0,0-.05,0h0l0,0a.78.78,0,0,1-.24.19.64.64,0,0,1-.24,0,2.61,2.61,0,0,0-.31-.43,1.81,1.81,0,0,1,.3-.44,1.48,1.48,0,0,1,.47-.26l.07,0h0l.07,0,0,0c-.07-.23-.35-.44-.39-.42l-.05,0s0,.05-.06.07h0a.24.24,0,0,0,0,.08,1.61,1.61,0,0,1-.27.46,1.86,1.86,0,0,1-.46.31,1.93,1.93,0,0,0-.49-.26,1.06,1.06,0,0,1,0-.19,1.36,1.36,0,0,1,.2-.25l0,0h0l0,0a.13.13,0,0,0,0-.06.62.62,0,0,0-.32-.11l0,0a.07.07,0,0,0,0,0h0v.05a1,1,0,0,1,0,.32,1.63,1.63,0,0,1-.11.17,1.85,1.85,0,0,0-.41-.07,1.59,1.59,0,0,1-.11-.51,1.19,1.19,0,0,1,.13-.46l0-.06h0s0,0,0-.08a.06.06,0,0,0,0,0,.55.55,0,0,0-.25,0,.63.63,0,0,0-.26,0v0a.22.22,0,0,0,0,.08h0s0,0,0,.06a1.4,1.4,0,0,1,.12.46,1.72,1.72,0,0,1-.11.53,1.61,1.61,0,0,0-.38.08,1.27,1.27,0,0,1-.22-.33,1,1,0,0,1-.06-.4v-.06h0a.14.14,0,0,0,0-.06.08.08,0,0,0,0,0,.66.66,0,0,0-.4.16.35.35,0,0,1,0,.06l0,.06h0l0,0a1.09,1.09,0,0,1,.26.32,1.29,1.29,0,0,1,.08.38,2.92,2.92,0,0,0-.37.24l0,0a.85.85,0,0,1-.25-.17c-.09-.09-.07-.16-.1-.24l0-.05h0l0,0a.18.18,0,0,0-.07,0,1.18,1.18,0,0,0-.25.25.43.43,0,0,0,0,.07l.05,0h0l0,0c.07,0,.14,0,.23.11a.81.81,0,0,1,.17.24l0,0h0a2,2,0,0,0-.29.43,1.42,1.42,0,0,1-.4-.08,1.15,1.15,0,0,1-.34-.25.08.08,0,0,0,0,0h0l-.06,0h-.06a1,1,0,0,0-.16.4.05.05,0,0,0,.05,0l.07,0h.06a1,1,0,0,1,.41.05,1.55,1.55,0,0,1,.35.21,1.87,1.87,0,0,0-.08.32,2.13,2.13,0,0,1-.59.12,1.46,1.46,0,0,1-.52-.14l-.07,0h-.09l-.12,0a.73.73,0,0,0,0,.25,1.07,1.07,0,0,0,0,.28.28.28,0,0,0,.13,0h.09l.07,0a1.7,1.7,0,0,1,.52-.14,2.39,2.39,0,0,1,.57.12,2.63,2.63,0,0,0,.06.39l-.12.06a.83.83,0,0,1-.3,0H225a.18.18,0,0,0-.07.05,1.52,1.52,0,0,0,.13.26h.07l0,0h0l0,0a.79.79,0,0,1,.24-.18l.11,0a2.19,2.19,0,0,0,.33.6,1.54,1.54,0,0,1-.21.29,1.29,1.29,0,0,1-.39.22s0,0-.06,0h0l-.06,0a.24.24,0,0,0-.06.08.88.88,0,0,0,.29.34.37.37,0,0,0,.12-.07.21.21,0,0,0,0-.06h0l0-.06a1.23,1.23,0,0,1,.22-.4,1.65,1.65,0,0,1,.27-.19,2.36,2.36,0,0,0,.45.33,1.14,1.14,0,0,1-.06.25,1.17,1.17,0,0,1-.25.31l0,0h0l0,.05a.22.22,0,0,0,0,.11.79.79,0,0,0,.36.13.15.15,0,0,0,.05-.07.14.14,0,0,0,0-.06h0v-.06a1.13,1.13,0,0,1,.05-.39.92.92,0,0,1,.13-.21,2.39,2.39,0,0,0,.6.14,1.22,1.22,0,0,1,0,.26,1.11,1.11,0,0,1-.11.4s0,0,0,0h0a.2.2,0,0,0,0,.07.17.17,0,0,0,0,.07.94.94,0,0,0,.43,0,.28.28,0,0,0,0-.09.2.2,0,0,0,0-.07h0s0,0,0,0a1.11,1.11,0,0,1-.11-.4,1.07,1.07,0,0,1,0-.25,1.92,1.92,0,0,0,.59-.1,3.26,3.26,0,0,1,.22.34,1.8,1.8,0,0,1,.07.53v.08h0a.19.19,0,0,0,0,.08A.22.22,0,0,0,228.53,137.76Z"/><g class="cls-8"><circle cx="227.42" cy="134.13" r="0.32"/><circle cx="228.14" cy="133.29" r="0.27"/><circle cx="227.96" cy="135.61" r="0.54"/><circle cx="226.77" cy="136.1" r="0.19"/><circle cx="226.28" cy="134.02" r="0.2"/><circle cx="226.66" cy="135.13" r="0.24"/><circle cx="228.98" cy="135.02" r="0.19"/><path d="M228.87,134.13A.11.11,0,1,1,229,134,.11.11,0,0,1,228.87,134.13Z"/><path d="M226.9,133.34a.11.11,0,1,1,.11-.11A.11.11,0,0,1,226.9,133.34Z"/></g></g></g></svg>