<svg xmlns="http://www.w3.org/2000/svg" xmlns:xlink="http://www.w3.org/1999/xlink" viewBox="0 0 487.43 448.44"><defs><style>.cls-1{fill:none;}.cls-2{fill:#ef9d84;}.cls-10,.cls-11,.cls-12,.cls-13,.cls-14,.cls-18,.cls-2,.cls-3,.cls-5,.cls-8{fill-rule:evenodd;}.cls-17,.cls-3{fill:#fff;}.cls-4{clip-path:url(#clip-path);}.cls-5{fill:#ce9576;}.cls-6{fill:#995e4b;}.cls-7{fill:#724d40;}.cls-8{fill:#f2ba88;}.cls-9{fill:#c18148;}.cls-10{fill:#6d4a3a;}.cls-11,.cls-15{fill:#ab79f2;}.cls-12{fill:#f2e199;}.cls-13{fill:#ffc558;}.cls-14{fill:#7befc5;}.cls-16{fill:#443337;}.cls-18{fill:#efebda;}</style><clipPath id="clip-path"><ellipse class="cls-1" cx="233.06" cy="230.37" rx="179.52" ry="177.02"/></clipPath></defs><g id="OBJECTS"><path class="cls-2" d="M2.33,216.08c.63-49,71.46-52.42,54.58-98.69C48,93.07,52,87,74.14,67.71,94.51,50,121.09,38.35,147.31,28,192.07,10.29,255.2-4.5,303.34,8.34,330.21,15.5,335,27.8,349,46.48,365.13,68,392.72,73.73,418,85.6c86.76,40.84,83.17,224.69,16.16,260.41-20.09,10.71-19,17.13-24.53,26.59-14.14,24.36-8,33.6-42,47.92C313,443.45,219,449.27,161,434c-29.2-7.7-77-13.94-77-42.32,0-12.47-4.53,2.18-15.29-8.88-6.7-6.88-3.26-16.35-12.54-18.91-22.54-6.21-12.33-28.91-26.41-47.32C8.76,289.19,1.92,248.07,2.33,216.08Z"/><path class="cls-3" d="M322.08,47.2c6.63,1.61,14.32,4.94,18,8.86,1.77,1.89,5,6.15,3.23,9.91-1.6,3.44-7,2.65-11.68,1a91.65,91.65,0,0,1-11.88-5.56c-3.72-1.89-7.81-3.95-12-5.61s-10.13-3.19-9.23-7c.79-3.36,6.89-4.07,10-4a55.91,55.91,0,0,1,6.54.81C317.48,46.06,319.7,46.62,322.08,47.2Z"/><path class="cls-3" d="M263.12,382.47C256.43,383.8,248,384,243,382c-2.41-1-7.15-3.48-7.2-7.6,0-3.79,5.15-5.33,10.12-5.84a91.22,91.22,0,0,1,13.15,0c4.18.15,8.77.29,13.31,0s10.55-1.37,11.39,2.47c.73,3.37-4.48,6.58-7.34,7.77a57.47,57.47,0,0,1-6.26,2C267.78,381.57,265.53,382,263.12,382.47Z"/><path class="cls-3" d="M262.81,60.11c.8,1.7,2.93,4.52,1.84,7.81s-5.6,4.86-8.52,5.13c-2.63.25-5.4-.36-8.09-.52A283,283,0,0,0,195,74.76C180.29,76.61,166.66,79,153,83.65a28.84,28.84,0,0,1-6.92,1.68c-4.32.26-8.59-2.49-6.17-6.85-5.2,1.62-10.26,4.56-16.66,4.78-6,.2-11.28-2-10.76-8,.23-2.69,2.64-6.21,4.5-8.18,4.09-4.34,9.78-6.95,15.2-10.25,15.71-9.53,32.6-15.75,50.92-20.4a199,199,0,0,1,38-5.75c13.44-.7,29.25-.14,43.35,3.29A52.09,52.09,0,0,1,280,40.2c3.68,2.23,7.75,6.77,7,11.39-.65,3.89-3.6,5.76-6.26,6.73C275.75,60.14,268.29,60.06,262.81,60.11Z"/><path class="cls-3" d="M388.53,143.47A167.21,167.21,0,0,0,366,110.33c-4.42-5.14-8.62-9.83-12.83-15.72A41.82,41.82,0,0,1,348.05,86c-1.08-2.78-2.4-7.46-.74-10.85,1.59-3.24,5.87-4,9.29-3.42,4,.75,8.23,3.17,11.76,5.34,10.22,6.27,18.3,14.56,24.89,22.45A179.91,179.91,0,0,1,425,154.42a137.34,137.34,0,0,1,5.74,20.9c1.3,6.74,2.52,15.16,1.13,23.46-1.2,7.19-4,13.08-8.5,16.52a11.6,11.6,0,0,1-4.62,2.55c-7.79,1.45-13.68-7-16.7-12a119.08,119.08,0,0,1-8.58-18.2A171.34,171.34,0,0,1,387.5,168a100.17,100.17,0,0,1-2.17-10.34c-.54-3.59-1-7.83.53-11.4C386.5,144.72,387.05,143.83,388.53,143.47Z"/><path class="cls-3" d="M300.13,65.16c16.56,3.56,30.15,13.28,38.47,21.8a64.67,64.67,0,0,1,15.12,23.85c.92,2.62,2.26,6.93.95,10.17a6.87,6.87,0,0,1-5.87,4.24c-3.45,0-6-2.43-7.61-3.93-2.21-2.08-3.85-5-6-7.54a137.3,137.3,0,0,0-21.11-20.41,102.49,102.49,0,0,0-23.43-14c-5-2.09-11.72-4.11-10.25-10.3C282.34,61.05,293.93,63.82,300.13,65.16Z"/><path class="cls-3" d="M311.77,110.74c8.58,1.48,14.8,8.13,16.68,13.88a7.76,7.76,0,0,1-.2,6.09c-.93,1.72-3.57,2.78-5.79,2.77a18.37,18.37,0,0,1-5.82-1.35c-5.62-2.14-11-7.57-12.74-11.78-.63-1.56-1.45-4.79,0-7.27S308.8,110.23,311.77,110.74Z"/><path class="cls-3" d="M364,130.81a9.92,9.92,0,0,1,3.6,1.44c4.2,2.83,8.21,9.51,8.07,15.06-.1,3.94-2.44,6.52-5.66,6-4.09-.7-7.22-4.79-8.74-7.43a27.45,27.45,0,0,1-2.17-4.93c-.57-2-1.23-6.35.86-8.89A4.21,4.21,0,0,1,364,130.81Z"/><path class="cls-3" d="M181.39,120a81.14,81.14,0,0,1-10.89,3.87c-3.76,1-7.9,2.41-12.05,1.67-5.35-1-7.57-4.51-4.88-9.28,1.5-2.65,4.28-5.16,6.75-7.14,7.33-5.89,15.69-9.75,24.4-12.76a120.22,120.22,0,0,1,18.17-4.89c6.39-1.18,13.64-2,21.16-.28,7.35,1.7,12.76,7.29,8.94,14-2,3.53-7.27,6.68-10.46,8.48-7.74,4.38-16,6.92-25.21,8.78-3.88.79-10.25,2.28-14.14.12A2.67,2.67,0,0,1,181.39,120Z"/><path class="cls-3" d="M111.82,89.58s.1-.15.22-.13c4.71.82,7.49,4.9,6.73,9.83s-4,7.35-6.08,9.76c-6.94,7.87-13.25,17.25-19.36,26.93-2,3.19-4.13,6.35-6.08,9.77a89,89,0,0,0-5,11c-1.48,3.65-3.07,8.66-4.7,11.85-1.89,3.68-4.87,6-8.36,5.18-2.79-.63-5-3.58-5.75-5.8-2.07-5.8.71-16.3,3.85-25.35a112.4,112.4,0,0,1,11.14-22.82,127.17,127.17,0,0,1,13.7-18,90.79,90.79,0,0,1,7.58-7.46C103,91.58,107.31,89,111.82,89.58Z"/><path class="cls-3" d="M113.73,164.18c-5.5,7.46-9,17.94-14.81,25.84-1.69,2.3-4.24,5.19-7,4.45-6.32-1.66-3.25-14.7-.85-21.32a95.71,95.71,0,0,1,10.91-20.84,112.12,112.12,0,0,1,13.28-16.6c3.5-3.57,7.21-7.14,11.61-9.25,2.72-1.31,7.16-3.71,11-.67,2.59,2,2.78,7,.77,12.54-3.13,8.65-9.12,16.27-15,21.68C120.57,162.8,117.71,165.28,113.73,164.18Z"/><path class="cls-3" d="M333.78,268.25c4.51-8.07,6.69-18.91,11.43-27.46,1.39-2.49,3.55-5.67,6.42-5.28,6.48.87,5.08,14.19,3.54,21.06a95.37,95.37,0,0,1-8.19,22,111.72,111.72,0,0,1-11.09,18.1c-3,4-6.25,8-10.35,10.61-2.53,1.63-6.64,4.55-10.84,2-2.83-1.71-3.65-6.59-2.35-12.35,2-9,7-17.26,12.15-23.35C327.16,270.46,329.69,267.64,333.78,268.25Z"/><path class="cls-3" d="M390.67,216.09c3.43.14,5.18,4.29,5.95,7,2.06,7.24,1.68,18-.52,27.08-2.13,8.74-6.33,22.44-11.7,28.25-1.95,2.11-4.4,4.11-7.06,3.33-6.07-1.79-2.63-13.57-.8-19.08,2.48-7.48,5-15.64,6-22.67.7-5.38.71-10.08,1.64-14.44C385,221.57,386.78,215.94,390.67,216.09Z"/><path class="cls-3" d="M357.92,298c5.92.78,6.88,6.6,6.23,12.1a44.54,44.54,0,0,1-4.6,13.93A92.42,92.42,0,0,1,345,344.73c-7.79,8.59-16.7,16.91-26.59,22.37-3.38,1.87-6.77,4-10.32,4.41-5.9.75-10.71-3.26-10.83-8.42-.06-2.88,2.35-6.73,4.1-8.67a50,50,0,0,1,7.34-6c7.75-5.77,14.21-10.58,20.91-19.38,4.05-5.31,7.49-11.45,11.59-17.65,3.7-5.59,8.83-12.06,13.75-13.29A11,11,0,0,1,357.92,298Z"/><g class="cls-4"><path class="cls-5" d="M412.3,400.66H304.69c-3-17.66-5.63-34.48-11.48-48.79-2.9-7.11-6.44-13.78-9.62-20.57a174,174,0,0,1-8.76-21.41,114.77,114.77,0,0,1-4.94-25.19,87.69,87.69,0,0,1,2.22-27.38A121.54,121.54,0,0,1,285,225c1.29-2.24,3.05-4.58,4.44-6.94a9.62,9.62,0,0,0,1.23-2.55,12.63,12.63,0,0,0-1.48-2.68c-3.65-6.28-7.28-12.66-10.61-18.74-2.83,1.71-17.08,9.37-20.55,7.36-4.61-2.67-3.19-10.69-6.6-14.29-1.07-1.14-2.74-2.45-2.59-4.14.17-1.88,2.85-2.82,4.2-3.77a9.85,9.85,0,0,0,3.88-4.23,19.27,19.27,0,0,1-9.31,2.52c-1.95,0-2.3-.57-2.84-1.94s-1.16-3.11-1.73-4.87a19.71,19.71,0,0,0-1.85-4.75c-1.3-2-4-3.24-4.57-5.6-.44-1.86.78-3.42,1.61-5.11a48.28,48.28,0,0,0,4.69-13.38c.6-3.57.71-7.16,1.23-10.71a44.32,44.32,0,0,1,2.34-9.73,23.87,23.87,0,0,1,11.61-12.53,38.69,38.69,0,0,1,20-3.78,35.37,35.37,0,0,1,18,6.21c9.72,6.56,15.66,16.76,18,30.18a66.8,66.8,0,0,1,.12,19.46c-.11.83-.6,2.37-.37,2.92a53,53,0,0,0,3.7,6.7,125.43,125.43,0,0,0,8.27,12.65,46,46,0,0,0,5.31,5.23,143.78,143.78,0,0,0,11.6,9.37C419.11,254.79,412.69,372.48,412.3,400.66Z"/><path class="cls-6" d="M342.7,197.82a143.78,143.78,0,0,1-11.6-9.37,46,46,0,0,1-5.31-5.23,125.43,125.43,0,0,1-8.27-12.65c-1.3-2.18-2.73-9-3.7-6.7-4.23,10.06,4.17,26.3,12.95,32.12,79.51,52.69,69.57,204.07,69.46,204.67H412.3C412.69,372.48,419.11,254.79,342.7,197.82Z"/><path class="cls-6" d="M278.61,194l5.72,10.41a45.33,45.33,0,0,0,10.73-22.78A64.85,64.85,0,0,1,278.61,194Z"/><path class="cls-6" d="M249.35,160c1.31,3.15,6.23,4.05,11,2s7.56-6.22,6.25-9.35-6.23-4-11-2S248,156.87,249.35,160Z"/><path class="cls-7" d="M257.66,173.93c-3,1.21-10,.11-12.83,1.9.48,1.18.92,1.67,2.73,1.67a19.27,19.27,0,0,0,9.31-2.52,9.85,9.85,0,0,1-3.88,4.23c-1.35.95-4,1.89-4.2,3.77a3.25,3.25,0,0,0,.8,2.23,2.67,2.67,0,0,0,.42.2C252.3,186.26,259.56,179.13,257.66,173.93Z"/><path class="cls-8" d="M183.75,400.66H73.68a421,421,0,0,1-1-65.1,281.87,281.87,0,0,1,10.12-58c10-35.47,25.56-65.84,63.18-73.86,4.5-8.54,8.56-17.52,13-26.16a7.74,7.74,0,0,0-1.61-2.07,38,38,0,0,1-8.14-18.25,55.39,55.39,0,0,1,2.22-26.4c5-14.8,14.54-26.7,27.89-32.61,7.29-3.23,17.06-4.2,25.17-.85a31.18,31.18,0,0,1,15.67,14.6,65.85,65.85,0,0,1,4.07,11,39.57,39.57,0,0,1,1.48,12.9c-.1,5.46-.08,9.82,1.24,13.75a18.15,18.15,0,0,0,2.71,4.86c1,1.28,3,3,3,4.63a3.88,3.88,0,0,1-1.11,2.31c-1.17,1.44-3.65,2.13-4.77,3.59s-.63,4-.54,5.66c.11,2.16,1.17,4.17.18,5.49-1.24,1.67-8,3.16-12,3.09.9,2.07,2.9,3.09,5.54,4.33.95.45,3.81,1.59,4,2.44.24,1.15-1.76,2.71-2.13,3.73-1.38,3.78-2.5,7.16-5.66,9.41-4.67,3.34-16-1.18-20.22-2.66,0,0-4.92,11.79-5.66,13.71a32.44,32.44,0,0,0-2.59,14.48,29.08,29.08,0,0,0,1.36,7.3,84.24,84.24,0,0,0,8.26,17.77c2.12,3.46,4.27,7.18,6.67,10.71s5,6.75,7.28,10.09a35.6,35.6,0,0,1,5.8,11.56,34.09,34.09,0,0,1,0,15.34c-4,18.58-18.89,27.81-26.16,43.19a80.75,80.75,0,0,0-7.41,27.26A190.06,190.06,0,0,0,183.75,400.66Z"/><path class="cls-9" d="M190.91,340.55c2.86-6.06,6.91-11.16,11-16.26a22.8,22.8,0,0,1-4-3.14c-.41-.4-.79-.81-1.16-1.24-5.17,6.65-10.8,12.86-14.48,20.64a80.75,80.75,0,0,0-7.4,27.26,191,191,0,0,0,.24,32.85h8.63a190.06,190.06,0,0,1-.25-32.85A80.75,80.75,0,0,1,190.91,340.55Z"/><path class="cls-10" d="M221.64,108.76c4.78-.47,13.75-2.51,15.06,2.19a8,8,0,0,1,0,2.79c-.63,2.62-3.22,5-5.19,6.82-6.25,5.78-14.22,9.72-23.2,12.65-9.54,3.12-18.95,4.94-25.05,10.95a38.79,38.79,0,0,0-4.19,4.75,6.4,6.4,0,0,1-1.24,1.7,14.77,14.77,0,0,0-4.31-5.6,7.86,7.86,0,0,0-6.42-1.33c-3,.85-4.95,3.93-4.94,7.42,0,6.59,4.91,9.64,8.89,12.29a30,30,0,0,1,0,14.84,19.7,19.7,0,0,1-6.91,10c-6.32,5-13.72,9.17-17.65,16.06a50.76,50.76,0,0,0-15.05,5.23c-13.49,6.69-23.6,16.85-31.59,29A116.89,116.89,0,0,0,86.64,265.6c-3.36,10-5.57,20.84-8.14,32-.22.41-.51-.16-.62-.24-1.64-1.3-2.73-3.44-3.95-5.36a50.37,50.37,0,0,1-3.7-6.81,38.67,38.67,0,0,1-3.08-17.65c.8-12.86,6.66-21.36,12.71-29.44,3.14-4.2,6.08-8.11,8.14-13a48.76,48.76,0,0,0,3.7-17.28c.35-7.06-.85-13.66-.37-20.08a31,31,0,0,1,5.18-15.82A48.22,48.22,0,0,1,107,161.2c7.85-6.08,19-9.47,25.67-16.55,3.36-3.56,5.4-7.93,7.41-13.63,3.6-10.25,8.64-19.22,16.41-25.79a49.8,49.8,0,0,1,30.6-11.69,46.4,46.4,0,0,1,21,4.14A31.31,31.31,0,0,1,221.64,108.76Z"/><path class="cls-9" d="M196,196.4l-5.21,12.69A49.11,49.11,0,0,1,179.5,186.2S190.08,193.34,196,196.4Z"/><path class="cls-9" d="M218.38,160c-1.3,3.15-6.22,4.05-11,2s-7.57-6.22-6.25-9.35,6.23-4,11-2S219.69,156.87,218.38,160Z"/><path class="cls-9" d="M211.83,177.58c.12,6.09,6.26,9.94,10.34,11.48.68-1,2-2.2,1.79-3.14s-3.05-2-4-2.44c-2.63-1.25-4.64-2.26-5.54-4.33,4,.07,10.69-1.44,12-3.09a3,3,0,0,0,.36-2.11C223.63,171.63,215.59,177.66,211.83,177.58Z"/><path class="cls-5" d="M351,229a15.92,15.92,0,0,0-8.39-13.38c-4.7-2.46-10.95-3.48-18.63-3.05-15.89.91-48.5,18.27-62.81,24.7-5.39,2.43-10,4.53-16.17,5.6a31.23,31.23,0,0,1-9.87.37,53.71,53.71,0,0,1-8.64-2.31C210,235.53,156,212.55,156,212.43c-1-1.51-4.92-8.41-5.59-9.57-1.65-2.88-3.29-6.21-5.48-8.44a44.17,44.17,0,0,0-9-6.49,82.27,82.27,0,0,0-8.79-4.29c-2.6-1.13-5.47-2.53-8.75-3.73-2.41-.89-6.92-2.38-8.3,0s4.23,6.39,6.73,8.2c3.2,2.33,6.91,4.45,9.26,6.2-6.19-1.7-14.13-3.93-21.32-4-1.87,0-6,0-6.41,2.32-.3,1.63,2.78,3.19,4.25,3.82,2,.84,3.48,1.12,5.06,1.67-1.59.15-9.25-.7-9.67,2.16-.31,2.17,2.37,2.9,4,3.57,4.79,2,10.93,3.79,15.48,5.27.14.08.28,0,.43.11a42.53,42.53,0,0,0-6.88,1.94c-1.66.57-6,1.67-6.13,4.09-.16,2.71,5.1,3.26,7,3.32,2.93.09,5.17-.73,7.67-.75,4.38,5.13,25.85,27.05,31.69,32.11A212.15,212.15,0,0,0,177,269.13c13.74,8.58,27.67,16,44.3,21.17a59.7,59.7,0,0,0,19.13,2.8,74.57,74.57,0,0,0,18.88-3.05c5.6-1.52,11-3.3,16.66-5.23,16.37-5.54,32-11.9,45.66-19.95,9.21-5.44,17.63-11.26,23.93-19.59C348.8,241,351.4,236.27,351,229Z"/><path class="cls-6" d="M342.57,215.59A15.92,15.92,0,0,1,351,229a23.53,23.53,0,0,1,0,3.58,21.32,21.32,0,0,0,.93-11.2,16,16,0,0,0-9.76-12.46c-4.93-2-11.25-2.34-18.85-1.11-10.14,1.63-26.49,10.79-40.45,19.2,14.52-6.78,31.14-13.86,41.15-14.44C331.62,212.11,337.87,213.13,342.57,215.59Z"/><path class="cls-6" d="M100.57,204.91c-1.49-.85-3.34-2.68-2.85-4.7.8-3.27,8.34-2,9.93-2.11-5,.4-8,1.14-7.46,2.84.84,2.67,12.41,4.48,14.74,5.31,1.72.62,8.86,2.87,10.19,4.18-2-.15-5.5-1-7.35-1.21C108.18,208.25,104.47,207.11,100.57,204.91Z"/><path class="cls-6" d="M104.48,192.12c-.22,1.93,4.28,3.34,6.56,4.46s7.23,2.63,9.41,4c-3-.29-11.27-2-12.8-2.44s-3.08-.83-5.06-1.67c-1.47-.63-4.55-2.19-4.25-3.82.41-2.3,4.54-2.33,6.41-2.32,1.09,0,2.2.08,3.31.18C105.83,190.67,104.66,190.6,104.48,192.12Z"/><path class="cls-6" d="M107.05,214.6c1.65,2.37,12.7.39,14,.59,3.58,8.52,16.32,19.07,26.85,23.44-5.12-1.22-10.71-2.74-15-5.81-6.44-4.61-9-9.88-13.33-15-2.5,0-4.74.84-7.67.75-1.93-.06-7.19-.61-7-3.32.15-2.42,4.47-3.52,6.13-4.09C108.73,212.37,105.94,213,107.05,214.6Z"/><path class="cls-6" d="M113.09,180c-.37,1.39,2.68,4.69,4.85,6.49,4.27,3.56,9.83,7.08,13.74,9.72-1,.7-2.69-.37-4-1.07l-1.58-.83c-2.35-1.75-6.06-3.87-9.26-6.2-2.5-1.81-8.06-5.93-6.73-8.2.82-1.4,2.76-1.43,4.7-1C113.93,178.91,113.29,179.18,113.09,180Z"/><path class="cls-6" d="M351,229a17.07,17.07,0,0,0-.48-3.16c-.52,5.16-2.72,8.88-5.36,12.37-6.3,8.33-14.72,14.15-23.94,19.59-13.66,8.06-29.28,14.41-45.65,20-5.69,1.93-11.07,3.71-16.66,5.24A75.11,75.11,0,0,1,240,286a59.42,59.42,0,0,1-19.13-2.8c-16.63-5.17-65.14-34.26-73-44.57-1.78.35-12.3-5.58-14.07-5.18a204,204,0,0,0,17.44,16.47A212.15,212.15,0,0,0,177,269.13c13.74,8.58,27.73,17.95,44.35,23.12,5.81,1.8,12,1,19.08.85a74.57,74.57,0,0,0,18.88-3.05c5.6-1.52,11-3.3,16.66-5.23,16.37-5.54,32-11.9,45.66-19.95,9.21-5.44,17.63-11.26,23.93-19.59C348.8,241,351.4,236.27,351,229Z"/><path class="cls-8" d="M381.75,222.27c-1.42-2-5.68-.69-7.4-.31a42,42,0,0,0-6.88,1.9c.06-.18.22-.17.31-.31,3.08-3.61,7.36-8.31,10.36-12.5,1-1.39,2.89-3.41,1.47-5.08-1.88-2.23-7.94,2.46-9.38,3.16,1-1.29,2.18-2.3,3.42-4,.92-1.3,2.7-4.22,1.58-5.45-1.57-1.75-5.11.36-6.69,1.35-6.08,3.77-11.66,9.77-16,14.42,1.06-2.71,3.09-6.43,4.58-10.07,1.16-2.83,3.7-9.21,1.36-10.46s-5.47,2.32-7,4.32c-2.14,2.72-3.85,5.4-5.45,7.71a78.47,78.47,0,0,0-5.2,8.2,42.88,42.88,0,0,0-4.18,10.17c-.68,3-.31,6.71-.18,10,0,.5,0,1.06.05,1.66a388.41,388.41,0,0,1-77.54,49,87.55,87.55,0,0,1-15.18,5.84A41.21,41.21,0,0,1,225,292c-11.17-2.35-20.47-7.31-29.49-12.42-4.53-2.56-8.93-5.07-13.08-7.91C174,265.86,166.28,260,158.21,254c-4-3-8.09-5.77-12.09-8.88A74.93,74.93,0,0,0,133.29,237c-4.64-2.3-10.65-4.37-17.15-3.9a17.85,17.85,0,0,0-10.86,4.51c-5.16,4.62-8.82,11.94-7.28,21.53a36.37,36.37,0,0,0,3.82,11.07c6.63,13,17.57,22.65,28.38,31.16,5.47,4.29,11.5,8.25,17.53,12.28,17.78,11.91,37.32,22.89,59.35,30.18a61.52,61.52,0,0,0,26.29,2.92,89.63,89.63,0,0,0,23.56-6.33c14.31-5.92,26.87-14.13,37.64-22a442.27,442.27,0,0,0,38.75-32.15q3.81-3.31,7.7-6.7c4.47-3.87,9.26-7.8,13.88-12.4,4.3-4.29,9.84-9.34,12.35-15.37,3-7.26,2.35-13.05,3.35-19.68,2.14-1.28,4.49-1.74,6.93-3.33C379.14,227.68,383.33,224.49,381.75,222.27Z"/><path class="cls-9" d="M369.84,233.57a36.78,36.78,0,0,1-2.59,11.76c-2.51,6-8.05,11.08-12.35,15.36-4.62,4.61-9.41,8.54-13.88,12.41l-7.7,6.69A440.6,440.6,0,0,1,294.57,312c-10.77,7.88-23.33,16.09-37.64,22a90,90,0,0,1-23.56,6.33,61.52,61.52,0,0,1-26.29-2.92c-22-7.3-41.57-18.27-59.35-30.18-6-4-12.06-8-17.53-12.29-10.81-8.51-21.75-18.14-28.38-31.15A36.37,36.37,0,0,1,98,252.69c-.06-.37-.11-.73-.16-1.09a25.73,25.73,0,0,0,.16,7.5,36.37,36.37,0,0,0,3.82,11.07c6.63,13,17.57,22.65,28.38,31.16,5.47,4.29,11.5,8.25,17.53,12.28,17.78,11.91,37.32,22.89,59.35,30.18a61.52,61.52,0,0,0,26.29,2.92,89.63,89.63,0,0,0,23.56-6.33c14.31-5.92,26.87-14.13,37.64-22a442.27,442.27,0,0,0,38.75-32.15q3.81-3.31,7.7-6.7c4.47-3.87,9.26-7.8,13.88-12.4,4.3-4.29,9.84-9.34,12.35-15.37,2.79-6.7,2.44-12.15,3.15-18.16Z"/><path class="cls-9" d="M379.88,211.26c.82-1.49,1.42-4-.08-5.48-2.42-2.37-8.13,2.65-9.57,3.35,4.49-2.26,7.41-3.17,7.86-1.44.71,2.7-8.18,10.23-9.72,12.15-1.13,1.41-6,7-6.45,8.82,1.65-1.17,4.14-3.71,5.62-4.82C375.18,218.05,377.73,215.15,379.88,211.26Z"/><path class="cls-9" d="M369.74,202.4c1.22,1.53-1.86,5-3.2,7.19s-4.76,6-5.9,8.24c2.41-1.81,8.51-7.55,9.59-8.7s2.18-2.3,3.42-4c.92-1.3,2.7-4.22,1.58-5.45-1.57-1.75-5.11.36-6.69,1.35-.92.57-1.82,1.2-2.72,1.86C367.82,201.86,368.78,201.2,369.74,202.4Z"/><path class="cls-9" d="M379.53,222.86c-.15,2.88-10.61,6.91-11.57,7.74,1.49,9.1-3.74,24.67-10.37,33.84,3.7-3.68,7.65-7.88,9.66-12.7,3-7.26,2.35-13.05,3.35-19.68,2.14-1.28,4.49-1.74,6.93-3.33,1.61-1,5.8-4.24,4.22-6.46-1.42-2-5.68-.69-7.4-.31C376.91,221.84,379.63,221,379.53,222.86Z"/><path class="cls-9" d="M356,196.52c1.05,1,.21,5.37-.67,8-1.74,5.24-4.6,11.11-6.52,15.38,1.21.08,2.09-1.71,2.85-3l.91-1.53c1.06-2.71,3.09-6.43,4.58-10.07,1.16-2.83,3.7-9.21,1.36-10.46-1.44-.76-3.11.21-4.55,1.54A1.64,1.64,0,0,1,356,196.52Z"/></g><path class="cls-3" d="M55,213.42c2-3,4.31-6.79,7.94-6.24,5,.77,6,7.6,6.26,10.8.46,4.79.06,9.74.3,14.08,1.06,18.51,5.8,35,11.41,50.56,1.4,3.85,3,7.91,4.72,11.64,1.83,3.89,4.39,7.52,5.42,11.12.65,2.27,1.35,6.73-1,9.39-1.36,1.53-3.93,1.57-6.5.88a89.5,89.5,0,0,0,6.22,9.11c4.17,5.88,8.53,11.9,11.44,19.05.9,2.21,3.21,8.69,1,12.24-2.33,3.85-8.58,3-14.3.63-4.5-1.85-8.72-5.55-11.66-8.1a119.29,119.29,0,0,1-17.76-20c-14.57-20.94-22.8-46.93-26.2-74.88a202.67,202.67,0,0,1-1.47-29A133.36,133.36,0,0,1,35.3,192.5c1.53-5.51,2.66-10.7,5.5-15.72,2.35-4.14,8.36-12.35,13.42-8,2.08,1.8,3.24,5.89,3.6,9.27C59,188.75,55.89,202.27,55,213.42Z"/><path class="cls-3" d="M164.56,390.7c-1.15,2.85-5.28,3.08-7.85,2.92-6.9-.44-16.1-4-23.34-8.58-7-4.42-17.56-12.09-21-18.37-1.24-2.28-2.23-4.95-.76-6.95,3.38-4.59,12.57,1.85,16.8,5,5.74,4.34,12.05,9,17.88,11.85,4.46,2.21,8.53,3.63,12,5.72C161.52,384.25,165.86,387.46,164.56,390.7Z"/><path class="cls-3" d="M112.35,323.48c4.4-1.25,6.67,3.63,8.73,6.22a42.64,42.64,0,0,0,2.79,3.45c1.9,1.91,3.9,3.38,4.69,6.23.9,3.23-.3,6.22-3,6.76-3.35.66-6.58-1.57-8.6-3.37a30.71,30.71,0,0,1-7.57-11.64C108.18,327.4,109.54,324.28,112.35,323.48Z"/><path class="cls-3" d="M307.51,363.65c-1.2-4.35,3.79-6.51,6.46-8.49,1.21-.91,2.54-1.77,3.54-2.7,2-1.85,3.49-3.79,6.39-4.52,3.3-.83,6.3.4,6.8,3.1.62,3.3-1.7,6.45-3.56,8.41a30.94,30.94,0,0,1-11.93,7.27C311.42,367.83,308.28,366.44,307.51,363.65Z"/><path class="cls-3" d="M421.77,244.67c2.51-3.36,4-7.22,7.59-6.9,4,.36,6.2,4.21,6.94,6.72,1.85,6.27-.18,18.16-2.76,26.6-1.4,4.56-3.36,9.35-5.1,13.78-1.91,4.86-3.66,9.21-5.62,13.08a189.6,189.6,0,0,1-45.25,57.89,165.51,165.51,0,0,1-37.34,24.59c-3,1.43-6.57,3.07-10.33,4.42-3.45,1.24-8.63,2.58-11.8.24-2.53-1.86-2.56-5.86.09-8.74a16.48,16.48,0,0,1,3.9-2.58A137.72,137.72,0,0,0,344.54,356c18.1-17.26,35.7-42.34,48.16-69.9a206.2,206.2,0,0,0,12.82-35.57c1.69-6.66,2.72-18.66,9.93-17a7.44,7.44,0,0,1,2.7,1.36C420.86,237,421.2,241.34,421.77,244.67Z"/><path class="cls-3" d="M192.86,394.66c.14-.7-.84-2-.12-3.68.78-1.85,3.35-2.33,5.47-2.16,2.28.18,5,1.2,7.19,1.65,7.66,1.57,15.69,1.77,23.45,1.88,18.38.26,35.48-2,51.12-6.88a13.27,13.27,0,0,1,4.74-1.22c4,0,5.63,2.71,3.47,6.55,2.2-.21,4.49-1.57,7-2.41s5.31-1.88,7.67-1.53c5.47.79,2.82,6.94.08,9.86a40.24,40.24,0,0,1-6.83,5.18,77.84,77.84,0,0,1-15.1,7.86,121.24,121.24,0,0,1-35.34,7.73c-15.06,1.11-35.34-.36-52-6.63-6.39-2.4-12.11-4.92-17-8.94-2.29-1.9-4.49-4.9-3.38-7.81C175.25,388.85,187.51,392.93,192.86,394.66Z"/><path class="cls-11" d="M431,411.16c0,1.94-2.76,1.86-3.89,3.39-1.26,1.69-.13,4.56-2.07,5.46s-2-4.13-4.31-6.39c-1.14-1.11-2.94-.29-3.21-2.29s2.78-2.19,4.08-3.72.87-4.3,2.54-5.17c2.17-1.13,2,3.17,3.56,5.46C429,409.72,431,409.44,431,411.16Z"/><path class="cls-12" d="M448.42,67.37c.19,3.47-5.27,2.39-8,2.95-12,2.43-13.33,16.05-23.7,21.11-9.8,4.79-23.71.46-33.6-11.72-7.55-9.3-4.67-16-12-25.5-3.29-4.27-11.77-8.94-8.43-11.72,2.16-1.78,7.57,2.33,10.5,2,6.67-.76,16.11-9.48,24.65-4.63,4.32,2.45,6.24,6.7,8.07,10.75,6.58-1.79,11.31-7.89,17.82-3.47,5.17,3.52,3.44,8.29,8.94,12.79C438.48,64.68,448.14,62.15,448.42,67.37Zm-46.16-7c-5.8-1.43-11.46.68-17.14-2.35,11.11,13.15,22.19,16.38,33.25,11.36.19-.26.11-.57-.36-1C413.12,67.11,409.26,62.14,402.26,60.41Z"/><path class="cls-13" d="M369,12.26a3.28,3.28,0,0,1,3.38,2c.61,1.73.24,6.17-.38,8.08a3.63,3.63,0,0,1-3,2.5c-2.18,0-3.13-2.31-3.06-5.21C366,16.25,366.52,12.55,369,12.26Z"/><path class="cls-13" d="M393.91,16.09c3.59.75.32,10.48-2.7,9.85a2.61,2.61,0,0,1-1.62-1.06c-1-1.72,1.29-7.57,2.42-8.49A2.48,2.48,0,0,1,393.91,16.09Z"/><path class="cls-13" d="M460.22,35.72c0,2-3.4,2.12-4.78,3.77-1.53,1.82,0,4.66-2.44,5.74-2.22,1-2.6-4.06-5.57-6.17C446,38,443.74,39,443.34,37s3.43-2.45,5-4.12,1-4.44,3-5.47c2.68-1.32,2.55,3.07,4.6,5.28C457.62,34.42,460.18,34,460.22,35.72Z"/><path class="cls-14" d="M17.26,378.44a3.29,3.29,0,0,0-3.5-1.82c-1.79.39-5.38,3-6.68,4.56A3.62,3.62,0,0,0,6.52,385c1.17,1.83,3.6,1.45,6-.12C15.42,383.06,18.31,380.7,17.26,378.44Z"/><path class="cls-14" d="M26,341.79c-1,.19-1.41.27-1.46,1.3-.07,1.36.64,5.26,1.5,6.48a2.68,2.68,0,0,0,2.67,1.12c1.55-.48,1.74-2.29,1.07-4.32C29,344,27.81,341.47,26,341.79Z"/><path class="cls-14" d="M31.46,391c-2.55-2.63-9.13,5.24-7,7.46a2.69,2.69,0,0,0,1.77.8c2,0,5.79-5.06,6-6.5A2.44,2.44,0,0,0,31.46,391Z"/><path class="cls-14" d="M89.58,340.5c.35,1.7-2.15,2.17-2.9,3.73-.83,1.72.7,4-.88,5.17s-2.54-3.21-5-4.72c-1.23-.74-2.71.33-3.32-1.35s2.12-2.46,3-4.05,0-3.91,1.36-5c1.75-1.41,2.34,2.37,4.19,4.05C87.48,339.66,89.28,339,89.58,340.5Z"/><path class="cls-11" d="M45.45,86.47c.54,1.87-2.57,2.82-3.42,4.71-.93,2.09,1.14,4.43-.79,6-1.77,1.47-3.38-3.24-6.62-4.54-1.59-.64-3.38.81-4.25-1s2.52-3.14,3.54-5.1-.23-4.44,1.41-5.9c2.11-1.89,3.09,2.31,5.51,3.92C42.76,85.85,45,84.82,45.45,86.47Z"/><path class="cls-11" d="M24.79,54c-.72,3.6,9.49,4.56,10.11,1.54a2.73,2.73,0,0,0-.34-1.92c-1.17-1.65-7.45-1.9-8.75-1.23A2.45,2.45,0,0,0,24.79,54Z"/><path class="cls-11" d="M100.44,21.67c0,1.35-2.9,1.51-4.08,2.66s-.13,3.19-2.16,4-2.09-2.71-4.53-4.09c-1.2-.68-3.09,0-3.38-1.34s2.92-1.74,4.28-2.91.9-3.05,2.65-3.79c2.27-1,2.07,2,3.74,3.5C98.29,20.83,100.44,20.47,100.44,21.67Z"/><path class="cls-11" d="M102.05,56.5c-10.52-6.84-20.81-19.58-38.7-16.15-14.82,2.84-17.86,12.77-13.9,23.52C53.67,75.33,61.78,83,72,93.58c8.9,9.26,20.46,21.23,35.42,17.62,15.25-3.7,18.87-21.93,23.67-33.5,4.21-10.15,13.07-26.21,7-38-1.94-3.73-8.27-6.62-12.29-6.23C109.12,35.13,107.14,48,102.05,56.5Z"/><path class="cls-11" d="M385,356.67c11.1-5.8,22.51-17.48,40-12.41,14.5,4.2,16.63,14.34,11.71,24.63-5.25,11-14,17.83-25.12,27.38-9.71,8.35-22.31,19.16-36.87,14.17-14.86-5.08-16.8-23.5-20.53-35.43-3.27-10.47-10.63-27.22-3.47-38.33,2.27-3.52,8.84-5.8,12.8-5C379.91,334.82,380.71,347.79,385,356.67Z"/><path class="cls-15" d="M166.4,46.4c-.93-.2-1.81-.39-2.62-.54-2.23-.41-4-.53-5.14.23a2.46,2.46,0,0,0-1.06,1.61c-.34,1.66.74,3,2.76,3.48.72.15,7.08,1.54,9.52,1.73,2.21.17,3.38-1.16,3.52-2.46a3,3,0,0,0-2.76-3.23C169.21,47,167.78,46.7,166.4,46.4Z"/><path class="cls-15" d="M160.26,36.12a2.8,2.8,0,0,0-.53,3.59,2.46,2.46,0,0,0,3,1.21l1.68-.64a61.6,61.6,0,0,0,8.25-3.58A2.85,2.85,0,0,0,173.7,33a2.68,2.68,0,0,0-1.93-1.5,3.34,3.34,0,0,0-2,.27l-4,1.7C161.23,35.41,160.86,35.57,160.26,36.12Z"/><path class="cls-15" d="M154.84,30.35a2.58,2.58,0,0,0,1,1.77,2.91,2.91,0,0,0,4.2-.57c1.45-1.67,2.79-3.39,4.14-5.16a2.84,2.84,0,0,0-.45-4,2.79,2.79,0,0,0-1.23-.57,3.11,3.11,0,0,0-3,1.3c-.56.69-1.08,1.31-1.55,1.87C155.94,27.42,154.71,28.89,154.84,30.35Z"/><path class="cls-15" d="M448.18,378.71c-.69-.67-1.33-1.29-1.94-1.85-1.67-1.52-3.11-2.55-4.48-2.51a2.47,2.47,0,0,0-1.75.8c-1.17,1.24-1,3,.51,4.41.52.52,5.19,5.05,7.16,6.5,1.79,1.32,3.48.8,4.29-.23a3,3,0,0,0-.64-4.2C450.24,380.71,449.19,379.69,448.18,378.71Z"/><path class="cls-15" d="M448.4,366.73a2.82,2.82,0,0,0-2.35,2.78,2.45,2.45,0,0,0,1.88,2.58l1.76.35a62,62,0,0,0,8.89,1.31,2.82,2.82,0,0,0,2.88-2.57,2.68,2.68,0,0,0-.84-2.3,3.46,3.46,0,0,0-1.8-.8l-4.29-.66C449.6,366.65,449.2,366.58,448.4,366.73Z"/><path class="cls-15" d="M446.84,359a2.6,2.6,0,0,0-.08,2,2.92,2.92,0,0,0,3.87,1.73c2.12-.66,4.16-1.42,6.24-2.2a2.83,2.83,0,0,0,1.73-3.63,2.71,2.71,0,0,0-.74-1.14,3.1,3.1,0,0,0-3.23-.47c-.83.29-1.6.54-2.3.77C449.32,357.07,447.5,357.66,446.84,359Z"/><path class="cls-16" d="M340.08,123.57a46.76,46.76,0,0,1-7.6-13.41c-1.36-4-5.54-10.64-11.08-10.07s-6.26-6.87-11.75-7.73-8.63,2.57-15.3-.44-12.85-5.16-15.8-2.4-8.66,7.62-13.91,7.19-12.81,4.62-14.16,9.29-6.64,11.82-8.9,18.4,4.47,14.31,10.07,12.31,7.55-5.05,10.2-4.28,4.73,1,7.49-1.1c5.81-4.42,11.09-1.13,14.38,2.35a7.88,7.88,0,0,1,1.58,2.47,107.66,107.66,0,0,0,2.47,11.72c1.49,5.13,5.83,6.27,4.73,10s-5,8.67-2.15,12.39,4.79,10.06,7.83,11.66,9.74,3.9,12.74,1.88,5.58-6,9.41-5.6a6.7,6.7,0,0,0,7.28-6.57c0-1.89,1.7-4.16,3.4-6,2.35-1.66,4.29-3.55,4.67-5.79,1-5.86,4.38-13.92,6.53-17.64S343.28,127.39,340.08,123.57Z"/><path class="cls-17" d="M105.54,87.19,95.13,90.33l-.28-.93a11,11,0,0,1-.57-4.06,9,9,0,0,1,1-3.27,57.43,57.43,0,0,1,4-5.95c1.15-1.53,1.59-2.74,1.32-3.65a2.7,2.7,0,0,0-1.53-1.83,4.31,4.31,0,0,0-2.92.06,4.77,4.77,0,0,0-2.87,2.13,6.62,6.62,0,0,0-.41,4.53l-11,2a13,13,0,0,1,1.7-9.77Q86.35,65.29,94,63q6-1.8,10.32-.67,5.91,1.52,7.43,6.57a7.5,7.5,0,0,1-.07,4.42,21.93,21.93,0,0,1-3.83,6.34,14.2,14.2,0,0,0-2.53,4.22A6.21,6.21,0,0,0,105.54,87.19Zm-5.1,4.25,1.32-.4A4.89,4.89,0,0,1,108,94h0a4.89,4.89,0,0,1-3.58,5.9l-1.31.4a4.9,4.9,0,0,1-6.26-2.93h0A4.9,4.9,0,0,1,100.44,91.44Z"/><path class="cls-18" d="M423.64,68c.37,1.28-2.15.77-3.33.91-5.14.64-4.61,5.63-8.8,7.28-4,1.55-10.51-.36-15.92-5.07-4.13-3.59-3.41-6-7.44-9.67-1.82-1.65-6-3.56-4.72-4.51.81-.61,3.56,1,4.83,1,2.91-.13,6.39-3.14,10.59-1.17a12,12,0,0,1,4.48,4.15c2.78-.52,4.38-2.67,7.64-.89,2.59,1.41,2.22,3.13,5,4.92C419,66.77,423.08,66.05,423.64,68ZM402.52,64.4c-2.7-.65-5,0-7.82-1.24,6,5.09,11.23,6.53,15.73,4.92.07-.09,0-.21-.24-.36C407.9,67.11,405.78,65.19,402.52,64.4Z"/><path class="cls-18" d="M411.79,67.56c.22.49-.93.19-1.44.19-2.25,0-1.8,1.9-3.59,2.32s-4.68-.58-7.28-2.56c-2-1.51-1.77-2.38-3.71-3.9-.88-.69-2.81-1.58-2.29-1.88.33-.19,1.62.53,2.19.57,1.28.07,2.69-.9,4.64,0a6.75,6.75,0,0,1,2.16,1.73c1.21-.08,1.83-.8,3.35,0,1.21.64,1.12,1.26,2.45,2S411.45,66.82,411.79,67.56Zm-9.52-2.24c-1.23-.35-2.24-.21-3.53-.79,2.9,2.15,5.27,2.9,7.19,2.5,0,0,0-.08-.12-.15C404.77,66.56,403.74,65.76,402.27,65.32Z"/><path class="cls-14" d="M103.21,368.34c1,3.15-4.54,3.19-7.07,4.22-11,4.5-9.07,17.26-17.9,23.86-8.34,6.24-22.86,4.89-35.37-4.43-9.54-7.11-8.37-13.84-17.71-21.15-4.22-3.3-13.55-6-11-9.18,1.66-2,7.88.71,10.64-.15,6.29-2,13.34-11.75,22.77-8.91,4.78,1.44,7.66,5,10.4,8.36,5.95-2.89,9.07-9.38,16.43-6.55,5.86,2.25,5.33,7,11.74,10.06C92.93,367.74,101.68,363.6,103.21,368.34Zm-46.4,2.32c-6-.22-10.94,2.78-17.17,1.07,13.92,10,25.44,10.85,34.94,4.16.13-.28,0-.55-.57-.81C68.94,374.76,64,370.92,56.81,370.66Z"/><path class="cls-18" d="M77.27,374.61c.57,1.21-2,1.09-3.14,1.42-5,1.44-3.66,6.29-7.54,8.58-3.67,2.16-10.44,1.31-16.52-2.48-4.65-2.9-4.32-5.41-8.87-8.38-2.06-1.34-6.47-2.57-5.38-3.71.71-.73,3.68.45,4.93.19,2.85-.59,5.8-4.12,10.26-2.83a11.82,11.82,0,0,1,5.08,3.39c2.67-1,3.91-3.33,7.41-2.09,2.78,1,2.68,2.74,5.75,4.06C72.49,374.15,76.41,372.79,77.27,374.61Zm-21.42-.2c-2.77-.22-5,.8-7.92,0,6.77,4.08,12.12,4.67,16.32,2.37,0-.1,0-.21-.29-.32C61.6,376.24,59.19,374.68,55.85,374.41Z"/></g></svg>