<svg xmlns="http://www.w3.org/2000/svg" viewBox="0 0 450.42 383.35"><defs><style>.cls-1{isolation:isolate;}.cls-2{opacity:0.5;}.cls-3{fill:#f2e199;}.cls-4{fill:#f7a73c;}.cls-5{fill:#0d0530;}.cls-6{fill:#150749;}.cls-7{fill:#e0e0e0;}.cls-8{fill:#263238;}.cls-9{fill:#f4501e;}.cls-10,.cls-9{fill-rule:evenodd;}.cls-10{fill:#ff082c;}.cls-11{fill:#c0b090;}.cls-12{fill:#d9c6a1;}.cls-13{fill:#3d3d3d;}.cls-14{fill:#ba6f5d;}.cls-15{fill:#ffbe9d;}.cls-16{fill:#f47a4a;}.cls-17{opacity:0.3;}.cls-18{fill:#eb996e;}.cls-19{fill:#455a64;}.cls-20{fill:#aa6550;}.cls-21{fill:#894536;}.cls-22{fill:#1d7e8e;}.cls-23{fill:#68bcb8;}.cls-24{fill:#00a09d;}.cls-25{fill:#154c25;}.cls-26{fill:#ab79f2;}.cls-27,.cls-28{fill:#6a3bc4;}.cls-28{opacity:0.2;mix-blend-mode:screen;}.cls-29{fill:#e3d16b;}</style></defs><g class="cls-1"><g id="Background_Simple" data-name="Background Simple"><g class="cls-2"><path class="cls-3" d="M186.32,142.85c-53.51-1.25-149.63-43-175,70.05-20.93,93.15,49,169.31,135.11,135.6,46.51-18.22,54.21-67.48,97.89-51.06s89.91,65.78,147.83,29.17C461.11,283,449.22,126,430,78.76c0,0-41.34-116.72-123.51-56.85C243.45,67.85,279.27,145,186.32,142.85Z"/></g></g><g id="Background_Complete" data-name="Background Complete"><path class="cls-4" d="M118.36,160.24h-15c-8.86,0-16.42,6.94-17.84,16.38L73.36,256.93c-2.53,16.73,9.44,31.93,25.15,31.93h314.3c9.55,0,16.52-9.74,14.11-19.71h0c-1.67-6.94-7.47-11.77-14.11-11.77h0c-9.42,0-17.78-6.49-20.79-16.11l-19.4-62c-3.07-9.8-11.55-16.43-21.13-16.54Z"/><polyline class="cls-5" points="111.52 311.12 103.35 351.89 111.89 351.89 121.3 311.12 111.52 311.12"/><polyline class="cls-5" points="408.83 311.12 416.78 351.29 408.15 351.29 399.05 311.12 408.83 311.12"/><polyline class="cls-6" points="372.77 311.12 380.23 351.29 371.6 351.29 362.99 311.12 372.77 311.12"/><polyline class="cls-7" points="80.1 311.12 71.87 351.89 80.5 351.89 89.88 311.12 80.1 311.12"/><path class="cls-4" d="M53.29,257.55v48.1c0,7.74,5.85,14,13.07,14H414.81c7.22,0,13.07-6.27,13.07-14l-.48-39.23Z"/><path class="cls-7" d="M380.14,202.85l-.64.53-1.91,1.51c-.43.33-.89.72-1.43,1.1l-1.78,1.23c-.64.44-1.32.94-2.08,1.42l-2.45,1.48a77.15,77.15,0,0,1-13.23,6.25,80.8,80.8,0,0,1-18.7,4.34,78.29,78.29,0,0,1-23.14-1.07l-3.08-.73-1.56-.37-1.56-.46c-2.09-.6-4.17-1.32-6.28-2.1-4.21-1.55-8.44-3.44-12.75-5.42-8.61-4-17.54-8.51-27.37-11.45a104.19,104.19,0,0,0-62.2.54c-9.76,3.17-18.79,7.43-27.61,10.88s-17.46,6.1-25.79,6.95a54.06,54.06,0,0,1-12.08-.09,43.78,43.78,0,0,1-10.82-2.86,73.65,73.65,0,0,1-9.2-4.55c-2.83-1.6-5.45-3.21-7.92-4.67a91.59,91.59,0,0,0-13-6.74,40.61,40.61,0,0,0-8.82-2.38l-2.36-.2c-.54,0-.81-.08-.81-.08l.81,0c.53,0,1.33.07,2.37.16a39.07,39.07,0,0,1,8.87,2.3,90.28,90.28,0,0,1,13.05,6.68c2.48,1.45,5.1,3,7.93,4.63a73.23,73.23,0,0,0,9.18,4.5A43.64,43.64,0,0,0,134.54,217a54,54,0,0,0,12,.06c8.29-.86,16.92-3.46,25.69-7s17.84-7.73,27.63-10.91a104.25,104.25,0,0,1,62.44-.55c9.87,3,18.81,7.53,27.41,11.5,4.31,2,8.53,3.87,12.72,5.43,2.09.77,4.17,1.5,6.25,2.1l1.55.45,1.55.38,3.07.73a78,78,0,0,0,23,1.12,80.64,80.64,0,0,0,18.65-4.25A78.24,78.24,0,0,0,369.77,210l2.45-1.46c.76-.48,1.44-1,2.09-1.4l1.79-1.21c.55-.37,1-.76,1.44-1.08l1.93-1.47Z"/><path class="cls-7" d="M425.2,244s-.33-.09-.95-.3l-1.17-.4a15.12,15.12,0,0,0-1.64-.48,44.37,44.37,0,0,0-11.09-1.59,57.29,57.29,0,0,0-8.1.43,75,75,0,0,0-9.5,1.74q-5.07,1.24-10.69,3.18c-3.74,1.28-7.64,2.81-11.75,4.41s-8.39,3.29-12.93,4.86a108,108,0,0,1-14.38,4c-1.27.22-2.54.49-3.84.64-.65.09-1.3.19-2,.26l-2,.18c-1.32.14-2.66.12-4,.19l-2,0-1,0-1-.08a68.8,68.8,0,0,1-16.55-3.49c-11.07-3.63-22-9.51-33.92-13.57A85.73,85.73,0,0,0,258,239.82a111,111,0,0,0-19.65-.24c-13.28.95-26.06,3.76-38.32,6.59-6.14,1.42-12.15,2.88-18.07,4.2s-11.75,2.43-17.46,3.31a158.15,158.15,0,0,1-16.79,1.74c-2.74.17-5.43.14-8.09.15s-5.27-.15-7.82-.46a78,78,0,0,1-27.58-7.56c-4-2-7.57-4.24-11-6.27A84.81,84.81,0,0,0,83.26,236a27.53,27.53,0,0,0-17.34-2.16,20.11,20.11,0,0,0-6.05,2.38,16.62,16.62,0,0,0-3.74,3.1A11.81,11.81,0,0,0,55,240.7a8.67,8.67,0,0,0-.7,1.07c-.35.6-.54.9-.54.9s.16-.31.5-.92a7.55,7.55,0,0,1,.69-1.1,11.48,11.48,0,0,1,1.09-1.4,16.49,16.49,0,0,1,3.74-3.15,19.89,19.89,0,0,1,6.07-2.44,27.58,27.58,0,0,1,17.47,2.1,85.6,85.6,0,0,1,10,5.25c3.45,2,7,4.3,11,6.23a77.88,77.88,0,0,0,27.48,7.48c2.55.3,5.15.32,7.8.44s5.33,0,8.06-.16a155,155,0,0,0,16.75-1.76c5.71-.88,11.52-2,17.44-3.31s11.92-2.79,18.06-4.21c12.27-2.85,25.06-5.66,38.38-6.61a109.88,109.88,0,0,1,19.72.24,85.84,85.84,0,0,1,18.77,4.14c6,2,11.72,4.55,17.32,7s11.08,4.81,16.59,6.62a68.33,68.33,0,0,0,16.45,3.49l1,.09,1,0,2,.05c1.34-.07,2.67-.05,4-.19l2-.17c.66-.07,1.3-.17,1.95-.25,1.29-.16,2.56-.42,3.82-.64a107.78,107.78,0,0,0,14.34-4c4.54-1.56,8.83-3.24,12.94-4.83s8-3.11,11.77-4.38,7.33-2.33,10.72-3.14a73.13,73.13,0,0,1,9.53-1.72,58.73,58.73,0,0,1,8.12-.39,44.21,44.21,0,0,1,11.12,1.68,15.05,15.05,0,0,1,1.63.52l1.16.41Z"/><path class="cls-7" d="M351.49,161.72s-.16.18-.5.5l-1.49,1.42c-.69.59-1.56,1.29-2.59,2.1a44.72,44.72,0,0,1-3.79,2.49A49.09,49.09,0,0,1,331.84,173c-1.14.33-2.34.62-3.58.91s-2.52.53-3.85.71a71.19,71.19,0,0,1-8.47.81,115.91,115.91,0,0,1-19.44-1.13c-7-.88-14.34-2.18-22.16-3.14-3.9-.47-7.92-.84-12-1a121,121,0,0,0-12.57.33,239,239,0,0,0-26.23,3.85c-8.94,1.72-17.66,3.5-26.16,4.76A183.53,183.53,0,0,1,172.71,181a181.34,181.34,0,0,1-41.56-4.51,182.29,182.29,0,0,1-27.07-8.46c-1.55-.64-2.94-1.18-4.13-1.7L97,165l-1.84-.84-.62-.3.64.26,1.85.79,3,1.31c1.19.5,2.58,1,4.14,1.66a187.73,187.73,0,0,0,27.07,8.3,181.93,181.93,0,0,0,41.5,4.4,183.11,183.11,0,0,0,24.59-1.92c8.48-1.25,17.19-3,26.13-4.75a239.22,239.22,0,0,1,26.28-3.86,124.68,124.68,0,0,1,12.62-.32c4.12.14,8.15.52,12.06,1,7.82,1,15.21,2.28,22.15,3.18a116.85,116.85,0,0,0,19.39,1.19,73,73,0,0,0,8.44-.78c1.33-.17,2.6-.46,3.84-.69s2.43-.56,3.57-.89A49.47,49.47,0,0,0,343,168.07c1.48-.82,2.71-1.71,3.79-2.44s1.92-1.49,2.61-2.07l1.52-1.38Z"/><path class="cls-7" d="M426.8,296s-.32-.12-.93-.38l-2.73-1.15c-1.19-.51-2.74-.94-4.53-1.56-.9-.28-1.9-.49-2.95-.76l-1.63-.41-1.76-.31a72,72,0,0,0-17.73-.88,124.36,124.36,0,0,0-23.25,4c-8.51,2.14-17.62,5.31-27.47,8.51s-20.46,6.44-32,8a83.66,83.66,0,0,1-17.75.64,65.68,65.68,0,0,1-18.13-4c-12-4.45-23.06-12-34.9-18.59a103.34,103.34,0,0,0-18.18-8.14c-1.54-.55-3.13-.89-4.68-1.33s-3.14-.72-4.73-.93a75.71,75.71,0,0,0-9.44-1,96.88,96.88,0,0,0-18.43,1.14,140.56,140.56,0,0,0-17.36,3.84c-11.16,3.18-21.52,7.18-31.34,10.44a160.51,160.51,0,0,1-27.82,7.15,79,79,0,0,1-23.55,0A58.92,58.92,0,0,1,68.47,295a49.4,49.4,0,0,1-9.6-6.32c-2-1.78-3-2.77-3-2.77l.77.68c.52.45,1.24,1.16,2.25,2a51.65,51.65,0,0,0,9.62,6.22,58.56,58.56,0,0,0,17,5.24,79,79,0,0,0,23.48-.1,161.3,161.3,0,0,0,27.75-7.19c9.81-3.28,20.16-7.29,31.35-10.49a139,139,0,0,1,17.4-3.87,97.62,97.62,0,0,1,18.51-1.16,76.89,76.89,0,0,1,9.49,1c1.59.22,3.16.63,4.75.94s3.16.79,4.71,1.34a103.92,103.92,0,0,1,18.26,8.16c11.87,6.57,22.94,14.15,34.84,18.58a65.27,65.27,0,0,0,18,4,83.6,83.6,0,0,0,17.67-.62c11.46-1.56,22.06-4.82,31.91-8s19-6.34,27.5-8.47a124.3,124.3,0,0,1,23.31-3.92,71.36,71.36,0,0,1,17.77,1c.6.11,1.19.2,1.76.32l1.64.42c1.05.28,2.05.49,2.95.78,1.79.64,3.33,1.09,4.52,1.61l2.71,1.2Z"/><path class="cls-4" d="M402,218.42h6.3a19.07,19.07,0,0,1,19.07,19.07v36.85a13.79,13.79,0,0,1-13.79,13.79h-6.3A24.35,24.35,0,0,1,383,263.78V237.49A19.07,19.07,0,0,1,402,218.42Z"/><path class="cls-4" d="M72.36,218.42h6.3a19.07,19.07,0,0,1,19.07,19.07v50.64a0,0,0,0,1,0,0H77.64a24.35,24.35,0,0,1-24.35-24.35V237.49A19.07,19.07,0,0,1,72.36,218.42Z"/><path class="cls-8" d="M100.19,258l.76,0,2.22,0,8.52,0,31.34,0c26.46,0,63,.21,103.39.49l103.4.62,31.34.13,8.52.05,2.21,0,.76,0-.76,0-2.21,0-8.52,0-31.34,0c-26.46,0-63-.21-103.41-.49L143,258.21l-31.33-.13-8.52-.06L101,258Z"/><path class="cls-8" d="M97.74,319.66a1.16,1.16,0,0,1,0-.3c0-.22,0-.51,0-.88,0-.8,0-1.94-.07-3.39,0-3-.11-7.22-.19-12.46-.16-10.53-.34-25.07-.75-41.12-.26-8-.34-15.7-1.35-22.55a33.85,33.85,0,0,0-2.65-9.36,17.33,17.33,0,0,0-5.07-6.43,21.49,21.49,0,0,0-10.41-4.94,10.59,10.59,0,0,0-1.8-.1c-.52,0-1,.11-1.31.16l-.79.22a.91.91,0,0,1-.27.06l.26-.11.78-.27c.36-.06.8-.14,1.33-.2a11.53,11.53,0,0,1,1.82,0,21.28,21.28,0,0,1,10.58,4.86,17.6,17.6,0,0,1,5.2,6.52,33.77,33.77,0,0,1,2.73,9.46c1,6.91,1.13,14.59,1.39,22.62.41,16.05.54,30.6.63,41.12,0,5.24,0,9.5.05,12.47,0,1.45,0,2.58,0,3.39,0,.37,0,.66,0,.88S97.74,319.66,97.74,319.66Z"/><path class="cls-8" d="M75.05,236.71s-.47,0-1.25.3A5.74,5.74,0,0,0,71,239.09a5.92,5.92,0,0,0-1,2.25,5.45,5.45,0,0,0,.12,2.85,5.67,5.67,0,0,0,4.44,4.05,5.46,5.46,0,0,0,5.16-2.92,5.4,5.4,0,0,0,.69-2.75,6.25,6.25,0,0,0-.56-2.44,6.08,6.08,0,0,0-2.3-2.68c-.71-.43-1.17-.53-1.16-.58s.12,0,.34.06a3.12,3.12,0,0,1,.9.36,5.94,5.94,0,0,1,2.5,2.69,6.62,6.62,0,0,1,.65,2.58,6,6,0,0,1-6.27,6.15,6.07,6.07,0,0,1-4.78-4.39,6,6,0,0,1-.09-3.08,6.21,6.21,0,0,1,1.16-2.36,5.58,5.58,0,0,1,3-2,3.65,3.65,0,0,1,.95-.14A1.3,1.3,0,0,1,75.05,236.71Z"/><path class="cls-8" d="M71.05,258.16a3.92,3.92,0,0,1-.43-1.51,9.87,9.87,0,0,1,.25-3.83,9.31,9.31,0,0,1,1.66-3.39c.6-.74,1.07-1.08,1.1-1A14.32,14.32,0,0,0,71.29,253,15.57,15.57,0,0,0,71.05,258.16Z"/><path class="cls-8" d="M67.74,246.35c-.11,0,.08-.73.66-1.3s1.21-.74,1.25-.62-.45.45-1,1S67.85,246.41,67.74,246.35Z"/><path class="cls-8" d="M87.7,245.56c0,.05-.37-.35-1-.82A6.18,6.18,0,0,0,84,243.6a5.87,5.87,0,0,0-2.89.3c-.71.27-1.12.56-1.16.49s.31-.43,1-.8a5.19,5.19,0,0,1,3.07-.46,5.48,5.48,0,0,1,2.84,1.35A2.51,2.51,0,0,1,87.7,245.56Z"/><path class="cls-8" d="M131.12,160.38l-.22,0-.66.08c-.58.07-1.44.14-2.55.2-2.21.13-5.43.08-9.38.11a40.76,40.76,0,0,0-13.65,2.13,13.52,13.52,0,0,0-3.5,2,11,11,0,0,0-2.76,3.26,25.53,25.53,0,0,0-2.67,8.9c-1.8,12.87-3.42,24.52-4.6,33-.6,4.2-1.09,7.6-1.44,10-.17,1.15-.31,2.05-.41,2.71,0,.29-.09.52-.12.71a.79.79,0,0,1-.06.23s0-.08,0-.24,0-.42.08-.71l.33-2.73c.31-2.4.76-5.81,1.3-10,1.12-8.46,2.67-20.13,4.47-33A26.19,26.19,0,0,1,98,167.92a11.7,11.7,0,0,1,2.88-3.38,14,14,0,0,1,3.61-2,40.3,40.3,0,0,1,13.79-2.06c4,0,7.16.12,9.38,0,1.1,0,2-.06,2.54-.1l.67,0Z"/><path class="cls-8" d="M392.65,257.55c-.12,0-1.35-6.77-2.74-15.16s-2.43-15.22-2.31-15.24,1.35,6.76,2.74,15.16S392.77,257.52,392.65,257.55Z"/><path class="cls-8" d="M394.21,319.66a1.16,1.16,0,0,1,0-.3c0-.22,0-.51,0-.87,0-.81-.08-1.94-.13-3.38-.1-3-.23-7.19-.39-12.41-.29-10.5-.69-25-1.12-40.94,0-1-.07-2-.06-3l0-2.94c0-2,.06-3.87.11-5.76.13-3.77.33-7.42.78-10.86a48.19,48.19,0,0,1,.88-5,21.62,21.62,0,0,1,1.51-4.52,14.86,14.86,0,0,1,1.11-2,17.54,17.54,0,0,1,1.35-1.67,17.84,17.84,0,0,1,3-2.6,16.49,16.49,0,0,1,11-3.07,11,11,0,0,1,3,.85l.74.38q.25.13.24.15a12.64,12.64,0,0,0-4-1.2,16.66,16.66,0,0,0-10.84,3.17,17,17,0,0,0-2.91,2.58,16.45,16.45,0,0,0-1.32,1.63,16.11,16.11,0,0,0-1.07,1.92,21.5,21.5,0,0,0-1.46,4.45,49.53,49.53,0,0,0-.85,4.95c-.43,3.42-.63,7.05-.75,10.81-.05,1.89-.08,3.8-.1,5.75l0,2.94c0,1,0,2,.06,3,.38,16,.73,30.44,1,40.94.1,5.22.19,9.45.25,12.41,0,1.44,0,2.57,0,3.38,0,.36,0,.65,0,.87A1.71,1.71,0,0,1,394.21,319.66Z"/><path class="cls-8" d="M411,238.37s-.46,0-1.25.29a5.81,5.81,0,0,0-2.78,2.08,5.9,5.9,0,0,0-1,2.26,5.52,5.52,0,0,0,.12,2.84,5.66,5.66,0,0,0,4.44,4,5.61,5.61,0,0,0,5.85-5.66,6.21,6.21,0,0,0-.56-2.44,6,6,0,0,0-2.3-2.68,12.13,12.13,0,0,0-1.16-.58s.12,0,.34.05a3.84,3.84,0,0,1,.9.36,5.92,5.92,0,0,1,2.5,2.7,6.53,6.53,0,0,1,.65,2.58,6,6,0,0,1-6.26,6.14,6.21,6.21,0,0,1-4.88-7.46,6.26,6.26,0,0,1,1.16-2.37,5.6,5.6,0,0,1,3-2,3.35,3.35,0,0,1,.95-.15C410.87,238.34,411,238.35,411,238.37Z"/><path class="cls-8" d="M407,259.82a3.62,3.62,0,0,1-.43-1.52,9.61,9.61,0,0,1,.24-3.82,9.22,9.22,0,0,1,1.66-3.39c.6-.75,1.07-1.09,1.1-1.05a14.59,14.59,0,0,0-2.34,4.57A15.1,15.1,0,0,0,407,259.82Z"/><path class="cls-8" d="M403.67,248c-.11-.05.08-.72.66-1.3s1.21-.73,1.25-.61-.45.45-.95,1S403.78,248.06,403.67,248Z"/><path class="cls-8" d="M423.63,247.22c-.05.05-.37-.35-1-.82a6.07,6.07,0,0,0-2.71-1.14,5.88,5.88,0,0,0-2.89.29,11.31,11.31,0,0,1-1.16.5s.31-.44,1-.81a5.27,5.27,0,0,1,3.07-.45,5.36,5.36,0,0,1,2.84,1.35C423.44,246.71,423.67,247.19,423.63,247.22Z"/></g><g id="Capa_13" data-name="Capa 13"><path class="cls-9" d="M34.77,87c-2.81-2.15-5.62-6.07-10.25-5.22-3.83.71-4.53,3.66-3.4,6.92,1.22,3.48,3.4,5.86,6.16,9.13,2.41,2.86,5.54,6.56,9.4,5.62s4.71-6.39,5.85-9.81c1-3,3.16-7.74,1.45-11.33a4,4,0,0,0-3.26-2C36.4,80.65,36,84.49,34.77,87Z"/><path class="cls-9" d="M91.86,26.66C91,24.2,91,20.8,87.65,19.11c-2.76-1.41-4.51-.15-5.23,2.12S82,25.94,82.29,29c.26,2.66.61,6.09,3.49,7.38s5.84-1.23,8.09-2.53c2-1.14,5.44-2.67,5.94-5.39a3,3,0,0,0-1.19-2.57C95.72,24,93.76,25.9,91.86,26.66Z"/><path class="cls-9" d="M190.79,152.13c-1.71-1.95-3.07-5.06-6.8-5.34-3.09-.23-4.22,1.61-4,4,.23,2.54,1.43,4.52,2.88,7.19,1.27,2.35,2.92,5.38,6.07,5.46s4.91-3.39,6.48-5.46c1.37-1.82,4-4.57,3.4-7.27a3,3,0,0,0-2.1-1.92C193.33,148.21,192.25,150.69,190.79,152.13Z"/><path class="cls-9" d="M235.7,94.2c-2.17-1.84-4.32-5.14-7.93-4.57-3,.48-3.55,2.88-2.69,5.59.92,2.89,2.6,4.9,4.72,7.67,1.85,2.42,4.25,5.54,7.26,4.88s3.71-5.12,4.62-7.9c.8-2.44,2.52-6.26,1.22-9.26a3.18,3.18,0,0,0-2.53-1.72C237,89,236.68,92.19,235.7,94.2Z"/><path class="cls-9" d="M286.71,72.37c-1.43-2-2.39-4.9-5.95-5.63-3-.61-4.26.87-4.33,3s.85,4.2,1.95,6.77c.95,2.24,2.2,5.15,5.23,5.64s5.13-2.37,6.89-4c1.53-1.43,4.37-3.53,4.12-6a2.87,2.87,0,0,0-1.81-2C289.62,69.22,288.29,71.29,286.71,72.37Z"/><path class="cls-10" d="M190.37,156.75c-.73-.92-1.31-2.4-2.89-2.53-1.32-.1-1.8.77-1.71,1.9a9.22,9.22,0,0,0,1.21,3.42c.53,1.11,1.23,2.55,2.57,2.58s2.1-1.62,2.77-2.61,1.71-2.18,1.46-3.46a1.33,1.33,0,0,0-.89-.91C191.45,154.88,191,156.06,190.37,156.75Z"/><path class="cls-10" d="M236.59,100.9c-.73-.93-1.3-2.41-2.89-2.53-1.31-.1-1.8.77-1.71,1.9a9.53,9.53,0,0,0,1.21,3.42c.54,1.11,1.24,2.55,2.58,2.58s2.1-1.62,2.77-2.61,1.7-2.18,1.46-3.46a1.35,1.35,0,0,0-.89-.91C237.68,99,237.21,100.21,236.59,100.9Z"/><path class="cls-10" d="M285.59,73.9c-.73-.93-1.3-2.41-2.89-2.53-1.31-.1-1.8.77-1.71,1.9a9.53,9.53,0,0,0,1.21,3.42c.54,1.11,1.24,2.55,2.58,2.58s2.1-1.62,2.77-2.61,1.7-2.18,1.46-3.46a1.35,1.35,0,0,0-.89-.91C286.68,72,286.21,73.21,285.59,73.9Z"/><path class="cls-9" d="M389.2,38.9c-2.81-2.15-5.62-6.07-10.25-5.22-3.84.71-4.53,3.66-3.4,6.92,1.21,3.48,3.4,5.86,6.16,9.13,2.41,2.86,5.54,6.56,9.4,5.62S395.82,49,397,45.54c1-3,3.16-7.74,1.45-11.33a4,4,0,0,0-3.26-2C390.83,32.56,390.44,36.41,389.2,38.9Z"/></g><g id="Capa_11" data-name="Capa 11"><path class="cls-11" d="M56.45,355.38a83.37,83.37,0,0,0-7.05,5.87,4.36,4.36,0,0,0-1,4.69c0,.06.06.13.08.19a128.68,128.68,0,0,0,20.05-3.34,60.22,60.22,0,0,0-9.32-9.37C58.25,354.07,57.34,354.71,56.45,355.38Z"/><path class="cls-12" d="M98,350.93c0-.25-.06-.49-.1-.73l-.29-1.49-.3-1.55a45.25,45.25,0,0,1-24.55-2.57l0,.12-1,.6c-2.65,1.54-5.24,3.15-7.8,4.83-1.62,1.06-3.21,2.16-4.79,3.28a60.22,60.22,0,0,1,9.32,9.37A112.91,112.91,0,0,0,98,350.93Z"/><path class="cls-13" d="M48.43,366.13a7.05,7.05,0,0,0,7.46,4.06c3.38-.54,6.6-1.3,9.78-2.1S72,366.35,75,365.37s6.07-2,9-3.14,5.89-2.26,8.84-3.39A7.59,7.59,0,0,0,98,350.93C83.79,359.26,66.48,364.58,48.43,366.13Z"/><path class="cls-14" d="M67.58,330.14l5.18,14.45a45.25,45.25,0,0,0,24.55,2.57l-3.77-19.57A98.7,98.7,0,0,1,67.58,330.14Z"/><path class="cls-11" d="M217.29,349.81a60.86,60.86,0,0,1,6.11,4.45,2.82,2.82,0,0,1,.5,3.7l-.09.16a136.89,136.89,0,0,1-18.82-2,68.85,68.85,0,0,1,9.93-7.76C215.71,348.82,216.51,349.31,217.29,349.81Z"/><path class="cls-12" d="M178,347.61c.05-.2.11-.39.18-.59l.43-1.19.46-1.25a54,54,0,0,0,23.75-2.83l-.05.09.94.45q3.56,1.71,6.94,3.59c1.44.79,2.84,1.61,4.23,2.46A68.85,68.85,0,0,0,205,356.1,104,104,0,0,1,178,347.61Z"/><path class="cls-13" d="M223.81,358.12a8.48,8.48,0,0,1-7.58,3.47c-3.17-.32-6.17-.82-9.12-1.36s-5.82-1.18-8.63-1.86-5.59-1.42-8.3-2.21-5.39-1.62-8.09-2.42c-3.1-.93-4.78-3.29-4.05-6.13C190.74,353.78,206.71,357.46,223.81,358.12Z"/><path class="cls-14" d="M209.38,330.07l-6.52,11.68a54,54,0,0,1-23.75,2.83l5.71-15.7A108.49,108.49,0,0,0,209.38,330.07Z"/><path class="cls-11" d="M288.59,339a52.71,52.71,0,0,0-5.85,3,2.12,2.12,0,0,0-.56,3l.09.14a142.24,142.24,0,0,0,17.72.57,75.33,75.33,0,0,0-9.12-7.71C290.1,338.33,289.34,338.64,288.59,339Z"/><path class="cls-12" d="M325.52,341.82c0-.16-.1-.33-.16-.51l-.37-1.05-.4-1.1a59.25,59.25,0,0,1-22.24-5.23l0,.09-.89.26q-3.39,1-6.61,2.18c-1.37.49-2.71,1-4,1.56a75.33,75.33,0,0,1,9.12,7.71A100.12,100.12,0,0,0,325.52,341.82Z"/><path class="cls-13" d="M282.27,345.16a9.23,9.23,0,0,0,7,3.82c3,.12,5.81.06,8.61,0s5.49-.29,8.15-.53,5.28-.52,7.84-.86,5.11-.71,7.66-1.06c2.94-.41,4.58-2.19,4-4.67C313.43,345.49,298.34,346.66,282.27,345.16Z"/><path class="cls-15" d="M296.53,323.35l5.82,10.58a59.25,59.25,0,0,0,22.24,5.23l-5-13.87A115.29,115.29,0,0,1,296.53,323.35Z"/><path class="cls-11" d="M317.16,345.18a54.23,54.23,0,0,0-6.36,3.08c-1.07.65-1.36,1.84-.56,3.24l.09.15a160.73,160.73,0,0,0,19.46.93,85.53,85.53,0,0,0-10.16-8.37C318.8,344.53,318,344.85,317.16,345.18Z"/><path class="cls-12" d="M357.73,348.91c-.05-.17-.11-.36-.18-.54l-.43-1.13-.45-1.18a68.18,68.18,0,0,1-24.51-6l0,.09-1,.27c-2.46.67-4.86,1.41-7.21,2.19-1.49.5-2.95,1-4.4,1.58a85.53,85.53,0,0,1,10.16,8.37A111,111,0,0,0,357.73,348.91Z"/><path class="cls-13" d="M310.33,351.65c1.35,2.17,4.78,4,7.78,4.19,3.29.18,6.38.17,9.45.12s6-.21,8.93-.41,5.79-.45,8.6-.77,5.59-.65,8.38-1c3.22-.38,5-2.24,4.26-4.89C344.54,352.58,328,353.54,310.33,351.65Z"/><path class="cls-15" d="M328.45,327.53,333.09,340a55,55,0,0,0,23,6.71l-3.24-16.23A110.12,110.12,0,0,1,328.45,327.53Z"/></g><g id="Character_1" data-name="Character 1"><path class="cls-8" d="M354.74,89.44a11.61,11.61,0,0,0-10.23-9.73,14.91,14.91,0,0,1-4-.45,23.7,23.7,0,0,1-2.85-1.62,7.75,7.75,0,0,0-9.48,2c-2,2.59-2.86-1-7.66,1.83-4,2.37-1.9,5.65-1.9,5.65a8.92,8.92,0,0,0-8.84,7.05c-.47,2.57.05,5.69-1.95,7.36-1,.81-2.32,1-3.32,1.81-1.86,1.44-1.92,4.21-1.5,6.52s1.14,4.75.28,6.94c-1.41,3.59-6.51,5-7.14,8.81-.3,1.8.46,3.95-.79,5.27a6.32,6.32,0,0,1-1.88,1.1,8.12,8.12,0,0,0-.31,14.43c.73.39,1.59.76,1.87,1.53s-.27,1.77-.68,2.6a7.81,7.81,0,0,0,11.11,10.12,12.17,12.17,0,0,0,7.17,5.7,7.49,7.49,0,0,0,4.27.12,8.51,8.51,0,0,0,2.93-1.81c4.15-3.62,10-9.16,10.36-14.65"/><path class="cls-16" d="M327.76,132.83c-1.18.23-15.12,3.19-15.12,3.19,1.17,31.75-.74,59.1,6.93,69.35l7.16,12-4.58,12.43,46.51-6.68,34.84,23.77S410,234,400.37,216.08c-1.09-2-8-12.44-8-12.44s2.58-46.81-4.19-56.8-16.42-17.63-33.14-17.16S327.76,132.83,327.76,132.83Z"/><path class="cls-16" d="M373.77,140.41s-17,38.32-17,43.86v11.88s-3.69,3.9-2.87,11.07l.74,4.24H385s3.69-24.94,4.51-36.42S388.94,140,373.77,140.41Z"/><path class="cls-15" d="M354.44,211.13l-27.71.33-2.43,11.63s38.84,3.15,44.28,1.92c5.92-1.35,8.7-13.89,8.7-13.89Z"/><path class="cls-16" d="M312.64,136s-9.16.65-12.41,15.62,0,59.82,0,59.82l20.09-1.12Z"/><path class="cls-8" d="M320.2,209.1s-.05-.12-.1-.37-.11-.64-.18-1.07c-.16-1-.37-2.37-.63-4.06l0,.05a25,25,0,0,1-2.67-9.16,86.5,86.5,0,0,1,.08-12.64c.15-3.81.24-7.46.12-10.76a49.53,49.53,0,0,0-1-8.7,29.57,29.57,0,0,0-1.77-5.63c-.55-1.28-.92-2-.87-2a1.86,1.86,0,0,1,.3.47c.18.33.47.79.76,1.44a27.1,27.1,0,0,1,1.94,5.63,47.49,47.49,0,0,1,1.11,8.76c.15,3.33.07,7-.08,10.81a90.41,90.41,0,0,0-.14,12.56,25.82,25.82,0,0,0,2.48,9.07l0,0v0l.48,4.08c0,.43.08.79.11,1.08A1.56,1.56,0,0,1,320.2,209.1Z"/><path class="cls-8" d="M356.85,187.93a17.19,17.19,0,0,1-.21,7.18,12,12,0,0,1-1.7,3.58,12.07,12.07,0,0,0-1.46,3.76,12.41,12.41,0,0,0,1.19,8.37l-.22-.13h29.48l-.24.18a135.47,135.47,0,0,0,4.24-17.31,135.29,135.29,0,0,0,1.52-14.11c.28-4,.42-7.18.51-9.37.05-1.07.08-1.91.1-2.52l0-.65c0-.15,0-.22,0-.22s0,.07,0,.22,0,.39,0,.65c0,.58,0,1.42,0,2.52,0,2.2-.13,5.39-.37,9.39a128.42,128.42,0,0,1-1.4,14.16,133.55,133.55,0,0,1-4.2,17.4l-.05.17H354.3l-.07-.13a12.85,12.85,0,0,1,.32-12.6,11.89,11.89,0,0,0,1.68-3.46,16.81,16.81,0,0,0,.24-7,27.87,27.87,0,0,1,.29-6.18,52.11,52.11,0,0,0,.89-8.68,16.51,16.51,0,0,0-.22-2.31l-.11-.6c0-.13,0-.2,0-.2a11.29,11.29,0,0,1,.51,3.11"/><g class="cls-17"><path d="M377.28,211.13h0S377.27,211.12,377.28,211.13Z"/></g><path class="cls-8" d="M394.08,239.79c.24.63-9,4.3-21.07,5.69s-21.9,0-21.82-.63,9.74-.53,21.52-1.95S393.86,239.06,394.08,239.79Z"/><path class="cls-15" d="M330.21,138.08c-.63,7.26-1.23,14.75,1.09,21.65,1.07,3.17,3.2,6.47,6.51,6.94A7.16,7.16,0,0,0,343,165.1c1.48-1.12,7.85-10.36,8.84-11.94.78-1.26-.18-8.68.49-18Z"/><path class="cls-15" d="M355.45,97.91,355.37,94l-23.65-3.51c-7.26-.48-14.79,7.09-15,14.37-.18,8.09-.09,18,1.11,24,2.42,12,11.75,13.18,11.75,13.18l.54,12,26.78-.75Z"/><path class="cls-18" d="M329.64,142a32,32,0,0,0,16.44-5s-3.74,8.64-16.31,8Z"/><path class="cls-18" d="M331.27,126.17a3,3,0,0,1,2.66-1.23,2.75,2.75,0,0,1,1.93.94,1.74,1.74,0,0,1,.22,2,2,2,0,0,1-2.17.64,6.25,6.25,0,0,1-2.19-1.19,1.83,1.83,0,0,1-.49-.47.56.56,0,0,1,0-.62"/><path class="cls-8" d="M313.66,90.2c1.94,4.23,6.31,10.53,10.95,11a13.69,13.69,0,0,0,12.18-5.49c.78,3.44,4.65,5.18,8.13,5.67a13.89,13.89,0,0,0,7.35-.66,7.35,7.35,0,0,0,4.54-5.51c.31-2.47-3.32-8.43-5.78-8.83"/><path class="cls-8" d="M351.42,152.05a9.53,9.53,0,0,0,7,8.46,6.76,6.76,0,0,0,13.09,2.63,8.29,8.29,0,0,1,1-2.29c1.19-1.5,3.5-1.2,5.32-1.79,3.28-1.06,4.7-5.08,4.33-8.5a7.71,7.71,0,0,1-.1-2c.2-1.38,1.28-2.43,2.08-3.56,3.3-4.67,1.92-11.46-1.73-15.85-1.22-1.47-2.76-3-2.65-4.91a10.1,10.1,0,0,1,1-3,8.66,8.66,0,0,0-2.33-9.43,2.75,2.75,0,0,1-1-1.2,2.8,2.8,0,0,1,0-1,10.08,10.08,0,0,0-8.54-10.79,2.47,2.47,0,0,1-.89-.21c-.78-.4-.8-1.47-.9-2.34-.27-2.31-2.05-6.6-3.82-8.11-4.88-4.17-9.62-.78-11.3.81,0,0-3.35,16.58-2.7,19.67s2.92,10.78,2,14.28-2.38,10.66-1,13.81S351.42,152.05,351.42,152.05Z"/><path class="cls-8" d="M336.58,125.92c.06.29-1.3.77-2.91,1.34s-3,1.07-3.1.81,1-1.17,2.75-1.79S336.53,125.65,336.58,125.92Z"/><path class="cls-6" d="M402.81,246.89s-5.47,13.68-16,14c-7.06.21-33.72,1.79-33.72,1.79s2,13.28,1.55,21-.86,50.79-.86,50.79l-24.09-.67s-10.43-57.81-12.06-65a129.59,129.59,0,0,1-2.35-24.81c.23-4.43,4.81-11.82,9.4-14.58s43.3-6.22,43.3-6.22S382.73,221.33,402.81,246.89Z"/><path class="cls-6" d="M304.5,227s-9.95,1.7-16,9.29-3,19-2.57,26.95c.37,6.51,11.17,69.44,11.17,69.44h24.86l1.61-54-2.38-22.47h0L343,231.55S322.11,225.22,304.5,227Z"/><path class="cls-19" d="M329.11,228.17a4.32,4.32,0,0,1-.74.28c-.49.17-1.22.42-2.13.79a17.63,17.63,0,0,0-6.75,4.71,18.66,18.66,0,0,0-3,4.83,19.68,19.68,0,0,0-1.41,6.38c-.37,4.64,1,9.68,1.81,15,1.81,10.62,3.45,20.22,4.65,27.24.57,3.45,1,6.26,1.35,8.27.15.94.26,1.69.34,2.25a3.93,3.93,0,0,1,.09.79,4.25,4.25,0,0,1-.19-.77c-.11-.56-.25-1.3-.44-2.23-.36-2-.88-4.8-1.51-8.24-1.24-7-2.93-16.62-4.8-27.23q-.69-4-1.34-7.76a30.31,30.31,0,0,1-.44-7.36,20.09,20.09,0,0,1,1.5-6.51,18.59,18.59,0,0,1,3.14-4.9,17,17,0,0,1,6.94-4.65,21.64,21.64,0,0,1,2.18-.71A3.75,3.75,0,0,1,329.11,228.17Z"/><path class="cls-15" d="M311.6,208.72s-4.2-4.09-5.34-4.57-2.67-.86-3.71,0a23.92,23.92,0,0,0-3,4s-5.9,2-6.95,3.15a2.59,2.59,0,0,0-.48,2.85c.19.67,1.62,1.53,1.62,1.53a4.24,4.24,0,0,0-1.43,2.67c0,1.43-.09,2.28.57,3a8.44,8.44,0,0,0,3,1.14Z"/><path class="cls-7" d="M321.76,214.82c-.88-2-3.07-3-5.08-3.92l-.43-.65a7.06,7.06,0,0,0-4.61-3.6,20.72,20.72,0,0,0-6-.53,10.23,10.23,0,0,0-3.94.54c-1.82.76-3,2.46-4.14,4.08-1.29,1.87-2.62,3.87-2.76,6.14a12.69,12.69,0,0,0,.73,4.29q1.53,5.27,3.08,10.52a5.07,5.07,0,0,0,1.43,2.7c1.33,1,3.38.47,4.57-.72a15.08,15.08,0,0,0,2.51-4.36c.74-1.51,1.77-3.05,3.36-3.6,1.76-.6,3.73.16,5.56-.22,2.09-.44,3.59-2.28,4.65-4.14S322.67,216.92,321.76,214.82Z"/><path class="cls-15" d="M311.65,212.86l5.18-3.06s4.75-1.17,5.71-.85a36.41,36.41,0,0,1,4.19,2.51l-.47,11.63-6.37,5.63h-2.64s-6.13,4.33-7.08,4.23-5-5-5-5.92,1.27-1.75,1.27-1.75a2,2,0,0,1,.53-2.69c.81-.58,4.12,3.27,4.12,3.27l2-.58s-4.13-5.76-4.34-6.08-1.48-2.85-.1-3.48,3,.21,3.95,1.58a55,55,0,0,0,4.91,5.13L320.2,220l-.62-4.43s-6.17.11-6.94-.21S311.12,214.45,311.65,212.86Z"/><path class="cls-18" d="M328.5,220.64a67,67,0,0,1-8.54,8.07,33.4,33.4,0,0,1,4.09-4.23A32.43,32.43,0,0,1,328.5,220.64Z"/><path class="cls-18" d="M319.89,228.72c0,.07-.45.16-1.19.23a9,9,0,0,1-1.32,0h-.12a.54.54,0,0,1-.17-.08l-.16-.1-.33-.23c-.21-.17-.43-.33-.66-.5-1.79-1.39-3-2.8-2.88-2.91s1.43,1.13,3.2,2.5l.65.5.31.23.15.11,0,0h0s-.21.3-.11.15h0l0,0,.05-.07c0-.1,0,0,0-.06h.07c.45.05.9.05,1.26.07C319.43,228.61,319.89,228.65,319.89,228.72Z"/><path class="cls-18" d="M312.34,231.9s-.1.13-.37.14a1.57,1.57,0,0,1-1-.38,18.79,18.79,0,0,1-2.19-2.45,15.23,15.23,0,0,1-2.49-3.88,31.07,31.07,0,0,1,2.89,3.56c.79,1,1.5,1.92,2,2.49A1.68,1.68,0,0,0,312.34,231.9Z"/></g><g id="Capa_9" data-name="Capa 9"><g id="Character_2" data-name="Character 2"><path class="cls-6" d="M217.16,234.75s5.18,7.24,4.75,15.41-10.7,85.67-10.7,85.67l-28.88-6.26,1.63-65.3,15-24.86Z"/><path class="cls-8" d="M117.63,67.55a22.48,22.48,0,0,1,9.26-5.07c3.46-.78,7.39-.16,10,2.27,2,1.87,3.16,4.71,5.59,6,3.34,1.8,7.39-.07,11.18-.12a2.15,2.15,0,0,1,2,.84,2.34,2.34,0,0,1-.21,1.92c-.72,1.71-1.43,3.41-2.15,5.11a1.09,1.09,0,0,0,.86,1.5,6,6,0,0,0,2.27-.14A1.09,1.09,0,0,1,157.83,81a17.39,17.39,0,0,1-2.76,7.81,1.07,1.07,0,0,0,.3,1.52A1.66,1.66,0,0,1,156,91a3.65,3.65,0,0,1,.08,2.42,17.73,17.73,0,0,1-23.48,12.84"/><path class="cls-8" d="M119.64,66.66a11,11,0,0,0-13.18,2.06c-2.24,2.45-3.2,5.77-4.45,8.86s-3.08,6.24-6.17,7.48c-2.5,1-5.47.58-7.8,1.92-2.53,1.45-3.61,4.66-3.36,7.56a21.29,21.29,0,0,0,2.54,7.51,1.1,1.1,0,0,1-.25,1.3,7.55,7.55,0,0,1-3.13,1.7,1.08,1.08,0,0,0-.55,1.73,10.06,10.06,0,0,0,3.75,2.8c1.27.55,2.69.85,3.72,1.77A5.79,5.79,0,0,1,92.33,114a6.3,6.3,0,0,0,9.22,3.43c.35-.21.71-.43,1.08-.69a1.08,1.08,0,0,1,1.64.66,3.78,3.78,0,0,0,1.31,1.92,1.13,1.13,0,0,0,1.18.15,6.3,6.3,0,0,0,3.46-3.83"/><path class="cls-20" d="M143.66,86.6a21.18,21.18,0,0,0-21.24-19.37h-.09C111.14,68,105.5,77.91,106.54,89.1L109,139.8a1.08,1.08,0,0,0,1.09,1l23.6-.2a1.08,1.08,0,0,0,1.07-1.1l-.33-14.88a1.07,1.07,0,0,1,.8-1.06c2.51-.66,10-3.38,10-12.36C145.23,106.2,144.48,96,143.66,86.6Z"/><path class="cls-20" d="M108.26,97.88a1,1,0,0,0-.88-1c-1.94-.34-6.52-.48-6.3,5.42.29,7.38,7.63,5.57,7.64,5.36S108.38,100.33,108.26,97.88Z"/><path class="cls-21" d="M107,105s-.13.09-.34.2a1.31,1.31,0,0,1-1,0,3.15,3.15,0,0,1-1.58-2.79,4.1,4.1,0,0,1,.29-1.85,1.49,1.49,0,0,1,.92-1,.67.67,0,0,1,.78.33c.1.2.06.35.1.36s.15-.13.08-.43a.78.78,0,0,0-.3-.45,1,1,0,0,0-.72-.16,1.8,1.8,0,0,0-1.3,1.19,4.38,4.38,0,0,0-.37,2.07c.11,1.49.92,2.85,2,3.12a1.42,1.42,0,0,0,1.17-.24C107,105.12,107,105,107,105Z"/><path class="cls-8" d="M114.81,74.64h0a9.28,9.28,0,0,1,6.4.79l1.1.57a1,1,0,0,0,.38.11L141.43,78a1.12,1.12,0,0,0,.67-.14c4-2.43,1-6.33-3-7.56-4.79-1.49-10.26-4.77-15.28-4.81s-13.59,3.15-17,8.8a17.14,17.14,0,0,0-2.38,6.16,63,63,0,0,0,.75,15.94,13.49,13.49,0,0,0,2.5,4.38h0c1.7,0,2.32-1.38,2-3l-.34-6a1.08,1.08,0,0,1,.37-.87,9.91,9.91,0,0,0,2.53-11.29h0A3.4,3.4,0,0,1,114.81,74.64Z"/><path class="cls-8" d="M112,77.2c.37-2.37,4.17-4,6.48-3.29S122.5,76.4,124.3,78s4,3.1,6.38,2.9,4.82-2.25,7.22-1.54c1.06.32,1.9,1.13,2.92,1.55a5.68,5.68,0,0,0,4.88-.59,11.46,11.46,0,0,0,2.08-1.59,1.08,1.08,0,0,0-.61-1.86c-3.91-.42-7.64-2.21-11.19-4-4.25-2.15-8.65-4.42-13.41-4.54s-10,2.66-10.91,7.32"/><path class="cls-21" d="M133.4,123.76a26.36,26.36,0,0,1-8.55-1.78,1.08,1.08,0,0,0-1,1.85,14.37,14.37,0,0,0,9.58,2.66,1.09,1.09,0,0,0,1.05-1.07v-.57A1.08,1.08,0,0,0,133.4,123.76Z"/><path class="cls-16" d="M108.1,129.31S84,135.51,80.41,140l6.37,72.6s-5.27,12.55-5.65,14.55c-.73,3.77,3.7,5.57,3.7,5.57l84.17-6s3.95-5.51-2.11-9l-8.34-17.19-1.47-65.85L135,130C127.74,140.84,113.05,139,108.1,129.31Z"/><path class="cls-6" d="M86.81,228.6s-34,13.52-40.61,24.34l33,17,54.7-7.11s13.51-1.34,18.62-1.21c5.46.13,30.47,2.67,31.45,2.67s22.87-19.68,22.87-19.68l10.33-9.84s-3.44-4.18-10.82-6.15-20.17-6.88-44.51-3.93Z"/><path class="cls-6" d="M49.17,249.81a19.27,19.27,0,0,0-6.74,16.31c.44,7.54,26.1,69.71,26.1,69.71l31.16-3.17-20.5-62.74-2.13-11.45Z"/><path class="cls-14" d="M95.71,186.69s14.27-3.83,16.88-3.93,16,3.4,18.85,3.93,18.44.18,18.44.18L168,182.75,174.46,198l-12,17.77-44.6-15.7-9.15-3.71-12.48-.91Z"/><path class="cls-14" d="M73.84,217.66s1,3.1,8.14,4.53a29.28,29.28,0,0,0,13.29-1l42.05-14.27-28.65-10.57-21-1.41-13.29,7.62Z"/><path class="cls-16" d="M73.86,218a35.43,35.43,0,0,1-3.93-9.31c-1.6-5.78,2-52.59,2.66-56.5a18.93,18.93,0,0,1,8.48-12.87c3.05-1.92,7.15,4.57,10.54,15.33s4.58,40.81,4.58,40.81S72.64,194.65,73.86,218Z"/><path class="cls-16" d="M157.08,134.72s8.48.7,14.43,14.8c3.93,9.3,9.08,42.13,8.25,48.93-.74,6.14-1.22,16.39-10.3,18.81a8.32,8.32,0,0,1-5.47-.47l-5.58-2.43s6.42.54,7.81-13.88-7.69-13.81-12-13.81l-4.32.2s1.85-35.24,3.5-40.81S151.34,135.05,157.08,134.72Z"/><path class="cls-8" d="M95.27,156.87a9.49,9.49,0,0,1,.45,1.46,41.2,41.2,0,0,1,.88,4.07,49.46,49.46,0,0,1,.6,6.15,75.48,75.48,0,0,1-.15,7.57c-.38,5.34-.79,10.16-.83,13.66,0,1.75,0,3.17,0,4.15a10.17,10.17,0,0,1,0,1.53,7.62,7.62,0,0,1-.17-1.52c-.09-1-.14-2.4-.17-4.16,0-3.51.3-8.37.68-13.7.17-2.66.25-5.2.19-7.51a52.92,52.92,0,0,0-.49-6.11c-.26-1.73-.49-3.13-.71-4.08A8.42,8.42,0,0,1,95.27,156.87Z"/><path class="cls-8" d="M159.56,179.31a15.89,15.89,0,0,1-1.73.54,11.32,11.32,0,0,0-3.71,2.14,11.5,11.5,0,0,0-2.65,3.36,16.08,16.08,0,0,1-.78,1.64,4,4,0,0,1,.45-1.8,10,10,0,0,1,6.58-5.69A4.25,4.25,0,0,1,159.56,179.31Z"/><path class="cls-8" d="M151.76,151.87A6,6,0,0,1,152,153c.09.75.2,1.85.31,3.2.24,2.7.49,6.44.74,10.57s.5,7.86.71,10.56c.1,1.27.18,2.34.25,3.2a5.17,5.17,0,0,1,0,1.19,5.37,5.37,0,0,1-.23-1.16c-.12-.75-.27-1.84-.41-3.19-.31-2.7-.61-6.44-.87-10.57s-.43-7.75-.58-10.58q-.09-1.9-.15-3.21A4.76,4.76,0,0,1,151.76,151.87Z"/><path class="cls-21" d="M158.41,214.36a3,3,0,0,1-.64-.17l-1.82-.61-6.66-2.32-21.89-7.84-18.8-6.85h.06L99.28,196l-2.58-.19a5.9,5.9,0,0,1-.9-.1,4,4,0,0,1,.91,0l2.59.08,9.38.39h.06l18.83,6.75,21.85,8,6.6,2.48,1.78.7A3.4,3.4,0,0,1,158.41,214.36Z"/><path class="cls-16" d="M82,230.54c6.44-2.65,9.42-2.49,15.47-.61,2.76.86,5.15,2.63,7.77,3.85s5.55,2.08,8.38,1.51c3.28-.65,5.87-3.08,8.85-4.61a17.33,17.33,0,0,1,13.82-.8c3.15,1.18,6.07,3.32,9.43,3.37,3.8.06,7.07-2.54,10.7-3.66,2.58-.8,5.36-.85,7.9-1.77s6.22-2.54,5.84-6.23c-.13-1.2-37.56-2.26-37.56-2.26l-16.62,3.09c-13.56,2.78-27.06,5.53-34.27,5Z"/><path class="cls-8" d="M95.44,151.23c-.09,0-.34-1.09-1.21-2.68a13.14,13.14,0,0,0-11.46-6.91c-1.81,0-2.91.26-2.93.17a2.1,2.1,0,0,1,.76-.26,10.17,10.17,0,0,1,2.17-.28,12.61,12.61,0,0,1,11.78,7.11,10.33,10.33,0,0,1,.77,2.05C95.44,150.94,95.48,151.22,95.44,151.23Z"/><path class="cls-19" d="M126,252.17c0-.14.5-.36,1.18-.5s1.25-.13,1.28,0-.5.37-1.18.5S126.06,252.31,126,252.17Z"/><path class="cls-21" d="M132.09,107.72a1.55,1.55,0,0,0-.25-.67.54.54,0,0,0-.58-.22,2.11,2.11,0,0,0-2.23.64,3,3,0,0,0-.61,2.39,2.17,2.17,0,0,0,.86,1.54,2.69,2.69,0,0,0,1.9.2,1,1,0,0,0,1.06-1.14A12,12,0,0,0,132.09,107.72Z"/><path class="cls-8" d="M132.08,111.66a3,3,0,0,1-1.54.31,2.46,2.46,0,0,1-1.68-.62,3.28,3.28,0,0,1-.9-2,2.54,2.54,0,0,1,.09-1.16,2,2,0,0,1,.66-.9,3,3,0,0,1,1.68-.57A3.28,3.28,0,0,1,132,107a9.76,9.76,0,0,1-1.52.16,2.74,2.74,0,0,0-1.42.58,1.69,1.69,0,0,0-.54,1.62,3,3,0,0,0,.72,1.7,2.29,2.29,0,0,0,1.37.59A11.19,11.19,0,0,1,132.08,111.66Z"/></g><path class="cls-22" d="M289.94,118c3.38-5.1,5.23-14.61,5-20.86-.29-8.15-5.13-15-10.94-15.7C279.09,80.85,274,88,273.86,94.6c-.11,7.29,3.11,16.23,7.56,20.69-6.61.26-12,7.12-12.87,16.13-1.09,11.15,1.78,22.11,2.74,33.08a15.8,15.8,0,0,0-5.55-1.47,10.46,10.46,0,0,0-4.89.85c-.78-9.1-2.19-18.07-3.43-27.07-1-6.93-2-13.64-4.63-19.77-4.7-10.85-15.14-13.55-21.61-4.21s-3.93,23.75,1.07,32.84c5.68,10.32,14.37,16.66,21.34,25.11a33.34,33.34,0,0,0-4.22,13.15c-1.26,11.31,1.32,25,4.56,35.46a16.32,16.32,0,0,0-2.8-.12c-6,.23-11.34,3.53-15.61,8.64-1.68-7.45-3.71-15.35-6.87-22,4.72-7.4,9.06-16.89,10.6-26.5,1.25-7.72-2-15.87-8.07-16.43-14.36-1.33-12.53,20.15-9.21,33-.41-.41-.83-.82-1.27-1.19a10.34,10.34,0,0,0-12.88-.69c-4.06-8.73-4.92-19.89-9.95-27.74-4.18-6.52-10.64-3.59-13.76,2.73s-1.72,15.43,1.69,20.91c4.19,6.73,10,10.5,15.87,13.71-4.81,20.81,15.53,31.63,26.44,37.81A51.22,51.22,0,0,0,225.49,260c.78,17.45,12.72,39,26.77,35,14.28-1.46,23.84-18,24.61-37.28.48-12.08-3.54-23.8-10.11-31.06l0,0c5.82-12.7,15.4-25.66,16.25-41.32a22.64,22.64,0,0,0-2.47-11.81c8.17-7.23,17-18.53,18.34-32.35C299.89,130.88,296,122.21,289.94,118Zm-13-14.72c-3-8.29-.22-18.67,7.11-19.07,6.11-.33,9.13,9.43,8.91,16.33a41.53,41.53,0,0,1-4.73,16.41,14.66,14.66,0,0,0-5.22-1.59C281.11,111.14,278.55,107.74,276.9,103.27Zm-46.66,17.5c1.64-7.89,7.4-12.2,13.06-10.46,5.09,1.57,8.14,8.23,9.85,14.44,1.5,5.46,2,11.37,2.82,17.07,1.07,7.68,2.15,15.34,3,23.08a16.52,16.52,0,0,0-4.29,4.19C244.53,156.33,225.51,143.56,230.24,120.77ZM222,190c-.93-5.34-1.86-12.74.09-17.84a11.12,11.12,0,0,1,5.31-5.91c3-1.24,6.13-.08,8.31,2.84,2.84,3.78,1.53,10.36.41,14.69a73.73,73.73,0,0,1-8.68,19.66,50.88,50.88,0,0,1-3.16-5.39A35.75,35.75,0,0,1,222,190Zm-37.49-15.93c.73-4.84,3.72-8.61,7.29-9,3.78-.38,6.1,4.88,7.55,8.85,2.58,7.11,3.7,14.72,7.05,21.29a15.51,15.51,0,0,0-4.23,6.78C193.84,197,182.24,188.89,184.48,174.07Zm19,39.25a18.1,18.1,0,0,1,3.23-14.56c4-5.26,9.67-4,13.92-.39,7.5,6.41,10.42,20.69,13.1,31.39a1.8,1.8,0,0,0,.12.35,42.88,42.88,0,0,0-5,9.43C219.91,232.72,206.66,228.42,203.45,213.32Zm70.29,33a62,62,0,0,1,1.22,11.4c-.15,13.11-5.91,27.5-14.86,32.74-5.81,3.39-14.23,4.92-19.86.33-5.09-4.15-9.08-11.85-11.26-19.3a57.86,57.86,0,0,1-2.29-13.1c-.68-15.23,7.12-29.69,17.35-34.62a21.11,21.11,0,0,1,8.33-2.28C263,221.32,271.28,232.93,273.74,246.29Zm6.07-53.47a60.14,60.14,0,0,1-4.89,12.71c-2,4-4.15,7.74-6.1,11.73-1,2.07-1.91,4.3-2.93,6.34-.23.45-.51.87-.7,1.34.06-.14-.74-.7-.8-.74a36.06,36.06,0,0,0-3.84-2.7c-1.32-.74-2.79-.85-4.1-1.66-2-1.22-2.2-4.64-2.72-7.18-.66-3.28-1.3-6.57-1.8-9.91-.29-1.88-.55-3.77-.76-5.67s-.37-3.81-.45-5.72c-.48-12.43,4-24.66,13.86-25.78,4.86-.56,9.61,2.67,13,7.22.28.38.53.77.78,1.17C281.57,179.31,281.35,186.48,279.81,192.82Zm17.07-53.48c-.52,13.7-10,24.7-17.71,31.83a20.29,20.29,0,0,0-6.48-5.95,1,1,0,0,0,0-.25c-.69-13.77-8.21-38.85,4.85-45.8C287.28,114,297.4,125.9,296.88,139.34Z"/><path class="cls-23" d="M227.41,203.44a73.73,73.73,0,0,0,8.68-19.66c1.12-4.33,2.43-10.91-.41-14.69-2.18-2.92-5.34-4.08-8.31-2.84a11.12,11.12,0,0,0-5.31,5.91c-1.95,5.1-1,12.5-.09,17.84a35.75,35.75,0,0,0,2.28,8.05A50.88,50.88,0,0,0,227.41,203.44Z"/><path class="cls-24" d="M227.41,203.44c4.12-6.88,17.1-29.05,3.43-33.88-3.05-1.07-6.63,2.42-8.32,5.59-2.39,4.48-1.43,9.8-.55,14.85a35.75,35.75,0,0,0,2.28,8.05A50.88,50.88,0,0,0,227.41,203.44Z"/><path class="cls-23" d="M259,164.9c-.86-7.74-1.94-15.4-3-23.08-.8-5.7-1.32-11.61-2.82-17.07-1.71-6.21-4.76-12.87-9.85-14.44-5.66-1.74-11.42,2.57-13.06,10.46-4.73,22.79,14.29,35.56,24.45,48.32A16.52,16.52,0,0,1,259,164.9Z"/><path class="cls-24" d="M259,164.9c-.86-7.74-1.94-15.4-3-23.08-.88-6.25-.63-13.32-3.57-18.66-9.23-16.75-26.86-6.26-21,14.8,1.55,5.62,4.85,10,8,14,4.87,6.11,10.44,11,15.31,17.15A16.52,16.52,0,0,1,259,164.9Z"/><path class="cls-23" d="M206.37,195.24c-3.35-6.57-4.47-14.18-7.05-21.29-1.45-4-3.77-9.23-7.55-8.85-3.57.36-6.56,4.13-7.29,9-2.24,14.82,9.36,22.93,17.66,28A15.51,15.51,0,0,1,206.37,195.24Z"/><path class="cls-24" d="M206.37,195.24c.09-.07-6.6-31.79-16.59-23.85-4.2,3.34-5,12.77-2.2,17.88,3.33,6.14,9.62,9.76,14.56,12.75A15.51,15.51,0,0,1,206.37,195.24Z"/><path class="cls-23" d="M288.19,116.94a41.53,41.53,0,0,0,4.73-16.41c.22-6.9-2.8-16.66-8.91-16.33-7.33.4-10.15,10.78-7.11,19.07,1.65,4.47,4.21,7.87,6.07,12.08A14.66,14.66,0,0,1,288.19,116.94Z"/><path class="cls-24" d="M288.19,116.94c.89.46,4.35-10.58,4.66-12a20.61,20.61,0,0,0-2-13c-2.69-4.68-11.54-5-13.5,1.21a21.09,21.09,0,0,0-.24,10.7,31.78,31.78,0,0,0,3,6c.44.79,2.39,5.43,2.86,5.48A14.66,14.66,0,0,1,288.19,116.94Z"/><path class="cls-23" d="M277.57,119.17c-13.06,7-5.54,32-4.85,45.8a1,1,0,0,1,0,.25,20.29,20.29,0,0,1,6.48,5.95c7.69-7.13,17.19-18.13,17.71-31.83C297.4,125.9,287.28,114,277.57,119.17Z"/><path class="cls-24" d="M278.22,123.82c-13.78,3.64-6.12,28.8-5.5,41.15a1,1,0,0,1,0,.25,20.29,20.29,0,0,1,6.48,5.95c.27.38,6.18-6.33,6.73-7,12.46-14.67,15.78-45.5-7.18-40.49Z"/><path class="cls-23" d="M233.82,230.11a1.8,1.8,0,0,1-.12-.35c-2.68-10.7-5.6-25-13.1-31.39-4.25-3.63-10-4.87-13.92.39a18.1,18.1,0,0,0-3.23,14.56c3.21,15.1,16.46,19.4,25.38,26.22A42.88,42.88,0,0,1,233.82,230.11Z"/><path class="cls-24" d="M233.82,230.11a1.8,1.8,0,0,1-.12-.35c-1.46-5.83-2.79-11.73-4.74-17.3-1.58-4.48-4.77-10.34-8.24-12.29-4.36-2.45-9.1-1.31-12.39,3.21-2.1,2.89-2.83,7.43-2.64,11.34.74,14.81,15.3,18.82,23.14,24.82A42.88,42.88,0,0,1,233.82,230.11Z"/><path class="cls-23" d="M244,223.74c-10.23,4.93-18,19.39-17.35,34.62a57.86,57.86,0,0,0,2.29,13.1c2.18,7.45,6.17,15.15,11.26,19.3,5.63,4.59,14,3.06,19.86-.33,8.95-5.24,14.71-19.63,14.86-32.74a62,62,0,0,0-1.22-11.4c-2.46-13.36-10.76-25-21.37-24.83A21.11,21.11,0,0,0,244,223.74Z"/><path class="cls-24" d="M245,228c-1.65.7-3.3,1.5-4.94,2.34-4.86,2.48-6.94,6.69-9.28,12.74-1.7,4.39-4.08,9.6-4.36,14.68-.24,4.25,1.45,9.87,2.58,13.75,2.18,7.45,6.17,15.15,11.26,19.3,5.63,4.59,14,3.06,19.86-.33,8.95-5.24,14.71-19.63,14.86-32.74.11-10.05-2.75-21.69-9-27.56C259.24,223.88,252.07,225,245,228Z"/><path class="cls-23" d="M277.58,172.8c-3.39-4.55-8.14-7.78-13-7.22-9.87,1.12-14.34,13.35-13.86,25.78q.12,2.87.45,5.72c.21,1.9.47,3.79.76,5.67.5,3.34,1.14,6.63,1.8,9.91.52,2.54.75,6,2.72,7.18,1.31.81,2.78.92,4.1,1.66a36.06,36.06,0,0,1,3.84,2.7c.06,0,.86.6.8.74.19-.47.47-.89.7-1.34,1-2,1.92-4.27,2.93-6.34,1.95-4,4.12-7.77,6.1-11.73a60.14,60.14,0,0,0,4.89-12.71c1.54-6.34,1.76-13.51-1.45-18.85C278.11,173.57,277.86,173.18,277.58,172.8Z"/><path class="cls-24" d="M275.64,175.56c-4.47-5-11.34-6.33-17.85-2.81-5.51,3-7.37,10.8-7.07,18.61q.12,2.87.45,5.72c.21,1.9.47,3.79.76,5.67.5,3.34,1.14,6.63,1.8,9.91.52,2.54.75,6,2.72,7.18,1.31.81,2.78.92,4.1,1.66a36.06,36.06,0,0,1,3.84,2.7c.06,0,.86.6.8.74.19-.47.47-.89.7-1.34,2.15-4.29,4.07-8.76,6.33-12.94,2.39-4.42,6.81-9.06,7.8-14.56C281.65,187.06,279.57,179.92,275.64,175.56Z"/><path class="cls-25" d="M246.13,258.28a27.51,27.51,0,0,1,.73,2.81,21.62,21.62,0,0,0,.95,3c.21.47.8.56,1,0,.43-1.26.88-2.5,1.37-3.73a12.37,12.37,0,0,0,1.16-3.54c0-.33-.29-.54-.48-.38a7.65,7.65,0,0,0-1.54,2.72c-.56,1.34-1.05,2.72-1.5,4.13h1c-.84-1.82-.94-4.24-2.53-5.16-.09-.05-.19.06-.14.2Z"/><path class="cls-25" d="M257.89,275.78c-.58,1.32-.25,3.29-.23,4.75,0,.51.48.82.75.43.54-.78,1-1.61,1.58-2.38s1.34-1.28,1.63-2.19c.06-.16,0-.41-.13-.45-.75-.18-1.31.71-1.81,1.39-.65.9-1.23,1.88-1.89,2.77l.75.43c0-1.46.35-3.43-.23-4.75a.22.22,0,0,0-.42,0Z"/><path class="cls-25" d="M241.16,277.36c-.36,2.06.63,4,1,5.93l.83-.66c-1.09-1.23-3.39-3.61-4.86-2.42a.45.45,0,0,0,0,.64c.56.52,1.32.54,2,.86a8.37,8.37,0,0,1,2.2,1.87c.36.4,1,.05.82-.65a27.21,27.21,0,0,0-1.88-5.59s-.09,0-.11,0Z"/><path class="cls-25" d="M264.53,236.93a12.37,12.37,0,0,0-.19,3c0,1.13,0,2.27-.08,3.4,0,.68.72,1,.95.35.45-1.25.94-2.47,1.45-3.68a13.33,13.33,0,0,0,1.21-3.47c0-.2-.13-.45-.28-.3a8.91,8.91,0,0,0-1.56,2.64c-.6,1.34-1.17,2.71-1.7,4.11l.95.35c0-1.13-.06-2.27-.08-3.4a12.9,12.9,0,0,0-.19-3c-.09-.32-.4-.32-.48,0Z"/><path class="cls-25" d="M239.4,233.75a5,5,0,0,0-.26,2.31l0,2.68.83-.31a2.61,2.61,0,0,0-1.25-1.32,5.77,5.77,0,0,0-2.1-.83c-.42,0-.49.72-.2,1,.8.78,2.22.51,2.78,1.77.23.51.84.31.83-.31l0-2.68a5.17,5.17,0,0,0-.26-2.31c-.08-.16-.23-.16-.31,0Z"/><path class="cls-25" d="M252.21,186.17a11.13,11.13,0,0,0,1,2.38c.41,1,.76,2,1.14,3,.23.64.95.32.94-.35,0-1.5,0-3,0-4.49a5.56,5.56,0,0,0-.63-3.1c-.08-.11-.21,0-.25.09a15.32,15.32,0,0,0-.08,3.52c0,1.33-.06,2.66-.07,4l1-.35c-.56-1.56-1.35-4.58-2.66-5.16-.21-.09-.39.19-.34.46Z"/><path class="cls-25" d="M270.07,177.44a44.91,44.91,0,0,0-.59,6.05c0,.7.68.91.92.35a38.44,38.44,0,0,1,2.85-5.58c.37-.56-.11-1.56-.61-1.09-1.46,1.37-2.29,3.91-3.09,6l.92.34c0-2,.5-4.21-.18-6.09-.05-.14-.2-.1-.22,0Z"/><path class="cls-25" d="M264.24,203.2a36.88,36.88,0,0,0-.39,6.91c0,.92.92.85,1,0a10.57,10.57,0,0,1,1.45-4.24c.41-.73,1.28-1.62,1.2-2.63,0-.17-.09-.32-.23-.32-.91,0-1.62,1.85-2.12,2.76a11.71,11.71,0,0,0-1.3,4.43h1a36.06,36.06,0,0,0-.39-6.91.11.11,0,0,0-.22,0Z"/><path class="cls-25" d="M207.32,214.81c.4.72,1.19.91,1.73,1.41.33.31.71,0,.83-.46a4,4,0,0,0-.37-3,12,12,0,0,0-1.44-2.36.23.23,0,0,0-.42.07c-.64,1.87,1.62,3,1.14,4.85l.83-.47c-.61-.48-1.68-1.26-2.27-.34a.28.28,0,0,0,0,.27Z"/><path class="cls-25" d="M216,206.32a39.88,39.88,0,0,0,2.22,4c.29.42.8.08.81-.46l0-3.26a5.74,5.74,0,0,0-.31-2.63c-.1-.2-.29-.2-.39,0a5.74,5.74,0,0,0-.31,2.63l0,3.26.81-.46c-.8-1.12-1.38-3-2.47-3.63-.25-.14-.62.19-.42.58Z"/><path class="cls-25" d="M219.92,225.39a17.08,17.08,0,0,1,2.52,1.89c.44.46.93-.51.57-1a7.44,7.44,0,0,1-.95-2.31,3.57,3.57,0,0,0-.76-1.73c-.1-.1-.26,0-.25.2a19.49,19.49,0,0,0,.48,2.51,6,6,0,0,0,.81,2.25l.57-1c-.83-.82-1.95-1.62-3-1a.17.17,0,0,0,0,.21Z"/><path class="cls-25" d="M225.12,189.22a11.38,11.38,0,0,0,1.11,3.47c.21.63.85.27.88-.32a10.18,10.18,0,0,1,.35-2.22,4.2,4.2,0,0,0,.2-1.86c0-.17-.18-.25-.29-.16-.9.68-1.22,3-1.21,4.24L227,192a9.63,9.63,0,0,0-1.82-2.88s-.11,0-.1.06Z"/><path class="cls-25" d="M227.12,172.1a13.3,13.3,0,0,0,1,4c.19.4.68.48.86,0a22.44,22.44,0,0,0,.78-2.84c.22-1,.63-2.06.76-3.11.05-.34-.21-.75-.46-.5-1.22,1.21-1.36,4-1.94,5.76h.86a11.86,11.86,0,0,1-.87-2.2,5.75,5.75,0,0,0-.71-1.32c-.1-.16-.26,0-.24.2Z"/><path class="cls-25" d="M189.63,172.42a7.51,7.51,0,0,0,2,2.46c.31.24.7-.06.7-.55a13.35,13.35,0,0,0-.43-3.64c-.17-.55-.87-.55-.83.15.07,1.18.3,2.31.33,3.49l.7-.55c-.67-.47-1.52-1.91-2.36-1.63a.21.21,0,0,0-.08.27Z"/><path class="cls-25" d="M194.51,190.8c.35.11.57.69.87.94A17,17,0,0,0,197,193a.51.51,0,0,0,.79-.44c.19-1.9-.18-4.48-1.48-5.54-.1-.08-.25,0-.24.19,0,1.78.81,3.32.66,5.16l.69-.72c-.6-.34-1.13-.84-1.71-1.22-.38-.25-.77,0-1.15.07-.11,0-.16.25,0,.3Z"/><path class="cls-25" d="M232.72,122.54a10.78,10.78,0,0,0,2.17,2.66.65.65,0,0,0,1.17-.42,13.05,13.05,0,0,0,0-3.06c-.09-.67-.17-2-.77-2.2s-.68,1-.69,1.58c0,1.16.23,2.25.12,3.43l1.05-.83c-.77-.79-1.61-2.11-2.65-2.06-.31,0-.56.5-.37.9Z"/><path class="cls-25" d="M242.94,124.81a32.15,32.15,0,0,0,1.26,3.89c.3.58.82.55,1.12,0,.42-.78,1.85-3.36.82-4.19-.34-.27-.78.43-.89.78a16,16,0,0,1-1.05,2.51h1.12a27,27,0,0,0-1.72-3.68c-.36-.47-.85.12-.66.69Z"/><path class="cls-25" d="M242,143.54a6.61,6.61,0,0,1,1.84,1.34,3.27,3.27,0,0,0,1.79.74c.29,0,.57-.37.56-.77,0-1.55-.84-3.62-1.91-4.28-.15-.1-.33,0-.34.27,0,1.5,1.06,2.51,1.13,4,.18-.26.37-.51.56-.77a4.07,4.07,0,0,1-1.74-.76,5,5,0,0,0-1.81-.61c-.34,0-.41.73-.08.83Z"/><path class="cls-25" d="M249.27,153.92a32.37,32.37,0,0,1,2.21,3.17c.32.43.9.13.89-.5a21.89,21.89,0,0,0-.35-5.51c-.07-.23-.27-.23-.34,0a21.43,21.43,0,0,0-.35,5.51l.88-.51c-.77-1.15-1.61-2.82-2.91-2.57-.15,0-.13.31,0,.41Z"/><path class="cls-25" d="M278,157.73c.11,1.55,0,3,0,4.58,0,.61.62,1,.92.52.42-.7.84-1.39,1.27-2.08a14.69,14.69,0,0,0,1.3-2.09c.27-.61-.26-1.35-.71-1a6.9,6.9,0,0,0-1.24,1.71c-.47.78-.92,1.59-1.38,2.4l.92.52c0-1.58.23-3.42-.46-4.81-.17-.35-.66-.27-.63.23Z"/><path class="cls-25" d="M273.86,131.9c-.47,1.52.17,3.36.63,4.75a.49.49,0,0,0,.77.28c1.27-1,1.43-3.78,1.34-5.53,0-.19-.17-.31-.28-.16a6,6,0,0,0-.84,2c-.21.7-.28,1.95-.79,2.38l.77.28c-.47-1.29-.67-3-1.46-4a.08.08,0,0,0-.14,0Z"/><path class="cls-25" d="M289,130.39a18.9,18.9,0,0,0-.41,5c0,.68.69,1.15,1,.59.7-1.19,1.75-1.9,2.41-3.11.36-.65-.33-1.49-.79-1.09a12.2,12.2,0,0,0-2.47,3l1,.58a18.9,18.9,0,0,0-.42-5,.19.19,0,0,0-.37,0Z"/><path class="cls-25" d="M284.25,108.25c0,.31-.06.63-.06.94a4.83,4.83,0,0,0,.12.93,7,7,0,0,0,.8,1.92c.26.52.73.5,1,0a7.81,7.81,0,0,0,.68-2.08,5.9,5.9,0,0,0,.34-2.42c0-.2-.19-.32-.34-.27-.5.18-.74.87-.91,1.49a14,14,0,0,1-.76,2.48h1a17.56,17.56,0,0,1-.81-1.69c-.21-.46-.69-.89-.83-1.38,0-.18-.23-.11-.21.08Z"/><path class="cls-25" d="M279.21,88.46a16.28,16.28,0,0,0,.65,2.78c.13.53.63.76.93.33a4.84,4.84,0,0,0,1-3.12.41.41,0,0,0-.73-.26c-.52.58-.64,1.62-1.09,2.31l.93.33a7.42,7.42,0,0,0-1.12-2.71c-.21-.26-.63-.11-.6.34Z"/><path class="cls-25" d="M277.58,267.93a2.39,2.39,0,0,0-1.48.29,2.63,2.63,0,0,0-1.35.94c-.18.26,0,.66.24.58.45-.14.87-.36,1.31-.53a4.44,4.44,0,0,0,1.36-.49C277.88,268.53,277.85,268,277.58,267.93Z"/><path class="cls-25" d="M277.38,270.33a2.45,2.45,0,0,0-1-.36,7,7,0,0,1-1.3-.68c-.26-.15-.47.23-.3.53a2.67,2.67,0,0,0,1.26,1.09,1.3,1.3,0,0,0,1.37,0A.45.45,0,0,0,277.38,270.33Z"/><path class="cls-25" d="M276,271.87a4.25,4.25,0,0,0-1-1.84c-.17-.13-.37.08-.32.34a8.89,8.89,0,0,0,.66,1.79,11.76,11.76,0,0,0,.76,2.12.26.26,0,0,0,.48-.17A5,5,0,0,0,276,271.87Z"/><path class="cls-25" d="M227.76,269.34c-.49-.72-1.45-.7-2.12-.82a12.07,12.07,0,0,0-3.2-.38c-.32,0-.37.6-.08.75a8.42,8.42,0,0,0,2.63.63c.78.12,1.89.7,2.66.4A.41.41,0,0,0,227.76,269.34Z"/><path class="cls-25" d="M227.07,269.33a14.25,14.25,0,0,0-4.63,1.91c-.21.13-.11.65.13.62a12.25,12.25,0,0,0,4.66-1.73C227.5,270,227.37,269.28,227.07,269.33Z"/><path class="cls-25" d="M227.22,269.5a8.15,8.15,0,0,0-2.28,2.92c-.14.26.13.64.32.45a13.08,13.08,0,0,0,2.26-3C227.66,269.65,227.39,269.38,227.22,269.5Z"/><path class="cls-25" d="M230.81,278.73c-.05.47-.36.59-.59.87s-.58.84-.88,1.24a11.43,11.43,0,0,0-2,3.06c-.1.31.11.66.35.48a13.61,13.61,0,0,0,2.42-2.9,4.23,4.23,0,0,0,.93-2.71C231.06,278.58,230.83,278.53,230.81,278.73Z"/><path class="cls-25" d="M231.51,279.71a.32.32,0,1,0-.64,0c-.08.56-.14,1.11-.26,1.65a9.37,9.37,0,0,0-.35,1.48c0,.28.26.49.42.33C231.39,282.51,231.63,280.8,231.51,279.71Z"/><path class="cls-25" d="M231.29,279a2.09,2.09,0,0,0-1.08-1.22,2.94,2.94,0,0,0-1.47-.52c-.35,0-.38.66-.08.81s.88.42,1.31.69.68.63,1.09.66C231.21,279.47,231.33,279.24,231.29,279Z"/><path class="cls-25" d="M264.64,263.26c-.12-.11-.29,0-.36.13a3.13,3.13,0,0,0-.13,1.23c0,.36,0,.72,0,1.08s.31.49.47.26C265,265.37,265.23,263.79,264.64,263.26Z"/><path class="cls-25" d="M250.25,283.26a9.57,9.57,0,0,0-.44-2.37c-.12-.26-.41-.21-.47.09a6.2,6.2,0,0,0,.12,2.27,6.64,6.64,0,0,0,.64,2.23.16.16,0,0,0,.29-.1A9.42,9.42,0,0,0,250.25,283.26Z"/><path class="cls-25" d="M242.5,269.38a14.67,14.67,0,0,0-1.88-3.92c-.16-.21-.49,0-.4.32a31.27,31.27,0,0,0,1.6,4.15.37.37,0,0,0,.44.25.38.38,0,0,1-.18,0l0,0c.11.1.26,0,.33-.12a.5.5,0,0,0,0-.13.31.31,0,0,1,0-.07A.92.92,0,0,0,242.5,269.38Z"/><path class="cls-25" d="M242.08,270.19Z"/><path class="cls-25" d="M253.1,270.78c-.06-.51-.12-1-.14-1.55s-.56-.51-.58,0c0,.77-.3,2.2.21,2.76a.26.26,0,0,0,.46-.08A2.15,2.15,0,0,0,253.1,270.78Z"/><path class="cls-25" d="M267,275.42a5.26,5.26,0,0,0-1,3c0,.15.14.23.22.13a5.58,5.58,0,0,0,.58-1.08,10.88,10.88,0,0,1,.74-1.35C267.76,275.64,267.29,275,267,275.42Z"/><path class="cls-25" d="M234.51,273.61a4,4,0,0,0-.7-1.35,2.82,2.82,0,0,0-.64-.82c-.16-.21-.4-.06-.45.23,0-.08,0-.19,0,.06a.86.86,0,0,0,.05.45,5.55,5.55,0,0,0,.32.7,5,5,0,0,0,.84,1.37C234.22,274.52,234.59,274.07,234.51,273.61Z"/><path class="cls-25" d="M275.9,239.32c-.44-.67-.92.87-1.08,1.22-.22.5-.46,1-.71,1.46-.11.21-.23.42-.35.62s-.1.33-.15.41c-.19.27,0,.64.28.49a1.57,1.57,0,0,0,.59-.52,9.55,9.55,0,0,0,.73-1.34C275.44,241.2,276.29,239.91,275.9,239.32Z"/><path class="cls-25" d="M277.06,241.75a4.73,4.73,0,0,1-2.33,1.29c-.44,0-.44.94,0,1a3.44,3.44,0,0,0,2.78-1.44C277.82,242.14,277.42,241.48,277.06,241.75Z"/><path class="cls-25" d="M226.68,246.61a14.72,14.72,0,0,0-2.65.14c-.28.05-.28.73,0,.78a14.72,14.72,0,0,0,2.65.14C227.18,247.68,227.18,246.6,226.68,246.61Z"/><path class="cls-25" d="M226.8,247.13c-.65.86-1.29,1.76-1.93,2.65a10.63,10.63,0,0,0-1.81,2.9c-.06.22.07.41.24.32a8.16,8.16,0,0,0,1.92-2.24c.71-1,1.43-1.91,2.12-2.9C227.67,247.38,227.15,246.66,226.8,247.13Z"/><path class="cls-25" d="M239.35,220.9a10.13,10.13,0,0,0-1.1,4.71c0,.72.76.69.8,0,.1-1.53.56-2.87.76-4.35C239.86,220.92,239.55,220.59,239.35,220.9Z"/><path class="cls-25" d="M237.76,220.29c-.19-.18-.52.12-.42.45.24.77.57,1.47.8,2.26s.32,1.57.56,2.32c.15.5.74.24.72-.27C239.37,223.46,238.76,221.21,237.76,220.29Z"/><path class="cls-25" d="M247.63,212.94c0-.41-.45-.25-.48.09a22.77,22.77,0,0,0,.81,7.91c.17.57.75.35.67-.26C248.31,218.09,247.92,215.54,247.63,212.94Z"/><path class="cls-25" d="M249.3,215.12a9,9,0,0,0-1.26,5.16c0,.4.4.49.51.09.2-.76.3-1.55.47-2.33s.45-1.74.64-2.63C249.72,215.14,249.44,214.89,249.3,215.12Z"/><path class="cls-25" d="M280.56,254c-.87,1.12-1.6,2.44-2.46,3.58s-1.84,2-2.73,3.08c-.2.25,0,.79.28.65a10.19,10.19,0,0,0,2.66-2.73,19.5,19.5,0,0,0,2.6-4.21C281,254.06,280.74,253.75,280.56,254Z"/><path class="cls-25" d="M278.6,259.71a1.71,1.71,0,0,0-1,.17c-.37.11-.74.07-1.11.17s-.25.51-.06.66c.55.44,1.95.43,2.27-.5C278.81,260,278.76,259.77,278.6,259.71Z"/><path class="cls-25" d="M248,262.27c-.35-.63-1-.77-1.56-1a5.72,5.72,0,0,0-2.09-.83c-.28,0-.33.48-.13.67a7.32,7.32,0,0,0,1.76,1.11c.59.32,1.27.91,1.91.68C248.05,262.77,248.07,262.47,248,262.27Z"/><path class="cls-25" d="M234.19,253.85a3.56,3.56,0,0,0-1.38-1.79c-.27-.12-.43.28-.33.58a15.63,15.63,0,0,0,1,1.81c.33.66.5,1.43.82,2.09.17.34.54.2.56-.21A5.44,5.44,0,0,0,234.19,253.85Z"/><path class="cls-25" d="M250.19,246a14,14,0,0,0-.45-1.34c-.16-.4-.54-.17-.58.22a3,3,0,0,0,.27,1.55C249.68,246.91,250.36,246.63,250.19,246Z"/><path class="cls-25" d="M266.24,259.41a11.85,11.85,0,0,0-1.11,3,22.64,22.64,0,0,0-1,3.53c0,.26.22.54.36.29a18.55,18.55,0,0,0,1.29-3.27,11.52,11.52,0,0,0,.9-3.3C266.73,259.35,266.4,259.17,266.24,259.41Z"/><path class="cls-25" d="M234,260.43c-.35-.18-1.05-.21-1.23.35a.39.39,0,0,0,0,.35c.19.31.57.29.83.46s.51.63.86.58.38-.22.39-.54A1.34,1.34,0,0,0,234,260.43Z"/><path class="cls-25" d="M255.94,229.89a6.16,6.16,0,0,0-.66,2.24c-.17.94-.3,1.89-.43,2.84-.11.71.66,1,.79.3s.29-1.64.43-2.46a11.13,11.13,0,0,0,.37-2.64C256.41,229.86,256.12,229.61,255.94,229.89Z"/><path class="cls-25" d="M248.7,230.42c-.07-.26-.32-.41-.48-.17a4.88,4.88,0,0,0-.25,2.88.33.33,0,1,0,.65,0c.06-.42.08-.85.1-1.27A4.63,4.63,0,0,0,248.7,230.42Z"/><path class="cls-25" d="M259.47,253.59c-.07-.25-.26-.32-.41-.15a3.7,3.7,0,0,0-.5,1.95,8.68,8.68,0,0,0,0,2.1.27.27,0,1,0,.53,0c.11-.69.16-1.38.25-2.08A5.1,5.1,0,0,0,259.47,253.59Z"/><path class="cls-25" d="M271.18,250c-.06-.14-.2-.23-.31-.18-.44.22-.51.87-.59,1.44a4,4,0,0,0,.17,2.12c.13.27.42.23.49-.08.12-.56.09-1.16.16-1.73A3.23,3.23,0,0,0,271.18,250Z"/><path class="cls-25" d="M227.11,220.57c-.14-.21-.42,0-.41.24a10.92,10.92,0,0,0,.31,1.9c.15.69.24,1.41.38,2.11.1.5.65.39.66-.12A8.17,8.17,0,0,0,227.11,220.57Z"/><path class="cls-25" d="M233,212.33a19.92,19.92,0,0,0-1.09,7.59c0,.41.48.54.54.1.15-1.15.24-2.33.38-3.49.15-1.33.47-2.61.62-3.94C233.53,212.22,233.18,212,233,212.33Z"/><path class="cls-25" d="M234,214.35a5.37,5.37,0,0,0-1.08,1.59,7.65,7.65,0,0,0-.78,1.93c-.11.5.37.69.57.33.31-.56.55-1.17.84-1.74a9.25,9.25,0,0,0,.79-1.75C234.44,214.44,234.19,214.21,234,214.35Z"/><path class="cls-25" d="M210.51,229.8a5.49,5.49,0,0,0-5,.87c-.26.22-.17.87.16.83a13.76,13.76,0,0,0,2.14-.63,15.24,15.24,0,0,0,2.66-.67A.23.23,0,0,0,210.51,229.8Z"/><path class="cls-25" d="M210.76,229.41a8.64,8.64,0,0,0-2.23,4.37c-.11.48.41.66.54.21a30.64,30.64,0,0,1,2-4.21C211.13,229.55,210.93,229.27,210.76,229.41Z"/><path class="cls-25" d="M234.15,198.11a3.23,3.23,0,0,0-1.27.42,9.62,9.62,0,0,0-1.37.38.4.4,0,0,0,0,.67,2.44,2.44,0,0,0,2.91-.82A.45.45,0,0,0,234.15,198.11Z"/><path class="cls-25" d="M234.63,201.37a3.15,3.15,0,0,0-1-1.24,6,6,0,0,0-1.32-1.07c-.23-.1-.43.28-.31.55a4.58,4.58,0,0,0,1.07,1.36c.4.39.85.93,1.35.93C234.62,201.9,234.7,201.6,234.63,201.37Z"/><path class="cls-25" d="M241.86,184.45a7.13,7.13,0,0,0-2.82,1.38,14.56,14.56,0,0,0-3.14,2.58c-.18.21,0,.68.24.56,1-.58,2-1.27,2.94-1.91A13.05,13.05,0,0,0,242,185C242.17,184.8,242.05,184.43,241.86,184.45Z"/><path class="cls-25" d="M241.24,182a12.75,12.75,0,0,0-2.6,3c-.41.53-.82,1.06-1.22,1.6a2,2,0,0,0-.59,1.13.19.19,0,0,0,.15.2c.62.1,1.53-1.53,1.93-2.05a24.23,24.23,0,0,0,2.63-3.48C241.67,182.17,241.42,181.92,241.24,182Z"/><path class="cls-25" d="M201.71,208.42c-.61.83-1.11,1.78-1.65,2.69a32.25,32.25,0,0,0-1.77,2.8c-.15.31.13.65.35.49a9,9,0,0,0,2-2.54,12.41,12.41,0,0,0,1.45-3.17C202.12,208.42,201.85,208.23,201.71,208.42Z"/><path class="cls-25" d="M201.08,210.34a5.47,5.47,0,0,0-1.92.2,9.47,9.47,0,0,0-2.28.49c-.26.12-.33.76,0,.82a5.35,5.35,0,0,0,2.2-.26,4.43,4.43,0,0,0,2.08-.85A.24.24,0,0,0,201.08,210.34Z"/><path class="cls-25" d="M199.1,200.94a14,14,0,0,0-2.79,1.34,13.18,13.18,0,0,0-2.44,1.43c-.26.22-.08.73.21.66a12.74,12.74,0,0,0,2.77-1.32,8.69,8.69,0,0,0,2.44-1.67C199.45,201.2,199.27,200.9,199.1,200.94Z"/><path class="cls-25" d="M197.64,201.06c-.63.18-1.23.53-1.86.7s-1.41.16-2.09.35c-.25.07-.21.53,0,.63a4,4,0,0,0,4.31-.84C198.31,201.56,198,201,197.64,201.06Z"/><path class="cls-25" d="M207.08,183.05c-.41-.51-1.08-.53-1.6-.71-.73-.26-1.4-.75-2.12-1-.33-.12-.55.43-.32.75a4.19,4.19,0,0,0,2,1.39c.59.25,1.44.66,2,.24A.5.5,0,0,0,207.08,183.05Z"/><path class="cls-25" d="M205.55,177.29a11.25,11.25,0,0,0-1.39,2.87,25.82,25.82,0,0,0-1.18,3.3c-.06.22.17.39.28.22a18.58,18.58,0,0,0,1.33-2.68,16.69,16.69,0,0,0,1.34-3.41C206,177.28,205.72,177.09,205.55,177.29Z"/><path class="cls-25" d="M201.58,167.87a.23.23,0,0,0-.42-.15,11.75,11.75,0,0,0-1,3.7c0,.2-.54,2.11,0,2s.74-1.4.89-2.06A11.28,11.28,0,0,0,201.58,167.87Z"/><path class="cls-25" d="M202.5,170.3c-.37-.23-.71,0-1.06.24a4.94,4.94,0,0,0-1.14.81c-.27.26-.1.76.21.7a4.85,4.85,0,0,0,1.28-.52c.34-.18.69-.32.83-.81A.41.41,0,0,0,202.5,170.3Z"/><path class="cls-25" d="M195.11,157.57c-.78,1.64-1.42,4.66-.85,6.56.05.16.22.19.26,0,.2-1,.17-2,.3-3,.15-1.15.47-2.23.67-3.37C195.55,157.47,195.24,157.3,195.11,157.57Z"/><path class="cls-25" d="M195.89,161.8c.05.07,0-.05,0-.07a.17.17,0,0,0-.18-.08.33.33,0,0,0-.36.15,7.7,7.7,0,0,1-.67.72,6.56,6.56,0,0,0-.83.76.41.41,0,0,0,.2.64c.64.09,1.6-.69,1.94-1.44A.74.74,0,0,0,195.89,161.8Z"/><path class="cls-25" d="M183.91,170.14a7.56,7.56,0,0,0-2.1,1.14,17,17,0,0,0-2.62,1.63c-.23.22-.17.8.15.77a5.82,5.82,0,0,0,2.26-1.11,11.15,11.15,0,0,0,2.53-1.91C184.33,170.45,184.11,170.09,183.91,170.14Z"/><path class="cls-25" d="M183.12,171a2.92,2.92,0,0,0-.85,1.24,6.65,6.65,0,0,0-.7,2c0,.52.43.88.65.37s.38-1.16.6-1.71a6.52,6.52,0,0,0,.54-1.65C183.38,171,183.25,170.86,183.12,171Z"/><path class="cls-25" d="M183.54,183.66a4,4,0,0,0-2.18,0,3.17,3.17,0,0,0-2.18.73.38.38,0,0,0,.1.54,4.1,4.1,0,0,0,2.08-.11,7,7,0,0,0,2.18-.34A.47.47,0,0,0,183.54,183.66Z"/><path class="cls-25" d="M240.78,167.3c-.41-.39-1,.57-1.31.95a10.33,10.33,0,0,0-1.49,2.14c-.15.33.09.8.37.67a5.44,5.44,0,0,0,1.55-1.64l.7-.92a1.2,1.2,0,0,0,.22-.36c.12-.35,0,.22.08-.17A.61.61,0,0,0,240.78,167.3Z"/><path class="cls-25" d="M241.06,170a3.4,3.4,0,0,0-1.19-.08,3.15,3.15,0,0,0-1.17.18.46.46,0,0,0,0,.76,3.15,3.15,0,0,0,1.17.18,3.4,3.4,0,0,0,1.19-.08A.58.58,0,0,0,241.06,170Z"/><path class="cls-25" d="M235.57,161c0-.36-.38-.31-.51-.09a7.7,7.7,0,0,0-.53,2.15,10.59,10.59,0,0,0-.26,2.11c0,.36.34.47.48.18a8.08,8.08,0,0,0,.55-2A7.76,7.76,0,0,0,235.57,161Z"/><path class="cls-25" d="M220.89,174.87a4.93,4.93,0,0,0-1.64.5,4.56,4.56,0,0,0-1.67,1.12c-.26.32,0,.82.31.74a8.21,8.21,0,0,0,1.56-.85c.53-.28,1.06-.54,1.57-.87C221.24,175.36,221.13,174.85,220.89,174.87Z"/><path class="cls-25" d="M220,175.89a2.52,2.52,0,0,0-1.16.9,3.33,3.33,0,0,0-.87,1.78c0,.3.24.44.41.32a4.47,4.47,0,0,0,.88-1.27c.3-.47.61-.89.89-1.37C220.2,176.08,220.11,175.85,220,175.89Z"/><path class="cls-25" d="M249.49,195.16a1.89,1.89,0,0,0-1.47-.34c-.58,0-1.54-.2-2,.48a.43.43,0,0,0,.05.52c.46.46,1.21.18,1.75.17a10.16,10.16,0,0,1,1.46,0C249.68,196,249.72,195.39,249.49,195.16Z"/><path class="cls-25" d="M249.27,195.23a7.39,7.39,0,0,0-1.88,1.68,7,7,0,0,0-1.76,1.8c-.12.22,0,.56.22.55.71-.06,1.37-.88,1.94-1.42a6.09,6.09,0,0,0,1.73-2.15C249.61,195.46,249.47,195.15,249.27,195.23Z"/><path class="cls-25" d="M251.87,176.14c-1.22-.53-2.17-2-3.41-2.35-.1,0-.24.14-.16.28a7.36,7.36,0,0,0,2.53,2.58,5.27,5.27,0,0,1-.74.31,6.87,6.87,0,0,0-1.35.35.44.44,0,0,0,0,.75c.95.5,2.38-.37,3.21-1A.59.59,0,0,0,251.87,176.14Z"/><path class="cls-25" d="M265.86,159.57a4.73,4.73,0,0,0-.68,2.25c-.1.7-.25,1.68.28,2.07a.12.12,0,0,0,.18,0c.36-.43.27-1.12.34-1.74a11.85,11.85,0,0,0,.34-2.28C266.3,159.5,266.05,159.36,265.86,159.57Z"/><path class="cls-25" d="M267.72,161.26c-.42,0-.74.44-1.1.72s-.85.51-1.23.86c-.23.21-.17.8.15.76a2.92,2.92,0,0,0,1.33-.61,2.33,2.33,0,0,0,1.1-1.29C268,161.49,267.88,161.24,267.72,161.26Z"/><path class="cls-25" d="M289.47,187.63a12.43,12.43,0,0,0-3.35,1.34c-1.43.68-2.89,1.3-4.31,2-.29.15-.17.7.13.63a18.58,18.58,0,0,0,3.82-1.47,22.88,22.88,0,0,0,3.82-1.94C289.76,188.06,289.69,187.6,289.47,187.63Z"/><path class="cls-25" d="M284,192.29a2.65,2.65,0,0,0-2.11-1.25c-.37,0-.38.68-.08.85s.61.29.9.47a8.63,8.63,0,0,0,.89.64C283.86,193.12,284.16,192.63,284,192.29Z"/><path class="cls-25" d="M279.18,206.13c-.82.13-1.63.45-2.45.56-.54.07-.43,1.17.1,1,.8-.25,1.66-.17,2.46-.44C279.74,207.1,279.65,206.06,279.18,206.13Z"/><path class="cls-25" d="M277.41,209a11.46,11.46,0,0,0-.82-1.46c-.27-.4-.75.12-.55.58s.47.94.7,1.42.32,1,.69,1.16a.24.24,0,0,0,.3-.16A2,2,0,0,0,277.41,209Z"/><path class="cls-25" d="M271.71,221a6.49,6.49,0,0,0-2,.3,14,14,0,0,0-2.1.43c-.42.14-.3,1,.1,1a10.44,10.44,0,0,0,2.29-.21,4.18,4.18,0,0,0,1.89-.56A.57.57,0,0,0,271.71,221Z"/><path class="cls-25" d="M271.24,224.28a4.5,4.5,0,0,0-3.06-1.72c-.35-.07-.49.56-.14.74a17.44,17.44,0,0,0,3,1.55C271.24,224.92,271.42,224.53,271.24,224.28Z"/><path class="cls-25" d="M286.25,177.59c-1.54.07-3.46,1.46-4.69,2.67-.38.37-.06,1.14.37.86.73-.48,1.44-1,2.18-1.46s1.58-.71,2.3-1.23C286.7,178.22,286.57,177.58,286.25,177.59Z"/><path class="cls-25" d="M283.1,180c-.13.12-.27.2-.4.33s0,.51.18.32.26-.23.37-.37S283.22,179.89,283.1,180Z"/><path class="cls-25" d="M286.65,179.3c-.91-.81-2.72-.49-3.62.22a.56.56,0,0,0-.19.46l-.19.36c-.15.25.11.61.26.35s.15-.05.42-.2a4.22,4.22,0,0,1,.88-.37c.78-.22,1.61.15,2.37-.12C286.82,179.91,286.84,179.48,286.65,179.3Z"/><path class="cls-25" d="M298.6,153.42a8.39,8.39,0,0,0-2.38.29,10.88,10.88,0,0,0-2.45.5c-.28.11-.2.62.07.67a9.55,9.55,0,0,0,2.72-.14,5.3,5.3,0,0,0,2.19-.56C299.05,154,298.86,153.46,298.6,153.42Z"/><path class="cls-25" d="M298,156.55a3.25,3.25,0,0,0-1.42-1c-.59-.33-1.17-.71-1.78-1-.38-.17-.56.56-.26.85a8,8,0,0,0,1.6,1.09c.51.28,1.1.76,1.66.67A.44.44,0,0,0,298,156.55Z"/><path class="cls-25" d="M290.35,166.19a9.27,9.27,0,0,0-3.59-.52c-.28,0-.35.57-.07.7a28.09,28.09,0,0,0,3.44.9C290.65,167.43,290.86,166.33,290.35,166.19Z"/><path class="cls-25" d="M287.54,166c-.29,0-.47.61-.16.8a7.52,7.52,0,0,1,1.13.77c.34.3.63.8,1,1,.14.05.33-.11.31-.34A2.57,2.57,0,0,0,287.54,166Z"/><path class="cls-25" d="M269.24,128.25a44.26,44.26,0,0,1-4.53-2.35c-.32-.15-.43.45-.21.68a8.92,8.92,0,0,0,4.64,2.66C269.55,129.3,269.62,128.39,269.24,128.25Z"/><path class="cls-25" d="M268.75,128.73a6.79,6.79,0,0,0-1.35.42c-.59.2-1.22.09-1.8.32a.4.4,0,0,0-.06.62,2.56,2.56,0,0,0,3.33-1.09C268.92,128.9,268.84,128.72,268.75,128.73Z"/><path class="cls-25" d="M294,115.54a6.5,6.5,0,0,0-1.35,2.43,18.7,18.7,0,0,0-.93,3c-.11.54.47.89.66.39.35-.94.64-1.91,1-2.84a19.66,19.66,0,0,0,1-2.62C294.4,115.64,294.15,115.37,294,115.54Z"/><path class="cls-25" d="M297.69,92.84a14.77,14.77,0,0,0-3.47,6.46c-.1.46.41.65.52.2.63-2.58,2.2-4.15,3.26-6.33C298.13,92.9,297.85,92.66,297.69,92.84Z"/><path class="cls-25" d="M275.13,100.62a5.23,5.23,0,0,0-2.36,0,4.92,4.92,0,0,0-2.1.69.43.43,0,0,0,.14.72,5.9,5.9,0,0,0,2.07-.29,19,19,0,0,0,2.25-.43C275.39,101.27,275.4,100.7,275.13,100.62Z"/><path class="cls-25" d="M298.47,107.23a9.08,9.08,0,0,0-2.85,1c-.87.37-2.13.41-2.88,1.11a.23.23,0,0,0,0,.32c.68.55,1.68.07,2.38-.18a11.28,11.28,0,0,0,3.46-1.67C298.76,107.64,298.69,107.22,298.47,107.23Z"/><path class="cls-25" d="M295.65,106.19a11.86,11.86,0,0,0-1.62,1.56c-.52.51-1.08.92-1.61,1.42-.23.22-.09.74.2.64a5.3,5.3,0,0,0,1.77-1.23,6.39,6.39,0,0,0,1.58-2C296.1,106.33,295.85,106.07,295.65,106.19Z"/><path class="cls-25" d="M274.41,95.13a8.12,8.12,0,0,0-3.56,1.23c-.16.1-.08.46.09.45a8.2,8.2,0,0,0,3.55-1.3C274.62,95.42,274.55,95.12,274.41,95.13Z"/><path class="cls-25" d="M274.83,94.59a2.13,2.13,0,0,0-2.4-.78c-.21.06-.21.51,0,.57s.69.18,1,.28.75.36,1.14.44C274.84,95.14,275,94.84,274.83,94.59Z"/><path class="cls-25" d="M279.43,110.28a4.25,4.25,0,0,0-3.05,2.2c-.15.28.15.66.35.47a10.24,10.24,0,0,1,1.37-1.11c.48-.32,1-.46,1.49-.76C279.87,110.9,279.73,110.25,279.43,110.28Z"/><path class="cls-25" d="M287,96.61c-.06-.63-.07-1.26-.18-1.89,0-.24-.31-.3-.39-.07a7.47,7.47,0,0,0,.05,4.19c.19.68.87.42.79-.3S287.08,97.27,287,96.61Z"/><path class="cls-25" d="M282,101.14a3.86,3.86,0,0,0-2-1.71c-.21,0-.45.33-.24.56.59.62,1.15,1.23,1.7,1.91C281.85,102.37,282.37,101.65,282,101.14Z"/><path class="cls-25" d="M286.08,87c.09.14-.11-.27,0-.09h0c0-.12-.12-.2-.24-.15-.41.22-.4,1-.45,1.58a10.39,10.39,0,0,0-.08,1.37,1.76,1.76,0,0,0,.07.61.8.8,0,0,0,.08.16l.05,0h0a.14.14,0,0,0,.27,0h0a.27.27,0,0,0,.1-.13,1.19,1.19,0,0,0,.12-.43c.06-.43.1-.88.14-1.33s.06-.8.08-1.21A.66.66,0,0,0,286.08,87Z"/><path class="cls-25" d="M290.86,100.29a.42.42,0,0,0-.07-.29c-.12-.17-.3-.12-.42,0,.16-.22-.13.11-.17.17s-.1.26-.15.39c-.24.71-.45,1.44-.69,2.15-.12.37.19.74.42.44a5.56,5.56,0,0,0,.77-1.67,8.69,8.69,0,0,0,.29-.86.66.66,0,0,0,0-.28C290.89,100.25,290.88,100.25,290.86,100.29Z"/><path class="cls-25" d="M279.61,125.39a17.38,17.38,0,0,1-1.48-3c-.16-.41-.57-.12-.51.29a9,9,0,0,0,1,3c.23.44.9,1.86,1.41,1.36S279.84,125.75,279.61,125.39Z"/><path class="cls-25" d="M285.21,126.84c.25-.56-.33-1.16-.66-.7a5.35,5.35,0,0,0-.44,1.47,9.65,9.65,0,0,0-.38,2c0,.44.48.63.62.23.18-.56.36-1.11.51-1.69.08-.33.17-.65.26-1a2.63,2.63,0,0,0,.08-.3C285.23,126.79,285.3,126.64,285.21,126.84Z"/><path class="cls-25" d="M281.42,139.25c-.07-.13-.08-.14,0,0a.55.55,0,0,0-.13-.24.22.22,0,0,0-.22,0c-.05,0-.08,0-.12.1h0c.14-.18-.19.17,0,0h0a.74.74,0,0,0-.18.34q-.09.45-.15.9c-.11.73-.13,1.5-.26,2.21-.17.9.94,1,.8,0a4.1,4.1,0,0,1,.12-1l.18-1.26A2.07,2.07,0,0,0,281.42,139.25Z"/><path class="cls-25" d="M289,145.4c-.21.4-.45.76-.63,1.18-.57,1-1.18,1.93-1.74,2.94-.24.45.28,1,.55.58a30.85,30.85,0,0,0,2.34-3.66c.08-.14.16-.29.23-.44C290,145.36,289.28,144.78,289,145.4Z"/><path class="cls-25" d="M275.69,148.68a7.64,7.64,0,0,0-1.39-2.08c-.21-.25-.48-.64-.8-.52a.59.59,0,0,0-.25.75l0-.06a3.68,3.68,0,0,0,.84,1.16,7,7,0,0,0,1.25,1.29C275.55,149.4,275.82,149,275.69,148.68Z"/><path class="cls-25" d="M281.4,149.65c0-.2-.22-.39-.38-.3-.44.25-.55,1.05-.53,1.65s.64.7.7.13A4.73,4.73,0,0,0,281.4,149.65Z"/><path class="cls-25" d="M287.65,158.6c-.26-.31-.62-.21-.89.05a.47.47,0,0,0-.07.52l0,.06a9.1,9.1,0,0,0-1.15,1.17c-.22.31,0,.93.32.76a5.17,5.17,0,0,0,1.78-1.48A1,1,0,0,0,287.65,158.6Z"/><path class="cls-25" d="M262.38,178.82c0-.65.2-1.82-.42-2.12-.24-.11-.44.18-.46.48a1.83,1.83,0,0,0,.16.77c0,.17,0,.33,0,.49a14.76,14.76,0,0,0,0,1.88,7,7,0,0,0,.59,2.61c.09.19.33.13.32-.12C262.6,181.48,262.38,180.17,262.38,178.82Z"/><path class="cls-25" d="M271.66,188.3s0,0,0,0C271.61,188.1,271.63,188.17,271.66,188.3Z"/><path class="cls-25" d="M271.66,188.3c-.11-.35-.35-.53-.63-.46s-.29.38-.23.64c-.1.25-.2.52-.32.75-.26.48-.56.93-.82,1.41s.35,1.22.69.73a10.14,10.14,0,0,0,1.25-2.1,1.59,1.59,0,0,0,.14-.58C271.73,188.62,271.69,188.43,271.66,188.3Z"/><path class="cls-25" d="M276.26,192.27l-.05.06c-.09.1-.17.23-.26.34-.24.34-.5.65-.75,1a7.66,7.66,0,0,0-1.29,1.87c-.13.35.14.7.39.53a12.43,12.43,0,0,0,2.19-2.5,1.59,1.59,0,0,0,.46-1.17C276.86,191.91,276.42,191.92,276.26,192.27Z"/><path class="cls-25" d="M276.89,194a12.15,12.15,0,0,0-1.35.76,2.68,2.68,0,0,0-1.24.81.29.29,0,0,0,0,.31c.41.45.86.22,1.32,0a3.58,3.58,0,0,0,1.63-1.07C277.51,194.46,277.25,193.87,276.89,194Z"/><path class="cls-25" d="M263.56,189.85c-.05-.69-.07-2-.61-2.36a.2.2,0,0,0-.32.11,7.8,7.8,0,0,0,.19,2.62c.12,1.29.18,2.61.18,3.9,0,.62.7.62.7,0C263.69,192.69,263.68,191.28,263.56,189.85Z"/><path class="cls-25" d="M257.79,209.89a25.19,25.19,0,0,0-.7-2.91,8.83,8.83,0,0,0-.85-2.38c-.18-.26-.56-.07-.53.3a13.83,13.83,0,0,0,.65,2.72c.24.89.45,1.81.75,2.67C257.3,210.83,257.87,210.43,257.79,209.89Z"/><path class="cls-25" d="M257.91,206.31c-.1-.28-.42-.2-.47.09a11.61,11.61,0,0,0-.08,2.13c0,.74-.1,1.47-.06,2.2,0,.42.41.48.51.1A8.78,8.78,0,0,0,257.91,206.31Z"/><path class="cls-25" d="M250.91,135.45c0-.53-.61-.53-.6,0a16.93,16.93,0,0,0,1.05,6.41c.16.33.64.25.6-.22C251.8,139.52,250.93,137.65,250.91,135.45Z"/><path class="cls-25" d="M237.7,138.12c-.45-1-.91-1.92-1.32-2.92-.22-.55-.85,0-.61.5.39.92.76,1.87,1.14,2.8.22.52.56,1.8,1.09,1.76a.26.26,0,0,0,.25-.19C238.48,139.42,237.94,138.64,237.7,138.12Z"/><path class="cls-25" d="M237.93,138.36c-.34-.35-.72-.63-1.08-1s-.79-1-1.22-1.07c-.21,0-.37.16-.33.46.08.63.69,1.1,1,1.44a3.89,3.89,0,0,0,1.33,1C238.06,139.3,238.23,138.65,237.93,138.36Z"/><path class="cls-25" d="M244,114.52c-.15-.45-.43-1.34-.89-1.16s-.13.9,0,1.21a10.92,10.92,0,0,1,.58,2.3c.1.72.9.41.8-.3A11.34,11.34,0,0,0,244,114.52Z"/><path class="cls-25" d="M247.28,105.78a.21.21,0,0,0-.28,0c-.42.37-.29,1.31-.33,1.92a16,16,0,0,0-.07,2.59.28.28,0,0,0,.54.09,10.18,10.18,0,0,0,.34-2.43C247.52,107.3,247.74,106.21,247.28,105.78Z"/><path class="cls-25" d="M249.91,104.76c-.37.12-.6.65-.83,1-.33.55-.67,1.1-1,1.63s-.65,1-1,1.45c-.2.28-.41.7-.6.93s0,.49.19.45c.76-.17,1.27-1.13,1.78-1.91.39-.61.76-1.23,1.13-1.86a2.87,2.87,0,0,0,.6-1.44C250.19,104.85,250.05,104.72,249.91,104.76Z"/><path class="cls-25" d="M255.48,117.22c-.31,0-.53.47-.68.77a11.2,11.2,0,0,0-1.08,3.25.56.56,0,0,0,.14.48c-.08-.09-.08-.18-.07,0s.25.3.32.08a.35.35,0,0,0,.18-.18c.3-.72.52-1.51.8-2.25a10.21,10.21,0,0,1,.43-1c0-.08.09-.15.13-.22a.3.3,0,0,0,.2-.23C255.92,117.49,255.71,117.22,255.48,117.22Z"/><path class="cls-25" d="M256.47,119.09c-.87.7-1.83,1.27-2.66,2-.29.26-.11.87.23.76a7.62,7.62,0,0,0,2.81-1.9C257.24,119.61,256.9,118.75,256.47,119.09Z"/><path class="cls-25" d="M229.2,128.56a13.29,13.29,0,0,0-2.82,0c-1.27,0-2.54-.08-3.81,0-.28,0-.37.62-.07.69a19.12,19.12,0,0,0,3.44.41,6,6,0,0,0,3.32-.43C229.47,129.11,229.42,128.6,229.2,128.56Z"/><path class="cls-25" d="M228.33,128.73c-1.37,1.06-2.78,2.06-4.08,3.25-.27.24,0,.74.24.57a30,30,0,0,0,4.15-3.1C229,129.16,228.67,128.47,228.33,128.73Z"/><path class="cls-25" d="M230.62,139.85c-.4-.08-.72.16-1.09.37a10.75,10.75,0,0,0-1.43.95c-.19.16-.13.67.13.62a4.36,4.36,0,0,0,1.25-.48,3,3,0,0,0,1.26-.81C230.87,140.31,230.84,139.89,230.62,139.85Z"/><path class="cls-25" d="M230.5,140.26c-.22.55-.45,1.09-.7,1.62s-.64,1.09-.88,1.71c-.11.29.11.61.33.45a5.49,5.49,0,0,0,1.62-3.64C230.89,140.12,230.59,140,230.5,140.26Z"/><path class="cls-25" d="M260.41,134.85a14.14,14.14,0,0,0-1.7,2.59c-.58.94-1.29,1.75-1.85,2.71-.18.31,0,.75.31.55a9,9,0,0,0,2.06-2.54,9.53,9.53,0,0,0,1.49-3C260.78,134.94,260.56,134.7,260.41,134.85Z"/><path class="cls-25" d="M261.68,152.85a3,3,0,0,0-1.29-1.49,3.58,3.58,0,0,0-1.67-.79c-.16,0-.25.29-.13.44a6.63,6.63,0,0,0,1.25,1.13c.47.36,1,1.05,1.51,1.17A.33.33,0,0,0,261.68,152.85Z"/><path class="cls-25" d="M244.06,158.29c-.59-.43-1.49.05-2.07.32a4.26,4.26,0,0,0-2.22,1.8c-.11.21.07.43.22.39a14.08,14.08,0,0,0,2.2-1.16c.58-.28,1.35-.29,1.87-.72A.45.45,0,0,0,244.06,158.29Z"/><path class="cls-25" d="M243.69,162a17.54,17.54,0,0,0-1.13-3c-.13-.25-.45-.11-.38.22.24,1,.58,2,.87,3a14,14,0,0,0,.82,2.73c.13.23.38.15.4-.15A8.17,8.17,0,0,0,243.69,162Z"/><path class="cls-25" d="M249.21,164.68a.36.36,0,0,0-.24-.23l-.13-.23c-.11-.17-.34-.06-.36.15a.22.22,0,0,0-.13.06c-.13.13,0,.47.12.38,0,0,0,.08,0,.12a.85.85,0,0,0,0,.16c.09.42.19.84.26,1.27a2.73,2.73,0,0,0,.36,1.18.26.26,0,0,0,.46-.08A4.73,4.73,0,0,0,249.21,164.68Z"/><path class="cls-25" d="M230.67,114.59a5.58,5.58,0,0,0-1.78.81,5,5,0,0,0-1.86,1.43c-.18.27,0,.62.23.56a5.35,5.35,0,0,0,1.72-1.07,8.53,8.53,0,0,0,1.79-1.42C230.85,114.8,230.79,114.57,230.67,114.59Z"/><path class="cls-25" d="M232.22,180.31c-.53,1.62-.92,3.31-1.32,5-.18.74.66,1,.83.32.41-1.64.76-3.3,1-5C232.83,180.2,232.36,179.87,232.22,180.31Z"/><path class="cls-25" d="M225.52,179.71a19.67,19.67,0,0,1-.53-2.47c-.05-.37-.5-.29-.48.09a16.78,16.78,0,0,0,.28,2.66,4.55,4.55,0,0,0,.86,2.24c.17.17.38-.06.39-.3A7.34,7.34,0,0,0,225.52,179.71Z"/><path class="cls-25" d="M234.13,171.9c-.07-.18-.24-.25-.37-.16a.51.51,0,0,0-.31.39c-.1.4-.22.8-.33,1.2l-.18.74a4.14,4.14,0,0,0,0,.61c0,.23.2.3.3.17a2.32,2.32,0,0,0,.34-.41,3.64,3.64,0,0,0,.27-.7c.14-.43.27-.87.38-1.32A.63.63,0,0,0,234.13,171.9Z"/><path class="cls-25" d="M198.54,176.39a15.73,15.73,0,0,0-1-2.14c-.35-.68-.7-1.37-1-2.07-.21-.44-.71-.05-.52.41A19.39,19.39,0,0,0,198,177C198.31,177.32,198.7,176.87,198.54,176.39Z"/><path class="cls-25" d="M189.31,180.61a6.06,6.06,0,0,0-1.15-1.7,13.57,13.57,0,0,0-1.35-1.38c-.27-.24-.54.3-.33.6.36.54.74,1.05,1.12,1.56a15.45,15.45,0,0,0,1.2,1.62C189.12,181.65,189.47,181,189.31,180.61Z"/><path class="cls-25" d="M191.37,186.79a2.54,2.54,0,0,0-2.77-1.32c-.25,0-.36.62-.06.68a4.71,4.71,0,0,1,1.21.42,9.6,9.6,0,0,1,1.11.93C191.18,187.73,191.57,187.25,191.37,186.79Z"/><path class="cls-25" d="M194,179.39a3.31,3.31,0,0,0-1.24-1c-.3-.12-.5.41-.3.71s.65.75,1,1.15.47.87.86,1a.26.26,0,0,0,.32-.25A2.07,2.07,0,0,0,194,179.39Z"/><path class="cls-25" d="M214.5,212.62a7.76,7.76,0,0,0-1.21-1.88c-.5-.72-1-1.47-1.51-2.15-.18-.23-.44,0-.33.35a14.32,14.32,0,0,0,1.15,2.32,6.61,6.61,0,0,0,1.43,2C214.35,213.47,214.65,213.06,214.5,212.62Z"/><path class="cls-25" d="M213.52,222.24a11,11,0,0,0-3.72-1.9c-.45-.16-.64.83-.19.94a9,9,0,0,1,3.47,2C213.56,223.67,214,222.63,213.52,222.24Z"/><path class="cls-25" d="M224.63,210.68a3.4,3.4,0,0,0-1.21-1.18.25.25,0,0,0-.25.07.33.33,0,0,0-.14.44c.07.44.59,1,.77,1.22s.41.63.6,1,.31.65.59.76.48-.18.51-.53C225.56,211.8,224.93,211.07,224.63,210.68Z"/><path class="cls-25" d="M213.38,188A.2.2,0,0,0,213,188a13.46,13.46,0,0,0-.46,5.91.26.26,0,1,0,.52,0c.14-1,.15-2,.22-2.93A15.72,15.72,0,0,0,213.38,188Z"/><path class="cls-25" d="M215.43,188.71c-.47.22-.73.77-1.05,1.28-.52.85-1.16,1.57-1.67,2.43-.19.3,0,.81.29.69.78-.31,1.37-1.38,1.88-2.19a3.81,3.81,0,0,0,.83-1.92C215.72,188.81,215.56,188.65,215.43,188.71Z"/><path class="cls-25" d="M212.59,201.47a9.13,9.13,0,0,0-1.06-1.63c-.44-.62-.86-1.23-1.32-1.82-.15-.2-.36,0-.28.29a11.89,11.89,0,0,0,.94,2.08,6.39,6.39,0,0,0,1.22,1.77C212.41,202.42,212.78,201.9,212.59,201.47Z"/><path class="cls-25" d="M212.17,202.68a2.88,2.88,0,0,0-1.25-1.55,3.08,3.08,0,0,0-1.86-.77c-.22,0-.31.41-.11.56.46.37,1,.62,1.43,1s.91,1.08,1.43,1.26C212,203.23,212.23,203,212.17,202.68Z"/><path class="cls-25" d="M227.3,228.58c-.31-.64-.59-1.31-.87-2-.17-.4-.65-.14-.55.32a12.37,12.37,0,0,0,.74,2.2,5,5,0,0,0,1,1.8c.25.19.59-.13.49-.52A8.77,8.77,0,0,0,227.3,228.58Z"/><path class="cls-25" d="M228.71,230.93c-.24-1.29-1.55-2.18-2.43-1.62-.21.14-.16.65.07.71a2.4,2.4,0,0,1,1,.32,3.69,3.69,0,0,1,.76,1.07C228.35,231.79,228.79,231.39,228.71,230.93Z"/><path class="cls-25" d="M244.1,252.55a10.57,10.57,0,0,0-1.21-1.94,10.84,10.84,0,0,0-1.53-1.86c-.28-.26-.54.29-.34.61.39.61.81,1.17,1.2,1.77a17.45,17.45,0,0,0,1.32,2C243.84,253.48,244.32,253.06,244.1,252.55Z"/><path class="cls-25" d="M244.38,248.13c-.07-.23-.36-.31-.4,0a14.33,14.33,0,0,0,0,2.27,23.25,23.25,0,0,0,.18,2.64.17.17,0,0,0,.34,0A12.66,12.66,0,0,0,244.38,248.13Z"/><path class="cls-25" d="M216,220.18a18.34,18.34,0,0,0-1.12-1.47c-.23-.28-.7,0-.57.46a5.81,5.81,0,0,0,1,1.92C215.72,221.66,216.37,220.77,216,220.18Z"/><path class="cls-25" d="M260.42,196.41a5.92,5.92,0,0,0-.72-1.87c-.2-.3-.58,0-.49.4.14.59.25,1.19.36,1.79s.09,1.52.45,2a.29.29,0,0,0,.53-.09A3.92,3.92,0,0,0,260.42,196.41Z"/><path class="cls-25" d="M266.44,214.56a.23.23,0,0,0-.15-.05h-.08s0,0-.08,0a.68.68,0,0,0-.37.34,10.22,10.22,0,0,0-1.21,2.51c-.06.2.12.47.27.38a3.5,3.5,0,0,0,1.1-1.31,3.26,3.26,0,0,0,.64-1.44A.4.4,0,0,0,266.44,214.56Z"/><path class="cls-25" d="M240.64,131.57c-.23-.63-.46-1.25-.65-1.89s-.74-.33-.62.23a16.4,16.4,0,0,0,.44,1.74,4.5,4.5,0,0,0,.74,1.69c.2.19.46-.08.46-.36A4.14,4.14,0,0,0,240.64,131.57Z"/><path class="cls-25" d="M238.81,116.74c-.46-1-1-2.11-1.36-3.2-.13-.37-.52-.1-.46.27a13.52,13.52,0,0,0,.94,3.07c.26.62.68,2.13,1.31,2S238.93,117,238.81,116.74Z"/><path class="cls-25" d="M239.45,114a.16.16,0,1,0-.32,0,19.86,19.86,0,0,0-.11,4.22.27.27,0,1,0,.54,0A19.86,19.86,0,0,0,239.45,114Z"/><path class="cls-25" d="M244.79,113.36c0-.25-.23-.44-.38-.22a4,4,0,0,0-.51,1.64,11.38,11.38,0,0,0-.18,1.94c0,.53.53.59.65.12a14.83,14.83,0,0,0,.28-1.77A7.06,7.06,0,0,0,244.79,113.36Z"/><path class="cls-25" d="M253,136.69c0-.26-.26-.39-.37-.14a13.21,13.21,0,0,0-.62,2.64,12.09,12.09,0,0,0-.29,2.62c0,.23.24.34.33.12a12.62,12.62,0,0,0,.63-2.49A10.61,10.61,0,0,0,253,136.69Z"/><path class="cls-25" d="M245.11,152.2c-.85-1.1-2.28-2.4-3.5-2.28a.22.22,0,0,0-.1.34,7.51,7.51,0,0,0,1.47,1.2,7.46,7.46,0,0,1,1.56,1.52C244.91,153.48,245.49,152.69,245.11,152.2Z"/><path class="cls-25" d="M269.32,144.74a3.6,3.6,0,0,0-2-.73c-.19,0-.29.39-.1.51.57.36,1.15.69,1.72,1.07C269.37,145.87,269.73,145,269.32,144.74Z"/><path d="M252.26,359.37c-2.93-.16-5.86-.36-8.79-.53-2.14-.12-4.79-.84-7-.39l-.6,1.13c3,0,6.06.67,9.09.91a67.4,67.4,0,0,0,9.1,0,83.84,83.84,0,0,0,8.66-.75,18,18,0,0,1,4.26-.51c-.22-.27-.44-.57-.66-.87A56.12,56.12,0,0,1,252.26,359.37Z"/><path class="cls-26" d="M238.54,338c.5,1.37,1.05,2.72,1.55,4.09.45,1.22.92,2.41,1.43,3.59a3.52,3.52,0,0,1,.15,2.81,36.21,36.21,0,0,1-2.74,5.42c-.61,1.17-1.23,2.34-1.85,3.51,1.73-.32,3.82.28,5.43.37,3.25.19,6.5.44,9.75.58a40.71,40.71,0,0,0,10.85-.56,9.31,9.31,0,0,1,2.53-.48,22.13,22.13,0,0,1-1.83-3.48c-.64-1.57-1.14-3.23-1.87-4.73a6.11,6.11,0,0,1-1-2.66,5,5,0,0,1,.14-1.18c.41-1.75,1.18-3.5,1.72-5.2a19.47,19.47,0,0,1,1.06-3.14c-4.2.11-8.39.38-12.58.63S242.73,338.34,238.54,338Z"/><path class="cls-26" d="M251.36,334.16c-2.8,0-5.6.06-8.4.07a28.59,28.59,0,0,1-5.85-.19l1,2.88c4.33-.5,8.75-.39,13.1-.65s8.68-.56,13-.63c.28-.76.55-1.53.84-2.3C260.82,334.6,255.72,334.11,251.36,334.16Z"/><path class="cls-27" d="M267,359.21a18,18,0,0,0-4.26.51,83.84,83.84,0,0,1-8.66.75,67.4,67.4,0,0,1-9.1,0c-3-.24-6.05-.92-9.09-.91l.6-1.13c2.17-.45,4.82.27,7,.39,2.93.17,5.86.37,8.79.53a56.12,56.12,0,0,0,14.1-1C266.58,358.64,266.8,358.94,267,359.21ZM262.78,340c-.54,1.7-1.31,3.45-1.72,5.2a5,5,0,0,0-.14,1.18,6.11,6.11,0,0,0,1,2.66c.73,1.5,1.23,3.16,1.87,4.73a22.13,22.13,0,0,0,1.83,3.48,9.31,9.31,0,0,0-2.53.48,40.71,40.71,0,0,1-10.85.56c-3.25-.14-6.5-.39-9.75-.58-1.61-.09-3.7-.69-5.43-.37.62-1.17,1.24-2.34,1.85-3.51a36.21,36.21,0,0,0,2.74-5.42,3.52,3.52,0,0,0-.15-2.81c-.51-1.18-1-2.37-1.43-3.59-.5-1.37-1.05-2.72-1.55-4.09,4.19.39,8.53-.17,12.72-.43s8.38-.52,12.58-.63A19.47,19.47,0,0,0,262.78,340Zm1.5-4.39c-4.34.07-8.68.36-13,.63s-8.77.15-13.1.65l-1-2.88a28.59,28.59,0,0,0,5.85.19c2.8,0,5.6,0,8.4-.07,4.36-.05,9.46.44,13.76-.82C264.83,334.11,264.56,334.88,264.28,335.64Zm17.54-45.74c-.8,0-1.6.1-2.4.14-2,.09-3.92.17-5.88.22s-3.92,0-5.89,0c-5.24-.2-10.48-.08-15.73.08-2.13.06-4.25.14-6.38.23l-6.43.27c-2.14.09-4.29.2-6.43.27l-6.44.22c-1.06,0-2.14,0-3.2.09a15,15,0,0,1-1.64,0,.93.93,0,0,0-1,.53c-.18.55.34,1.12.54,1.55.9,1.87,2.08,3.63,2.81,5.61.4,1.09.77,2.19,1.17,3.28,1.28,3.58,2.5,7.19,3.74,10.8q1,3,2.1,6c.08.24.17.47.25.71q1,2.87,2,5.75l1.94,5.79c.65,1.93,1.3,3.85,2,5.76s1.38,3.81,2.13,5.69c.37.93.75,1.86,1.14,2.78a10.05,10.05,0,0,0,.56,1.14,1.19,1.19,0,0,1,.08,1.06,9,9,0,0,1-.5.91c-.36.68-.71,1.36-1.06,2.05-1,1.95-1.95,3.93-2.94,5.88-.45.87-.85,1.8-1.36,2.61-.31.51-.62,1.14.13,1.34a25.86,25.86,0,0,0,3.3.4,29.2,29.2,0,0,0,3.5.34c3.74,0,7.48.2,11.22.11,3.28-.09,6.68.13,9.94-.2,1.57-.16,4.26.35,5.62-.81.58-.49-.28-1.14-.6-1.6-.49-.69-.87-1.54-1.34-2.26a24.63,24.63,0,0,1-2.59-4.54,23.34,23.34,0,0,0-2.26-4.87c-.46-.68.08-1.75.31-2.51.35-1.19.71-2.37,1.09-3.55,1.35-4.17,2.87-8.25,4.48-12.28s3.27-8,4.93-11.92c.65-1.56,1.28-3.13,1.91-4.7a.52.52,0,0,0,.14-.32c1.19-3,2.34-6,3.41-9,.34-1,.71-1.94,1.09-2.9.67-1.73,1.37-3.44,2-5.19.19-.53.37-1.06.54-1.6a22.74,22.74,0,0,1,.8-2.37.83.83,0,0,0,0-.85C282.31,289.77,282.07,289.89,281.82,289.9ZM226,302.9l-.48-1.39c2.68,0,5.34,0,8,0-1,1.26-1.21,3.06-2,4.57-.86,1.76-2.23,3.32-2.65,5.35Q227.48,307.19,226,302.9Zm3.45,9.42c.4-2,1.58-3.6,2.51-5.29s1-4,2.29-5.31a23.74,23.74,0,0,1,3.81,7.16,15,15,0,0,0,1.6,4c-1.09,0-2.19,0-3.29-.07-2-.1-5-1.74-7-.4A.29.29,0,0,0,229.48,312.32Zm37.31-7.63c-.84,2.65-1.68,5.34-2.45,8a44.11,44.11,0,0,1-2.57-6.44c-.49-1.42-.61-4.31-1.51-5.89q4.13-.18,8.25-.23A27,27,0,0,0,266.79,304.69Zm2.56-4.27c.83,2.41,1.52,4.91,2.29,7.35a18.18,18.18,0,0,0,1.37,3.61,20.17,20.17,0,0,0-3.13.56,45.49,45.49,0,0,1-4.87.84,44,44,0,0,0,1.82-5.48A72,72,0,0,1,269.35,300.42Zm-8,7.92a25.11,25.11,0,0,0,1.69,4.63l-.83.07a82.94,82.94,0,0,1-8.92,0c1.06-2,1.85-4.35,2.84-6.41s1.44-4.43,2.71-6.21h.2C260.35,302.53,260.55,305.92,261.36,308.34Zm-5.54-2.64c-.84,2-2.58,4.33-2.9,6.69-.62-1.81-1.95-3.35-2.76-5-1-2-1.46-4.28-2.48-6.29,2-.1,4-.22,6-.37l4-.27C256.87,302,256.4,304.28,255.82,305.7Zm-6.76,1.67c.81,2,2.18,3.62,3,5.63l-3.24-.13c-2.64-.1-5.28,0-7.91,0,1.94-3.88,2.87-8.53,5.74-11.62a.26.26,0,0,0,.07-.11h.24A52,52,0,0,0,249.06,307.37Zm-8.71,4.56c-1.55-3.54-2.75-7.69-5.19-10.41q5.15-.06,10.29-.28C243.09,304.1,241.73,308.25,240.35,311.93Zm30.75,6.69-1.29,3.07c-.68,1.63-1.31,3.28-2,4.91a36.82,36.82,0,0,0-1.85,4.58c-.26,1-.89.87-1.62,1-4.91,1-9.91.82-14.87,1-3.42.11-7.07.21-10.58.07-.42,0-.85,0-1.27,0l-.77-.1c-.59-.12-1.42-3.49-1.64-4.15-.93-2.77-1.94-5.57-2.94-8.3l-.75-2c-.2-.52-.38-1-.57-1.55,6.91.2,13.93,1.19,20.83.84s13.47-1.33,20.26-1.54C271.72,317.11,271.41,317.86,271.1,318.62Zm1.45-3.51a.41.41,0,0,0-.23-.06c-6.92-.11-13.66,1.35-20.54,1.91s-14-1.09-21-1a.34.34,0,0,0-.2.06l-1.05-2.94c2.78-.55,5.59.64,8.38.8,4,.24,7.94,0,11.9.12,4.13.16,8.27.33,12.41.13a40.09,40.09,0,0,0,5.64-.8c1-.19,1.95-.38,2.93-.55.33-.05,2.77-.13,2.86-.37C273.29,313.34,272.92,314.22,272.55,315.11Zm4.53-11.58c-.93,2.64-1.93,5.23-3,7.8-2-3.19-2.29-7.72-3.89-11.2,2.7,0,5.39,0,8.09.14C277.88,301.36,277.46,302.45,277.08,303.53Zm1.7-4.46a.49.49,0,0,0-.29-.13A173.73,173.73,0,0,0,261,299c-2.08.12-4.15.26-6.23.44-4.7.39-9.39,1-14.1,1.18-5.11.18-10.23,0-15.35,0h0c-.34-.93-.69-1.84-1.06-2.73,1-.87,3-.55,4.2-.57s2.57.05,3.85.06c5.46.06,11-.54,16.46-.64s11-.37,16.59-.45c2.64,0,5.27,0,7.91-.13,2.19-.07,4.37.38,6.55.29C279.44,297.38,279.11,298.23,278.78,299.07Zm1.48-3.91a.44.44,0,0,0-.3-.1c-2.25.06-4.49-.37-6.75-.32l-9,.23c-5.87.18-11.73.62-17.61.73-5.14.1-10.34.84-15.47.73-2,0-5.53-.78-7.32.73a27.17,27.17,0,0,0-2.78-5c10.29.05,20.57-.62,30.85-.9q7.88-.22,15.73,0c4.6.15,9.43.75,14-.56C281.24,292.25,280.78,293.71,280.26,295.16Z"/><path class="cls-27" d="M247.68,301.13c1,2,1.48,4.28,2.48,6.29.81,1.62,2.14,3.16,2.76,5,.32-2.36,2.06-4.68,2.9-6.69.58-1.42,1.05-3.75,2-5.21l-4,.27C251.71,300.91,249.7,301,247.68,301.13Z"/><path class="cls-27" d="M258.85,300.43c-1.27,1.78-1.73,4.2-2.71,6.21s-1.78,4.43-2.84,6.41a82.94,82.94,0,0,0,8.92,0l.83-.07a25.11,25.11,0,0,1-1.69-4.63c-.81-2.42-1-5.81-2.31-7.91Z"/><path class="cls-27" d="M246.68,301.18a.26.26,0,0,1-.07.11c-2.87,3.09-3.8,7.74-5.74,11.62,2.63,0,5.27-.14,7.91,0L252,313c-.78-2-2.15-3.63-3-5.63a52,52,0,0,1-2.14-6.2Z"/><path class="cls-27" d="M236.4,312.85c1.1.06,2.2.07,3.29.07a15,15,0,0,1-1.6-4,23.74,23.74,0,0,0-3.81-7.16C233,303,232.91,305.36,232,307s-2.11,3.25-2.51,5.29a.29.29,0,0,1,0,.13C231.37,311.11,234.38,312.75,236.4,312.85Z"/><path class="cls-27" d="M233.55,301.54c-2.66,0-5.32,0-8,0l.48,1.39q1.46,4.29,2.92,8.56c.42-2,1.79-3.59,2.65-5.35C232.34,304.6,232.58,302.8,233.55,301.54Z"/><path class="cls-27" d="M240.35,311.93c1.38-3.68,2.74-7.83,5.1-10.69q-5.14.22-10.29.28C237.6,304.24,238.8,308.39,240.35,311.93Z"/><path class="cls-27" d="M261.77,306.26a44.11,44.11,0,0,0,2.57,6.44c.77-2.67,1.61-5.36,2.45-8a27,27,0,0,1,1.72-4.55q-4.12,0-8.25.23C261.16,302,261.28,304.84,261.77,306.26Z"/><path class="cls-27" d="M269.88,311.94a20.17,20.17,0,0,1,3.13-.56,18.18,18.18,0,0,1-1.37-3.61c-.77-2.44-1.46-4.94-2.29-7.35a72,72,0,0,0-2.52,6.88,44,44,0,0,1-1.82,5.48A45.49,45.49,0,0,0,269.88,311.94Z"/><path class="cls-27" d="M231,317.06c.19.52.37,1,.57,1.55l.75,2c1,2.73,2,5.53,2.94,8.3.22.66,1,4,1.64,4.15l.77.1c.42,0,.85,0,1.27,0,3.51.14,7.16,0,10.58-.07,5-.15,10,0,14.87-1,.73-.15,1.36-.05,1.62-1a36.82,36.82,0,0,1,1.85-4.58c.69-1.63,1.32-3.28,2-4.91l1.29-3.07c.31-.76.62-1.51.94-2.26-6.79.21-13.49,1.19-20.26,1.54S237.86,317.26,231,317.06Z"/><path d="M267.65,291.33q-7.86-.25-15.73,0c-10.28.28-20.56.95-30.85.9a27.17,27.17,0,0,1,2.78,5c1.79-1.51,5.35-.77,7.32-.73,5.13.11,10.33-.63,15.47-.73,5.88-.11,11.74-.55,17.61-.73l9-.23c2.26-.05,4.5.38,6.75.32a.44.44,0,0,1,.3.1c.52-1.45,1-2.91,1.35-4.39C277.08,292.08,272.25,291.48,267.65,291.33Z"/><path class="cls-27" d="M274.11,311.33c1-2.57,2-5.16,3-7.8.38-1.08.8-2.17,1.23-3.26-2.7-.11-5.39-.15-8.09-.14C271.82,303.61,272.1,308.14,274.11,311.33Z"/><path class="cls-26" d="M273.21,296.24c-2.64.1-5.27.1-7.91.13-5.54.08-11.06.34-16.59.45s-11,.7-16.46.64c-1.28,0-2.56-.07-3.85-.06s-3.19-.3-4.2.57c.37.89.72,1.8,1.06,2.73h0c5.12-.05,10.24.14,15.35,0,4.71-.16,9.4-.79,14.1-1.18,2.08-.18,4.15-.32,6.23-.44a173.73,173.73,0,0,1,17.53-.09.49.49,0,0,1,.29.13c.33-.84.66-1.69,1-2.54C277.58,296.62,275.4,296.17,273.21,296.24Z"/><path class="cls-27" d="M267.86,313.37a40.09,40.09,0,0,1-5.64.8c-4.14.2-8.28,0-12.41-.13-4-.14-7.95.12-11.9-.12-2.79-.16-5.6-1.35-8.38-.8l1.05,2.94a.34.34,0,0,1,.2-.06c7-.13,14.06,1.53,21,1s13.62-2,20.54-1.91a.41.41,0,0,1,.23.06c.37-.89.74-1.77,1.1-2.66-.09.24-2.53.32-2.86.37C269.81,313,268.84,313.18,267.86,313.37Z"/><path class="cls-28" d="M234.18,320.92c.11-1.6.8-2.69,2.48-2.55,7.89.66,6.39,17.9,1,12.65C236.28,329.72,234,324.23,234.18,320.92Z"/><path class="cls-29" d="M237.19,325.24a.79.79,0,0,0-.45-.09c-.78,0-.78,1.67,0,1.66a.77.77,0,0,0,.75-.56A.8.8,0,0,0,237.19,325.24Z"/><path class="cls-29" d="M241.45,325.2c-.74,0-.74,1.56,0,1.56S242.18,325.2,241.45,325.2Z"/><path class="cls-29" d="M246.73,324.94c-.8,0-.8,1.69,0,1.69S247.52,324.94,246.73,324.94Z"/><path class="cls-29" d="M252,325.36c-.38-.88-1.45-.12-1.09.76S252.38,326.35,252,325.36Z"/><path class="cls-29" d="M257.24,325.17a.47.47,0,0,1-.05-.1.49.49,0,0,0-.95,0,.47.47,0,0,1-.05.1c-.26.53.09,1.25.53,1.25S257.5,325.7,257.24,325.17Z"/><path class="cls-29" d="M262.21,325.15a.62.62,0,0,0-.65-.43.75.75,0,0,0-.46,1,.92.92,0,0,0,.13.36l0,0C261.78,326.81,262.49,326,262.21,325.15Z"/><path class="cls-29" d="M266.38,326c0-.05,0-.09,0-.14a1.31,1.31,0,0,0-.06-.27.54.54,0,0,0-.09-.12.53.53,0,0,0-.42-.28,2.43,2.43,0,0,0-.53.08c-.53.12-.53,1.34,0,1.46a2,2,0,0,0,.53.08.54.54,0,0,0,.42-.27,1,1,0,0,0,.09-.13,1.31,1.31,0,0,0,.06-.27C266.36,326.07,266.38,326,266.38,326Z"/></g></g></svg>