<svg xmlns="http://www.w3.org/2000/svg" viewBox="0 0 687.07 798.08"><defs><style>.cls-1{fill:#c35a3b;}.cls-1,.cls-10,.cls-2,.cls-3,.cls-4,.cls-5,.cls-6,.cls-7,.cls-8,.cls-9{fill-rule:evenodd;}.cls-2{fill:#df8049;}.cls-3{fill:#eba75f;}.cls-4{fill:#f4b66a;}.cls-5{fill:#f8c06c;}.cls-6{fill:#f9c87c;}.cls-7{fill:#6c3f31;}.cls-8{fill:#894c33;}.cls-9{fill:#ab715b;}.cls-10{fill:#523227;}</style></defs><g id="Layer_3" data-name="Layer 3"><path class="cls-1" d="M429.65,83.64s4.64-3.24-14.23-6.71h0a46,46,0,0,1-44.24,26.31,46,46,0,0,1-55.8,33.63,46,46,0,0,1-61.81,20.6,46.06,46.06,0,0,1-53.69,14.9c-5.95,8.43-10.74,17.65-12.18,26.74-4.71,29.7,73.79,37.76,73.79,37.76l83.18-15.44,74.14-47.64,8.71-62.64Z"/><path class="cls-1" d="M642.13,207.62a29.5,29.5,0,0,0-1.71-14.06,46.1,46.1,0,0,1-41.25-20.42A46.07,46.07,0,0,1,539,154a46,46,0,0,1-58.28-29.12A46,46,0,0,1,430.28,83.7l-.63-.06a46,46,0,0,1-48.3,40.29,46,46,0,0,1-19.23,27.32L472.79,287.38l87.68-8.3Z"/><path class="cls-1" d="M529.56,424.4S478,447.34,445.48,466.08s-51.7,5.72-95.79-11.71-47-17.73-85.56-48.92-51.22-30.8-57.09-63.21-15.91-32.6-25.51-63.23c-9.14-29.17-1.21-50.94,6.17-79.9a45.77,45.77,0,0,0,13.8-10.52,46.05,46.05,0,0,0,62.23-10.43,46,46,0,0,0,61.82-20.59,46,46,0,0,0,55.8-33.64A46.06,46.06,0,0,0,420.48,106,46,46,0,0,0,470,141.49a46,46,0,0,0,58.28,29.13,46.06,46.06,0,0,0,60.13,19.12,46.07,46.07,0,0,0,48,19.49c-.34,8.8,0,19.78,2.29,35.65,6.68,46.43-5.71,77.76-26.22,102.81-21,25.63-36.69,66.61-83,76.71"/><path class="cls-2" d="M602.76,339.72s-11.91,29.57-34.09,50.06-35.24,35.85-54.2,40.45-20.81,31.8-50.05,27.32-36.92,6.09-65.07,10.66-25.7-1.91-53.14-15.22-71.52-40.66-98.71-66.05S195.36,298,182.68,264.54c-9.72-25.68,6-48.26,16.69-73.72.74-.72,1.45-1.46,2.13-2.23a46.05,46.05,0,0,0,62.23-10.43,46,46,0,0,0,61.82-20.59,46,46,0,0,0,55.8-33.64A46.06,46.06,0,0,0,420.48,106,46,46,0,0,0,470,141.49a46,46,0,0,0,58.28,29.13,46.06,46.06,0,0,0,60.13,19.12,46.07,46.07,0,0,0,53.69,17.88c0,.78,0,1.54,0,2.29-.61,24.08-16,31.47-15.6,64.54s-14.34,46.65-23.8,65.27"/><path class="cls-3" d="M597,322.34S578.8,369,549.23,383.39s-41.8,45.7-80.26,57.21-50.68,17.93-91.65,4.12S315,433.51,296.78,419.21,271,399,243.46,369.33s-31.58-35.51-39.7-60.15-16.68-42.9-9.6-83.05c2.23-12.66,6.67-23.87,12.28-34.68a46,46,0,0,0,57.29-13.29,46,46,0,0,0,61.82-20.59,46,46,0,0,0,55.8-33.64A46.06,46.06,0,0,0,420.48,106,46,46,0,0,0,470,141.49a46,46,0,0,0,58.28,29.13,46.06,46.06,0,0,0,60.13,19.12,46.16,46.16,0,0,0,32.11,20.11C626,244.24,624.32,285,597,322.34"/><path class="cls-4" d="M604.61,250.29s-27.7,44.29-31.94,74-27.82,43.18-56.58,55.65-36.72,39.23-63.51,40.24-50.67,21.3-78.4,14.58-54-38.29-69.86-39.72S255.38,370.69,243,347s-25.75-41.15-37.52-73.36c-9.78-26.77,2.84-47.75,11.5-78.39a46,46,0,0,0,46.78-17.05,46,46,0,0,0,61.82-20.59,46,46,0,0,0,55.8-33.64A46.06,46.06,0,0,0,420.48,106,46,46,0,0,0,470,141.49a46,46,0,0,0,58.28,29.13,46.06,46.06,0,0,0,60.13,19.12,45.89,45.89,0,0,0,13.33,13.14,46.64,46.64,0,0,0,6.23,3.39c6.44,14.55,8,26.66,5.7,31.14a60.64,60.64,0,0,1-9.09,12.88"/><path class="cls-5" d="M560.47,279.08s-10.25,5.59-8,16.64-3.38,35-21.26,37.76S501.33,388.63,474,401.92s-54.66,1.43-70,15.95-41.44.76-64.51-12.27-41.94-42.74-61.11-48.88-48.53-39.4-43.32-63.6-15.16-64.6-4.46-83.09c2.16-3.74,3.73-8.77,5.14-14.5a46.09,46.09,0,0,0,28-17.37,46,46,0,0,0,61.82-20.59,46,46,0,0,0,55.8-33.64A46.06,46.06,0,0,0,420.48,106,46,46,0,0,0,470,141.49a46,46,0,0,0,58.28,29.13,45.8,45.8,0,0,0,15.23,16.26,46.47,46.47,0,0,0,5.72,3.15,32,32,0,0,0,8.36,5.48c24.29,11.32,30.53,43.22,2.85,83.57"/><path class="cls-6" d="M485.32,332.87s9-30-10.47-32.65-12.24-26.31-20.22-38.88S408.27,266,392.49,247s-41.05-38.1-65.36-16.37S274,229.94,261.43,256s2,44.67,21.23,56.73,1.62,32.52,27.34,53.38,47,9.19,68.33,28.66,64.87,18.36,78.67,3,38.87-24.34,28.32-64.95"/><path class="cls-4" d="M538.87,183.43a7.93,7.93,0,0,1-2.54,1,8.14,8.14,0,0,1-1.22.11l-.66,0-.38-.05-.76-.1-.8-.12c-1-.18-2-.39-2.86-.57a22.54,22.54,0,0,0-2.34-.4,7.83,7.83,0,0,0-2,0,7.1,7.1,0,0,0-.94.18l-.46.12-.42.14c-.57.17-1.06.41-1.49.56l-1,.44-.37.15s0-.13.16-.36a9.09,9.09,0,0,1,.5-1,9.88,9.88,0,0,1,1-1.44,6.62,6.62,0,0,1,.79-.81,8.25,8.25,0,0,1,3.81-1.93,14.2,14.2,0,0,1,3.17-.31c.52,0,1,0,1.54.05s1,.06,1.47.09l1.44.1a44.67,44.67,0,0,0,4.32,4.15"/><path class="cls-4" d="M468.09,239.46l-.24.31c-.17.19-.4.5-.73.84a19.84,19.84,0,0,1-3,2.56,19.5,19.5,0,0,1-5,2.59,12.45,12.45,0,0,1-1.6.44,11,11,0,0,1-1.79.26,8.48,8.48,0,0,1-4.15-.69,6.88,6.88,0,0,1-1.07-.64c-.17-.13-.31-.23-.51-.4l-.29-.26-.55-.53-.58-.57c-.73-.74-1.38-1.48-2-2.14s-1.13-1.22-1.67-1.7a8.34,8.34,0,0,0-1.63-1.15,6.17,6.17,0,0,0-.87-.4l-.44-.17c-.14-.06-.29-.09-.43-.14-.56-.19-1.09-.29-1.54-.42L439,237l-.39-.1.34-.2a9.73,9.73,0,0,1,1-.51,9.58,9.58,0,0,1,1.68-.57,6.13,6.13,0,0,1,1.11-.18,7.86,7.86,0,0,1,1.3,0,8.88,8.88,0,0,1,2.93.71,14.43,14.43,0,0,1,2.74,1.62c.42.3.83.62,1.21.94s.78.63,1.15.94l1.12.94.29.24.09.06a2,2,0,0,0,.26.15,4.62,4.62,0,0,0,1.79.35,11.88,11.88,0,0,0,1.19,0c.21,0,.42,0,.63-.05l.63-.07c1.69-.2,3.39-.55,4.87-.84s2.76-.55,3.68-.71c.46-.09.83-.13,1.08-.18l.39,0"/><path class="cls-5" d="M318.24,340.85s0,.14,0,.39,0,.64-.09,1.11a19.94,19.94,0,0,1-.85,3.82,19.53,19.53,0,0,1-2.49,5.07,11.15,11.15,0,0,1-1,1.31,10.94,10.94,0,0,1-1.27,1.28,8.46,8.46,0,0,1-3.76,1.91,7,7,0,0,1-1.22.13c-.23,0-.39,0-.66,0l-.38,0-.76-.09-.81-.12c-1-.16-2-.37-2.86-.54a22.31,22.31,0,0,0-2.34-.37,7.36,7.36,0,0,0-2,.05,7.11,7.11,0,0,0-.94.19l-.45.12c-.15,0-.29.11-.43.15-.57.18-1,.42-1.49.58l-1,.44-.37.16.15-.37c.11-.22.25-.59.49-1a9.6,9.6,0,0,1,1-1.45,6.53,6.53,0,0,1,.78-.81,8,8,0,0,1,1-.8,8.2,8.2,0,0,1,2.77-1.18,14.24,14.24,0,0,1,3.17-.34c.51,0,1,0,1.53,0s1,0,1.48.07l1.46.09.38,0s.07,0,.1,0a1.6,1.6,0,0,0,.3,0,4.68,4.68,0,0,0,1.65-.78,11.89,11.89,0,0,0,.95-.72,6.14,6.14,0,0,0,.47-.42l.47-.42c1.24-1.18,2.39-2.47,3.41-3.59s1.89-2.08,2.53-2.76c.31-.34.59-.6.76-.79l.28-.27"/><path class="cls-5" d="M334.71,282.6l.29-.27c.2-.17.48-.42.87-.7a20.14,20.14,0,0,1,3.37-2,19.38,19.38,0,0,1,5.38-1.67,12.62,12.62,0,0,1,1.66-.16,11.14,11.14,0,0,1,1.81.06,8.53,8.53,0,0,1,4,1.41,7.1,7.1,0,0,1,.93.81,5.56,5.56,0,0,1,.44.49l.23.3.46.62.47.66c.59.87,1.09,1.7,1.57,2.46s.9,1.4,1.34,2a7.59,7.59,0,0,0,1.41,1.42,6.78,6.78,0,0,0,.78.54l.4.26.4.2c.52.29,1,.48,1.44.68l1,.42.36.16a3,3,0,0,1-.36.14c-.25.07-.61.22-1.08.34a10.16,10.16,0,0,1-1.75.25,6.24,6.24,0,0,1-1.14,0,7.67,7.67,0,0,1-1.27-.19,8.65,8.65,0,0,1-2.76-1.21,14.28,14.28,0,0,1-2.43-2.07c-.36-.37-.7-.77-1-1.14s-.65-.76-1-1.12l-.94-1.13-.24-.29s-.07-.05-.08-.07-.16-.12-.23-.2a4.94,4.94,0,0,0-1.71-.66c-.37-.07-.76-.15-1.17-.19a6.2,6.2,0,0,0-.62-.06l-.64-.05c-1.7-.09-3.43,0-4.94,0s-2.82.06-3.75.05c-.46,0-.84,0-1.09,0h-.4"/><path class="cls-3" d="M564.52,285.59l.5.08c.31.06.8.15,1.38.3a25.68,25.68,0,0,1,4.66,1.76,24.91,24.91,0,0,1,5.94,4,14.3,14.3,0,0,1,1.47,1.53,13.89,13.89,0,0,1,1.38,1.83,10.86,10.86,0,0,1,1.75,5.07,8.15,8.15,0,0,1-.06,1.56c0,.28-.07.5-.14.83l-.12.47L581,304c-.1.33-.2.66-.29,1-.39,1.28-.82,2.44-1.19,3.51a27.54,27.54,0,0,0-.88,2.89,10.21,10.21,0,0,0-.3,2.53,9.87,9.87,0,0,0,.08,1.22c0,.2,0,.39.07.59s.08.37.11.56c.13.74.34,1.4.47,2l.39,1.32c.09.32.13.5.13.5l-.44-.26c-.26-.18-.7-.42-1.18-.8a11.74,11.74,0,0,1-1.65-1.54,8.24,8.24,0,0,1-.89-1.13,9.6,9.6,0,0,1-.82-1.43,11.24,11.24,0,0,1-1-3.7,18.25,18.25,0,0,1,.14-4.05c.08-.65.2-1.29.31-1.92s.24-1.25.36-1.85.25-1.21.37-1.82l.1-.48s0-.09,0-.13,0-.25,0-.38a6.21,6.21,0,0,0-.7-2.22,13.59,13.59,0,0,0-.74-1.32c-.13-.23-.28-.45-.43-.67l-.46-.66c-1.26-1.77-2.68-3.45-3.91-4.93s-2.29-2.75-3-3.68c-.37-.46-.65-.85-.85-1.1l-.3-.4"/><path class="cls-3" d="M194.49,279a5,5,0,0,1,.09-.49c.08-.32.18-.79.36-1.37a26,26,0,0,1,1.94-4.59,25.3,25.3,0,0,1,4.26-5.78,15.64,15.64,0,0,1,1.58-1.41,13.64,13.64,0,0,1,1.89-1.3,10.78,10.78,0,0,1,5.13-1.55,10.25,10.25,0,0,1,1.56.12c.28.06.49.09.82.17l.46.14.94.29,1,.33c1.26.44,2.4.91,3.46,1.32a28.25,28.25,0,0,0,2.85,1,10.22,10.22,0,0,0,2.51.39,8.22,8.22,0,0,0,1.22,0l.59,0c.2,0,.38-.06.57-.09.75-.09,1.41-.28,2-.39l1.34-.33.49-.11s-.09.16-.27.43-.45.68-.85,1.15a12,12,0,0,1-1.6,1.59,8.47,8.47,0,0,1-1.16.84,8.69,8.69,0,0,1-1.46.76,10.86,10.86,0,0,1-3.74.85,17.54,17.54,0,0,1-4-.3c-.65-.1-1.29-.25-1.91-.39s-1.24-.28-1.83-.42l-1.81-.44-.47-.12s-.1,0-.14,0a2.22,2.22,0,0,0-.37,0,6.14,6.14,0,0,0-2.25.61c-.43.2-.89.42-1.35.69a6.82,6.82,0,0,0-.68.41l-.69.42c-1.81,1.2-3.54,2.55-5.07,3.71s-2.84,2.19-3.8,2.89c-.47.35-.87.61-1.13.81l-.41.28"/><path class="cls-4" d="M348.37,157.42c-2.32,2-4.11,3.74-5,5.83a10,10,0,0,0-.56,1.7,8.55,8.55,0,0,0-.17.88l-.06.45,0,.23v.17c-.06,1.43-.12,2.81-.19,4.13s0,2.46,0,3.63.17,2.27.22,3.33.24,2,.32,2.94.25,1.76.38,2.51.26,1.43.39,2,.22,1.09.33,1.49c.2.8.32,1.24.32,1.24s-.26-.37-.68-1.09c-.23-.37-.46-.82-.75-1.36-.14-.27-.3-.56-.45-.88s-.3-.66-.45-1c-.32-.72-.69-1.52-1-2.42a30,30,0,0,1-1-2.92c-.15-.53-.3-1.09-.46-1.65a17.81,17.81,0,0,1-.44-1.78c-.24-1.23-.51-2.56-.73-3.93s-.27-2.69-.42-4.12l0-.13v-1.18c0-.42.05-.85.07-1.29a14.94,14.94,0,0,1,.52-2.65,13.79,13.79,0,0,1,1.11-2.71,46.06,46.06,0,0,0,8.73-1.42"/><path class="cls-5" d="M477.14,297.22a8,8,0,0,1,.39,1,14.21,14.21,0,0,1,.61,3.1,16.69,16.69,0,0,1-.23,5,18,18,0,0,1-2.53,6.17l-.5.79c-.18.27-.4.5-.59.76l-.62.76-.31.38-.35.36L471.63,317l-.7.67c-.22.22-.34.4-.52.59a10.7,10.7,0,0,0-1.7,2.75,12.35,12.35,0,0,0-.76,3.31c-.1,1.24-.12,2.58-.14,4.06a27.69,27.69,0,0,1-.36,4.82,15.51,15.51,0,0,1-1.76,5.12,17.56,17.56,0,0,1-3.36,4.24l-.49.43-.25.21-.13.11-.06.05-.13.11-.91.69-1.18.79c-.39.24-.79.45-1.19.67a14.45,14.45,0,0,1-5.32,1.54,17,17,0,0,1-5.2-.39c-1.58-.34-3-.79-4.35-1.2-2.65-.82-4.87-1.32-6.88-1a8.49,8.49,0,0,0-1.48.39c-.24.1-.49.17-.72.29l-.35.17-.17.09s-.09.05,0,0l0,0,0,0-.09.06-3.06,1.8c-.92.59-1.75,1.19-2.58,1.73s-1.56,1.19-2.29,1.72-1.35,1.12-2,1.62-1.14,1-1.62,1.44-.91.86-1.27,1.22-.68.67-.91.94c-.49.52-.74.81-.74.81s.14-.35.46-1c.16-.33.38-.71.63-1.17.13-.23.26-.48.41-.74l.52-.8c.37-.57.78-1.2,1.27-1.85s1-1.39,1.64-2.09l1-1.11c.34-.37.67-.78,1.07-1.15.78-.75,1.61-1.56,2.48-2.36l2.76-2.24.09-.07,0,0,0,0,.09-.06.22-.15.46-.3c.29-.2.63-.36,1-.55a12.29,12.29,0,0,1,2.14-.87,13.61,13.61,0,0,1,4.75-.5,27.48,27.48,0,0,1,4.5.71c1.43.3,2.77.64,4.05.84a15.56,15.56,0,0,0,1.86.18,9.28,9.28,0,0,0,5-1.11l.77-.45.7-.47.9-.7-.05,0,0,0,0,0,.09-.08.18-.16.36-.32a10.91,10.91,0,0,0,3.54-6.11,32.8,32.8,0,0,0,.48-4,40.25,40.25,0,0,1,.46-4.56,15.91,15.91,0,0,1,1.55-4.68,14.07,14.07,0,0,1,2.92-3.75c.29-.25.61-.55.87-.75l.76-.57.74-.57.68-.51.33-.25.31-.28.59-.55c.2-.19.41-.36.59-.56l.52-.58a17.77,17.77,0,0,0,3.08-4.8,18.07,18.07,0,0,0,1.23-4.39,18.8,18.8,0,0,0,.21-3,10.44,10.44,0,0,0-.06-1.09"/><path class="cls-4" d="M415,218.34s-.24-.14-.71-.36a17,17,0,0,0-2.06-.76,24.72,24.72,0,0,0-3.24-.71,29.61,29.61,0,0,0-4.22-.32c-.77,0-1.58,0-2.4,0s-1.68.11-2.56.23-1.78.2-2.69.39c-.45.08-.92.17-1.38.23-.63.1-1,.18-1.6.25a21.55,21.55,0,0,1-3.61.14,13.59,13.59,0,0,1-3.92-.79,10.48,10.48,0,0,1-3.76-2.37,11.57,11.57,0,0,1-2.43-3.63,21.38,21.38,0,0,1-1.49-7.32c-.06-1.15-.06-2.26,0-3.35s.06-2.14.13-3.17c0-.51.07-1,.1-1.52v-.64l0-.38V194a4.77,4.77,0,0,0,0-.53c0-.19,0-.38-.05-.57a10.91,10.91,0,0,0-.19-1.12,10.3,10.3,0,0,0-1.86-3.92,16.33,16.33,0,0,0-2.86-2.89,25.22,25.22,0,0,0-2.75-1.88c-.81-.47-1.47-.84-1.94-1.06l-.71-.35s.28,0,.8,0a17.14,17.14,0,0,1,2.28.25,18.6,18.6,0,0,1,3.49,1,15.77,15.77,0,0,1,4.23,2.45,12.89,12.89,0,0,1,4.27,6.53c.07.28.14.56.22.84s.1.62.16.93a13.45,13.45,0,0,1,.16,1.68c0,.5.05,1,.08,1.51.06,1,.11,2,.16,3s.14,2,.23,3a19.42,19.42,0,0,0,1.18,5.32,5,5,0,0,0,2.74,2.89,9.49,9.49,0,0,0,2.27.62,22.51,22.51,0,0,0,2.59.16l3-.1c1-.05,2.07,0,3.06,0,.49,0,1,.08,1.46.13s1,.09,1.42.16c.93.19,1.81.29,2.65.54a23.23,23.23,0,0,1,4.47,1.58,18,18,0,0,1,3.09,1.88,12.76,12.76,0,0,1,1.7,1.57,5.66,5.66,0,0,1,.5.64"/><path class="cls-5" d="M327.51,225.35s-.24.16-.68.41a17.75,17.75,0,0,1-2,.93,25.47,25.47,0,0,1-3.18,1,28.83,28.83,0,0,1-4.17.68c-.77.09-1.59.1-2.4.15s-1.69,0-2.57,0-1.79-.05-2.71-.16c-.46,0-.93-.09-1.4-.12-.64,0-1-.09-1.61-.11a20.92,20.92,0,0,0-3.61.16,13.12,13.12,0,0,0-3.84,1.12,10.46,10.46,0,0,0-3.55,2.67,11.72,11.72,0,0,0-2.13,3.82,21.68,21.68,0,0,0-.86,7.42c0,1.15.13,2.26.25,3.34s.24,2.13.4,3.15c.07.5.15,1,.22,1.5l0,.1v0s0,.11,0-.08v.05l0,.19,0,.37.05.37,0,.27c0,.17,0,.34,0,.52v.58c0,.38,0,.76-.1,1.13a10.51,10.51,0,0,1-1.53,4.07,16.21,16.21,0,0,1-2.61,3.11,25.42,25.42,0,0,1-2.57,2.11c-.78.54-1.41,1-1.85,1.22l-.69.4a6.77,6.77,0,0,0,.81-.07,18.15,18.15,0,0,0,2.25-.43A18.42,18.42,0,0,0,291,264a15.68,15.68,0,0,0,4-2.8,12.89,12.89,0,0,0,3.27-5.2,11.24,11.24,0,0,0,.44-1.66c.05-.28.1-.57.14-.86s.06-.62.08-.94a13.42,13.42,0,0,0,0-1.68c0-.5,0-1,0-1.51,0-1-.07-2-.1-3.05s0-2,0-3a19.45,19.45,0,0,1,.72-5.4,5,5,0,0,1,2.5-3.12,10.29,10.29,0,0,1,2.2-.81,25.24,25.24,0,0,1,2.57-.37l3-.15c1,0,2.06-.16,3-.29.49,0,1-.16,1.45-.25s.95-.17,1.4-.28c.91-.26,1.79-.44,2.61-.76a23.09,23.09,0,0,0,4.31-1.95,18.32,18.32,0,0,0,2.92-2.13,11.72,11.72,0,0,0,1.56-1.71,5.25,5.25,0,0,0,.45-.67"/><path class="cls-4" d="M219.83,218.08s.21-.13.56-.38a15,15,0,0,0,1.42-1.22,22.8,22.8,0,0,0,1.88-2.12,24.55,24.55,0,0,0,2-3c.35-.55.64-1.19,1-1.81s.62-1.29.9-2,.58-1.41.82-2.17c.13-.37.26-.75.4-1.12s.28-.81.48-1.29a17.31,17.31,0,0,1,1.39-2.75,11.76,11.76,0,0,1,2.21-2.59,9.06,9.06,0,0,1,3.33-1.82,9.88,9.88,0,0,1,3.71-.31,18.51,18.51,0,0,1,6.07,1.94c.88.43,1.71.89,2.51,1.36s1.56.94,2.3,1.42l1.09.7.07.05h0l-.05,0,0,0,.14.08.27.16.27.17.21.11.39.21.45.2a8.23,8.23,0,0,0,.91.32,8.77,8.77,0,0,0,3.7.24,13.33,13.33,0,0,0,3.33-.93,21.46,21.46,0,0,0,2.54-1.26c.69-.41,1.24-.75,1.6-1l.56-.39s-.1.21-.34.6a16.17,16.17,0,0,1-1.13,1.59,15.25,15.25,0,0,1-2.17,2.19,13.19,13.19,0,0,1-3.58,2.13,11,11,0,0,1-5.19.72,10.3,10.3,0,0,1-1.44-.24l-.72-.19-.76-.27a13.83,13.83,0,0,1-1.32-.57l-1.16-.57-2.33-1.14c-.78-.37-1.56-.73-2.33-1.07a16,16,0,0,0-4.45-1.34,4.28,4.28,0,0,0-3.29.84,7.94,7.94,0,0,0-1.4,1.43,18.52,18.52,0,0,0-1.2,1.87l-1.16,2.27c-.39.79-.85,1.54-1.3,2.26-.21.36-.46.7-.7,1s-.46.67-.71,1c-.52.61-1,1.23-1.5,1.76a19.83,19.83,0,0,1-3,2.66,14.85,14.85,0,0,1-2.69,1.53,11.16,11.16,0,0,1-1.87.61,4.23,4.23,0,0,1-.68.11"/><path class="cls-4" d="M440.68,152.82s.24,0,.67-.09a16.18,16.18,0,0,0,1.8-.49,19.65,19.65,0,0,0,2.61-1.09,24.17,24.17,0,0,0,3.1-1.86c.55-.35,1.09-.79,1.65-1.21s1.12-.9,1.67-1.41,1.14-1,1.69-1.59c.27-.28.55-.57.84-.84s.61-.61,1-1a17.41,17.41,0,0,1,2.45-1.87l.32-.19a45.43,45.43,0,0,0,10.67.35q.67.48,1.26,1a46,46,0,0,0,9.42,15.57,10.87,10.87,0,0,1-3.28-1.34,9.6,9.6,0,0,1-1.19-.85l-.57-.48c-.18-.17-.37-.38-.56-.57a12.23,12.23,0,0,1-1-1.08l-.79-1-1.61-2c-.54-.67-1.09-1.33-1.64-2a15.78,15.78,0,0,0-3.43-3.12,4.28,4.28,0,0,0-3.33-.68,9,9,0,0,0-1.88.68,19.79,19.79,0,0,0-1.88,1.17l-2,1.54a24.11,24.11,0,0,1-2.15,1.47c-.34.24-.72.43-1.08.64s-.71.4-1.07.58c-.73.33-1.4.69-2.11.93a20.62,20.62,0,0,1-3.89,1.09,15.28,15.28,0,0,1-3.08.21,11.29,11.29,0,0,1-2-.25,4.26,4.26,0,0,1-.66-.21"/><path class="cls-5" d="M408.15,236s.12.2.38.55a17,17,0,0,0,1.23,1.41,20.7,20.7,0,0,0,2.14,1.86,24.12,24.12,0,0,0,3,2c.55.34,1.19.62,1.81.94s1.3.61,2,.88,1.41.58,2.17.81c.38.12.75.25,1.13.39s.81.27,1.29.46a17.72,17.72,0,0,1,2.76,1.37,11.47,11.47,0,0,1,2.61,2.19,9,9,0,0,1,1.85,3.31,9.91,9.91,0,0,1,.34,3.71,18,18,0,0,1-1.88,6.09c-.42.88-.87,1.71-1.34,2.52s-.92,1.57-1.39,2.31l-.7,1.1,0,.07h0s-.05.09,0-.06l0,0-.08.14-.16.27-.17.27-.1.21c-.07.13-.15.25-.22.39s-.13.31-.19.45c-.11.31-.23.61-.31.92a8.76,8.76,0,0,0-.21,3.7,13.91,13.91,0,0,0,1,3.33,21.6,21.6,0,0,0,1.29,2.52c.41.69.76,1.24,1,1.59l.39.55a6.49,6.49,0,0,1-.6-.33,14.22,14.22,0,0,1-1.6-1.11,16.1,16.1,0,0,1-2.22-2.15,13.5,13.5,0,0,1-2.16-3.56,11,11,0,0,1-.77-5.19,10.27,10.27,0,0,1,.23-1.44c.06-.24.13-.48.19-.72s.17-.51.26-.76a13.81,13.81,0,0,1,.55-1.33c.19-.38.37-.77.56-1.16l1.12-2.34c.37-.78.72-1.57,1.06-2.34a16.42,16.42,0,0,0,1.29-4.46,4.28,4.28,0,0,0-.87-3.29,8.32,8.32,0,0,0-1.44-1.39,18.37,18.37,0,0,0-1.88-1.17l-2.28-1.15c-.8-.39-1.55-.83-2.27-1.27-.36-.21-.7-.46-1.05-.7s-.67-.45-1-.69c-.61-.52-1.24-1-1.77-1.49a19.07,19.07,0,0,1-2.69-3,14.65,14.65,0,0,1-1.55-2.67,10.93,10.93,0,0,1-.63-1.86,3.14,3.14,0,0,1-.11-.68"/><path class="cls-4" d="M354.93,420.39l4.28,3.05a5.51,5.51,0,0,1,.63-.94,15.34,15.34,0,0,1,3.53-3c.71-.47,1.44-.92,2.17-1.38l2.22-1.34,1.11-.66a12.36,12.36,0,0,0,1.19-.8c.22-.16.45-.33.64-.49l.55-.5a10.05,10.05,0,0,0,1-1.08,11.12,11.12,0,0,0,2.21-4.75,13.27,13.27,0,0,0,.16-4.16,15.57,15.57,0,0,0-.67-3,16.81,16.81,0,0,0-.72-1.81,5.26,5.26,0,0,0-.33-.6s0,.23,0,.67,0,1.09,0,1.89a22.33,22.33,0,0,1-.32,2.82,13.75,13.75,0,0,1-1,3.3,8.75,8.75,0,0,1-2.21,3,9.12,9.12,0,0,1-.76.6c-.14.09-.28.17-.41.27l-.4.21-.2.11-.29.14L367,412l-.14.07,0,0,.06,0h0l-.08,0-1.18.53c-.8.36-1.61.75-2.44,1.17s-1.67.85-2.51,1.36a18.33,18.33,0,0,0-4.92,4.05,12.48,12.48,0,0,0-.8,1.16"/><path class="cls-3" d="M537.6,377.91l-2.34,4.7a5.52,5.52,0,0,0-1-.53,15.44,15.44,0,0,0-4.53-1c-.84-.08-1.7-.14-2.56-.19l-2.6-.14-1.28-.06a13.32,13.32,0,0,1-1.43-.14l-.79-.14-.73-.18a9.42,9.42,0,0,1-1.38-.49,11.14,11.14,0,0,1-4.19-3.14,13.37,13.37,0,0,1-2.09-3.61,15,15,0,0,1-1-4.91c0-.45,0-.69,0-.69l.29.62c.2.39.51,1,.92,1.65a21.89,21.89,0,0,0,1.6,2.33,13.87,13.87,0,0,0,2.46,2.44,8.93,8.93,0,0,0,3.35,1.58,7.69,7.69,0,0,0,1,.16l.49.05h1.55l1.29-.09q1.32-.09,2.7-.12c.93,0,1.88,0,2.86,0a18.2,18.2,0,0,1,6.24,1.26,10,10,0,0,1,1.26.65"/><path class="cls-5" d="M406.84,412.55l-5.23.48a6.46,6.46,0,0,0-.07-1.13,16.13,16.13,0,0,0-1.54-4.38c-.37-.75-.78-1.52-1.18-2.28L397.57,403c-.21-.39-.42-.76-.62-1.14a10.84,10.84,0,0,1-.63-1.28c-.11-.25-.22-.51-.3-.75s-.16-.47-.23-.71a11.36,11.36,0,0,1-.31-1.43,11.2,11.2,0,0,1,.47-5.21,13.37,13.37,0,0,1,2-3.68A14.93,14.93,0,0,1,400,386.5a13.41,13.41,0,0,1,1.54-1.2c.37-.25.58-.36.58-.36s-.13.19-.36.57a18.35,18.35,0,0,0-.93,1.64,21.39,21.39,0,0,0-1.15,2.6,13.65,13.65,0,0,0-.77,3.37,8.76,8.76,0,0,0,.42,3.68,8.44,8.44,0,0,0,.36.9c.07.14.14.29.22.43a3.64,3.64,0,0,0,.23.39l.12.2.18.26.17.27.09.13,0,0,0-.05h0l.05.07.75,1.06c.52.71,1,1.45,1.53,2.23s1,1.58,1.48,2.44a18.35,18.35,0,0,1,2.21,6,10.74,10.74,0,0,1,.11,1.41"/><path class="cls-3" d="M513.26,253.29c2.71,6.22,5.18,21.64-7.71,26S467,274.38,484,255.81s26.13-9.77,29.29-2.52"/><path class="cls-3" d="M589.47,235.3s-13.31,30.48-34.23,19.46c-16-8.45-13.54-48.79-1.5-62.93A46,46,0,0,0,577,193.47c13.12,10,14.57,25,12,41.51Z"/><path class="cls-3" d="M537.5,328.84c1.28-5.36,1.23-16-10.76-19.23s-41.4,23.17-27,34.72,31.86,9.38,37.8-15.49"/><path class="cls-3" d="M412.79,150s-13.85-19.65-28.05-8.8-.33,46.25,17.56,36.79,14.11-19.09,10.49-28"/><path class="cls-3" d="M273.64,215.38s16.53,2.46,10.85,12.7-18.2,9.74-18.69,2.09,1-13.34,7.84-14.79"/><path class="cls-3" d="M297.49,311.15s5.07,13.43-8.45,22.5-38.39-2.72-41.68-25.19,10.75-39.5,28.12-29,20.47,25.34,22,31.65"/><path class="cls-3" d="M344.82,308.05s6.19,10.22-1,14.17-19.78-2.64-14.42-12.61,11.25-8.89,15.4-1.56"/><path class="cls-3" d="M430.73,297S410,274.22,392.1,287.65s-24,44,1.15,50.89c26.23,7.18,54.33-21,37.48-41.54"/><path class="cls-3" d="M367.9,371.51s-11.45-16.72-23.42-4.26-3.73,29.83,10.95,26.51,20.27-10.49,12.47-22.25"/><path class="cls-3" d="M451.89,380.19s-8.42-12.62-18.18-.65,1.92,27.48,12.66,20.52,9.22-14.19,5.52-19.87"/><path class="cls-3" d="M369.56,236.1c0-6.65-6.22-19.1-14.74-20.43S315.05,234.75,332.39,253s37.12,14.34,37.17-16.94"/><path class="cls-3" d="M475.51,196s.15,20.12-16.32,27.1-48-25.56-18.85-39.84,30.45-2.55,35.17,12.74"/><path class="cls-7" d="M579.3,193c3.19,2.22,14.27,11.62,11.79,33.74-2.89,25.79-19.21,33.5-34.08,23.34-11.08-7.56-9.91-44.64,3.43-56.51A46.24,46.24,0,0,0,579.3,193"/><path class="cls-8" d="M585,209.26s-7.49-7.75-16.62-4.42-16.08,35.84-4.63,43.24,19.78.74,22.27-13,4.21-17.37-1-25.79"/><path class="cls-9" d="M580.58,240.64s-.09-6.42-4.34-6.47S566,244.75,571.55,246.3s7.7-1.28,9-5.66"/><path class="cls-7" d="M344.15,261.27s-12.8-6.28-11-24.24,14.92-23,27.22-15.56,7.78,51.57-16.23,39.8"/><path class="cls-8" d="M338.47,249.37s6.25,5.58,13.61,3.45,12.32-24.69,2.85-30.12-16.09-.94-17.83,8.63-3.06,12,1.37,18"/><path class="cls-9" d="M341.08,229.43s.07,5.24,3.54,5.29,8.39-8.64,3.83-9.91-6.29,1-7.37,4.62"/><path class="cls-7" d="M518,350s20.06-6.14,20.27-19.58-18.77-19.35-29-13.05S500.06,352.85,518,350"/><path class="cls-8" d="M533.21,336.31s-6.61-11.57-16.32-11S504.45,343,511.2,346.48s15.25-1.93,22-10.17"/><path class="cls-9" d="M519.55,344s-.32-8.92-6.19-7.72-2.12,13.87,6.19,7.72"/><path class="cls-7" d="M473.32,192.85s-15.56-17.63-29.38-11.61-11,28.12.11,35.59,40.47-7.05,29.27-24"/><path class="cls-8" d="M452.29,183.61s-8.74,12.11-3.69,21.76,23.81,4.5,24.27-4-9-14.66-20.58-17.75"/><path class="cls-9" d="M466.43,194s-8.95,4.45-5,9.88,15.13-4.26,5-9.88"/><path class="cls-7" d="M282.37,221.88s-6.89-7.81-13-5.14-4.89,12.45.05,15.77,17.93-3.13,13-10.63"/><path class="cls-8" d="M273.06,217.79s-3.88,5.36-1.64,9.64,10.55,2,10.75-1.78-4-6.5-9.11-7.86"/><path class="cls-9" d="M279.32,222.4s-4,2-2.22,4.37,6.71-1.89,2.22-4.37"/><path class="cls-7" d="M346.68,316.73s.22-10.42-6.09-12.6-12,5.84-10.65,11.63,15.31,9.85,16.74,1"/><path class="cls-8" d="M342.6,307.4s-6.48,1.33-7.73,6,6.41,8.61,9.11,6,1.45-7.49-1.38-12"/><path class="cls-9" d="M344.09,315s-4.26-1.24-4.6,1.72,6.21,3.15,4.6-1.72"/><path class="cls-7" d="M513.82,258.29s-12.31-14-23.24-9.19-8.74,22.24.08,28.16,32-5.58,23.16-19"/><path class="cls-8" d="M497.18,251s-6.91,9.58-2.91,17.21,18.83,3.57,19.19-3.17-7.15-11.6-16.28-14"/><path class="cls-9" d="M508.37,259.21s-7.08,3.52-4,7.81,12-3.37,4-7.81"/><path class="cls-7" d="M369.62,375s-10.78-12.21-20.34-8-7.65,19.46.07,24.64,28-4.89,20.27-16.6"/><path class="cls-8" d="M355.06,368.58S349,377,352.51,383.65s16.48,3.11,16.79-2.78-6.25-10.15-14.24-12.29"/><path class="cls-9" d="M364.85,375.78s-6.2,3.09-3.47,6.84,10.48-2.95,3.47-6.84"/><path class="cls-7" d="M433.64,301.92c-3.76-7.35-13.69-15.52-29.71-14.4s-27.79,24-16.72,42.23,59.52-2.23,46.43-27.83"/><path class="cls-8" d="M423.46,314.75c-1.55-5.63-8.73-9.85-18.67-14.06S381,318.05,390.94,329.53s38,5.18,32.52-14.78"/><path class="cls-9" d="M409.68,330.29c.83-2.73-.62-12.38-8.86-7.18s5.78,17.3,8.86,7.18"/><path class="cls-7" d="M409.25,173s9.59-10.62,0-25.19-30.1-7.1-26.43,11.74S401,178.5,409.25,173"/><path class="cls-8" d="M405.49,172.1a25.91,25.91,0,0,0-1.7-19c-5-9.92-10.12-10.91-13.68-9.12s-10.47,9.83-3.91,22.53,18.46,9.46,19.29,5.61"/><path class="cls-9" d="M393.08,170.87s5.15-.2,1.95-6.56-10.89,6.42-1.95,6.56"/><path class="cls-7" d="M453,379.89s-8.18-5.63-17.32,2.3-2.12,21.34,10.49,17.09,11.41-14.23,6.83-19.39"/><path class="cls-8" d="M452.77,382.54a18,18,0,0,0-12.92,2.92c-6.37,4.34-6.57,8-5,10.24s7.73,6.3,15.85.62,4.81-13.55,2.09-13.78"/><path class="cls-9" d="M453.07,391.19s-.61-3.52-4.7-.73,5.42,6.89,4.7.73"/><path class="cls-7" d="M295.48,326.06s11.71-19.21-7.37-38.91S239.55,285,250.74,313s33.62,24,44.74,13"/><path class="cls-8" d="M289.44,325.85A40.79,40.79,0,0,0,281.23,297c-10.62-13.86-18.84-13.88-23.8-10.07s-13.3,18.27.57,35.94,31.27,9.2,31.44,3"/><path class="cls-9" d="M269.9,327.59s7.9-1.81,1.08-10.71S256.06,330,269.9,327.59"/><path class="cls-10" d="M579.3,193s-7.81-6.53-12.26-6.47-6.6,7-6.6,7A46.24,46.24,0,0,0,579.3,193"/><path class="cls-1" d="M531.2,106.54c8.53.78,26.21-19.23,15.35-28.4s-30-10.82-29.35,3.42,2.12,22,14,25"/><path class="cls-2" d="M525.71,101.7c-1.35,1.89-5.45-9.55.67-16.36s16.94-3,19.49,1.83-8.45,26.41-20.16,14.53"/><path class="cls-1" d="M235.71,135.94S234,148.1,223.4,143.7s-15.77-1.35-10.68-12.39,2.61-21.34,13.69-15.89,9.3,20.52,9.3,20.52"/><path class="cls-2" d="M228.84,142.51c-3.16-1.93-7.72-4.36-8.92-8.29s.17-19,3.83-18.63,11.1,11.79,10.41,18.52-5.32,8.4-5.32,8.4"/><path class="cls-1" d="M652.6,157.74s-7.31,8.63-15.51,3.33-11.81-12.37-7.69-18.75,9.61-1.54,11.88-4.38,7.61-8.44,14.91-2.42-3.59,22.22-3.59,22.22"/><path class="cls-2" d="M644.55,158.81s-5-6.51-4.41-9.87,5.09-10,9.2-10.78,6.45,10.56,3.39,16.36-7.09,6.38-8.18,4.29"/><path class="cls-1" d="M424.89,45.34c-3.08-5.63-5.18-11.46.58-13.88s12.79-2.92,14.42,2.33c3.58,11.48-9.06,22.42-15,11.55"/><path class="cls-2" d="M431.32,47.62a20.07,20.07,0,0,1-1.63-9.35c.41-5.13,5.41-7.5,7.93-5.53s1.6,12-1.81,14.47-4.49.41-4.49.41"/><path class="cls-1" d="M370.07,63.23c1.46-2.26,2.39-8.36-2.76-10.39S355,55.22,357.46,58.1s8.24,11.56,12.61,5.13"/><path class="cls-2" d="M368.16,64.12s-5.62-3.84-6.28-6.06,3.15-5.68,7.12-2.8-.84,8.86-.84,8.86"/><path class="cls-1" d="M316.73,115.39c1.85-1,1.39-8.15-2.54-9.4s-8.82.33-10,2.15-4.54,5.68,1.32,8.61,11.22-1.36,11.22-1.36"/><path class="cls-2" d="M316.19,113s-2-4.37-4.92-5.1-9,3.43-7.86,5.58,5.52,3.27,9.42,2.57,3.36-3,3.36-3"/><path class="cls-1" d="M627.26,105.18c1.46-2.26,2.39-8.36-2.75-10.39s-12.31,2.38-9.86,5.25,8.24,11.57,12.61,5.14"/><path class="cls-2" d="M625.35,106.07s-5.61-3.84-6.28-6.06,3.15-5.68,7.12-2.8-.84,8.86-.84,8.86"/><path class="cls-1" d="M584.85,132.65c1.85-1,1.39-8.14-2.54-9.39s-8.82.32-10,2.15-4.54,5.68,1.33,8.61,11.21-1.37,11.21-1.37"/><path class="cls-2" d="M584.31,130.3s-2-4.36-4.91-5.09-9,3.43-7.87,5.57,5.52,3.28,9.42,2.57,3.36-3,3.36-3"/><path class="cls-1" d="M304.78,62.17c6.46-7.47,13.74-13.64,20.35-6.63s11.09,16.89,4.39,22.08c-14.63,11.33-37.24-1-24.74-15.45"/><path class="cls-2" d="M305,72.69a31,31,0,0,1,12.62-7.39c7.63-2.17,13.74,3.77,12.25,8.47S313.4,82.53,308,79s-3-6.26-3-6.26"/><path class="cls-1" d="M478.09,74c1.84-1,1.39-8.15-2.54-9.4s-8.83.33-10,2.15-4.54,5.68,1.32,8.61S478.09,74,478.09,74"/><path class="cls-2" d="M477.54,71.62s-2-4.37-4.91-5.1-9,3.43-7.87,5.58,5.53,3.27,9.43,2.57,3.35-3,3.35-3"/></g><g id="Layer_2" data-name="Layer 2"><path class="cls-1" d="M146.9,344.22S100,374.86,66.78,391.88s-32.66,40.05-41.89,86.23-10.57,48.78-5.33,97.77S17.62,635.22,41.5,657.6s18.61,30.85,39,55.38,44.1,28.95,74.24,39.41,50.4,21.65,102.29,8,97.76,6.25,124-36S447,659.92,451.42,621.6s20.15-82.61,3.14-126.41-8.79-80-31.76-100.16S390.68,380.57,355.55,350s-67.95-37.17-99.91-33.57c-32.69,3.67-75.36-5.31-108.74,27.83"/><path class="cls-2" d="M257,328.83s-31.09-6-60.14,1.44-48.92,10.06-63,23.39-37.76.21-49.79,27-25,27.52-44,48.54-12.27,22.47-16,52.54-4.65,81.6,1.87,118S72.1,691.2,93.18,719.83s61.13,18.27,94.59,32.66,85,11.63,124.49-9.79,86.88-25.72,98.4-58.11,33.71-44.85,45.24-103.76,12.26-68.62-10.27-113.2S407,378.45,386.57,366s-34.88-3.62-62.25-21.79S277.66,331,257,328.83"/><path class="cls-3" d="M268.44,343s-48.75-9.93-76.71,7-60.67,10.22-91,36.1-42.3,32.61-52.87,74.23-24.24,58-22.16,81,2.94,32.42,12.86,71.39S51.13,658.1,67.3,678.17s26.8,37.05,64.11,52.8,74.34,5.1,121.67,13.94c51.36,9.59,117-20.44,142.63-71.41s63.78-52.83,48.2-136.74-9.33-85.27-34.42-115.69-69.91-82.16-141-78.1"/><path class="cls-4" d="M332.63,375.51s-51.89-.78-78.93-13.25-51-.08-76.95,17.19-52.53,9.48-67.82,31.28-45.1,30.79-54.45,57.55S57.3,534,49.94,548s-6.1,53.95,7,77.1,20.45,43.68,41,70.87,51.53,22.8,90.74,39.65,73.41,4.34,96.56-8.75,86.23-1.55,94.31-42.32,26.26-13.38,42-56.42,20.32-61.51,10.7-89.69,8.26-40-2.94-63.32-34.35-18.87-44.19-49.38-28.87-50-36.8-50.84a60.3,60.3,0,0,0-15.65.63"/><path class="cls-5" d="M284.81,396.81s-10.19,5.53-18.17-2.33-31-16.06-43-2.63-62.14-4.79-88,10.88S105,447.56,84.61,452.53,61.61,486.7,60.05,513s13,58,7.81,77.34,6.71,61.74,29.7,70.45,45.72,47.49,66.92,48.54,61,31.36,86.2,7.33,36.77-40.7,68-47,48.42-8.71,47.38-39.54,38.06-28.16,35.2-56.47,20.06-67.15-3.4-81.75S349.33,470.62,353,444.25s-19.59-48.77-68.18-47.44"/><path class="cls-6" d="M199.4,430.5s29.86,8.68,21.6,26.34,15.34,24.4,21.52,37.84-28.9,36.15-21.52,59.59,9.64,54.8-21.6,63.36-28.11,44.68-56.65,41.09S106.57,633,106.88,610.41s-26.26-18.89-29.79-51.6S94.78,514.63,90,486.36s19.67-64,39.91-67.27,41.27-19.3,69.46,11.41"/><path class="cls-4" d="M368.31,467.93l-.34-.2a11,11,0,0,0-1-.52,20,20,0,0,0-3.66-1.31,19.49,19.49,0,0,0-5.57-.6,12,12,0,0,0-1.65.16,12.14,12.14,0,0,0-1.75.4,8.34,8.34,0,0,0-3.6,2.14,6.55,6.55,0,0,0-.76,1l-.33.56-.17.34-.33.69c-.11.25-.22.49-.32.74-.42.95-.75,1.86-1.07,2.69a23.24,23.24,0,0,1-.93,2.16,8,8,0,0,1-1.1,1.66,7.18,7.18,0,0,1-.67.68l-.34.32c-.11.1-.23.18-.35.28-.45.38-.91.66-1.27.94l-.9.59c-.21.14-.32.23-.32.23l.38.06a11.09,11.09,0,0,0,1.11.13,10.33,10.33,0,0,0,1.76-.09,6.9,6.9,0,0,0,1.1-.22,8,8,0,0,0,1.21-.43,8.8,8.8,0,0,0,2.47-1.71,14.54,14.54,0,0,0,2-2.48c.28-.43.54-.88.78-1.3s.5-.87.73-1.29l.7-1.27.18-.33s.05-.06.07-.09.12-.14.18-.23a4.93,4.93,0,0,1,1.54-1c.34-.14.71-.29,1.1-.41l.6-.18c.2,0,.4-.12.61-.16,1.65-.42,3.34-.7,4.81-1s2.76-.48,3.67-.67c.45-.08.82-.18,1.06-.22l.39-.09"/><path class="cls-4" d="M268,495.25a3.65,3.65,0,0,0-.39,0c-.25,0-.63.07-1.09.16a20.46,20.46,0,0,0-3.74,1.09,19.58,19.58,0,0,0-4.86,2.79,13.61,13.61,0,0,0-2.42,2.45,8.47,8.47,0,0,0-1.66,3.84,6.23,6.23,0,0,0,0,1.22c0,.22,0,.39,0,.66l.07.37.14.75c.05.26.11.52.16.79.23,1,.5,2,.73,2.8s.4,1.6.51,2.3a7.9,7.9,0,0,1,.08,2,7.09,7.09,0,0,1-.13.94l-.09.46c0,.14-.08.28-.12.43-.14.57-.34,1.07-.48,1.51l-.38,1c-.08.24-.13.37-.13.37l.36-.17c.21-.13.57-.29,1-.56a10,10,0,0,0,1.37-1.1,6.2,6.2,0,0,0,.76-.83,8.16,8.16,0,0,0,.72-1.06,8.33,8.33,0,0,0,1-2.82,14,14,0,0,0,.14-3.16c0-.52-.08-1-.14-1.52s-.1-1-.16-1.46-.12-1-.18-1.45l-.05-.37s0-.08,0-.11,0-.19,0-.29a4.89,4.89,0,0,1,.68-1.69c.2-.32.41-.66.65-1a5.85,5.85,0,0,1,.38-.49c.13-.16.26-.33.4-.49,1.08-1.3,2.29-2.53,3.33-3.61s1.95-2,2.58-2.69c.31-.33.55-.62.73-.8l.25-.3"/><path class="cls-5" d="M102.63,565.58l-.33-.21c-.22-.13-.55-.33-1-.53a21,21,0,0,0-3.65-1.35,19.63,19.63,0,0,0-5.57-.65,10.6,10.6,0,0,0-1.65.14,12,12,0,0,0-1.75.38,8.44,8.44,0,0,0-3.62,2.1,6.61,6.61,0,0,0-.77,1A6.31,6.31,0,0,0,84,567l-.17.33-.33.69c-.12.24-.23.49-.34.73-.42.95-.76,1.86-1.09,2.68s-.63,1.54-1,2.16A8.3,8.3,0,0,1,80,575.21a6.24,6.24,0,0,1-.68.68l-.34.31c-.11.1-.24.19-.35.28-.46.38-.92.65-1.29.92l-.89.59-.34.23.39.06a10.54,10.54,0,0,0,1.11.14,9.21,9.21,0,0,0,1.76-.07,6.83,6.83,0,0,0,1.1-.21,9.84,9.84,0,0,0,1.22-.42A8.85,8.85,0,0,0,84.15,576a15,15,0,0,0,2-2.46c.28-.43.54-.87.8-1.3l.73-1.27.71-1.27.19-.33s.05-.06.07-.08.13-.15.18-.23a4.66,4.66,0,0,1,1.55-1c.35-.14.72-.28,1.11-.4l.6-.17.61-.16c1.65-.4,3.34-.66,4.82-.91s2.77-.46,3.68-.63l1.06-.21.38-.08"/><path class="cls-3" d="M435.53,602.5s.07-.12.19-.36.27-.56.45-1a20.67,20.67,0,0,0,1.07-3.74,19.66,19.66,0,0,0,.25-5.6,12.44,12.44,0,0,0-.27-1.64,11,11,0,0,0-.51-1.71,8.32,8.32,0,0,0-2.36-3.46,6,6,0,0,0-1-.7l-.58-.3-.35-.14-.7-.29-.76-.27c-1-.35-1.91-.63-2.76-.89s-1.57-.52-2.22-.8a8.69,8.69,0,0,1-1.72-1,7.3,7.3,0,0,1-.72-.62l-.34-.32-.3-.33c-.41-.43-.72-.87-1-1.22l-.65-.86a3.06,3.06,0,0,0-.25-.3s0,.13,0,.39-.06.63-.05,1.11a8.83,8.83,0,0,0,.2,1.75,6,6,0,0,0,.29,1.08,7.88,7.88,0,0,0,.51,1.19,8.52,8.52,0,0,0,1.86,2.34,13.93,13.93,0,0,0,2.6,1.81c.44.25.91.48,1.35.7L429,588l1.32.62.34.16s.06,0,.09.06.15.12.24.17a4.64,4.64,0,0,1,1.07,1.47c.16.34.33.69.48,1.08.08.19.15.38.22.58s.14.4.2.6c.52,1.62.91,3.29,1.26,4.74s.66,2.73.9,3.62c.11.45.23.81.29,1l.11.38"/><path class="cls-5" d="M160.11,583.26l.38-.1c.25-.08.61-.18,1-.35a19.74,19.74,0,0,0,3.49-1.73,19.25,19.25,0,0,0,4.3-3.59,13.7,13.7,0,0,0,1-1.3,11.4,11.4,0,0,0,.92-1.54,8.44,8.44,0,0,0,1-4.07,6.4,6.4,0,0,0-.17-1.22c0-.21-.09-.37-.17-.63l-.13-.35-.27-.72-.3-.74c-.4-1-.83-1.84-1.2-2.64a23.36,23.36,0,0,1-.91-2.17,7.9,7.9,0,0,1-.46-2.9v-.46c0-.15,0-.3.05-.44,0-.6.15-1.12.21-1.58s.14-.81.19-1.05a3.81,3.81,0,0,0,.06-.4l-.31.24c-.2.16-.51.38-.86.71a8.6,8.6,0,0,0-1.16,1.33,6.07,6.07,0,0,0-.6.94,8.06,8.06,0,0,0-.53,1.18,8.61,8.61,0,0,0-.48,3,14.3,14.3,0,0,0,.42,3.14c.12.5.26,1,.4,1.47s.28,1,.42,1.41.28.92.43,1.39l.11.36s0,.07,0,.1a2.77,2.77,0,0,1,0,.3,4.68,4.68,0,0,1-.36,1.77c-.14.36-.29.72-.47,1.09-.09.19-.19.37-.29.55s-.19.37-.3.56c-.85,1.47-1.82,2.88-2.65,4.13s-1.57,2.32-2.07,3.1c-.25.38-.44.71-.57.92l-.21.34"/><path class="cls-3" d="M281.56,389.92s.08-.16.21-.46.3-.74.48-1.31a25.79,25.79,0,0,0,.9-12,14.49,14.49,0,0,0-.47-2.06,15.45,15.45,0,0,0-.79-2.13,10.79,10.79,0,0,0-3.28-4.2,8.9,8.9,0,0,0-1.34-.79c-.26-.12-.45-.21-.77-.33l-.46-.16-.91-.3-1-.29c-1.27-.36-2.47-.64-3.57-.9s-2-.52-2.88-.82a10.46,10.46,0,0,1-2.27-1.13,9.74,9.74,0,0,1-1-.72L264,362c-.15-.13-.27-.27-.41-.4-.56-.51-1-1-1.4-1.46l-.89-1c-.22-.25-.34-.37-.34-.37a4.79,4.79,0,0,0,0,.5c0,.32,0,.81,0,1.42a13.32,13.32,0,0,0,.4,2.2,8.3,8.3,0,0,0,.46,1.35,10.68,10.68,0,0,0,.75,1.46,11,11,0,0,0,2.55,2.83,18.67,18.67,0,0,0,3.45,2.07c.59.28,1.19.53,1.77.77s1.18.48,1.74.7l1.72.68.45.17s.08.06.12.07.2.14.32.2a6.14,6.14,0,0,1,1.47,1.78c.24.41.49.85.71,1.32.11.24.22.48.32.73s.21.49.31.74c.79,2,1.42,4.09,2,5.91s1.06,3.4,1.44,4.52c.18.56.36,1,.46,1.3l.17.47"/><path class="cls-3" d="M87.5,702.2l.47.19c.31.1.76.27,1.34.43a25.58,25.58,0,0,0,4.87.86,25.18,25.18,0,0,0,7.11-.43,16.24,16.24,0,0,0,2-.56,13.84,13.84,0,0,0,2.11-.87,10.89,10.89,0,0,0,4.06-3.45,8.19,8.19,0,0,0,.74-1.37c.11-.26.19-.46.3-.78l.14-.46.26-.93c.09-.33.17-.67.26-1,.31-1.28.53-2.5.75-3.6s.44-2.06.71-2.91a10.13,10.13,0,0,1,1-2.31,9.22,9.22,0,0,1,.68-1l.36-.47c.13-.15.26-.28.38-.43.49-.57,1-1,1.4-1.45l1-.93.36-.36h-.5a12.53,12.53,0,0,0-1.42.09,11.56,11.56,0,0,0-2.19.48,8.56,8.56,0,0,0-1.33.51,9.84,9.84,0,0,0-1.42.81,10.88,10.88,0,0,0-2.73,2.66,18.38,18.38,0,0,0-1.93,3.53c-.26.6-.49,1.21-.7,1.8s-.44,1.19-.64,1.76l-.6,1.75-.16.45s0,.09-.07.12-.13.21-.18.33a5.9,5.9,0,0,1-1.71,1.55c-.41.25-.84.52-1.3.76-.23.12-.47.24-.71.34l-.73.34c-2,.87-4,1.59-5.83,2.23s-3.36,1.2-4.46,1.62c-.55.2-1,.4-1.28.5l-.47.2"/><path class="cls-4" d="M312,695a8.9,8.9,0,0,0,.45-1.2,17.63,17.63,0,0,0,.7-3.6,19.55,19.55,0,0,0-.31-5.8,21.05,21.05,0,0,0-3-7.14l-.6-.91c-.2-.31-.45-.58-.68-.87l-.72-.88-.36-.44-.41-.41c-.52-.53-1.06-1.06-1.61-1.6l-.8-.77c-.26-.25-.4-.46-.61-.68a12.18,12.18,0,0,1-2-3.17,14.43,14.43,0,0,1-.9-3.83c-.13-1.43-.15-3-.18-4.71a33.82,33.82,0,0,0-.44-5.57,18.38,18.38,0,0,0-2.08-5.92,19.84,19.84,0,0,0-3.92-4.89l-.57-.49-.29-.25-.14-.13-.08-.06-.15-.12-1.05-.8-1.37-.9c-.46-.28-.92-.52-1.39-.77a16.71,16.71,0,0,0-6.17-1.75,19.65,19.65,0,0,0-6,.47c-1.83.41-3.5.93-5,1.42-3.06,1-5.64,1.55-8,1.15a10.12,10.12,0,0,1-1.72-.45,8.51,8.51,0,0,1-.83-.34l-.41-.2-.21-.09.06,0h0l-.06,0-.11-.07-3.56-2.06c-1.07-.68-2-1.37-3-2s-1.81-1.37-2.66-2-1.56-1.29-2.28-1.85-1.34-1.15-1.89-1.67-1.06-1-1.47-1.41-.8-.77-1.07-1.08c-.57-.6-.86-.93-.86-.93s.16.41.54,1.15c.18.38.44.82.73,1.36.15.26.31.55.49.85l.6.92c.43.66.91,1.39,1.48,2.14s1.17,1.6,1.91,2.41l1.13,1.28a16.79,16.79,0,0,0,1.24,1.32c.9.87,1.87,1.81,2.88,2.73l3.21,2.57.11.09.05,0,0,0,.11.07.26.17.53.34a12.09,12.09,0,0,0,1.12.64,14.88,14.88,0,0,0,2.49,1,15.91,15.91,0,0,0,5.49.55,32.51,32.51,0,0,0,5.22-.85c1.65-.36,3.19-.76,4.68-1a18.61,18.61,0,0,1,2.16-.22,12.23,12.23,0,0,1,2,.06,11.69,11.69,0,0,1,3.76,1.19l.9.52.81.55,1,.8-.06-.05,0,0,.05,0,.1.1.21.18.42.37a12.59,12.59,0,0,1,4.13,7.06,35.7,35.7,0,0,1,.58,4.62,47,47,0,0,0,.57,5.27,18.26,18.26,0,0,0,1.81,5.41,16.76,16.76,0,0,0,3.41,4.33c.34.29.71.63,1,.86l.89.66.85.66.79.58.39.29.35.32.7.64c.22.22.47.41.68.64s.41.45.61.67a20.09,20.09,0,0,1,5,10.62,22.48,22.48,0,0,1,.27,3.5c0,.82-.07,1.26-.07,1.26"/><path class="cls-5" d="M224.74,456.55a8.67,8.67,0,0,0-.66-.89,15.81,15.81,0,0,0-2.25-2.19,17.19,17.19,0,0,0-4.31-2.5,17.83,17.83,0,0,0-6.52-1.22h-.93c-.32,0-.63.06-.95.09l-1,.1-.49.05-.49.1-1.9.41-.93.22c-.3.06-.52.07-.78.12a10.4,10.4,0,0,1-3.2-.07,11.66,11.66,0,0,1-3.18-1.15c-1.09-.58-2.21-1.29-3.46-2.08a29,29,0,0,0-4.21-2.29A15.58,15.58,0,0,0,184.3,444a17.34,17.34,0,0,0-5.36.52l-.62.18-.31.09-.16,0-.08,0-.16.05-1.06.38-1.3.56c-.41.2-.8.42-1.2.63A14.48,14.48,0,0,0,169.9,450a16.89,16.89,0,0,0-2.49,4.55c-.56,1.51-1,3-1.34,4.27-.75,2.65-1.53,4.78-2.92,6.26a7.75,7.75,0,0,1-1.12,1,5.47,5.47,0,0,1-.63.44l-.33.2-.17.11,0,0h0l-.05,0-.1.06-3.16,1.58c-1,.44-1.93.81-2.83,1.22s-1.84.65-2.67,1-1.67.51-2.41.77-1.45.41-2.08.57-1.21.3-1.71.4-.92.21-1.27.25c-.7.13-1.08.18-1.08.18s.38.08,1.09.16c.36.05.79.07,1.31.11l.84.05h.95c.67,0,1.42,0,2.23-.06s1.7-.09,2.62-.24l1.45-.21c.49-.08,1-.14,1.53-.27,1-.24,2.18-.49,3.31-.79l3.36-1.1.11,0,0,0h0l.1,0,.25-.11.49-.21c.33-.14.65-.34,1-.51a12.48,12.48,0,0,0,4.86-5,27.65,27.65,0,0,0,1.84-4.14c.51-1.35.95-2.65,1.48-3.83a14.2,14.2,0,0,1,.86-1.65,9.19,9.19,0,0,1,1-1.42,9.6,9.6,0,0,1,2.62-2.14l.79-.41.77-.33,1.07-.37c.09,0-.09,0-.06,0h0l0,0,.12,0,.23-.06.46-.13a10.91,10.91,0,0,1,7,.34,31,31,0,0,1,3.58,1.76,42.66,42.66,0,0,0,4.06,2.07,15.77,15.77,0,0,0,4.74,1.23,14.28,14.28,0,0,0,4.7-.41c.36-.11.79-.21,1.09-.33l.89-.32.88-.31.79-.29.39-.14.39-.11.79-.2c.26-.06.51-.14.77-.19l.77-.11a17.29,17.29,0,0,1,5.66,0,18.17,18.17,0,0,1,4.33,1.34,19.91,19.91,0,0,1,2.64,1.46c.58.39.88.64.88.64"/><path class="cls-4" d="M352.82,578.34s.27.23.72.67a23.08,23.08,0,0,1,1.79,2.06,32.64,32.64,0,0,1,2.26,3.46,36.82,36.82,0,0,1,2.22,4.77c.38.88.66,1.85,1,2.82s.62,2,.86,3.07.55,2.15.73,3.3q.15.85.33,1.71c.17.78.23,1.23.42,2a25.05,25.05,0,0,0,1.42,4.26,16.82,16.82,0,0,0,2.64,4.21,13.08,13.08,0,0,0,4.41,3.34,14.45,14.45,0,0,0,5.29,1.24,26.74,26.74,0,0,0,9.18-1.49c1.36-.43,2.66-.92,3.9-1.43s2.47-1,3.63-1.55l1.73-.78.1-.06h0l-.09,0,.06,0,.21-.09.43-.17.43-.19.31-.11c.21-.07.39-.16.62-.22l.69-.2a13.39,13.39,0,0,1,1.38-.26,12.84,12.84,0,0,1,5.39.44,20.06,20.06,0,0,1,4.61,2.06,31.26,31.26,0,0,1,3.4,2.36c.91.74,1.63,1.35,2.09,1.79s.71.69.71.69-.1-.34-.35-.94a20.27,20.27,0,0,0-1.29-2.54,22.09,22.09,0,0,0-2.66-3.63,19.65,19.65,0,0,0-4.71-3.85,16.31,16.31,0,0,0-7.34-2.15,15.22,15.22,0,0,0-2.13.05l-1.08.12c-.37.06-.77.15-1.15.23a16.39,16.39,0,0,0-2,.53l-1.79.58-3.61,1.14c-1.2.37-2.41.73-3.6,1.06a23.77,23.77,0,0,1-6.7,1,6.29,6.29,0,0,1-4.58-1.92A12.26,12.26,0,0,1,371,603.3a28.61,28.61,0,0,1-1.32-2.95l-1.2-3.53c-.4-1.23-.9-2.4-1.39-3.54-.22-.56-.52-1.11-.78-1.64s-.53-1.07-.82-1.58c-.62-1-1.13-2-1.79-2.86a29.48,29.48,0,0,0-3.8-4.49,23.8,23.8,0,0,0-3.55-2.78,16.84,16.84,0,0,0-2.57-1.29,7.39,7.39,0,0,0-1-.3"/><path class="cls-4" d="M257,551s0,.28-.09.78a17.33,17.33,0,0,1-.48,2.13A25.12,25.12,0,0,1,255.3,557a28.64,28.64,0,0,1-2,3.69c-.38.66-.88,1.31-1.33,2s-1,1.35-1.57,2-1.12,1.37-1.78,2l-.94,1c-.41.48-.68.73-1.06,1.2a20.11,20.11,0,0,0-2.07,2.94,13.34,13.34,0,0,0-1.45,3.69,10.43,10.43,0,0,0-.06,4.42,11.69,11.69,0,0,0,1.72,4,21.13,21.13,0,0,0,5.31,5.19c.92.67,1.85,1.27,2.77,1.83s1.82,1.11,2.72,1.6l1.32.73.08.05h0l-.06,0,0,0,.16.1.32.19.32.19.22.15c.14.1.29.18.43.29l.46.35a10,10,0,0,1,.82.77A10.07,10.07,0,0,1,262,599a16.39,16.39,0,0,1,.87,3.94,25.57,25.57,0,0,1,.09,3.3c0,.94-.09,1.69-.16,2.19s-.1.79-.1.79a6.64,6.64,0,0,0,.43-.67,16.24,16.24,0,0,0,1-2,18,18,0,0,0,1.07-3.43,15.4,15.4,0,0,0,.23-4.85,12.84,12.84,0,0,0-2.1-5.74,13,13,0,0,0-1-1.35l-.6-.63c-.21-.21-.45-.42-.68-.63a14.69,14.69,0,0,0-1.31-1l-1.22-.88L256,586.21c-.81-.61-1.61-1.21-2.38-1.82a18.34,18.34,0,0,1-3.8-3.85,5,5,0,0,1-.94-3.85,9.13,9.13,0,0,1,.7-2.22,24.62,24.62,0,0,1,1.27-2.25l1.7-2.44c.6-.84,1.12-1.72,1.61-2.57.26-.42.47-.86.69-1.29s.44-.84.63-1.27c.35-.87.73-1.67,1-2.51a23.43,23.43,0,0,0,1.09-4.57,18,18,0,0,0,.1-3.6,13.11,13.11,0,0,0-.39-2.26A7,7,0,0,0,257,551"/><path class="cls-5" d="M204,620.14s-.26.11-.71.34a20.56,20.56,0,0,0-1.85,1.16,26.3,26.3,0,0,0-2.53,2.11,30.78,30.78,0,0,0-2.81,3.13c-.49.58-.94,1.26-1.43,1.92s-.94,1.38-1.37,2.15-.93,1.51-1.33,2.35c-.21.4-.43.82-.65,1.22-.32.56-.47.89-.78,1.41a20,20,0,0,1-2.09,2.92,12.93,12.93,0,0,1-3,2.6A10.26,10.26,0,0,1,181.3,643a11.7,11.7,0,0,1-4.33-.28,21.26,21.26,0,0,1-6.66-3.29c-.94-.64-1.82-1.32-2.65-2s-1.65-1.34-2.41-2l-1.14-1-.07-.06v0l.06,0,0,0-.14-.11-.29-.24-.28-.24-.22-.16a4.56,4.56,0,0,0-.42-.31l-.48-.31a10.67,10.67,0,0,0-1-.53,10.25,10.25,0,0,0-4.21-.92,16,16,0,0,0-4,.5,25.4,25.4,0,0,0-3.14,1c-.87.35-1.56.65-2,.88l-.7.35a6.35,6.35,0,0,1,.49-.62A16.38,16.38,0,0,1,149.2,632a19,19,0,0,1,2.88-2.15,15.75,15.75,0,0,1,4.5-1.84,12.92,12.92,0,0,1,6.11.08,12.19,12.19,0,0,1,1.62.52l.79.35c.27.13.55.29.83.44a15.13,15.13,0,0,1,1.42.88l1.23.86,2.49,1.72c.84.56,1.68,1.12,2.51,1.64a18.51,18.51,0,0,0,4.89,2.31,5,5,0,0,0,3.95-.4,10.17,10.17,0,0,0,1.86-1.4A22.14,22.14,0,0,0,186,633l1.74-2.42c.59-.84,1.25-1.63,1.89-2.38.3-.38.65-.72,1-1.07s.65-.7,1-1c.71-.61,1.34-1.25,2-1.76a23.76,23.76,0,0,1,3.95-2.55,18.06,18.06,0,0,1,3.36-1.29,12.1,12.1,0,0,1,2.27-.38,4.86,4.86,0,0,1,.8,0"/><path class="cls-4" d="M152,713.9s.21-.11.62-.27a15,15,0,0,1,1.78-.52,20.76,20.76,0,0,1,2.78-.43,24.81,24.81,0,0,1,3.58,0c.65,0,1.33.11,2,.17s1.42.18,2.15.33,1.49.26,2.25.48l1.15.27c.53.12.83.21,1.34.3a16.94,16.94,0,0,0,3,.32,11.53,11.53,0,0,0,3.36-.45,9,9,0,0,0,3.31-1.8,9.59,9.59,0,0,0,2.25-2.93,17.78,17.78,0,0,0,1.66-6.1c.12-1,.18-1.91.22-2.83s.06-1.81.06-2.68v-1.38h0s0-.1,0,.06v-.83l0-.23c0-.15,0-.29,0-.44s.05-.33.08-.49.13-.63.23-.93a8.57,8.57,0,0,1,1.78-3.21A13.54,13.54,0,0,1,188.3,688a20.58,20.58,0,0,1,2.42-1.44c.72-.36,1.3-.63,1.7-.79s.63-.25.63-.25a5.33,5.33,0,0,0-.68,0,16.56,16.56,0,0,0-1.94.08,15.54,15.54,0,0,0-3,.63,13.17,13.17,0,0,0-3.71,1.84,11,11,0,0,0-3.4,3.94,10,10,0,0,0-.57,1.34c-.08.23-.15.47-.23.7s-.13.51-.19.78c-.13.6-.15.78-.24,1.4l-.15,1.28c-.09.83-.2,1.69-.3,2.55s-.23,1.7-.36,2.53A15.53,15.53,0,0,1,177,707a4.26,4.26,0,0,1-2.48,2.3,7.84,7.84,0,0,1-1.94.39,16.14,16.14,0,0,1-2.2,0l-2.53-.25c-.87-.09-1.74-.12-2.58-.13-.41,0-.84,0-1.24,0s-.81,0-1.21.06c-.79.1-1.55.15-2.28.31a19.18,19.18,0,0,0-3.85,1.09,15.56,15.56,0,0,0-2.73,1.41,12.3,12.3,0,0,0-1.51,1.23,4.43,4.43,0,0,0-.46.52"/><path class="cls-4" d="M325.53,564.84s.15-.19.45-.5a13.63,13.63,0,0,1,1.37-1.24,20.46,20.46,0,0,1,2.32-1.59,24.16,24.16,0,0,1,3.22-1.59c.59-.27,1.25-.48,1.9-.72s1.36-.46,2.08-.64,1.46-.4,2.24-.54l1.16-.25c.52-.13.83-.18,1.33-.31a17.78,17.78,0,0,0,2.88-1,11,11,0,0,0,2.82-1.86,8.69,8.69,0,0,0,2.21-3,9.89,9.89,0,0,0,.77-3.62,18.08,18.08,0,0,0-1.15-6.22c-.31-.92-.67-1.8-1-2.64s-.73-1.66-1.11-2.44l-.56-1.17,0-.07v0s0-.09,0,.06l0,0-.06-.15-.13-.29-.13-.28-.08-.22c-.05-.14-.11-.26-.16-.41s-.1-.32-.14-.47a8.32,8.32,0,0,1-.2-.94,8.54,8.54,0,0,1,.22-3.67,13.61,13.61,0,0,1,1.33-3.17,21.25,21.25,0,0,1,1.56-2.35c.49-.63.89-1.13,1.19-1.45l.46-.5a5.57,5.57,0,0,0-.64.26,14.58,14.58,0,0,0-1.71.91,15.78,15.78,0,0,0-2.43,1.87,13.25,13.25,0,0,0-2.55,3.26,11.08,11.08,0,0,0-1.35,5,10.11,10.11,0,0,0,.06,1.45c0,.24.06.48.1.73s.11.52.16.78c.15.6.21.78.4,1.37.14.4.28.8.42,1.22l.83,2.43c.27.82.53,1.63.77,2.44a15.73,15.73,0,0,1,.76,4.55,4.23,4.23,0,0,1-1.24,3.14,8.08,8.08,0,0,1-1.58,1.2,19,19,0,0,1-2,.94l-2.38.87c-.83.29-1.62.65-2.39,1-.38.16-.75.37-1.11.56s-.72.37-1.06.58c-.67.43-1.33.8-1.92,1.26a19,19,0,0,0-3,2.65,15.17,15.17,0,0,0-1.84,2.46,11.71,11.71,0,0,0-.84,1.76,4.71,4.71,0,0,0-.19.66"/><path class="cls-3" d="M284.51,698.6s.16.18.41.53a13.54,13.54,0,0,1,1,1.58,20.42,20.42,0,0,1,1.12,2.58,24.51,24.51,0,0,1,.95,3.46c.16.63.23,1.32.35,2s.19,1.42.23,2.17.13,1.5.11,2.29l0,1.19c0,.54,0,.85.06,1.37a16.73,16.73,0,0,0,.46,3,11.26,11.26,0,0,0,1.3,3.13,8.83,8.83,0,0,0,2.58,2.74,9.73,9.73,0,0,0,3.41,1.44,18.17,18.17,0,0,0,6.32,0c1-.14,1.89-.32,2.79-.52s1.77-.4,2.61-.63l1.25-.32.08,0h0l.16,0,.31-.07.3-.07.23-.05.43-.08.49-.05c.33,0,.65,0,1,0a8.65,8.65,0,0,1,3.57.91,14.08,14.08,0,0,1,2.86,1.9,22.12,22.12,0,0,1,2,2c.53.6.95,1.09,1.2,1.44l.41.54a6.66,6.66,0,0,0-.14-.67,12.51,12.51,0,0,0-.57-1.85,14.81,14.81,0,0,0-1.37-2.74,13.38,13.38,0,0,0-2.73-3.12A10.86,10.86,0,0,0,313,720.4a9.47,9.47,0,0,0-1.43-.21l-.74-.05-.79,0c-.62,0-.8.06-1.43.13l-1.26.18-2.56.36c-.85.11-1.7.21-2.53.29a15.83,15.83,0,0,1-4.61-.11,4.31,4.31,0,0,1-2.86-1.81,8.44,8.44,0,0,1-.88-1.78,20.19,20.19,0,0,1-.55-2.13c-.13-.85-.27-1.69-.4-2.51s-.33-1.71-.53-2.52a11.81,11.81,0,0,0-.34-1.2c-.12-.39-.22-.78-.36-1.15-.31-.74-.54-1.47-.88-2.13a19.76,19.76,0,0,0-2-3.45,15.37,15.37,0,0,0-2.06-2.27,10.94,10.94,0,0,0-1.58-1.15,4.16,4.16,0,0,0-.61-.31"/><path class="cls-5" d="M238.59,547.12s-.11-.22-.26-.62a15.93,15.93,0,0,1-.51-1.78,21.64,21.64,0,0,1-.4-2.79,25.1,25.1,0,0,1,0-3.58c0-.65.12-1.33.19-2s.2-1.41.35-2.14.28-1.49.5-2.25c.1-.38.19-.76.29-1.15s.2-.83.3-1.34a16.74,16.74,0,0,0,.35-3,11.44,11.44,0,0,0-.42-3.35,8.79,8.79,0,0,0-1.76-3.33,10,10,0,0,0-2.91-2.29,18.33,18.33,0,0,0-6.1-1.71c-1-.13-1.9-.2-2.82-.24s-1.81-.08-2.68-.09h-1.52l-.32,0h-.32l-.23,0-.44,0-.48-.08c-.32-.08-.63-.14-.93-.24a8.67,8.67,0,0,1-3.2-1.82,13.85,13.85,0,0,1-2.26-2.6,21.43,21.43,0,0,1-1.41-2.43c-.35-.71-.62-1.3-.78-1.71s-.24-.63-.24-.63a5.33,5.33,0,0,0-.05.68,13.94,13.94,0,0,0,.06,1.94,15.3,15.3,0,0,0,.6,3,13.46,13.46,0,0,0,1.8,3.73,11.05,11.05,0,0,0,3.92,3.43,9.81,9.81,0,0,0,1.32.59l.71.23.77.2a12.78,12.78,0,0,0,1.4.24l1.27.17,2.56.32c.85.13,1.7.25,2.53.39a15.79,15.79,0,0,1,4.41,1.33,4.22,4.22,0,0,1,2.27,2.49,8.12,8.12,0,0,1,.39,2,20.12,20.12,0,0,1,0,2.2c-.1.86-.19,1.7-.28,2.53s-.14,1.74-.16,2.58c0,.41,0,.83,0,1.24s0,.81,0,1.21c.1.79.13,1.55.29,2.28a19.87,19.87,0,0,0,1.05,3.87,16.75,16.75,0,0,0,1.39,2.73,11.31,11.31,0,0,0,1.22,1.53,5.11,5.11,0,0,0,.51.46"/><path class="cls-4" d="M56.06,492.07c-.07-1.7-.15-3.45-.23-5.21a6.08,6.08,0,0,0,1.12,0,16.06,16.06,0,0,0,4.41-1.32c.77-.34,1.55-.7,2.33-1.07L66,483.32l1.15-.57a13.66,13.66,0,0,1,1.31-.57c.25-.09.51-.19.75-.26l.72-.19a8.9,8.9,0,0,1,1.43-.24,11,11,0,0,1,5.16.71,13.23,13.23,0,0,1,3.55,2.12,15.11,15.11,0,0,1,2.16,2.18,16.37,16.37,0,0,1,1.12,1.58,6.49,6.49,0,0,1,.33.6l-.55-.39c-.35-.26-.9-.6-1.58-1A21.33,21.33,0,0,0,79,486a14.06,14.06,0,0,0-3.31-.93,8.8,8.8,0,0,0-3.67.24c-.3.08-.6.21-.91.32l-.44.2-.4.21-.2.11-.27.17-.27.16-.13.08,0,0,.06,0h0l-.06,0-1.09.7c-.73.48-1.49.94-2.28,1.41s-1.62.93-2.5,1.35a18,18,0,0,1-6,1.93,10.76,10.76,0,0,1-1.4,0"/><path class="cls-3" d="M405.68,446.37l4.37,2.85a5.13,5.13,0,0,0-.64.92,15.81,15.81,0,0,0-1.5,4.36c-.17.82-.33,1.66-.48,2.51s-.29,1.7-.43,2.54l-.21,1.26a10.91,10.91,0,0,1-.31,1.4c-.07.25-.14.52-.22.76s-.17.46-.26.7a12.05,12.05,0,0,1-.64,1.3,11,11,0,0,1-3.58,3.77,13.05,13.05,0,0,1-3.8,1.66,15.89,15.89,0,0,1-3,.48,13.32,13.32,0,0,1-1.94,0,5.2,5.2,0,0,1-.68-.08l.63-.22c.42-.14,1-.38,1.74-.71a19.31,19.31,0,0,0,2.49-1.32,13.45,13.45,0,0,0,2.68-2.15,8.52,8.52,0,0,0,1.94-3.12c.12-.3.19-.61.28-.92l.09-.48c0-.16,0-.3.06-.44l0-.23,0-.31,0-.32v-.2c0,.16,0,0,0,.06v-.1l.06-1.28c0-.87.11-1.77.19-2.68s.19-1.85.35-2.81a18.21,18.21,0,0,1,1.95-6,9.61,9.61,0,0,1,.79-1.17"/><path class="cls-3" d="M190,362.59l-5.19-.58a5.68,5.68,0,0,1-.09,1.12,15.89,15.89,0,0,1-1.62,4.31c-.39.74-.8,1.5-1.22,2.25s-.86,1.5-1.29,2.23L180,373a12.75,12.75,0,0,0-.66,1.27c-.1.25-.22.49-.31.73l-.24.7a10.68,10.68,0,0,0-.34,1.41,11,11,0,0,0,.37,5.2,13.26,13.26,0,0,0,1.88,3.69,14.69,14.69,0,0,0,3.53,3.52,5.31,5.31,0,0,0,.57.37s-.13-.2-.35-.57-.53-.94-.89-1.65a22.05,22.05,0,0,1-1.08-2.61,13.25,13.25,0,0,1-.7-3.36,8.65,8.65,0,0,1,.48-3.65c.11-.3.25-.59.38-.88l.23-.43c.08-.14.16-.25.24-.38l.12-.19.18-.26.18-.26.09-.13,0,0c-.08.14,0,0,0,.06h0l.05-.07.77-1q.78-1.05,1.56-2.19c.52-.76,1-1.55,1.52-2.4a18.26,18.26,0,0,0,2.32-5.88,12.52,12.52,0,0,0,.14-1.4"/><path class="cls-5" d="M90.6,453l-3.22,4.11a5.56,5.56,0,0,1,.9.66,15.84,15.84,0,0,1,2.82,3.65c.43.72.85,1.47,1.27,2.22l1.23,2.27.6,1.12a11.79,11.79,0,0,0,.74,1.23c.15.21.3.45.46.65l.47.57a10.93,10.93,0,0,0,5.63,3.45,13.6,13.6,0,0,0,4.13.34,15.25,15.25,0,0,0,3-.52,14.44,14.44,0,0,0,1.83-.64c.41-.17.62-.28.62-.28h-.68c-.43,0-1.07,0-1.87-.11a22.31,22.31,0,0,1-2.78-.45,13.58,13.58,0,0,1-3.23-1.17,8.74,8.74,0,0,1-2.85-2.33c-.2-.24-.37-.52-.55-.78l-.25-.43c-.08-.14-.13-.27-.2-.4l-.1-.21-.12-.29-.13-.28-.06-.15v0c.07.14,0,0,0,.05v0l0-.07-.48-1.2c-.31-.81-.67-1.63-1-2.47s-.78-1.7-1.24-2.55a18.27,18.27,0,0,0-3.78-5.08c-.35-.29-.72-.58-1.12-.85"/><path class="cls-3" d="M405.12,514.8s-13.64-15.21-30.25-4.72-15.92,56,10.59,54.17,27.59-35.39,19.66-49.45"/><path class="cls-3" d="M280.86,450.1c-3.72-5.62-15.26-16-25.88-7.61s-16.64,34.8,8,30.69,22.24-16.53,17.89-23.08"/><path class="cls-3" d="M337,396.22s-32.61-5.33-34.69,18.07,58.14,49.76,62.26,26.16-9.21-35.53-27.57-43.64Z"/><path class="cls-3" d="M230.9,389.14c5.17,1.82,14,7.62,10.25,19.35s-41.66,22-43.55,3.82,9.36-31.63,33.3-23.17"/><path class="cls-3" d="M312.88,589.66s8.92,22.15-7.79,28.15-38.76-24.68-21.22-34.5,23.53-1.47,29,6.35"/><path class="cls-3" d="M375.29,642s-14.71-11.68-27.49-6-14.38,34.65,5.19,33.6,28.15-12.77,22.3-27.63"/><path class="cls-3" d="M267.52,695s6.8-29.07-18-29.81-30,39.39-8.22,41.22,21.5-4.58,26.19-11.41"/><path class="cls-3" d="M183.25,670.46s6.86-15.12-4.74-15.9-17.94,9.93-11.83,14.46,11.66,6.39,16.57,1.44"/><path class="cls-3" d="M116.21,598.91s-8.46-11.47-23.32-5.09-18.44,33.5-1.46,48.36,38.74,12.34,39.32-7.84-10.1-30.74-14.54-35.43"/><path class="cls-3" d="M144.33,561.1s-5.18-10.68-12.35-6.83-8.47,17.92,2.74,18.84,13.48-4.6,9.61-12"/><path class="cls-3" d="M199.88,495.38s7.82,29.58-13,37.27S137.2,528.92,145,504.24c8.16-25.75,46.78-34,54.86-8.86"/><path class="cls-3" d="M103.83,507.61s7.78,18.58-9.07,21.83-26.9-13-16.21-23.42,19.68-11.25,25.28,1.59"/><path class="cls-3" d="M141.89,432.86s6,13.83-9.25,15.52-21.9-16.42-10.3-21.63,16.81,0,19.55,6.11"/><path class="cls-3" d="M217.7,579.26c5.55,3.58,12.58,15.5,9.09,23.31s-37.37,22.89-43.27-1.44,8.06-38.7,34.18-21.87"/><path class="cls-3" d="M308.28,512.48s-16.71-11-31.42-1-4.57,53.85,23.07,37.21,18.55-24,8.35-36.21"/><path class="cls-7" d="M366.79,428.54s1.29-17.54-21.78-29-38.31-2-37.86,15.85,57.23,46.07,59.64,13.19"/><path class="cls-8" d="M356.29,414s2.43,10.43-5.27,16.26-38.58-5.92-38.58-19.47,10.06-16.89,22.89-11.55,16.76,5.86,21,14.76"/><path class="cls-9" d="M327.72,400.77s5.31,3.53,3.06,7.11-14.37,2.86-12.64-2.63,5.21-5.74,9.58-4.48"/><path class="cls-7" d="M183,586.88s-1.67,14.07,14.29,22.24,27.22,0,27.67-14.31-38.83-34.3-42-7.93"/><path class="cls-8" d="M189.87,598s-1.29-8.22,4.45-13.21,27.25,3,26.67,13.86-7.89,13.94-16.82,10.23S192.48,605,189.87,598"/><path class="cls-9" d="M207.9,606.63s-4.33-2.89-2.5-5.81,11.74-2.35,10.33,2.14-4.26,4.69-7.83,3.67"/><path class="cls-7" d="M202.71,394s15.95-13.43,27.28-6.35,6,26.09-4.74,31.2S190.69,407.42,202.71,394"/><path class="cls-8" d="M222.36,388.69s6.08,11.75.39,19.55-21.46.85-20.75-6.68,9.84-11.67,20.36-12.87"/><path class="cls-9" d="M208.61,396s7.26,5.07,3.09,9.31S199,399.56,208.61,396"/><path class="cls-7" d="M377.48,652.55s-7.68,19.38-21,18.52S338.81,651,345.86,641.36s35.87-6.29,31.62,11.19"/><path class="cls-8" d="M362.72,666.58s-10.93-7.47-9.62-17,18.5-10.92,21.44-4-3.13,14.95-11.82,21"/><path class="cls-9" d="M371.38,653.65s-8.8-1-7.14-6.73,13.9-1,7.14,6.73"/><path class="cls-7" d="M309.75,516s6.31,22.5-6.17,30.77-29.41-5.95-29.63-19.28,27.71-30,35.8-11.49"/><path class="cls-8" d="M306.11,538.55s-14.82.76-20.14-8.66,9.08-22.29,16.43-18.08,7.36,15.45,3.71,26.74"/><path class="cls-9" d="M305.06,521.14s-8.54,5.07-10.94-1.15,11.72-10.33,10.94,1.15"/><path class="cls-7" d="M182.54,659.67s2.8,10-2.73,13.63-13-2.64-13.13-8.54,12.28-13.28,15.86-5.09"/><path class="cls-8" d="M180.93,669.65s-6.57.33-8.93-3.84,4-9.88,7.28-8,3.27,6.84,1.65,11.85"/><path class="cls-9" d="M180.46,661.93s-3.78,2.25-4.85-.51,5.2-4.57,4.85.51"/><path class="cls-7" d="M138.09,554.86s8.81,5.44,7.23,11.88-11.37,6.89-15.45,2.61,0-18.08,8.22-14.49"/><path class="cls-8" d="M143.67,563.29s-4.6,4.7-9.16,3.23-3.73-10-.08-10.83,7,2.83,9.24,7.6"/><path class="cls-9" d="M138.11,557.94s-1.27,4.21-3.92,2.91.72-6.89,3.92-2.91"/><path class="cls-7" d="M277,446.94s5,17.8-4.88,24.35-23.26-4.71-23.44-15.26,21.92-23.71,28.32-9.09"/><path class="cls-8" d="M274.12,464.76s-11.72.61-15.94-6.85,7.19-17.63,13-14.3,5.82,12.22,2.93,21.15"/><path class="cls-9" d="M273.29,451s-6.76,4-8.65-.91,9.27-8.17,8.65.91"/><path class="cls-7" d="M101.87,504.31s4.37,15.57-4.26,21.3-20.37-4.11-20.52-13.35,19.19-20.74,24.78-7.95"/><path class="cls-8" d="M99.35,519.91s-10.25.52-13.94-6,6.28-15.43,11.37-12.52,5.1,10.7,2.57,18.52"/><path class="cls-9" d="M98.62,507.86s-5.91,3.5-7.57-.8,8.11-7.15,7.57.8"/><path class="cls-7" d="M197.35,490.3c4.1,7.1,5.56,19.8-4,32.56s-35,10.22-44.25-8.83,34-48.45,48.26-23.73"/><path class="cls-8" d="M181.15,491.87c3.86,4.34,3.52,12.6,1.67,23.17s-27.31,10.47-31.54-4,16.19-34.5,29.87-19.16"/><path class="cls-9" d="M160.76,495c2.72.78,10,7.19,1.21,11.26S150.65,492.1,160.76,495"/><path class="cls-7" d="M262.8,704.81c-5.32,3.25-14.94,4.58-24.81-2.46s-8.4-26.43,5.92-33.78,37.42,24.94,18.89,36.24"/><path class="cls-8" d="M261.31,692.53c-3.22,3-9.5,2.9-17.57,1.68s-8.44-20.56,2.48-24,26.51,11.68,15.09,22.35"/><path class="cls-9" d="M258.58,677.1c-.54,2.08-5.29,7.72-8.53,1.12s10.55-8.86,8.53-1.12"/><path class="cls-7" d="M402.09,510.28s16.77,12.36,7.32,35.93-40.88,18.85-41.1-9.08,20.39-32.38,33.78-26.85"/><path class="cls-8" d="M397,512.58a37.71,37.71,0,0,1,3.08,27.63c-4.24,15.6-11.27,18.49-16.86,17s-17.8-11-12.11-31,23.58-18.84,25.89-13.59"/><path class="cls-9" d="M379.63,517.93s7.41-1.21,4.68,8.8-17.39-6-4.68-8.8"/><path class="cls-7" d="M291.79,580.21s14-2.28,21,13.58-10.31,28.93-24,15.72-6.07-25.4,3-29.3"/><path class="cls-8" d="M290.47,583.8a25.79,25.79,0,0,1,15,11.68c5.58,9.52,3.63,14.33.23,16.33s-13.86,3.43-20.91-8.89,2.06-20.49,5.72-19.12"/><path class="cls-9" d="M284.8,594.82s2.94-4.19,6.53,1.92-11.23,5.61-6.53-1.92"/><path class="cls-7" d="M142.75,432.09S143,442,131.49,445.3s-19-9.74-8.6-18,18-1.84,19.86,4.77"/><path class="cls-8" d="M140.4,430.86a17.83,17.83,0,0,1-9.4,9.21c-7.06,3-10.18,1.18-11.25-1.34s-1.09-9.85,8-13.56,13.91,3.3,12.62,5.69"/><path class="cls-9" d="M133.35,426s2.61,2.4-1.92,4.31S128.6,422,133.35,426"/><path class="cls-7" d="M102.69,592.55s22.35.58,28.49,27.13-24.41,41.67-41.75,17.22-1.91-41,13.26-44.35"/><path class="cls-8" d="M99.61,597.7a40.53,40.53,0,0,1,19.67,22.43c5.83,16.33,1.41,23.19-4.44,25.28s-22.41,1.24-29.68-19.86,9.2-31,14.45-27.85"/><path class="cls-9" d="M87.62,613.06s5.78-5.61,9.52,4.87-19,5.38-9.52-4.87"/></g></svg>